<?xml version="1.0" encoding="UTF-8"?><svg id="Layer_1" xmlns="http://www.w3.org/2000/svg" viewBox="0 0 64 64"><defs><style>.cls-1{fill:none;}.cls-2{fill:#422c01;}.cls-3,.cls-4{fill:#7d6a5a;}.cls-5{fill:#fff;}.cls-4{fill-rule:evenodd;}.cls-6{fill:#ffcc4d;}.cls-7{fill:#77b255;}.cls-8{fill:#5c913b;}.cls-9{fill:#664500;}</style></defs><g id="Bg"><rect class="cls-1" x="26.56" y="26.56" width="32" height="32" transform="translate(-17.63 42.56) rotate(-45)"/><g id="Face"><g id="Bg1"><path class="cls-8" d="M52.1,46.99c1.07-4.32-.68-5.69.24-7.82s-1.99-.11-2.5.44c-.51.55-3.61,5.37-2.62,7.53.99,2.15,4.29,2.25,4.88-.14Z"/><path class="cls-7" d="M43.24,44.35c0,.2.08.41.26.54.63.48,1.35.91,2.11,1.37,2.63,1.59,5.6,3.4,6.47,7.86.07.36.44.6.82.53.38-.07.64-.42.57-.79-.98-5.03-4.37-7.09-7.1-8.74-.73-.44-1.42-.86-1.99-1.29-.3-.23-.75-.18-.99.11-.1.12-.15.26-.16.4Z"/><path class="cls-6" d="M31.86,45.89l14-13.96c.6.44,1.18.94,1.73,1.53.03.03.06.06.1.1,3.99,4.04,3.81,9.38,2.42,12.79-.48,1.06-.12,1.98-.79,2.57-.65.58-1.95.19-2.74.41-3.8,2.05-9.39,2.06-13.58-2.18-.41-.42-.79-.84-1.14-1.26Z"/><path class="cls-7" d="M49.73,49.08s.31,2.88-3.42,4.52c-3.73,1.64-6.44-.56-8.94-.43-2.5.13-.85-1.07.38-1.75,1.24-.68,3.57-2.75,6.68-3.14,3.11-.39,4.56.17,5.3.8Z"/></g><path class="cls-4" d="M40.51,40.57h0s1.15-1.11,1.48-1.86c.18-.41.47-1.47,1.02-2.11.97-1.14,1.83-1.8,2.27-2.24.13-.13,1.07-.37,1.2-.42.3-.13.85-.73.85-.73l-9-9.02-14.14,14.15,8.99,9.01s.54-.49.67-.78c.05-.12.26-1.04.39-1.17.44-.43,1.12-1.36,2.27-2.33.65-.55,1.7-.8,2.12-.99.77-.35,1.88-1.49,1.88-1.5Z"/><g id="Features"><g id="Mouth"><path class="cls-2" d="M38.62,38.89c-1.44,1.44-2.24,2.55-3.21,3.95-.22.32-.8.8-1.54.05-1.49-1.49-1.52-5.18,1.02-7.72s6.24-2.51,7.72-1.02c.74.74.27,1.32-.05,1.54-1.4.97-2.51,1.77-3.95,3.21Z"/><path class="cls-5" d="M34.9,42.32s.79-1.59,3.18-3.98,3.98-3.18,3.98-3.18c0,0-2.39-.8-5.18,1.98s-1.98,5.18-1.98,5.18Z"/></g><g id="Eyes"><g id="Eye"><ellipse class="cls-9" cx="39.49" cy="45.51" rx="1.74" ry="2.44" transform="translate(-20.61 41.26) rotate(-45)"/></g><g id="Eye1"><ellipse class="cls-9" cx="45.24" cy="39.76" rx="1.74" ry="2.44" transform="translate(-14.87 43.64) rotate(-45)"/></g></g></g></g></g><rect class="cls-3" x="6.69" y="-6.91" width="20.01" height="47.23" transform="translate(40.31 16.71) rotate(135)"/><rect class="cls-3" x="-26.92" y="-40.82" width="20.01" height="47.83" transform="translate(-40.83 -16.9) rotate(135)"/><rect class="cls-3" x="1.24" y="-42.76" width="20.01" height="63.04" transform="translate(-4.65 -11.24) rotate(45)"/><rect class="cls-3" x="-26.5" y="-6.83" width="20.01" height="46.65" transform="translate(6.84 16.49) rotate(45)"/></svg>