<?xml version="1.0" encoding="UTF-8"?><svg id="Layer_1" xmlns="http://www.w3.org/2000/svg" viewBox="0 0 64 64"><defs><style>.cls-1{fill:none;}.cls-2{fill:#422c01;}.cls-3{fill:#fff;}.cls-4{fill:#7d6a5a;fill-rule:evenodd;}.cls-5{fill:#ffcc4d;}.cls-6{fill:#77b255;}.cls-7{fill:#5c913b;}.cls-8{fill:#664500;}</style></defs><g id="Bg"><rect class="cls-1" x="0" y="-64" width="64" height="64"/></g><g id="Face"><g id="Bg1"><path class="cls-6" d="M30.34-28.51c-.3.28-.46.69-.4,1.14.22,1.57.62,3.2,1.04,4.93,1.46,5.96,3.12,12.73-1.96,20.27-.41.62-.23,1.47.41,1.92.64.44,1.5.3,1.91-.31,5.73-8.5,3.84-16.21,2.32-22.39-.41-1.66-.79-3.22-.99-4.64-.1-.76-.8-1.32-1.56-1.25-.31.03-.58.15-.78.34Z"/></g></g><g id="Face-2"><path class="cls-4" d="M32.48,96.77h0s2.3-2.21,2.97-3.73c.36-.81.95-2.94,2.04-4.23,1.95-2.29,3.67-3.6,4.53-4.48.26-.27,2.14-.73,2.39-.84.6-.26,1.7-1.45,1.7-1.45L13.97,49.85l-28.28,28.3,32.13,32.16s1.09-.98,1.33-1.57c.1-.24.52-2.07.79-2.34.88-.86,2.24-2.71,4.54-4.67,1.29-1.1,3.41-1.61,4.24-1.98,1.55-.69,3.76-2.99,3.76-2.99Z"/></g><g id="Face-3"><path class="cls-4" d="M-32.86,31.23h0s-2.3,2.21-2.97,3.73c-.36.81-.95,2.94-2.04,4.23-1.95,2.29-3.67,3.6-4.53,4.48-.26.27-2.14.73-2.39.84-.6.26-1.7,1.45-1.7,1.45L-14.35,78.15l28.28-28.3L-18.19,17.69s-1.09.98-1.33,1.57c-.1.24-.52,2.07-.79,2.34-.88.86-2.24,2.71-4.54,4.67-1.29,1.1-3.41,1.61-4.24,1.98-1.55.69-3.76,2.99-3.76,2.99Z"/></g><g id="Face-4"><g id="Bg1-2"><path class="cls-7" d="M45.43,8.15c-8.65-2.13-11.39,1.36-15.64-.47-4.25-1.83-.23,3.98.87,5,1.1,1.02,10.75,7.21,15.05,5.24,4.3-1.98,4.5-8.58-.28-9.76Z"/><path class="cls-6" d="M40.13,25.87c.41.02.82-.16,1.09-.52.96-1.26,1.83-2.7,2.75-4.22,3.18-5.25,6.79-11.2,15.72-12.95.73-.14,1.2-.88,1.06-1.65-.14-.77-.85-1.27-1.57-1.13-10.06,1.96-14.17,8.74-17.48,14.19-.88,1.46-1.72,2.83-2.59,3.98-.46.61-.36,1.5.22,1.99.24.2.52.3.8.31Z"/><path class="cls-5" d="M43.22,48.64L15.31,20.64c.87-1.21,1.89-2.37,3.06-3.46.07-.06.13-.13.19-.19,8.08-7.99,18.76-7.61,25.59-4.85,2.12.96,3.95.24,5.13,1.57,1.16,1.3.37,3.9.83,5.49,4.1,7.59,4.13,18.77-4.35,27.16-.83.82-1.67,1.58-2.53,2.27Z"/><path class="cls-6" d="M49.6,12.9s5.75-.62,9.03,6.85c3.28,7.47-1.12,12.87-.86,17.87.26,5.01-2.15,1.71-3.5-.76-1.35-2.47-5.5-7.13-6.28-13.35-.79-6.22.33-9.13,1.61-10.61Z"/></g><path class="cls-4" d="M32.58,31.33h0s-2.22-2.31-3.74-2.97c-.81-.36-2.94-.95-4.23-2.04-2.29-1.95-3.6-3.67-4.48-4.53-.27-.26-.73-2.14-.84-2.39-.26-.6-1.45-1.7-1.45-1.7L-14.34,49.84l28.3,28.28,32.16-32.13s-.98-1.09-1.57-1.33c-.24-.1-2.07-.52-2.34-.79-.86-.88-2.71-2.24-4.67-4.54-1.1-1.29-1.61-3.41-1.98-4.24-.69-1.55-2.99-3.76-2.99-3.76Z"/><g id="Features"><g id="Mouth"><path class="cls-2" d="M29.22,35.1c2.88,2.88,5.11,4.48,7.9,6.41.64.44,1.59,1.59.1,3.08-2.98,2.98-10.36,3.05-15.45-2.04s-5.02-12.47-2.04-15.45c1.49-1.49,2.64-.54,3.08.1,1.93,2.79,3.53,5.02,6.41,7.9Z"/><path class="cls-3" d="M36.09,42.56s-3.18-1.59-7.96-6.36-6.36-7.96-6.36-7.96c0,0-1.6,4.78,3.96,10.35,5.57,5.57,10.35,3.96,10.35,3.96Z"/></g><g id="Eyes"><g id="Eye"><ellipse class="cls-8" cx="42.46" cy="33.36" rx="4.88" ry="3.49" transform="translate(-11.16 39.8) rotate(-45)"/></g><g id="Eye1"><ellipse class="cls-8" cx="30.97" cy="21.87" rx="4.88" ry="3.49" transform="translate(-6.39 28.3) rotate(-45)"/></g></g></g></g><g id="Face-5"><path class="cls-4" d="M-32.95,96.67h0s2.22,2.31,3.74,2.97c.81.36,2.94.95,4.23,2.04,2.29,1.95,3.6,3.67,4.48,4.53.27.26.73,2.14.84,2.39.26.6,1.45,1.7,1.45,1.7L13.96,78.16l-28.3-28.28-32.16,32.13s.98,1.09,1.57,1.33c.24.1,2.07.52,2.34.79.86.88,2.71,2.24,4.67,4.54,1.1,1.29,1.61,3.41,1.98,4.24.69,1.55,2.99,3.76,2.99,3.76Z"/></g></svg>