<?xml version="1.0" encoding="UTF-8"?><svg id="Layer_1" xmlns="http://www.w3.org/2000/svg" viewBox="0 0 64 64"><defs><style>.cls-1{fill:#422c01;}.cls-2{fill:#fff;}.cls-3{fill:#7d6a5a;fill-rule:evenodd;}.cls-4{fill:#ffcc4d;}.cls-5{fill:#77b255;}.cls-6{fill:#5c913b;}.cls-7{fill:#664500;}</style></defs><g id="Face"><g id="Bg1"><path class="cls-6" d="M55.66,45.62c2.13-8.65-1.36-11.39.47-15.64,1.83-4.25-3.98-.23-5,.87-1.02,1.1-7.21,10.75-5.24,15.05,1.98,4.3,8.58,4.5,9.76-.28Z"/><path class="cls-5" d="M37.94,40.32c-.02.41.16.82.52,1.09,1.26.96,2.7,1.83,4.22,2.75,5.25,3.18,11.2,6.79,12.95,15.72.14.73.88,1.2,1.65,1.06.77-.14,1.27-.85,1.13-1.57-1.96-10.06-8.74-14.17-14.19-17.48-1.46-.88-2.83-1.72-3.98-2.59-.61-.46-1.5-.36-1.99.22-.2.24-.3.52-.31.8Z"/><path class="cls-4" d="M15.17,43.41l27.99-27.91c1.21.87,2.37,1.89,3.46,3.06.06.07.13.13.19.19,7.99,8.08,7.61,18.76,4.85,25.59-.96,2.12-.24,3.95-1.57,5.13-1.3,1.16-3.9.37-5.49.83-7.59,4.1-18.77,4.13-27.16-4.35-.82-.83-1.58-1.67-2.27-2.53Z"/><path class="cls-5" d="M50.91,49.79s.62,5.75-6.85,9.03c-7.47,3.28-12.87-1.12-17.87-.86-5.01.26-1.71-2.15.76-3.5,2.47-1.35,7.13-5.5,13.35-6.28,6.22-.79,9.13.33,10.61,1.61Z"/></g><path class="cls-3" d="M32.48,32.77h0s2.3-2.21,2.97-3.73c.36-.81.95-2.94,2.04-4.23,1.95-2.29,3.67-3.6,4.53-4.48.26-.27,2.14-.73,2.39-.84.6-.26,1.7-1.45,1.7-1.45L13.97-14.15-14.31,14.15,17.81,46.31s1.09-.98,1.33-1.57c.1-.24.52-2.07.79-2.34.88-.86,2.24-2.71,4.54-4.67,1.29-1.1,3.41-1.61,4.24-1.98,1.55-.69,3.76-2.99,3.76-2.99Z"/><g id="Features"><g id="Mouth"><path class="cls-1" d="M28.71,29.41c-2.88,2.88-4.48,5.11-6.41,7.9-.44.64-1.59,1.59-3.08.1-2.98-2.98-3.05-10.36,2.04-15.45s12.47-5.02,15.45-2.04c1.49,1.49.54,2.64-.1,3.08-2.79,1.93-5.02,3.53-7.9,6.41Z"/><path class="cls-2" d="M21.25,36.28s1.59-3.18,6.36-7.96,7.96-6.36,7.96-6.36c0,0-4.78-1.6-10.35,3.96-5.57,5.57-3.96,10.35-3.96,10.35Z"/></g><g id="Eyes"><g id="Eye"><ellipse class="cls-7" cx="30.45" cy="42.65" rx="3.49" ry="4.88" transform="translate(-21.24 34.02) rotate(-45)"/></g><g id="Eye1"><ellipse class="cls-7" cx="41.94" cy="31.15" rx="3.49" ry="4.88" transform="translate(-9.75 38.78) rotate(-45)"/></g></g></g></g><g id="Face-2"><path class="cls-3" d="M-32.86-32.77h0s-2.3,2.21-2.97,3.73c-.36.81-.95,2.94-2.04,4.23-1.95,2.29-3.67,3.6-4.53,4.48-.26.27-2.14.73-2.39.84-.6.26-1.7,1.45-1.7,1.45L-14.35,14.15,13.93-14.15-18.19-46.31s-1.09.98-1.33,1.57c-.1.24-.52,2.07-.79,2.34-.88.86-2.24,2.71-4.54,4.67-1.29,1.1-3.41,1.61-4.24,1.98-1.55.69-3.76,2.99-3.76,2.99Z"/></g><g id="Face-3"><path class="cls-3" d="M32.58-32.67h0s-2.22-2.31-3.74-2.97c-.81-.36-2.94-.95-4.23-2.04-2.29-1.95-3.6-3.67-4.48-4.53-.27-.26-.73-2.14-.84-2.39-.26-.6-1.45-1.7-1.45-1.7L-14.34-14.16,13.96,14.12,46.12-18s-.98-1.09-1.57-1.33c-.24-.1-2.07-.52-2.34-.79-.86-.88-2.71-2.24-4.67-4.54-1.1-1.29-1.61-3.41-1.98-4.24-.69-1.55-2.99-3.76-2.99-3.76Z"/></g><g id="Face-4"><path class="cls-3" d="M-32.95,32.67h0s2.22,2.31,3.74,2.97c.81.36,2.94.95,4.23,2.04,2.29,1.95,3.6,3.67,4.48,4.53.27.26.73,2.14.84,2.39.26.6,1.45,1.7,1.45,1.7L13.96,14.16-14.34-14.12-46.5,18s.98,1.09,1.57,1.33c.24.1,2.07.52,2.34.79.86.88,2.71,2.24,4.67,4.54,1.1,1.29,1.61,3.41,1.98,4.24.69,1.55,2.99,3.76,2.99,3.76Z"/></g></svg>