<?xml version="1.0" encoding="UTF-8"?><svg id="Layer_1" xmlns="http://www.w3.org/2000/svg" viewBox="0 0 64 64"><defs><style>.cls-1{fill:none;}.cls-2{fill:#422c01;}.cls-3,.cls-4{fill:#7d6a5a;}.cls-5{fill:#fff;}.cls-4{fill-rule:evenodd;}.cls-6{fill:#ffcc4d;}.cls-7{fill:#77b255;}.cls-8{fill:#5c913b;}.cls-9{fill:#664500;}</style></defs><g id="Bg"><rect class="cls-1" x="16" y="4.78" width="32" height="32"/><g id="Face"><g id="Bg1"><path class="cls-8" d="M28.39,10.9c-3.81,2.3-3.55,4.51-5.7,5.36s1.33,1.49,2.07,1.46c.75-.03,6.35-1.25,7.17-3.47.82-2.22-1.44-4.63-3.55-3.35Z"/><path class="cls-7" d="M32.78,19.04c.15-.14.23-.35.2-.57-.11-.78-.31-1.6-.52-2.46-.73-2.98-1.56-6.36.98-10.14.21-.31.11-.74-.21-.96-.32-.22-.75-.15-.96.16-2.86,4.25-1.92,8.1-1.16,11.2.2.83.39,1.61.49,2.32.05.38.4.66.78.63.15-.01.29-.08.39-.17Z"/><path class="cls-6" d="M41.92,25.99l-19.77-.03c-.12-.74-.17-1.5-.14-2.3,0-.05,0-.09,0-.14.03-5.68,3.94-9.32,7.33-10.76,1.09-.41,1.48-1.31,2.37-1.26.87.05,1.51,1.25,2.23,1.65,4.13,1.23,8.1,5.18,8.06,11.14,0,.58-.03,1.15-.09,1.7Z"/><path class="cls-7" d="M31.54,11.1s1.82-2.25,5.61-.77c3.8,1.48,4.16,4.95,6.02,6.62,1.86,1.68-.16,1.36-1.51.97-1.35-.4-4.47-.58-6.94-2.5-2.48-1.92-3.11-3.34-3.18-4.32Z"/></g><path class="cls-4" d="M32.04,23.64h0s-1.6-.04-2.37.27c-.41.16-1.37.7-2.22.77-1.5.12-2.57-.02-3.18-.02-.19,0-1.02-.5-1.14-.55-.3-.12-1.11-.09-1.11-.09v12.75s19.99,0,19.99,0v-12.73s-.72-.04-1.02.08c-.12.05-.92.55-1.11.55-.62,0-1.75.17-3.26.04-.85-.07-1.77-.64-2.2-.8-.79-.3-2.39-.27-2.39-.27Z"/><g id="Features"><g id="Mouth"><path class="cls-2" d="M32.19,26.16c2.04,0,3.39-.22,5.06-.53.38-.07,1.12,0,1.12,1.05,0,2.11-2.58,4.74-6.18,4.74s-6.18-2.63-6.18-4.74c0-1.05.74-1.12,1.12-1.05,1.67.3,3.02.53,5.06.53Z"/><path class="cls-5" d="M37.25,26.37s-1.69.56-5.06.56-5.06-.56-5.06-.56c0,0,1.12,2.26,5.06,2.26s5.06-2.26,5.06-2.26Z"/></g><g id="Eyes"><g id="Eye"><ellipse class="cls-9" cx="36.25" cy="20.86" rx="1.74" ry="2.44"/></g><g id="Eye1"><ellipse class="cls-9" cx="28.13" cy="20.86" rx="1.74" ry="2.44"/></g></g></g></g></g><rect class="cls-3" x="22" y="33.55" width="20.01" height="61.51"/></svg>