<?xml version="1.0" encoding="UTF-8"?><svg id="Layer_1" xmlns="http://www.w3.org/2000/svg" viewBox="0 0 64 64"><defs><style>.cls-1{fill:none;}.cls-2{fill:#422c01;}.cls-3,.cls-4{fill:#7d6a5a;}.cls-5{fill:#fff;}.cls-4{fill-rule:evenodd;}.cls-6{fill:#ffcc4d;}.cls-7{fill:#77b255;}.cls-8{fill:#5c913b;}.cls-9{fill:#664500;}</style></defs><rect class="cls-3" x="65.35" y="16.13" width="20.01" height="31.74" transform="translate(107.36 -43.36) rotate(90)"/><g id="Bg"><rect class="cls-1" x="4.78" y="16" width="32" height="32"/><g id="Face"><g id="Bg1"><path class="cls-8" d="M10.9,28.39c2.3-3.81,4.51-3.55,5.36-5.7s1.49,1.33,1.46,2.07c-.03.75-1.25,6.35-3.47,7.17-2.22.82-4.63-1.44-3.35-3.55Z"/><path class="cls-7" d="M19.04,32.78c-.14.15-.35.23-.57.2-.78-.11-1.6-.31-2.46-.52-2.98-.73-6.36-1.56-10.14.98-.31.21-.74.11-.96-.21-.22-.32-.15-.75.16-.96,4.25-2.86,8.1-1.92,11.2-1.16.83.2,1.61.39,2.32.49.38.05.66.4.63.78-.01.15-.08.29-.17.39Z"/><path class="cls-6" d="M25.99,41.92l-.03-19.77c-.74-.12-1.5-.17-2.3-.14-.05,0-.09,0-.14,0-5.68.03-9.32,3.94-10.76,7.33-.41,1.09-1.31,1.48-1.26,2.37.05.87,1.25,1.51,1.65,2.23,1.23,4.13,5.18,8.1,11.14,8.06.58,0,1.15-.03,1.7-.09Z"/><path class="cls-7" d="M11.1,31.54s-2.25,1.82-.77,5.61c1.48,3.8,4.95,4.16,6.62,6.02,1.68,1.86,1.36-.16.97-1.51-.4-1.35-.58-4.47-2.5-6.94-1.92-2.48-3.34-3.11-4.32-3.18Z"/></g><path class="cls-4" d="M23.64,32.04h0s-.03-1.6.27-2.37c.16-.41.7-1.37.77-2.22.12-1.5-.02-2.57-.02-3.18,0-.19-.5-1.02-.55-1.14-.12-.3-.09-1.11-.09-1.11h12.75s0,19.99,0,19.99h-12.73s-.04-.72.08-1.02c.05-.12.55-.92.55-1.11,0-.62.17-1.75.04-3.26-.07-.85-.64-1.77-.8-2.2-.3-.79-.27-2.39-.27-2.39Z"/><g id="Features"><g id="Mouth"><path class="cls-2" d="M26.16,32.19c0,2.04-.22,3.39-.53,5.06-.07.38,0,1.12,1.05,1.12,2.11,0,4.74-2.58,4.74-6.18s-2.63-6.18-4.74-6.18c-1.05,0-1.12.74-1.05,1.12.3,1.67.53,3.02.53,5.06Z"/><path class="cls-5" d="M26.37,37.25s.56-1.69.56-5.06-.56-5.06-.56-5.06c0,0,2.26,1.12,2.26,5.06s-2.26,5.06-2.26,5.06Z"/></g><g id="Eyes"><g id="Eye"><ellipse class="cls-9" cx="20.86" cy="36.25" rx="2.44" ry="1.74"/></g><g id="Eye1"><ellipse class="cls-9" cx="20.86" cy="28.13" rx="2.44" ry="1.74"/></g></g></g></g></g><rect class="cls-3" x="54.19" y="1.13" width="20.01" height="61.73" transform="translate(96.2 -32.2) rotate(90)"/></svg>