<?xml version="1.0" encoding="UTF-8"?><svg id="Layer_1" xmlns="http://www.w3.org/2000/svg" viewBox="0 0 64 64"><defs><style>.cls-1{fill:none;}.cls-2{fill:#422c01;}.cls-3{fill:#fff;}.cls-4{fill:#7d6a5a;fill-rule:evenodd;}.cls-5{fill:#ffcc4d;}.cls-6{fill:#77b255;}.cls-7{fill:#5c913b;}.cls-8{fill:#664500;}</style></defs><g id="Bg"><rect class="cls-1" x="64" y="0" width="64" height="64"/></g><g id="Bg-2"><rect class="cls-1" x="0" y="0" width="64" height="64"/><g id="Face"><g id="Bg1"><path class="cls-7" d="M12.25,39.22c4.61,7.62,9.02,7.09,10.73,11.39s2.98-2.65,2.92-4.15c-.06-1.5-2.5-12.7-6.94-14.34-4.44-1.65-9.25,2.89-6.71,7.1Z"/><path class="cls-6" d="M28.52,30.43c-.28-.3-.69-.46-1.14-.4-1.57.22-3.2.62-4.93,1.04-5.96,1.46-12.73,3.12-20.27-1.96-.62-.41-1.47-.23-1.92.41-.44.64-.3,1.5.31,1.91,8.5,5.73,16.21,3.84,22.39,2.32,1.66-.41,3.22-.79,4.64-.99.76-.1,1.32-.8,1.25-1.56-.03-.31-.15-.58-.34-.78Z"/><path class="cls-5" d="M42.43,12.15l-.06,39.53c-1.47.24-3.01.34-4.61.28-.09,0-.18,0-.27,0-11.36-.07-18.65-7.88-21.52-14.66-.82-2.17-2.62-2.97-2.52-4.74.1-1.74,2.49-3.02,3.3-4.47,2.47-8.27,10.35-16.19,22.28-16.13,1.17,0,2.3.06,3.39.18Z"/><path class="cls-6" d="M12.66,32.91s-4.5-3.63-1.54-11.23c2.96-7.6,9.89-8.31,13.24-12.03,3.35-3.73,2.73.31,1.94,3.01-.79,2.7-1.16,8.93-5,13.89-3.84,4.96-6.69,6.22-8.64,6.36Z"/></g><path class="cls-4" d="M37.73,31.92h-.01s-.06,3.2.54,4.74c.32.83,1.41,2.75,1.54,4.43.24,2.99-.05,5.14-.04,6.37,0,.38-1,2.03-1.1,2.29-.24.61-.18,2.23-.18,2.23l25.5.03V11.99s-25.47-.02-25.47-.02c0,0-.08,1.46.17,2.05.1.25,1.1,1.83,1.1,2.21-.01,1.23.33,3.5.09,6.51-.14,1.69-1.27,3.55-1.6,4.4-.6,1.58-.55,4.77-.55,4.78Z"/><g id="Features"><g id="Mouth"><path class="cls-2" d="M42.76,31.62c0-4.07-.44-6.78-1.05-10.12-.14-.76,0-2.25,2.11-2.25,4.21,0,9.48,5.17,9.48,12.37s-5.27,12.37-9.48,12.37c-2.11,0-2.25-1.49-2.11-2.25.61-3.34,1.05-6.05,1.05-10.12Z"/><path class="cls-3" d="M43.18,21.5s1.13,3.37,1.13,10.12-1.13,10.12-1.13,10.12c0,0,4.52-2.25,4.52-10.12s-4.52-10.12-4.52-10.12Z"/></g><g id="Eyes"><g id="Eye"><ellipse class="cls-8" cx="32.17" cy="23.49" rx="4.88" ry="3.49"/></g><g id="Eye1"><ellipse class="cls-8" cx="32.17" cy="39.75" rx="4.88" ry="3.49"/></g></g></g></g></g></svg>