<?xml version="1.0" encoding="UTF-8"?><svg id="Layer_1" xmlns="http://www.w3.org/2000/svg" viewBox="0 0 64 64"><defs><style>.cls-1{fill:none;}.cls-2{fill:#422c01;}.cls-3,.cls-4{fill:#7d6a5a;}.cls-5{fill:#fff;}.cls-4{fill-rule:evenodd;}.cls-6{fill:#ffcc4d;}.cls-7{fill:#77b255;}.cls-8{fill:#5c913b;}.cls-9{fill:#664500;}</style></defs><rect class="cls-3" x="70.69" y="57.09" width="20.01" height="47.23" transform="translate(194.82 80.71) rotate(135)"/><g id="Bg"><rect class="cls-1" x="5.44" y="5.44" width="32" height="32" transform="translate(-8.88 21.44) rotate(-45)"/><g id="Face"><g id="Bg1"><path class="cls-8" d="M17.01,11.9c4.32-1.07,5.69.68,7.82-.24s.11,1.99-.44,2.5c-.55.51-5.37,3.61-7.53,2.62-2.15-.99-2.25-4.29.14-4.88Z"/><path class="cls-7" d="M19.65,20.76c-.2,0-.41-.08-.54-.26-.48-.63-.91-1.35-1.37-2.11-1.59-2.63-3.4-5.6-7.86-6.47-.36-.07-.6-.44-.53-.82.07-.38.42-.64.79-.57,5.03.98,7.09,4.37,8.74,7.1.44.73.86,1.42,1.29,1.99.23.3.18.75-.11.99-.12.1-.26.15-.4.16Z"/><path class="cls-6" d="M18.11,32.14l13.96-14c-.44-.6-.94-1.18-1.53-1.73-.03-.03-.06-.06-.1-.1-4.04-3.99-9.38-3.81-12.79-2.42-1.06.48-1.98.12-2.57.79-.58.65-.19,1.95-.41,2.74-2.05,3.8-2.06,9.39,2.18,13.58.42.41.84.79,1.26,1.14Z"/><path class="cls-7" d="M14.92,14.27s-2.88-.31-4.52,3.42c-1.64,3.73.56,6.44.43,8.94-.13,2.5,1.07.85,1.75-.38.68-1.24,2.75-3.57,3.14-6.68.39-3.11-.17-4.56-.8-5.3Z"/></g><path class="cls-4" d="M23.43,23.49h0s1.11-1.16,1.87-1.49c.41-.18,1.47-.47,2.11-1.02,1.14-.97,1.8-1.83,2.24-2.27.13-.13.37-1.07.42-1.2.13-.3.73-.85.73-.85l9.02,9-14.15,14.14-9.01-8.99s.49-.54.78-.67c.12-.05,1.04-.26,1.17-.39.43-.44,1.36-1.12,2.33-2.27.55-.65.8-1.7.99-2.12.35-.77,1.49-1.88,1.5-1.88Z"/><g id="Features"><g id="Mouth"><path class="cls-2" d="M25.11,25.38c-1.44,1.44-2.55,2.24-3.95,3.21-.32.22-.8.8-.05,1.54,1.49,1.49,5.18,1.52,7.72-1.02s2.51-6.24,1.02-7.72c-.74-.74-1.32-.27-1.54.05-.97,1.4-1.77,2.51-3.21,3.95Z"/><path class="cls-5" d="M21.68,29.1s1.59-.79,3.98-3.18,3.18-3.98,3.18-3.98c0,0,.8,2.39-1.98,5.18s-5.18,1.98-5.18,1.98Z"/></g><g id="Eyes"><g id="Eye"><ellipse class="cls-9" cx="18.49" cy="24.51" rx="1.74" ry="2.44" transform="translate(-11.91 20.25) rotate(-45)"/></g><g id="Eye1"><ellipse class="cls-9" cx="24.24" cy="18.76" rx="1.74" ry="2.44" transform="translate(-6.17 22.63) rotate(-45)"/></g></g></g></g></g><rect class="cls-3" x="37.08" y="23.18" width="20.01" height="47.83" transform="translate(113.68 47.1) rotate(135)"/><rect class="cls-3" x="65.24" y="21.24" width="20.01" height="63.04" transform="translate(59.35 -37.75) rotate(45)"/><rect class="cls-3" x="37.5" y="57.17" width="20.01" height="46.65" transform="translate(70.84 -10.02) rotate(45)"/></svg>