<?xml version="1.0" encoding="UTF-8"?><svg id="Layer_1" xmlns="http://www.w3.org/2000/svg" viewBox="0 0 64 64"><defs><style>.cls-1{fill:none;}.cls-2{fill:#422c01;}.cls-3{fill:#fff;}.cls-4{fill:#7d6a5a;fill-rule:evenodd;}.cls-5{fill:#ffcc4d;}.cls-6{fill:#77b255;}.cls-7{fill:#5c913b;}.cls-8{fill:#664500;}</style></defs><g id="Bg"><rect class="cls-1" x="0" y="0" width="64" height="64"/><g id="Face"><g id="Bg1"><path class="cls-7" d="M24.78,12.25c-7.62,4.61-7.09,9.02-11.39,10.73s2.65,2.98,4.15,2.92c1.5-.06,12.7-2.5,14.34-6.94,1.65-4.44-2.89-9.25-7.1-6.71Z"/><path class="cls-6" d="M33.57,28.52c.3-.28.46-.69.4-1.14-.22-1.57-.62-3.2-1.04-4.93-1.46-5.96-3.12-12.73,1.96-20.27.41-.62.23-1.47-.41-1.92-.64-.44-1.5-.3-1.91.31-5.73,8.5-3.84,16.21-2.32,22.39.41,1.66.79,3.22.99,4.64.1.76.8,1.32,1.56,1.25.31-.03.58-.15.78-.34Z"/><path class="cls-5" d="M51.85,42.43l-39.53-.06c-.24-1.47-.34-3.01-.28-4.61,0-.09,0-.18,0-.27.07-11.36,7.88-18.65,14.66-21.52,2.17-.82,2.97-2.62,4.74-2.52,1.74.1,3.02,2.49,4.47,3.3,8.27,2.47,16.19,10.35,16.13,22.28,0,1.17-.06,2.3-.18,3.39Z"/><path class="cls-6" d="M31.09,12.66s3.63-4.5,11.23-1.54c7.6,2.96,8.31,9.89,12.03,13.24,3.73,3.35-.31,2.73-3.01,1.94-2.7-.79-8.93-1.16-13.89-5-4.96-3.84-6.22-6.69-6.36-8.64Z"/></g><path class="cls-4" d="M32.08,37.73h0s-3.2-.07-4.74.53c-.83.32-2.75,1.41-4.43,1.54-2.99.24-5.14-.05-6.37-.04-.38,0-2.03-1-2.29-1.1-.61-.24-2.23-.18-2.23-.18l-.03,25.5h40.01s.02-25.47.02-25.47c0,0-1.46-.08-2.05.17-.25.1-1.83,1.1-2.21,1.1-1.23-.01-3.5.33-6.51.09-1.69-.14-3.55-1.27-4.4-1.6-1.58-.6-4.77-.55-4.78-.55Z"/><g id="Features"><g id="Mouth"><path class="cls-2" d="M32.38,42.76c4.07,0,6.78-.44,10.12-1.05.76-.14,2.25,0,2.25,2.11,0,4.21-5.17,9.48-12.37,9.48s-12.37-5.27-12.37-9.48c0-2.11,1.49-2.25,2.25-2.11,3.34.61,6.05,1.05,10.12,1.05Z"/><path class="cls-3" d="M42.5,43.18s-3.37,1.13-10.12,1.13-10.12-1.13-10.12-1.13c0,0,2.25,4.52,10.12,4.52s10.12-4.52,10.12-4.52Z"/></g><g id="Eyes"><g id="Eye"><ellipse class="cls-8" cx="40.51" cy="32.17" rx="3.49" ry="4.88"/></g><g id="Eye1"><ellipse class="cls-8" cx="24.25" cy="32.17" rx="3.49" ry="4.88"/></g></g></g></g></g><g id="Bg-2"><rect class="cls-1" x="0" y="64" width="64" height="64"/></g><g id="Face-2"><g id="Bg1-2"><path class="cls-7" d="M24.66,12.27c-7.62,4.61-7.09,9.02-11.39,10.73-4.3,1.71,2.65,2.98,4.15,2.92,1.5-.06,12.7-2.5,14.34-6.94,1.65-4.44-2.89-9.25-7.1-6.71Z"/><path class="cls-6" d="M33.45,28.54c.3-.28.46-.69.4-1.14-.22-1.57-.62-3.2-1.04-4.93-1.46-5.96-3.12-12.73,1.96-20.27.41-.62.23-1.47-.41-1.92-.64-.44-1.5-.3-1.91.31-5.73,8.5-3.84,16.21-2.32,22.39.41,1.66.79,3.22.99,4.64.1.76.8,1.32,1.56,1.25.31-.03.58-.15.78-.34Z"/><path class="cls-5" d="M51.73,42.45l-39.53-.06c-.24-1.47-.34-3.01-.28-4.61,0-.09,0-.18,0-.27.07-11.36,7.88-18.65,14.66-21.52,2.17-.82,2.97-2.62,4.74-2.52,1.74.1,3.02,2.49,4.47,3.3,8.27,2.47,16.19,10.35,16.13,22.28,0,1.17-.06,2.3-.18,3.39Z"/><path class="cls-6" d="M30.97,12.67s3.63-4.5,11.23-1.54c7.6,2.96,8.31,9.89,12.03,13.24,3.73,3.35-.31,2.73-3.01,1.94-2.7-.79-8.93-1.16-13.89-5-4.96-3.84-6.22-6.69-6.36-8.64Z"/></g><path class="cls-4" d="M31.96,37.74h0s-3.2-.07-4.74.53c-.83.32-2.75,1.41-4.43,1.54-2.99.24-5.14-.05-6.37-.04-.38,0-2.03-1-2.29-1.1-.61-.24-2.23-.18-2.23-.18l-.03,25.5h40.01s.02-25.47.02-25.47c0,0-1.46-.08-2.05.17-.25.1-1.83,1.1-2.21,1.1-1.23-.01-3.5.33-6.51.09-1.69-.14-3.55-1.27-4.4-1.6-1.58-.6-4.77-.55-4.78-.55Z"/><g id="Features-2"><g id="Mouth-2"><path class="cls-2" d="M32.26,42.78c4.07,0,6.78-.44,10.12-1.05.76-.14,2.25,0,2.25,2.11,0,4.21-5.17,9.48-12.37,9.48s-12.37-5.27-12.37-9.48c0-2.11,1.49-2.25,2.25-2.11,3.34.61,6.05,1.05,10.12,1.05Z"/><path class="cls-3" d="M42.38,43.2s-3.37,1.13-10.12,1.13-10.12-1.13-10.12-1.13c0,0,2.25,4.52,10.12,4.52,7.87,0,10.12-4.52,10.12-4.52Z"/></g><g id="Eyes-2"><g id="Eye-2"><ellipse class="cls-8" cx="40.39" cy="32.19" rx="3.49" ry="4.88"/></g><g id="Eye1-2"><ellipse class="cls-8" cx="24.13" cy="32.19" rx="3.49" ry="4.88"/></g></g></g></g></svg>