<?xml version="1.0" encoding="UTF-8"?><svg id="Layer_1" xmlns="http://www.w3.org/2000/svg" viewBox="0 0 64 64"><defs><style>.cls-1{fill:none;}.cls-2{fill:#83af60;}.cls-3{fill:#f6cd64;}.cls-4{fill:#614613;}.cls-5{fill:#688f47;}.cls-6{fill:#fff;}.cls-7{fill:#3f2d0a;}.cls-8{fill:#7a6b5c;fill-rule:evenodd;}</style></defs><g id="lemon_final"><rect class="cls-1" x="19.33" y="19.33" width="25.35" height="25.35" transform="translate(-13.25 32) rotate(-45)"/><path class="cls-5" d="M36.22,21.25c3.85,2.38,3.56,4.61,5.73,5.5s-1.36,1.5-2.12,1.46c-.76-.04-6.43-1.33-7.25-3.59-.81-2.26,1.51-4.68,3.63-3.37Z"/><path class="cls-2" d="M31.68,29.47c-.15-.14-.23-.35-.2-.58.12-.79.33-1.62.55-2.5.77-3.02,1.64-6.44-.9-10.3-.21-.31-.11-.75.22-.97.33-.22.76-.15.97.17,2.87,4.34,1.87,8.24,1.07,11.37-.21.84-.42,1.63-.52,2.35-.06.38-.41.66-.8.63-.16-.01-.29-.08-.4-.18Z"/><path class="cls-3" d="M33.86,42.46s.01-.02.02-.02c4.04-1.45,8.48-2.5,8.51-8.4.02-5.71-3.87-9.41-7.27-10.88-1.09-.42-1.48-1.33-2.37-1.29-.88.04-1.53,1.24-2.26,1.64-4.17,1.2-8.19,5.13-8.21,11.12-.02,4.88,2.12,4.36,7.84,7.8,0,0,0,0,0,0l3.73.03Z"/><path class="cls-2" d="M33.02,21.43s-1.82-2.3-5.69-.84c-3.87,1.47-4.27,4.98-6.17,6.66-1.91,1.68.14,1.39,1.52,1,1.38-.39,4.54-.55,7.07-2.47,2.53-1.93,3.19-3.36,3.27-4.35Z"/><path class="cls-8" d="M39.45,42.8c2.24-2.97,2.77-6.62,2.87-7.48,0-.06,0-.13,0-.19-.06,0-.81-.04-1.11.09-.13.06-.96.62-1.15.62-.62-.01-1.7.14-3.19-.01-.84-.09-1.8-.72-2.21-.91-.77-.35-2.37-.34-2.37-.34h0s-1.6-.04-2.4.29c-.43.18-1.36.82-2.21.89-1.51.12-2.65-.08-3.26-.09-.19,0-.98-.58-1.1-.64-.3-.14-1.03-.11-1.03-.11,0,0,0,.02,0,.03.03,6.3,4.51,11.4,10.03,11.4,2.45,0,4.69-1.01,6.43-2.67.24-.28.47-.57.71-.89"/><path class="cls-7" d="M32.36,37.39c-2.09-.02-3.48-.26-5.19-.59-.39-.07-1.16-.01-1.17,1.07-.02,2.16,2.61,4.9,6.31,4.93s6.38-2.65,6.4-4.81c.01-1.08-.75-1.16-1.15-1.09-1.72.3-3.11.51-5.2.49Z"/><path class="cls-6" d="M27.16,37.55s1.73.6,5.19.63c3.47.03,5.21-.53,5.21-.53,0,0-1.18,2.31-5.22,2.27-4.04-.04-5.18-2.37-5.18-2.37Z"/><ellipse class="cls-4" cx="28.32" cy="31.49" rx="2.36" ry="1.69" transform="translate(-3.44 59.51) rotate(-89.46)"/><ellipse class="cls-4" cx="36.55" cy="31.57" rx="2.36" ry="1.69" transform="translate(4.64 67.81) rotate(-89.46)"/></g></svg>