<?xml version="1.0" encoding="UTF-8"?><svg id="Layer_1" xmlns="http://www.w3.org/2000/svg" xmlns:xlink="http://www.w3.org/1999/xlink" viewBox="0 0 64 64"><defs><style>.cls-1,.cls-2{fill:none;}.cls-3{clip-path:url(#clippath-1);}.cls-4{clip-path:url(#clippath-3);}.cls-5{clip-path:url(#clippath-4);}.cls-2{stroke:#7d6a5a;stroke-miterlimit:10;stroke-width:40px;}.cls-6{fill:#7d6a5a;fill-rule:evenodd;}.cls-7{clip-path:url(#clippath);}</style><clipPath id="clippath"><rect class="cls-1" x="-64" y="64" width="64" height="64"/></clipPath><clipPath id="clippath-1"><rect class="cls-1" x="-64" y="0" width="64" height="64" transform="translate(0 64) rotate(90)"/></clipPath><clipPath id="clippath-3"><rect class="cls-1" x="0" y="64" width="64" height="64" transform="translate(128 64) rotate(90)"/></clipPath><clipPath id="clippath-4"><rect class="cls-1" x="0" width="64" height="64" transform="translate(0 64) rotate(-90)"/></clipPath></defs><g class="cls-7"><path class="cls-6" d="M-49.86,142.14c22.36-22.36,64-64,64-64l-28.28-28.28s-41.64,41.64-64,64"/></g><g class="cls-3"><path class="cls-6" d="M-78.14,14.14c22.36,22.36,64,64,64,64l28.28-28.28S-27.5,8.22-49.86-14.14"/></g><g class="cls-4"><path class="cls-2" d="M0,64l14.43,14.43c9.7,9.7,25.44,9.7,35.14,0l14.43-14.43"/></g><g class="cls-5"><path class="cls-2" d="M0,64l14.43-14.43c9.7-9.7,25.44-9.7,35.14,0l14.43,14.43"/></g></svg>