<?xml version="1.0" encoding="UTF-8"?><svg id="Layer_1" xmlns="http://www.w3.org/2000/svg" xmlns:xlink="http://www.w3.org/1999/xlink" viewBox="0 0 64 64"><defs><style>.cls-1,.cls-2{fill:none;}.cls-3{clip-path:url(#clippath-1);}.cls-4{clip-path:url(#clippath-3);}.cls-5{clip-path:url(#clippath-4);}.cls-6{clip-path:url(#clippath-2);}.cls-7{clip-path:url(#clippath-5);}.cls-2{stroke:#7d6a5a;stroke-miterlimit:10;stroke-width:40px;}.cls-8{fill:#7d6a5a;fill-rule:evenodd;}.cls-9{clip-path:url(#clippath);}</style><clipPath id="clippath"><rect class="cls-1" y="64" width="64" height="64"/></clipPath><clipPath id="clippath-1"><rect class="cls-1" y="0" width="64" height="64" transform="translate(64 0) rotate(90)"/></clipPath><clipPath id="clippath-2"><rect class="cls-1" x="-64" y="0" width="64" height="64"/></clipPath><clipPath id="clippath-3"><rect class="cls-1" x="-64" y="64" width="64" height="64"/></clipPath><clipPath id="clippath-4"><rect class="cls-1" x="64" y="64" width="64" height="64" transform="translate(192) rotate(90)"/></clipPath><clipPath id="clippath-5"><rect class="cls-1" x="64" width="64" height="64" transform="translate(64 128) rotate(-90)"/></clipPath></defs><g class="cls-9"><path class="cls-8" d="M14.14,142.14c22.36-22.36,64-64,64-64l-28.28-28.28S8.22,91.5-14.14,113.86"/></g><g class="cls-3"><path class="cls-8" d="M-14.14,14.14c22.36,22.36,64,64,64,64l28.28-28.28S36.5,8.22,14.14-14.14"/></g><g class="cls-6"><path class="cls-2" d="M-64,64l15.42-15.42c10.62-10.62,25.01-16.58,40.03-16.58H0"/></g><g class="cls-4"><path class="cls-2" d="M-64,64l15.42,15.42c10.62,10.62,25.01,16.58,40.03,16.58H0"/></g><g class="cls-5"><path class="cls-2" d="M64,64l14.43,14.43c9.7,9.7,25.44,9.7,35.14,0l14.43-14.43"/></g><g class="cls-7"><path class="cls-2" d="M64,64l14.43-14.43c9.7-9.7,25.44-9.7,35.14,0l14.43,14.43"/></g></svg>