<?xml version="1.0" encoding="UTF-8"?><svg id="Layer_1" xmlns="http://www.w3.org/2000/svg" xmlns:xlink="http://www.w3.org/1999/xlink" viewBox="0 0 64 64"><defs><style>.cls-1,.cls-2{fill:none;}.cls-3{clip-path:url(#clippath-1);}.cls-4{clip-path:url(#clippath-3);}.cls-5{clip-path:url(#clippath-2);}.cls-2{stroke:#000;stroke-miterlimit:10;stroke-width:10px;}.cls-6{clip-path:url(#clippath);}</style><clipPath id="clippath"><rect class="cls-1" x="64" width="64" height="64"/></clipPath><clipPath id="clippath-1"><rect class="cls-1" x="0" y="0" width="64" height="64" transform="translate(64 64) rotate(180)"/></clipPath><clipPath id="clippath-2"><rect class="cls-1" x="-64" y="64" width="64" height="64" transform="translate(64 128) rotate(90)"/></clipPath><clipPath id="clippath-3"><rect class="cls-1" x="-64" y="0" width="64" height="64" transform="translate(-64 0) rotate(-90)"/></clipPath></defs><g class="cls-6"><path class="cls-2" d="M64,0l5.79,6.01c13.97,14.51,13.97,37.47,0,51.98l-5.79,6.01"/></g><g class="cls-3"><path class="cls-2" d="M64,0l-5.79,6.01c-13.97,14.51-13.97,37.47,0,51.98l5.79,6.01"/></g><g class="cls-5"><path class="cls-2" d="M0,64l-6.01,5.79c-14.51,13.97-37.47,13.97-51.98,0l-6.01-5.79"/></g><g class="cls-4"><path class="cls-2" d="M0,64l-6.01-5.79c-14.51-13.97-37.47-13.97-51.98,0l-6.01,5.79"/></g></svg>