<?xml version="1.0" encoding="UTF-8"?><svg id="Layer_1" xmlns="http://www.w3.org/2000/svg" viewBox="0 0 64 64"><defs><style>.cls-1{fill:none;stroke:#000;stroke-miterlimit:10;stroke-width:10px;}</style></defs><path class="cls-1" d="M64,64c5.65-5.65,11.61-11.61,16.83-16.83,9.71-9.71,22.89-15.17,36.62-15.17h10.55"/><path class="cls-1" d="M64,64c-5.65-5.65-11.61-11.61-16.83-16.83-9.71-9.71-22.89-15.17-36.62-15.17H0"/><path class="cls-1" d="M64,64c5.65,5.65,11.61,11.61,16.83,16.83,9.71,9.71,22.89,15.17,36.62,15.17h10.55"/><path class="cls-1" d="M64,64c-5.65,5.65-11.61,11.61-16.83,16.83-9.71,9.71-22.89,15.17-36.62,15.17H0"/></svg>