<?xml version="1.0" encoding="UTF-8"?><svg id="Layer_1" xmlns="http://www.w3.org/2000/svg" viewBox="0 0 64 64"><defs><style>.cls-1,.cls-2{fill:none;stroke:#000;stroke-miterlimit:10;stroke-width:10px;}.cls-2{stroke-linecap:round;}</style></defs><path class="cls-1" d="M32,0c0-12.54,5.25-20.88,10.06-25.9,8.27-8.61,2.91-23.3-9.01-23.99-.35-.02-.7-.03-1.05-.03s-.7.01-1.05.03c-11.92.69-17.28,15.38-9.01,23.99C26.75-20.88,32-12.54,32,0"/><line class="cls-2" x1="74.26" y1="74.26" x2="53.74" y2="53.74"/><path class="cls-1" d="M53.74,53.74c-8.87-8.87-11.06-18.48-11.2-25.43-.24-11.94-14.42-18.53-23.33-10.59-.26.23-.52.47-.77.72s-.49.51-.72.77c-7.94,8.92-1.35,23.1,10.59,23.33,6.95.14,16.56,2.32,25.43,11.2"/><line class="cls-2" x1="74.26" y1="53.74" x2="53.74" y2="74.26"/></svg>