<?xml version="1.0" encoding="UTF-8"?><svg id="Layer_1" xmlns="http://www.w3.org/2000/svg" xmlns:xlink="http://www.w3.org/1999/xlink" viewBox="0 0 64 64"><defs><style>.cls-1,.cls-2,.cls-3{fill:none;}.cls-2,.cls-3{stroke:#000;stroke-miterlimit:10;stroke-width:10px;}.cls-3{stroke-linecap:round;}.cls-4{clip-path:url(#clippath);}</style><clipPath id="clippath"><rect class="cls-1" x="64" y="-64" width="128" height="64"/></clipPath></defs><path class="cls-2" d="M0,0c5.65-5.65,11.61-11.61,16.83-16.83,9.71-9.71,22.89-15.17,36.62-15.17h10.55"/><path class="cls-2" d="M0,0c-5.65-5.65-11.61-11.61-16.83-16.83-9.71-9.71-22.89-15.17-36.62-15.17h-10.55"/><path class="cls-2" d="M0,0c5.65,5.65,11.61,11.61,16.83,16.83,9.71,9.71,22.89,15.17,36.62,15.17h10.55"/><path class="cls-2" d="M0,0c-5.65,5.65-11.61,11.61-16.83,16.83-9.71,9.71-22.89,15.17-36.62,15.17h-10.55"/><g class="cls-4"><line class="cls-3" x1="128" y1="0" x2="64" y2="-64"/></g></svg>