<?xml version="1.0" encoding="UTF-8"?><svg id="Layer_1" xmlns="http://www.w3.org/2000/svg" viewBox="0 0 64 64"><defs><style>.cls-1{fill:none;stroke:#000;stroke-miterlimit:10;stroke-width:10px;}</style></defs><path class="cls-1" d="M64,32c12.54,0,20.88,5.25,25.9,10.06,8.61,8.27,23.3,2.91,23.99-9.01.02-.35.03-.7.03-1.05s-.01-.7-.03-1.05c-.69-11.92-15.38-17.28-23.99-9.01-5.01,4.82-13.35,10.06-25.9,10.06"/><path class="cls-1" d="M32,0c0,12.54-5.25,20.88-10.06,25.9-8.27,8.61-2.91,23.3,9.01,23.99.35.02.7.03,1.05.03s.7-.01,1.05-.03c11.92-.69,17.28-15.38,9.01-23.99-4.82-5.01-10.06-13.35-10.06-25.9"/></svg>