<?xml version="1.0" encoding="UTF-8"?>
<svg id="Layer_1" xmlns="http://www.w3.org/2000/svg" xmlns:xlink="http://www.w3.org/1999/xlink" viewBox="0 0 64 64">
  <defs>
    <style>
      .cls-1, .cls-2 {
        fill: #ffc63a;
      }

      .cls-3 {
        fill: #52c25f;
      }

      .cls-3, .cls-4, .cls-5, .cls-6, .cls-7, .cls-8, .cls-9, .cls-10, .cls-11, .cls-12, .cls-13, .cls-14, .cls-15, .cls-16, .cls-17, .cls-18, .cls-19, .cls-20, .cls-21, .cls-22, .cls-23, .cls-24, .cls-25, .cls-26, .cls-27, .cls-28, .cls-29, .cls-30, .cls-31, .cls-32, .cls-33, .cls-34, .cls-35, .cls-36, .cls-37, .cls-38, .cls-39, .cls-40, .cls-41, .cls-42, .cls-43, .cls-44, .cls-45, .cls-46, .cls-47, .cls-48, .cls-49, .cls-50, .cls-51, .cls-52, .cls-53, .cls-54, .cls-55, .cls-56, .cls-57, .cls-58, .cls-59, .cls-60, .cls-61, .cls-62, .cls-63, .cls-64, .cls-65, .cls-66, .cls-67, .cls-68, .cls-69, .cls-70, .cls-71, .cls-72, .cls-73, .cls-74, .cls-75, .cls-76, .cls-77, .cls-78, .cls-79, .cls-80, .cls-2, .cls-81, .cls-82, .cls-83, .cls-84, .cls-85, .cls-86, .cls-87, .cls-88, .cls-89, .cls-90, .cls-91, .cls-92, .cls-93, .cls-94, .cls-95, .cls-96, .cls-97, .cls-98, .cls-99, .cls-100, .cls-101, .cls-102, .cls-103, .cls-104, .cls-105, .cls-106, .cls-107, .cls-108, .cls-109, .cls-110, .cls-111, .cls-112, .cls-113, .cls-114, .cls-115, .cls-116, .cls-117, .cls-118, .cls-119, .cls-120, .cls-121, .cls-122, .cls-123, .cls-124, .cls-125, .cls-126, .cls-127, .cls-128, .cls-129, .cls-130, .cls-131, .cls-132, .cls-133, .cls-134, .cls-135, .cls-136, .cls-137, .cls-138, .cls-139, .cls-140, .cls-141, .cls-142, .cls-143, .cls-144, .cls-145, .cls-146, .cls-147, .cls-148, .cls-149, .cls-150, .cls-151, .cls-152, .cls-153 {
        fill-rule: evenodd;
      }

      .cls-4 {
        fill: #52b95d;
      }

      .cls-5 {
        fill: #fc4;
      }

      .cls-6 {
        fill: #ffcf48;
      }

      .cls-7 {
        fill: #ffdc5e;
      }

      .cls-8 {
        fill: #ffce47;
      }

      .cls-9 {
        fill: #ffd654;
      }

      .cls-10 {
        fill: #89e99b;
      }

      .cls-11 {
        fill: #51a457;
      }

      .cls-12 {
        fill: #82e594;
      }

      .cls-13 {
        fill: #54cf65;
      }

      .cls-14 {
        fill: #51a858;
      }

      .cls-15 {
        fill: #51b65c;
      }

      .cls-16 {
        fill: #52c460;
      }

      .cls-17 {
        fill: #ffda5a;
      }

      .cls-18 {
        fill: #51b25b;
      }

      .cls-19 {
        fill: #83e695;
      }

      .cls-20, .cls-154 {
        fill: #fff;
      }

      .cls-21 {
        fill: #52bd5e;
      }

      .cls-22 {
        fill: #7be28d;
      }

      .cls-23 {
        fill: #7ce28e;
      }

      .cls-155, .cls-88 {
        fill: #ffc73b;
      }

      .cls-24 {
        fill: #5dd36e;
      }

      .cls-25 {
        fill: #ffd655;
      }

      .cls-26 {
        fill: #ffe165;
      }

      .cls-27 {
        fill: #71dd83;
      }

      .cls-28 {
        fill: #ffda5b;
      }

      .cls-29 {
        fill: #ffe56c;
      }

      .cls-30 {
        fill: #52c05f;
      }

      .cls-31 {
        fill: #5cd36d;
      }

      .cls-32 {
        fill: #51ac59;
      }

      .cls-33 {
        fill: #51a758;
      }

      .cls-34 {
        fill: #52c661;
      }

      .cls-35 {
        fill: #ffca40;
      }

      .cls-36 {
        fill: #5ed46f;
      }

      .cls-37 {
        fill: #75df87;
      }

      .cls-38 {
        fill: #ffe267;
      }

      .cls-39 {
        fill: #51b35b;
      }

      .cls-40 {
        fill: #ffd858;
      }

      .cls-41 {
        fill: #ffdc5d;
      }

      .cls-42 {
        fill: #87e899;
      }

      .cls-43 {
        fill: #73de85;
      }

      .cls-44 {
        fill: #6ddb7e;
      }

      .cls-45 {
        fill: #ffd450;
      }

      .cls-156 {
        fill: #eaadcc;
      }

      .cls-46 {
        fill: #ffcc43;
      }

      .cls-47 {
        fill: #86e798;
      }

      .cls-48 {
        fill: #51a356;
      }

      .cls-49 {
        fill: #51b45b;
      }

      .cls-50 {
        fill: #6edc80;
      }

      .cls-51 {
        fill: #ffdd60;
      }

      .cls-52 {
        fill: #ffce46;
      }

      .cls-53 {
        fill: #ffc93f;
      }

      .cls-54 {
        fill: #ffcf49;
      }

      .cls-55 {
        fill: #65d776;
      }

      .cls-56 {
        fill: #88e89a;
      }

      .cls-57 {
        fill: #ffe268;
      }

      .cls-58 {
        fill: #52ba5d;
      }

      .cls-59 {
        fill: #51b05a;
      }

      .cls-60 {
        fill: #51ae5a;
      }

      .cls-61 {
        fill: #52be5e;
      }

      .cls-62 {
        fill: #ffd14b;
      }

      .cls-63 {
        fill: #5ad26b;
      }

      .cls-64 {
        fill: #5fd470;
      }

      .cls-65 {
        fill: #63d674;
      }

      .cls-66 {
        fill: #52c15f;
      }

      .cls-67 {
        fill: #ffdf62;
      }

      .cls-68 {
        fill: #56d067;
      }

      .cls-69 {
        fill: #51ad59;
      }

      .cls-70 {
        fill: #77e089;
      }

      .cls-71 {
        fill: #6bda7c;
      }

      .cls-72 {
        fill: #52c761;
      }

      .cls-157 {
        clip-path: url(#clippath-1);
      }

      .cls-158 {
        clip-path: url(#clippath-3);
      }

      .cls-159 {
        clip-path: url(#clippath-2);
      }

      .cls-73 {
        fill: #ffe46a;
      }

      .cls-74 {
        fill: #52c360;
      }

      .cls-75 {
        fill: #ffdb5c;
      }

      .cls-77 {
        fill: #52c560;
      }

      .cls-78 {
        fill: #ffe46b;
      }

      .cls-79 {
        fill: #60d571;
      }

      .cls-80 {
        fill: #ffd34e;
      }

      .cls-81 {
        fill: #ffd857;
      }

      .cls-82 {
        fill: #ffd24d;
      }

      .cls-83 {
        fill: #ffe064;
      }

      .cls-84 {
        fill: #52bb5d;
      }

      .cls-85 {
        fill: #51a256;
      }

      .cls-86 {
        fill: #ffc93e;
      }

      .cls-87 {
        fill: #52bf5e;
      }

      .cls-160 {
        clip-rule: evenodd;
        fill: none;
      }

      .cls-89 {
        fill: #ffd552;
      }

      .cls-90 {
        fill: #8ae99c;
      }

      .cls-91 {
        fill: #81e593;
      }

      .cls-92 {
        fill: #ffd14c;
      }

      .cls-93 {
        fill: #52cc62;
      }

      .cls-94 {
        fill: #67d878;
      }

      .cls-95 {
        fill: #ffe369;
      }

      .cls-96 {
        fill: #74de86;
      }

      .cls-97 {
        fill: #52cd63;
      }

      .cls-98 {
        fill: #62d673;
      }

      .cls-99 {
        fill: #51b75c;
      }

      .cls-100 {
        fill: #7ae18c;
      }

      .cls-101 {
        fill: #69d97a;
      }

      .cls-102 {
        fill: #7ee390;
      }

      .cls-103 {
        fill: #ffd04a;
      }

      .cls-104 {
        fill: #51af5a;
      }

      .cls-105 {
        fill: #5bd26c;
      }

      .cls-106 {
        fill: #55cf66;
      }

      .cls-107 {
        fill: #ffe166;
      }

      .cls-108 {
        fill: #ffc73c;
      }

      .cls-109 {
        fill: #52cb62;
      }

      .cls-110 {
        fill: #51a657;
      }

      .cls-111 {
        fill: #51aa58;
      }

      .cls-112 {
        fill: #ffcd45;
      }

      .cls-113 {
        fill: #51a557;
      }

      .cls-114 {
        fill: #80e492;
      }

      .cls-115 {
        fill: #52bc5e;
      }

      .cls-116 {
        fill: #ffdf63;
      }

      .cls-117 {
        fill: #61d572;
      }

      .cls-118 {
        fill: #6fdc81;
      }

      .cls-119 {
        fill: #ffd756;
      }

      .cls-120 {
        fill: #6ada7b;
      }

      .cls-121 {
        fill: #ffd959;
      }

      .cls-122 {
        fill: #76df88;
      }

      .cls-123 {
        fill: #6cdb7d;
      }

      .cls-124 {
        fill: #85e797;
      }

      .cls-125 {
        fill: #51b55c;
      }

      .cls-126 {
        fill: #ffc83d;
      }

      .cls-127 {
        fill: #51ab59;
      }

      .cls-128 {
        fill: #84e696;
      }

      .cls-129 {
        fill: #ffdd5f;
      }

      .cls-130 {
        fill: #58d169;
      }

      .cls-131 {
        fill: #7de38f;
      }

      .cls-132 {
        fill: #72dd84;
      }

      .cls-133 {
        fill: #66d877;
      }

      .cls-161 {
        fill: #ecb732;
      }

      .cls-134 {
        fill: #7fe491;
      }

      .cls-135 {
        fill: #53ce64;
      }

      .cls-136 {
        fill: #59d16a;
      }

      .cls-137 {
        fill: #52ca62;
      }

      .cls-138 {
        fill: #68d979;
      }

      .cls-139 {
        fill: #ffd551;
      }

      .cls-140 {
        fill: #52c861;
      }

      .cls-141 {
        fill: #64d775;
      }

      .cls-142 {
        fill: #ffde61;
      }

      .cls-143 {
        fill: #57d068;
      }

      .cls-162 {
        clip-path: url(#clippath);
      }

      .cls-144 {
        fill: #52c961;
      }

      .cls-145 {
        fill: #79e18b;
      }

      .cls-146 {
        fill: #78e08a;
      }

      .cls-147 {
        fill: #70dc82;
      }

      .cls-148 {
        fill: #51a958;
      }

      .cls-149 {
        fill: #ffcb42;
      }

      .cls-150 {
        fill: #52ce63;
      }

      .cls-151 {
        fill: #ffca41;
      }

      .cls-152 {
        fill: #51b15b;
      }

      .cls-153 {
        fill: #ffd34f;
      }
    </style>
    <clipPath id="clippath">
      <path class="cls-160" d="M38.03,31.68c2.05,2.15,4.58,1.49,7.64-.45s4.16-5.86,3.46-6.59-5.67-.89-8.74,1.05c-3.07,1.94-4.41,3.84-2.37,5.99h0Z"/>
    </clipPath>
    <clipPath id="clippath-1">
      <path class="cls-160" d="M37.75,33.54c-2.5,1.59-1.59,3.71.92,6.34s7.3,3.72,8.15,3.18c.85-.54.81-4.65-1.7-7.27s-4.87-3.83-7.37-2.24h0Z"/>
    </clipPath>
    <clipPath id="clippath-2">
      <path class="cls-160" d="M39.13,32.67c-.32,2.64,2.11,3.67,6.05,4.16s8.1-1.51,8.21-2.41-3.44-3.91-7.38-4.39-6.56,0-6.89,2.64Z"/>
    </clipPath>
    <clipPath id="clippath-3">
      <path class="cls-160" d="M21.71,32c0,5.53,1.61,10.01,8.89,10.01s13.26-4.48,13.26-10.01-5.98-10.01-13.26-10.01-8.89,4.48-8.89,10.01Z"/>
    </clipPath>
  </defs>
  <rect class="cls-1" x="2.02" y="13.58" width="20.01" height="36.84" transform="translate(44.03 19.97) rotate(90)"/>
  <g>
    <g>
      <g class="cls-162">
        <polygon class="cls-150" points="49.83 28.79 48.79 23.75 49.83 23.75 49.83 28.79"/>
        <polygon class="cls-150" points="49.83 29.4 48.66 23.75 48.79 23.75 49.83 28.79 49.83 29.4"/>
        <polygon class="cls-97" points="49.83 30.02 48.54 23.75 48.66 23.75 49.83 29.4 49.83 30.02"/>
        <polygon class="cls-93" points="49.83 30.63 48.41 23.75 48.54 23.75 49.83 30.02 49.83 30.63"/>
        <polygon class="cls-109" points="49.83 31.25 48.28 23.75 48.41 23.75 49.83 30.63 49.83 31.25"/>
        <polygon class="cls-137" points="49.83 31.87 48.16 23.75 48.28 23.75 49.83 31.25 49.83 31.87"/>
        <polygon class="cls-144" points="49.83 32.48 48.03 23.75 48.16 23.75 49.83 31.87 49.83 32.48"/>
        <polygon class="cls-140" points="49.83 33.1 47.9 23.75 48.03 23.75 49.83 32.48 49.83 33.1"/>
        <polygon class="cls-72" points="49.83 33.71 47.78 23.75 47.9 23.75 49.83 33.1 49.83 33.71"/>
        <polygon class="cls-34" points="49.73 33.83 47.65 23.75 47.78 23.75 49.83 33.71 49.83 33.83 49.73 33.83"/>
        <polygon class="cls-77" points="49.6 33.83 47.52 23.75 47.65 23.75 49.73 33.83 49.6 33.83"/>
        <polygon class="cls-16" points="49.47 33.83 47.4 23.75 47.52 23.75 49.6 33.83 49.47 33.83"/>
        <polygon class="cls-74" points="49.35 33.83 47.27 23.75 47.4 23.75 49.47 33.83 49.35 33.83"/>
        <polygon class="cls-3" points="49.22 33.83 47.14 23.75 47.27 23.75 49.35 33.83 49.22 33.83"/>
        <polygon class="cls-66" points="49.09 33.83 47.01 23.75 47.14 23.75 49.22 33.83 49.09 33.83"/>
        <polygon class="cls-30" points="48.96 33.83 46.89 23.75 47.01 23.75 49.09 33.83 48.96 33.83"/>
        <polygon class="cls-87" points="48.84 33.83 46.76 23.75 46.89 23.75 48.96 33.83 48.84 33.83"/>
        <polygon class="cls-61" points="48.71 33.83 46.63 23.75 46.76 23.75 48.84 33.83 48.71 33.83"/>
        <polygon class="cls-21" points="48.58 33.83 46.51 23.75 46.63 23.75 48.71 33.83 48.58 33.83"/>
        <polygon class="cls-115" points="48.46 33.83 46.38 23.75 46.51 23.75 48.58 33.83 48.46 33.83"/>
        <polygon class="cls-84" points="48.33 33.83 46.25 23.75 46.38 23.75 48.46 33.83 48.33 33.83"/>
        <polygon class="cls-58" points="48.2 33.83 46.13 23.75 46.25 23.75 48.33 33.83 48.2 33.83"/>
        <polygon class="cls-4" points="48.08 33.83 46 23.75 46.13 23.75 48.2 33.83 48.08 33.83"/>
        <polygon class="cls-99" points="47.95 33.83 45.87 23.75 46 23.75 48.08 33.83 47.95 33.83"/>
        <polygon class="cls-15" points="47.82 33.83 45.75 23.75 45.87 23.75 47.95 33.83 47.82 33.83"/>
        <polygon class="cls-125" points="47.7 33.83 45.62 23.75 45.75 23.75 47.82 33.83 47.7 33.83"/>
        <polygon class="cls-49" points="47.57 33.83 45.49 23.75 45.62 23.75 47.7 33.83 47.57 33.83"/>
        <polygon class="cls-39" points="47.44 33.83 45.37 23.75 45.49 23.75 47.57 33.83 47.44 33.83"/>
        <polygon class="cls-18" points="47.32 33.83 45.24 23.75 45.37 23.75 47.44 33.83 47.32 33.83"/>
        <polygon class="cls-152" points="47.19 33.83 45.11 23.75 45.24 23.75 47.32 33.83 47.19 33.83"/>
        <polygon class="cls-59" points="47.06 33.83 44.99 23.75 45.11 23.75 47.19 33.83 47.06 33.83"/>
        <polygon class="cls-104" points="46.94 33.83 44.86 23.75 44.99 23.75 47.06 33.83 46.94 33.83"/>
        <polygon class="cls-60" points="46.81 33.83 44.73 23.75 44.86 23.75 46.94 33.83 46.81 33.83"/>
        <polygon class="cls-69" points="46.68 33.83 44.6 23.75 44.73 23.75 46.81 33.83 46.68 33.83"/>
        <polygon class="cls-32" points="46.56 33.83 44.48 23.75 44.6 23.75 46.68 33.83 46.56 33.83"/>
        <polygon class="cls-127" points="46.43 33.83 44.35 23.75 44.48 23.75 46.56 33.83 46.43 33.83"/>
        <polygon class="cls-111" points="46.3 33.83 44.22 23.75 44.35 23.75 46.43 33.83 46.3 33.83"/>
        <polygon class="cls-148" points="46.17 33.83 44.1 23.75 44.22 23.75 46.3 33.83 46.17 33.83"/>
        <polygon class="cls-14" points="46.05 33.83 43.97 23.75 44.1 23.75 46.17 33.83 46.05 33.83"/>
        <polygon class="cls-33" points="45.92 33.83 43.84 23.75 43.97 23.75 46.05 33.83 45.92 33.83"/>
        <polygon class="cls-110" points="45.79 33.83 43.72 23.75 43.84 23.75 45.92 33.83 45.79 33.83"/>
        <polygon class="cls-113" points="45.67 33.83 43.59 23.75 43.72 23.75 45.79 33.83 45.67 33.83"/>
        <polygon class="cls-11" points="45.54 33.83 43.46 23.75 43.59 23.75 45.67 33.83 45.54 33.83"/>
        <polygon class="cls-48" points="45.41 33.83 43.34 23.75 43.46 23.75 45.54 33.83 45.41 33.83"/>
        <polygon class="cls-85" points="45.29 33.83 43.21 23.75 43.34 23.75 45.41 33.83 45.29 33.83"/>
        <polygon class="cls-85" points="43.21 23.75 45.29 33.83 35.99 33.83 35.99 23.75 43.21 23.75"/>
      </g>
      <g class="cls-157">
        <polygon class="cls-150" points="46.64 43.59 47.67 43.38 47.67 43.59 46.64 43.59"/>
        <polygon class="cls-150" points="46.02 43.59 47.67 43.25 47.67 43.38 46.64 43.59 46.02 43.59"/>
        <polygon class="cls-97" points="45.41 43.59 47.67 43.13 47.67 43.25 46.02 43.59 45.41 43.59"/>
        <polygon class="cls-93" points="44.79 43.59 47.67 43 47.67 43.13 45.41 43.59 44.79 43.59"/>
        <polygon class="cls-109" points="44.17 43.59 47.67 42.87 47.67 43 44.79 43.59 44.17 43.59"/>
        <polygon class="cls-137" points="43.56 43.59 47.67 42.75 47.67 42.87 44.17 43.59 43.56 43.59"/>
        <polygon class="cls-144" points="42.94 43.59 47.67 42.62 47.67 42.75 43.56 43.59 42.94 43.59"/>
        <polygon class="cls-140" points="42.32 43.59 47.67 42.49 47.67 42.62 42.94 43.59 42.32 43.59"/>
        <polygon class="cls-72" points="41.71 43.59 47.67 42.37 47.67 42.49 42.32 43.59 41.71 43.59"/>
        <polygon class="cls-34" points="41.09 43.59 47.67 42.24 47.67 42.37 41.71 43.59 41.09 43.59"/>
        <polygon class="cls-77" points="40.48 43.59 47.67 42.11 47.67 42.24 41.09 43.59 40.48 43.59"/>
        <polygon class="cls-16" points="39.86 43.59 47.67 41.99 47.67 42.11 40.48 43.59 39.86 43.59"/>
        <polygon class="cls-74" points="39.24 43.59 47.67 41.86 47.67 41.99 39.86 43.59 39.24 43.59"/>
        <polygon class="cls-3" points="38.63 43.59 47.67 41.73 47.67 41.86 39.24 43.59 38.63 43.59"/>
        <polygon class="cls-66" points="38.01 43.59 47.67 41.61 47.67 41.73 38.63 43.59 38.01 43.59"/>
        <polygon class="cls-30" points="37.39 43.59 47.67 41.48 47.67 41.61 38.01 43.59 37.39 43.59"/>
        <polygon class="cls-87" points="36.78 43.59 47.67 41.35 47.67 41.48 37.39 43.59 36.78 43.59"/>
        <polygon class="cls-61" points="36.16 43.59 47.67 41.23 47.67 41.35 36.78 43.59 36.16 43.59"/>
        <polygon class="cls-21" points="35.55 43.59 47.67 41.1 47.67 41.23 36.16 43.59 35.55 43.59"/>
        <polygon class="cls-115" points="35.24 43.53 47.67 40.97 47.67 41.1 35.55 43.59 35.24 43.59 35.24 43.53"/>
        <polygon class="cls-84" points="35.24 43.4 47.67 40.85 47.67 40.97 35.24 43.53 35.24 43.4"/>
        <polygon class="cls-58" points="35.24 43.28 47.67 40.72 47.67 40.85 35.24 43.4 35.24 43.28"/>
        <polygon class="cls-4" points="35.24 43.15 47.67 40.59 47.67 40.72 35.24 43.28 35.24 43.15"/>
        <polygon class="cls-99" points="35.24 43.02 47.67 40.46 47.67 40.59 35.24 43.15 35.24 43.02"/>
        <polygon class="cls-15" points="35.24 42.89 47.67 40.34 47.67 40.46 35.24 43.02 35.24 42.89"/>
        <polygon class="cls-125" points="35.24 42.77 47.67 40.21 47.67 40.34 35.24 42.89 35.24 42.77"/>
        <polygon class="cls-49" points="35.24 42.64 47.67 40.08 47.67 40.21 35.24 42.77 35.24 42.64"/>
        <polygon class="cls-39" points="35.24 42.51 47.67 39.96 47.67 40.08 35.24 42.64 35.24 42.51"/>
        <polygon class="cls-18" points="35.24 42.39 47.67 39.83 47.67 39.96 35.24 42.51 35.24 42.39"/>
        <polygon class="cls-152" points="35.24 42.26 47.67 39.7 47.67 39.83 35.24 42.39 35.24 42.26"/>
        <polygon class="cls-59" points="35.24 42.13 47.67 39.58 47.67 39.7 35.24 42.26 35.24 42.13"/>
        <polygon class="cls-104" points="35.24 42.01 47.67 39.45 47.67 39.58 35.24 42.13 35.24 42.01"/>
        <polygon class="cls-60" points="35.24 41.88 47.67 39.32 47.67 39.45 35.24 42.01 35.24 41.88"/>
        <polygon class="cls-69" points="35.24 41.75 47.67 39.2 47.67 39.32 35.24 41.88 35.24 41.75"/>
        <polygon class="cls-32" points="35.24 41.63 47.67 39.07 47.67 39.2 35.24 41.75 35.24 41.63"/>
        <polygon class="cls-127" points="35.24 41.5 47.67 38.94 47.67 39.07 35.24 41.63 35.24 41.5"/>
        <polygon class="cls-111" points="35.24 41.37 47.67 38.82 47.67 38.94 35.24 41.5 35.24 41.37"/>
        <polygon class="cls-148" points="35.24 41.25 47.67 38.69 47.67 38.82 35.24 41.37 35.24 41.25"/>
        <polygon class="cls-14" points="35.24 41.12 47.67 38.56 47.67 38.69 35.24 41.25 35.24 41.12"/>
        <polygon class="cls-33" points="35.24 40.99 47.67 38.44 47.67 38.56 35.24 41.12 35.24 40.99"/>
        <polygon class="cls-110" points="35.24 40.87 47.67 38.31 47.67 38.44 35.24 40.99 35.24 40.87"/>
        <polygon class="cls-113" points="35.24 40.74 47.67 38.18 47.67 38.31 35.24 40.87 35.24 40.74"/>
        <polygon class="cls-11" points="35.24 40.61 47.67 38.05 47.67 38.18 35.24 40.74 35.24 40.61"/>
        <polygon class="cls-48" points="35.24 40.48 47.67 37.93 47.67 38.05 35.24 40.61 35.24 40.48"/>
        <polygon class="cls-85" points="35.24 40.36 47.67 37.8 47.67 37.93 35.24 40.48 35.24 40.36"/>
        <polygon class="cls-85" points="47.67 37.8 35.24 40.36 35.24 31.95 47.67 31.95 47.67 37.8"/>
      </g>
      <g class="cls-159">
        <polygon class="cls-90" points="53.03 37.31 53.5 33.52 53.5 37.31 53.03 37.31"/>
        <polygon class="cls-90" points="52.88 37.31 53.5 32.3 53.5 33.52 53.03 37.31 52.88 37.31"/>
        <polygon class="cls-10" points="52.73 37.31 53.5 31.09 53.5 32.3 52.88 37.31 52.73 37.31"/>
        <polygon class="cls-56" points="52.59 37.31 53.5 29.87 53.5 31.09 52.73 37.31 52.59 37.31"/>
        <polygon class="cls-42" points="52.44 37.31 53.39 29.54 53.5 29.54 53.5 29.87 52.59 37.31 52.44 37.31"/>
        <polygon class="cls-47" points="52.29 37.31 53.24 29.54 53.39 29.54 52.44 37.31 52.29 37.31"/>
        <polygon class="cls-124" points="52.14 37.31 53.09 29.54 53.24 29.54 52.29 37.31 52.14 37.31"/>
        <polygon class="cls-128" points="51.99 37.31 52.94 29.54 53.09 29.54 52.14 37.31 51.99 37.31"/>
        <polygon class="cls-19" points="51.84 37.31 52.79 29.54 52.94 29.54 51.99 37.31 51.84 37.31"/>
        <polygon class="cls-12" points="51.69 37.31 52.64 29.54 52.79 29.54 51.84 37.31 51.69 37.31"/>
        <polygon class="cls-91" points="51.54 37.31 52.49 29.54 52.64 29.54 51.69 37.31 51.54 37.31"/>
        <polygon class="cls-114" points="51.39 37.31 52.34 29.54 52.49 29.54 51.54 37.31 51.39 37.31"/>
        <polygon class="cls-134" points="51.24 37.31 52.19 29.54 52.34 29.54 51.39 37.31 51.24 37.31"/>
        <polygon class="cls-102" points="51.09 37.31 52.05 29.54 52.19 29.54 51.24 37.31 51.09 37.31"/>
        <polygon class="cls-131" points="50.94 37.31 51.9 29.54 52.05 29.54 51.09 37.31 50.94 37.31"/>
        <polygon class="cls-23" points="50.79 37.31 51.75 29.54 51.9 29.54 50.94 37.31 50.79 37.31"/>
        <polygon class="cls-22" points="50.64 37.31 51.6 29.54 51.75 29.54 50.79 37.31 50.64 37.31"/>
        <polygon class="cls-100" points="50.49 37.31 51.45 29.54 51.6 29.54 50.64 37.31 50.49 37.31"/>
        <polygon class="cls-145" points="50.34 37.31 51.3 29.54 51.45 29.54 50.49 37.31 50.34 37.31"/>
        <polygon class="cls-146" points="50.2 37.31 51.15 29.54 51.3 29.54 50.34 37.31 50.2 37.31"/>
        <polygon class="cls-70" points="50.05 37.31 51 29.54 51.15 29.54 50.2 37.31 50.05 37.31"/>
        <polygon class="cls-122" points="49.9 37.31 50.85 29.54 51 29.54 50.05 37.31 49.9 37.31"/>
        <polygon class="cls-37" points="49.75 37.31 50.7 29.54 50.85 29.54 49.9 37.31 49.75 37.31"/>
        <polygon class="cls-96" points="49.6 37.31 50.55 29.54 50.7 29.54 49.75 37.31 49.6 37.31"/>
        <polygon class="cls-43" points="49.45 37.31 50.4 29.54 50.55 29.54 49.6 37.31 49.45 37.31"/>
        <polygon class="cls-132" points="49.3 37.31 50.25 29.54 50.4 29.54 49.45 37.31 49.3 37.31"/>
        <polygon class="cls-27" points="49.15 37.31 50.1 29.54 50.25 29.54 49.3 37.31 49.15 37.31"/>
        <polygon class="cls-147" points="49 37.31 49.95 29.54 50.1 29.54 49.15 37.31 49 37.31"/>
        <polygon class="cls-118" points="48.85 37.31 49.81 29.54 49.95 29.54 49 37.31 48.85 37.31"/>
        <polygon class="cls-50" points="48.7 37.31 49.66 29.54 49.81 29.54 48.85 37.31 48.7 37.31"/>
        <polygon class="cls-44" points="48.55 37.31 49.51 29.54 49.66 29.54 48.7 37.31 48.55 37.31"/>
        <polygon class="cls-123" points="48.4 37.31 49.36 29.54 49.51 29.54 48.55 37.31 48.4 37.31"/>
        <polygon class="cls-71" points="48.25 37.31 49.21 29.54 49.36 29.54 48.4 37.31 48.25 37.31"/>
        <polygon class="cls-120" points="48.1 37.31 49.06 29.54 49.21 29.54 48.25 37.31 48.1 37.31"/>
        <polygon class="cls-101" points="47.96 37.31 48.91 29.54 49.06 29.54 48.1 37.31 47.96 37.31"/>
        <polygon class="cls-138" points="47.81 37.31 48.76 29.54 48.91 29.54 47.96 37.31 47.81 37.31"/>
        <polygon class="cls-94" points="47.66 37.31 48.61 29.54 48.76 29.54 47.81 37.31 47.66 37.31"/>
        <polygon class="cls-133" points="47.51 37.31 48.46 29.54 48.61 29.54 47.66 37.31 47.51 37.31"/>
        <polygon class="cls-55" points="47.36 37.31 48.31 29.54 48.46 29.54 47.51 37.31 47.36 37.31"/>
        <polygon class="cls-141" points="47.21 37.31 48.16 29.54 48.31 29.54 47.36 37.31 47.21 37.31"/>
        <polygon class="cls-65" points="47.06 37.31 48.01 29.54 48.16 29.54 47.21 37.31 47.06 37.31"/>
        <polygon class="cls-98" points="46.91 37.31 47.86 29.54 48.01 29.54 47.06 37.31 46.91 37.31"/>
        <polygon class="cls-117" points="46.76 37.31 47.71 29.54 47.86 29.54 46.91 37.31 46.76 37.31"/>
        <polygon class="cls-79" points="46.61 37.31 47.56 29.54 47.71 29.54 46.76 37.31 46.61 37.31"/>
        <polygon class="cls-64" points="46.46 37.31 47.42 29.54 47.56 29.54 46.61 37.31 46.46 37.31"/>
        <polygon class="cls-36" points="46.31 37.31 47.27 29.54 47.42 29.54 46.46 37.31 46.31 37.31"/>
        <polygon class="cls-24" points="46.16 37.31 47.12 29.54 47.27 29.54 46.31 37.31 46.16 37.31"/>
        <polygon class="cls-31" points="46.01 37.31 46.97 29.54 47.12 29.54 46.16 37.31 46.01 37.31"/>
        <polygon class="cls-105" points="45.86 37.31 46.82 29.54 46.97 29.54 46.01 37.31 45.86 37.31"/>
        <polygon class="cls-63" points="45.71 37.31 46.67 29.54 46.82 29.54 45.86 37.31 45.71 37.31"/>
        <polygon class="cls-136" points="45.57 37.31 46.52 29.54 46.67 29.54 45.71 37.31 45.57 37.31"/>
        <polygon class="cls-130" points="45.42 37.31 46.37 29.54 46.52 29.54 45.57 37.31 45.42 37.31"/>
        <polygon class="cls-143" points="45.27 37.31 46.22 29.54 46.37 29.54 45.42 37.31 45.27 37.31"/>
        <polygon class="cls-68" points="45.12 37.31 46.07 29.54 46.22 29.54 45.27 37.31 45.12 37.31"/>
        <polygon class="cls-106" points="44.97 37.31 45.92 29.54 46.07 29.54 45.12 37.31 44.97 37.31"/>
        <polygon class="cls-13" points="44.82 37.31 45.77 29.54 45.92 29.54 44.97 37.31 44.82 37.31"/>
        <polygon class="cls-135" points="44.67 37.31 45.62 29.54 45.77 29.54 44.82 37.31 44.67 37.31"/>
        <polygon class="cls-150" points="44.52 37.31 45.47 29.54 45.62 29.54 44.67 37.31 44.52 37.31"/>
        <polygon class="cls-150" points="45.47 29.54 44.52 37.31 38.8 37.31 38.8 29.54 45.47 29.54"/>
      </g>
    </g>
    <g class="cls-158">
      <polygon class="cls-29" points="39.11 42.02 40.93 21.99 43.86 21.99 43.86 42.02 39.11 42.02"/>
      <polygon class="cls-29" points="38.74 42.02 40.56 21.99 40.93 21.99 39.11 42.02 38.74 42.02"/>
      <polygon class="cls-78" points="38.37 42.02 40.19 21.99 40.56 21.99 38.74 42.02 38.37 42.02"/>
      <polygon class="cls-73" points="38 42.02 39.82 21.99 40.19 21.99 38.37 42.02 38 42.02"/>
      <polygon class="cls-95" points="37.63 42.02 39.46 21.99 39.82 21.99 38 42.02 37.63 42.02"/>
      <polygon class="cls-57" points="37.26 42.02 39.09 21.99 39.46 21.99 37.63 42.02 37.26 42.02"/>
      <polygon class="cls-38" points="36.9 42.02 38.72 21.99 39.09 21.99 37.26 42.02 36.9 42.02"/>
      <polygon class="cls-107" points="36.53 42.02 38.35 21.99 38.72 21.99 36.9 42.02 36.53 42.02"/>
      <polygon class="cls-26" points="36.16 42.02 37.98 21.99 38.35 21.99 36.53 42.02 36.16 42.02"/>
      <polygon class="cls-83" points="35.79 42.02 37.62 21.99 37.98 21.99 36.16 42.02 35.79 42.02"/>
      <polygon class="cls-116" points="35.42 42.02 37.25 21.99 37.62 21.99 35.79 42.02 35.42 42.02"/>
      <polygon class="cls-67" points="35.06 42.02 36.88 21.99 37.25 21.99 35.42 42.02 35.06 42.02"/>
      <polygon class="cls-142" points="34.69 42.02 36.51 21.99 36.88 21.99 35.06 42.02 34.69 42.02"/>
      <polygon class="cls-51" points="34.32 42.02 36.14 21.99 36.51 21.99 34.69 42.02 34.32 42.02"/>
      <polygon class="cls-129" points="33.95 42.02 35.78 21.99 36.14 21.99 34.32 42.02 33.95 42.02"/>
      <polygon class="cls-7" points="33.58 42.02 35.41 21.99 35.78 21.99 33.95 42.02 33.58 42.02"/>
      <polygon class="cls-41" points="33.22 42.02 35.04 21.99 35.41 21.99 33.58 42.02 33.22 42.02"/>
      <polygon class="cls-75" points="32.85 42.02 34.67 21.99 35.04 21.99 33.22 42.02 32.85 42.02"/>
      <polygon class="cls-28" points="32.48 42.02 34.3 21.99 34.67 21.99 32.85 42.02 32.48 42.02"/>
      <polygon class="cls-17" points="32.11 42.02 33.93 21.99 34.3 21.99 32.48 42.02 32.11 42.02"/>
      <polygon class="cls-121" points="31.74 42.02 33.57 21.99 33.93 21.99 32.11 42.02 31.74 42.02"/>
      <polygon class="cls-40" points="31.38 42.02 33.2 21.99 33.57 21.99 31.74 42.02 31.38 42.02"/>
      <polygon class="cls-81" points="31.01 42.02 32.83 21.99 33.2 21.99 31.38 42.02 31.01 42.02"/>
      <polygon class="cls-119" points="30.64 42.02 32.46 21.99 32.83 21.99 31.01 42.02 30.64 42.02"/>
      <polygon class="cls-25" points="30.27 42.02 32.09 21.99 32.46 21.99 30.64 42.02 30.27 42.02"/>
      <polygon class="cls-9" points="29.9 42.02 31.73 21.99 32.09 21.99 30.27 42.02 29.9 42.02"/>
      <polygon class="cls-89" points="29.53 42.02 31.36 21.99 31.73 21.99 29.9 42.02 29.53 42.02"/>
      <polygon class="cls-139" points="29.17 42.02 30.99 21.99 31.36 21.99 29.53 42.02 29.17 42.02"/>
      <polygon class="cls-45" points="28.8 42.02 30.62 21.99 30.99 21.99 29.17 42.02 28.8 42.02"/>
      <polygon class="cls-153" points="28.43 42.02 30.25 21.99 30.62 21.99 28.8 42.02 28.43 42.02"/>
      <polygon class="cls-80" points="28.06 42.02 29.89 21.99 30.25 21.99 28.43 42.02 28.06 42.02"/>
      <polygon class="cls-82" points="27.69 42.02 29.52 21.99 29.89 21.99 28.06 42.02 27.69 42.02"/>
      <polygon class="cls-92" points="27.33 42.02 29.15 21.99 29.52 21.99 27.69 42.02 27.33 42.02"/>
      <polygon class="cls-62" points="26.96 42.02 28.78 21.99 29.15 21.99 27.33 42.02 26.96 42.02"/>
      <polygon class="cls-103" points="26.59 42.02 28.41 21.99 28.78 21.99 26.96 42.02 26.59 42.02"/>
      <polygon class="cls-54" points="26.22 42.02 28.04 21.99 28.41 21.99 26.59 42.02 26.22 42.02"/>
      <polygon class="cls-6" points="25.85 42.02 27.68 21.99 28.04 21.99 26.22 42.02 25.85 42.02"/>
      <polygon class="cls-8" points="25.49 42.02 27.31 21.99 27.68 21.99 25.85 42.02 25.49 42.02"/>
      <polygon class="cls-52" points="25.12 42.02 26.94 21.99 27.31 21.99 25.49 42.02 25.12 42.02"/>
      <polygon class="cls-112" points="24.75 42.02 26.57 21.99 26.94 21.99 25.12 42.02 24.75 42.02"/>
      <polygon class="cls-5" points="24.38 42.02 26.2 21.99 26.57 21.99 24.75 42.02 24.38 42.02"/>
      <polygon class="cls-46" points="24.01 42.02 25.84 21.99 26.2 21.99 24.38 42.02 24.01 42.02"/>
      <polygon class="cls-149" points="23.64 42.02 25.47 21.99 25.84 21.99 24.01 42.02 23.64 42.02"/>
      <polygon class="cls-151" points="23.28 42.02 25.1 21.99 25.47 21.99 23.64 42.02 23.28 42.02"/>
      <polygon class="cls-35" points="22.91 42.02 24.73 21.99 25.1 21.99 23.28 42.02 22.91 42.02"/>
      <polygon class="cls-53" points="22.54 42.02 24.36 21.99 24.73 21.99 22.91 42.02 22.54 42.02"/>
      <polygon class="cls-86" points="22.17 42.02 24 21.99 24.36 21.99 22.54 42.02 22.17 42.02"/>
      <polygon class="cls-126" points="21.8 42.02 23.63 21.99 24 21.99 22.17 42.02 21.8 42.02"/>
      <polygon class="cls-108" points="21.71 39.01 23.26 21.99 23.63 21.99 21.8 42.02 21.71 42.02 21.71 39.01"/>
      <polygon class="cls-88" points="21.71 34.96 22.89 21.99 23.26 21.99 21.71 39.01 21.71 34.96"/>
      <polygon class="cls-2" points="21.71 30.92 22.52 21.99 22.89 21.99 21.71 34.96 21.71 30.92"/>
      <polygon class="cls-2" points="22.52 21.99 21.71 30.92 21.71 21.99 22.52 21.99"/>
    </g>
    <ellipse class="cls-156" cx="32.75" cy="37.06" rx=".67" ry="1.43"/>
    <ellipse class="cls-156" cx="33.15" cy="26.55" rx="1.43" ry=".67" transform="translate(2.76 56.22) rotate(-83)"/>
    <g>
      <path d="M32.35,31.69c0-.09,0-.19.02-.28.07-.62.34-1.09.79-1.4.09-.06.22-.04.28.05.06.09.04.22-.05.28-.36.24-.56.6-.62,1.11-.06.51.07.95.38,1.34.07.09.06.21-.03.28s-.21.06-.28-.03c-.32-.4-.49-.86-.49-1.36Z"/>
      <path class="cls-76" d="M36.45,27.38c.01.39-.13.76-.38,1.03-.25.27-.6.44-1,.45s-.76-.13-1.03-.38c-.27-.25-.44-.6-.45-1s.13-.76.38-1.03c.25-.27.6-.44,1-.45s.76.13,1.03.38c.27.25.44.6.45,1Z"/>
      <path class="cls-20" d="M35.26,27.46c.26,0,.46-.22.45-.48s-.22-.46-.48-.45-.46.22-.45.48c0,.26.22.46.48.45Z"/>
      <path class="cls-76" d="M36.09,36.05c.01.39-.13.76-.38,1.03-.25.27-.6.44-1,.45s-.76-.13-1.03-.38c-.27-.25-.44-.6-.45-1s.13-.76.38-1.03c.25-.27.6-.44,1-.45s.76.13,1.03.38c.27.25.44.6.45,1Z"/>
      <g>
        <g>
          <path class="cls-154" d="M35.06,28.66c-.68.02-1.25-.51-1.27-1.19s.51-1.25,1.19-1.27,1.25.51,1.27,1.19-.51,1.25-1.19,1.27ZM35.08,29.06c.9-.03,1.6-.79,1.57-1.69s-.79-1.6-1.69-1.57-1.6.79-1.57,1.69.79,1.6,1.69,1.57Z"/>
          <path class="cls-154" d="M33.29,27.43c0-.44.16-.86.46-1.18.32-.34.74-.53,1.2-.55.46-.02.9.15,1.24.46.34.32.53.74.55,1.2.02.46-.15.9-.46,1.24-.32.34-.74.53-1.2.55h0c-.95.03-1.76-.72-1.79-1.67,0-.02,0-.04,0-.06ZM36.55,27.43s0-.04,0-.05c-.01-.41-.19-.79-.49-1.07-.3-.28-.69-.42-1.1-.41-.41.01-.79.19-1.07.49-.28.3-.42.69-.41,1.1.03.84.74,1.51,1.58,1.48h0c.41-.01.79-.19,1.07-.49.27-.29.41-.65.41-1.04ZM33.69,27.43c0-.34.13-.66.36-.91.24-.26.57-.41.93-.42.36-.01.69.11.95.36.26.24.41.57.42.93.03.73-.55,1.35-1.28,1.38-.36.01-.69-.11-.95-.36-.26-.24-.41-.57-.42-.93,0-.02,0-.03,0-.05ZM36.15,27.43s0-.03,0-.04c-.01-.3-.14-.58-.36-.79-.22-.21-.51-.31-.81-.3-.3.01-.58.14-.79.36-.21.22-.31.51-.3.81.01.3.14.58.36.79.22.21.51.31.81.3.61-.02,1.09-.52,1.09-1.13Z"/>
        </g>
        <g>
          <path class="cls-154" d="M34.7,37.33c-.68.02-1.25-.51-1.27-1.19s.51-1.25,1.19-1.27,1.25.51,1.27,1.19-.51,1.25-1.19,1.27ZM34.72,37.73c.9-.03,1.6-.79,1.57-1.69s-.79-1.6-1.69-1.57-1.6.79-1.57,1.69.79,1.6,1.69,1.57Z"/>
          <path class="cls-154" d="M32.93,36.1c0-.93.74-1.7,1.67-1.73.95-.03,1.76.72,1.79,1.67.02.46-.15.9-.46,1.24-.32.34-.74.53-1.2.55h0c-.46.02-.9-.15-1.24-.46-.34-.32-.53-.74-.55-1.2,0-.02,0-.04,0-.06ZM36.19,36.1s0-.04,0-.05c-.03-.84-.74-1.51-1.58-1.48-.84.03-1.5.74-1.48,1.58.01.41.19.79.49,1.07.3.28.69.42,1.1.41h0c.41-.01.79-.19,1.07-.49.27-.29.41-.65.41-1.04ZM33.33,36.1c0-.34.13-.66.36-.91.24-.26.57-.41.93-.42.73-.03,1.35.55,1.38,1.28.03.73-.55,1.35-1.28,1.38h0c-.73.03-1.35-.55-1.38-1.28,0-.02,0-.03,0-.05ZM35.79,36.1s0-.03,0-.04c-.02-.62-.55-1.11-1.17-1.09-.3.01-.58.14-.79.36-.21.22-.31.51-.3.81.02.62.55,1.11,1.17,1.09.61-.02,1.09-.52,1.09-1.13Z"/>
        </g>
        <path class="cls-20" d="M34.89,36.12c.26,0,.46-.22.45-.48s-.22-.46-.48-.45-.46.22-.45.48.22.46.48.45Z"/>
      </g>
    </g>
    <g>
      <g>
        <path class="cls-161" d="M24.44,29.34c0-.1.04-.19.11-.26l5.12-4.92c.15-.14.38-.14.52.01.14.15.14.38-.01.52l-5.12,4.92c-.15.14-.38.14-.52-.01-.07-.07-.1-.16-.1-.25Z"/>
        <path class="cls-161" d="M25.64,25.55c0-.09.03-.18.1-.25.14-.15.37-.15.52-.02l3.33,3.13c.15.14.15.37.02.52-.14.15-.37.15-.52.02l-3.33-3.13c-.08-.07-.12-.17-.12-.27Z"/>
      </g>
      <g>
        <path class="cls-161" d="M24.44,34.6c0-.09.03-.18.1-.25.14-.15.37-.15.52-.01l5.12,4.92c.15.14.15.37.01.52-.14.15-.37.15-.52.01l-5.12-4.92c-.07-.07-.11-.17-.11-.26Z"/>
        <path class="cls-161" d="M25.64,38.39c0-.1.04-.19.12-.27l3.33-3.13c.15-.14.38-.13.52.02.14.15.13.38-.02.52l-3.33,3.13c-.15.14-.38.13-.52-.02-.07-.07-.1-.16-.1-.25Z"/>
      </g>
      <g>
        <path class="cls-155" d="M37.61,30.74c0-.09.04-.19.11-.26.14-.14.37-.14.52,0l3.26,3.26c.14.14.14.37,0,.52-.14.14-.37.14-.52,0l-3.26-3.26c-.07-.07-.11-.17-.11-.26Z"/>
        <path class="cls-155" d="M37.61,33.34c0-.09.04-.19.11-.26l3.26-3.26c.14-.14.37-.14.52,0,.14.14.14.37,0,.52l-3.26,3.26c-.14.14-.37.14-.52,0-.07-.07-.11-.17-.11-.26Z"/>
      </g>
    </g>
  </g>
</svg>