<?xml version="1.0" encoding="UTF-8"?>
<svg id="Layer_1" xmlns="http://www.w3.org/2000/svg" xmlns:xlink="http://www.w3.org/1999/xlink" viewBox="0 0 64 64">
  <defs>
    <style>
      .cls-1, .cls-2 {
        fill: #ffc63a;
      }

      .cls-3 {
        fill: #52c25f;
      }

      .cls-3, .cls-4, .cls-5, .cls-6, .cls-7, .cls-8, .cls-9, .cls-10, .cls-11, .cls-12, .cls-13, .cls-14, .cls-15, .cls-16, .cls-17, .cls-18, .cls-19, .cls-20, .cls-21, .cls-22, .cls-23, .cls-24, .cls-25, .cls-26, .cls-27, .cls-28, .cls-29, .cls-30, .cls-31, .cls-32, .cls-33, .cls-34, .cls-35, .cls-36, .cls-37, .cls-38, .cls-39, .cls-40, .cls-41, .cls-42, .cls-43, .cls-44, .cls-45, .cls-46, .cls-47, .cls-48, .cls-49, .cls-50, .cls-51, .cls-52, .cls-53, .cls-54, .cls-55, .cls-56, .cls-57, .cls-58, .cls-59, .cls-60, .cls-61, .cls-62, .cls-63, .cls-64, .cls-65, .cls-66, .cls-67, .cls-68, .cls-69, .cls-70, .cls-71, .cls-72, .cls-73, .cls-74, .cls-75, .cls-76, .cls-77, .cls-78, .cls-79, .cls-80, .cls-2, .cls-81, .cls-82, .cls-83, .cls-84, .cls-85, .cls-86, .cls-87, .cls-88, .cls-89, .cls-90, .cls-91, .cls-92, .cls-93, .cls-94, .cls-95, .cls-96, .cls-97, .cls-98, .cls-99, .cls-100, .cls-101, .cls-102, .cls-103, .cls-104, .cls-105, .cls-106, .cls-107, .cls-108, .cls-109, .cls-110, .cls-111, .cls-112, .cls-113, .cls-114, .cls-115, .cls-116, .cls-117, .cls-118, .cls-119, .cls-120, .cls-121, .cls-122, .cls-123, .cls-124, .cls-125, .cls-126, .cls-127, .cls-128, .cls-129, .cls-130, .cls-131, .cls-132, .cls-133, .cls-134, .cls-135, .cls-136, .cls-137, .cls-138, .cls-139, .cls-140, .cls-141, .cls-142, .cls-143, .cls-144, .cls-145, .cls-146, .cls-147, .cls-148, .cls-149, .cls-150, .cls-151, .cls-152, .cls-153 {
        fill-rule: evenodd;
      }

      .cls-4 {
        fill: #52b95d;
      }

      .cls-5 {
        fill: #fc4;
      }

      .cls-6 {
        fill: #ffcf48;
      }

      .cls-7 {
        fill: #ffdc5e;
      }

      .cls-8 {
        fill: #ffce47;
      }

      .cls-9 {
        fill: #ffd654;
      }

      .cls-10 {
        fill: #89e99b;
      }

      .cls-11 {
        fill: #51a457;
      }

      .cls-12 {
        fill: #82e594;
      }

      .cls-13 {
        fill: #54cf65;
      }

      .cls-14 {
        fill: #51a858;
      }

      .cls-15 {
        fill: #51b65c;
      }

      .cls-16 {
        fill: #52c460;
      }

      .cls-17 {
        fill: #ffda5a;
      }

      .cls-18 {
        fill: #51b25b;
      }

      .cls-19 {
        fill: #83e695;
      }

      .cls-20, .cls-154 {
        fill: #fff;
      }

      .cls-21 {
        fill: #52bd5e;
      }

      .cls-22 {
        fill: #7be28d;
      }

      .cls-23 {
        fill: #7ce28e;
      }

      .cls-155, .cls-88 {
        fill: #ffc73b;
      }

      .cls-24 {
        fill: #5dd36e;
      }

      .cls-25 {
        fill: #ffd655;
      }

      .cls-26 {
        fill: #ffe165;
      }

      .cls-27 {
        fill: #71dd83;
      }

      .cls-28 {
        fill: #ffda5b;
      }

      .cls-29 {
        fill: #ffe56c;
      }

      .cls-30 {
        fill: #52c05f;
      }

      .cls-31 {
        fill: #5cd36d;
      }

      .cls-32 {
        fill: #51ac59;
      }

      .cls-33 {
        fill: #51a758;
      }

      .cls-34 {
        fill: #52c661;
      }

      .cls-35 {
        fill: #ffca40;
      }

      .cls-36 {
        fill: #5ed46f;
      }

      .cls-37 {
        fill: #75df87;
      }

      .cls-38 {
        fill: #ffe267;
      }

      .cls-39 {
        fill: #51b35b;
      }

      .cls-40 {
        fill: #ffd858;
      }

      .cls-41 {
        fill: #ffdc5d;
      }

      .cls-42 {
        fill: #87e899;
      }

      .cls-43 {
        fill: #73de85;
      }

      .cls-44 {
        fill: #6ddb7e;
      }

      .cls-45 {
        fill: #ffd450;
      }

      .cls-156 {
        fill: #eaadcc;
      }

      .cls-46 {
        fill: #ffcc43;
      }

      .cls-47 {
        fill: #86e798;
      }

      .cls-48 {
        fill: #51a356;
      }

      .cls-49 {
        fill: #51b45b;
      }

      .cls-50 {
        fill: #6edc80;
      }

      .cls-51 {
        fill: #ffdd60;
      }

      .cls-52 {
        fill: #ffce46;
      }

      .cls-53 {
        fill: #ffc93f;
      }

      .cls-54 {
        fill: #ffcf49;
      }

      .cls-55 {
        fill: #65d776;
      }

      .cls-56 {
        fill: #88e89a;
      }

      .cls-57 {
        fill: #ffe268;
      }

      .cls-58 {
        fill: #52ba5d;
      }

      .cls-59 {
        fill: #51b05a;
      }

      .cls-60 {
        fill: #51ae5a;
      }

      .cls-61 {
        fill: #52be5e;
      }

      .cls-62 {
        fill: #ffd14b;
      }

      .cls-63 {
        fill: #5ad26b;
      }

      .cls-64 {
        fill: #5fd470;
      }

      .cls-65 {
        fill: #63d674;
      }

      .cls-66 {
        fill: #52c15f;
      }

      .cls-67 {
        fill: #ffdf62;
      }

      .cls-68 {
        fill: #56d067;
      }

      .cls-69 {
        fill: #51ad59;
      }

      .cls-70 {
        fill: #77e089;
      }

      .cls-71 {
        fill: #6bda7c;
      }

      .cls-72 {
        fill: #52c761;
      }

      .cls-157 {
        clip-path: url(#clippath-1);
      }

      .cls-158 {
        clip-path: url(#clippath-3);
      }

      .cls-159 {
        clip-path: url(#clippath-2);
      }

      .cls-73 {
        fill: #ffe46a;
      }

      .cls-74 {
        fill: #52c360;
      }

      .cls-75 {
        fill: #ffdb5c;
      }

      .cls-77 {
        fill: #52c560;
      }

      .cls-78 {
        fill: #ffe46b;
      }

      .cls-79 {
        fill: #60d571;
      }

      .cls-80 {
        fill: #ffd34e;
      }

      .cls-81 {
        fill: #ffd857;
      }

      .cls-82 {
        fill: #ffd24d;
      }

      .cls-83 {
        fill: #ffe064;
      }

      .cls-84 {
        fill: #52bb5d;
      }

      .cls-85 {
        fill: #51a256;
      }

      .cls-86 {
        fill: #ffc93e;
      }

      .cls-87 {
        fill: #52bf5e;
      }

      .cls-160 {
        clip-rule: evenodd;
        fill: none;
      }

      .cls-89 {
        fill: #ffd552;
      }

      .cls-90 {
        fill: #8ae99c;
      }

      .cls-91 {
        fill: #81e593;
      }

      .cls-92 {
        fill: #ffd14c;
      }

      .cls-93 {
        fill: #52cc62;
      }

      .cls-94 {
        fill: #67d878;
      }

      .cls-95 {
        fill: #ffe369;
      }

      .cls-96 {
        fill: #74de86;
      }

      .cls-97 {
        fill: #52cd63;
      }

      .cls-98 {
        fill: #62d673;
      }

      .cls-99 {
        fill: #51b75c;
      }

      .cls-100 {
        fill: #7ae18c;
      }

      .cls-101 {
        fill: #69d97a;
      }

      .cls-102 {
        fill: #7ee390;
      }

      .cls-103 {
        fill: #ffd04a;
      }

      .cls-104 {
        fill: #51af5a;
      }

      .cls-105 {
        fill: #5bd26c;
      }

      .cls-106 {
        fill: #55cf66;
      }

      .cls-107 {
        fill: #ffe166;
      }

      .cls-108 {
        fill: #ffc73c;
      }

      .cls-109 {
        fill: #52cb62;
      }

      .cls-110 {
        fill: #51a657;
      }

      .cls-111 {
        fill: #51aa58;
      }

      .cls-112 {
        fill: #ffcd45;
      }

      .cls-113 {
        fill: #51a557;
      }

      .cls-114 {
        fill: #80e492;
      }

      .cls-115 {
        fill: #52bc5e;
      }

      .cls-116 {
        fill: #ffdf63;
      }

      .cls-117 {
        fill: #61d572;
      }

      .cls-118 {
        fill: #6fdc81;
      }

      .cls-119 {
        fill: #ffd756;
      }

      .cls-120 {
        fill: #6ada7b;
      }

      .cls-121 {
        fill: #ffd959;
      }

      .cls-122 {
        fill: #76df88;
      }

      .cls-123 {
        fill: #6cdb7d;
      }

      .cls-124 {
        fill: #85e797;
      }

      .cls-125 {
        fill: #51b55c;
      }

      .cls-126 {
        fill: #ffc83d;
      }

      .cls-127 {
        fill: #51ab59;
      }

      .cls-128 {
        fill: #84e696;
      }

      .cls-129 {
        fill: #ffdd5f;
      }

      .cls-130 {
        fill: #58d169;
      }

      .cls-131 {
        fill: #7de38f;
      }

      .cls-132 {
        fill: #72dd84;
      }

      .cls-133 {
        fill: #66d877;
      }

      .cls-161 {
        fill: #ecb732;
      }

      .cls-134 {
        fill: #7fe491;
      }

      .cls-135 {
        fill: #53ce64;
      }

      .cls-136 {
        fill: #59d16a;
      }

      .cls-137 {
        fill: #52ca62;
      }

      .cls-138 {
        fill: #68d979;
      }

      .cls-139 {
        fill: #ffd551;
      }

      .cls-140 {
        fill: #52c861;
      }

      .cls-141 {
        fill: #64d775;
      }

      .cls-142 {
        fill: #ffde61;
      }

      .cls-143 {
        fill: #57d068;
      }

      .cls-162 {
        clip-path: url(#clippath);
      }

      .cls-144 {
        fill: #52c961;
      }

      .cls-145 {
        fill: #79e18b;
      }

      .cls-146 {
        fill: #78e08a;
      }

      .cls-147 {
        fill: #70dc82;
      }

      .cls-148 {
        fill: #51a958;
      }

      .cls-149 {
        fill: #ffcb42;
      }

      .cls-150 {
        fill: #52ce63;
      }

      .cls-151 {
        fill: #ffca41;
      }

      .cls-152 {
        fill: #51b15b;
      }

      .cls-153 {
        fill: #ffd34f;
      }
    </style>
    <clipPath id="clippath">
      <path class="cls-160" d="M31.69,25.97c2.15-2.05,1.49-4.58-.45-7.64s-5.86-4.16-6.59-3.46-.89,5.67,1.05,8.74c1.94,3.07,3.84,4.41,5.99,2.37h0Z"/>
    </clipPath>
    <clipPath id="clippath-1">
      <path class="cls-160" d="M33.54,26.25c1.59,2.5,3.71,1.59,6.34-.92s3.72-7.3,3.18-8.15c-.54-.85-4.65-.81-7.27,1.7s-3.83,4.87-2.24,7.37h0Z"/>
    </clipPath>
    <clipPath id="clippath-2">
      <path class="cls-160" d="M32.67,24.87c2.64.32,3.67-2.11,4.16-6.05s-1.51-8.1-2.41-8.21-3.91,3.44-4.39,7.38,0,6.56,2.64,6.89Z"/>
    </clipPath>
    <clipPath id="clippath-3">
      <path class="cls-160" d="M32.01,42.29c5.53,0,10.01-1.61,10.01-8.89s-4.48-13.26-10.01-13.26-10.01,5.98-10.01,13.26,4.48,8.89,10.01,8.89Z"/>
    </clipPath>
  </defs>
  <rect class="cls-1" x="22" y="33.55" width="20.01" height="42.19"/>
  <g>
    <g>
      <g class="cls-162">
        <polygon class="cls-150" points="28.8 14.17 23.75 15.21 23.75 14.17 28.8 14.17"/>
        <polygon class="cls-150" points="29.41 14.17 23.75 15.34 23.75 15.21 28.8 14.17 29.41 14.17"/>
        <polygon class="cls-97" points="30.03 14.17 23.75 15.46 23.75 15.34 29.41 14.17 30.03 14.17"/>
        <polygon class="cls-93" points="30.64 14.17 23.75 15.59 23.75 15.46 30.03 14.17 30.64 14.17"/>
        <polygon class="cls-109" points="31.26 14.17 23.75 15.72 23.75 15.59 30.64 14.17 31.26 14.17"/>
        <polygon class="cls-137" points="31.87 14.17 23.75 15.84 23.75 15.72 31.26 14.17 31.87 14.17"/>
        <polygon class="cls-144" points="32.49 14.17 23.75 15.97 23.75 15.84 31.87 14.17 32.49 14.17"/>
        <polygon class="cls-140" points="33.1 14.17 23.75 16.1 23.75 15.97 32.49 14.17 33.1 14.17"/>
        <polygon class="cls-72" points="33.72 14.17 23.75 16.22 23.75 16.1 33.1 14.17 33.72 14.17"/>
        <polygon class="cls-34" points="33.83 14.27 23.75 16.35 23.75 16.22 33.72 14.17 33.83 14.17 33.83 14.27"/>
        <polygon class="cls-77" points="33.83 14.4 23.75 16.48 23.75 16.35 33.83 14.27 33.83 14.4"/>
        <polygon class="cls-16" points="33.83 14.53 23.75 16.6 23.75 16.48 33.83 14.4 33.83 14.53"/>
        <polygon class="cls-74" points="33.83 14.65 23.75 16.73 23.75 16.6 33.83 14.53 33.83 14.65"/>
        <polygon class="cls-3" points="33.83 14.78 23.75 16.86 23.75 16.73 33.83 14.65 33.83 14.78"/>
        <polygon class="cls-66" points="33.83 14.91 23.75 16.99 23.75 16.86 33.83 14.78 33.83 14.91"/>
        <polygon class="cls-30" points="33.83 15.04 23.75 17.11 23.75 16.99 33.83 14.91 33.83 15.04"/>
        <polygon class="cls-87" points="33.83 15.16 23.75 17.24 23.75 17.11 33.83 15.04 33.83 15.16"/>
        <polygon class="cls-61" points="33.83 15.29 23.75 17.37 23.75 17.24 33.83 15.16 33.83 15.29"/>
        <polygon class="cls-21" points="33.83 15.42 23.75 17.49 23.75 17.37 33.83 15.29 33.83 15.42"/>
        <polygon class="cls-115" points="33.83 15.54 23.75 17.62 23.75 17.49 33.83 15.42 33.83 15.54"/>
        <polygon class="cls-84" points="33.83 15.67 23.75 17.75 23.75 17.62 33.83 15.54 33.83 15.67"/>
        <polygon class="cls-58" points="33.83 15.8 23.75 17.87 23.75 17.75 33.83 15.67 33.83 15.8"/>
        <polygon class="cls-4" points="33.83 15.92 23.75 18 23.75 17.87 33.83 15.8 33.83 15.92"/>
        <polygon class="cls-99" points="33.83 16.05 23.75 18.13 23.75 18 33.83 15.92 33.83 16.05"/>
        <polygon class="cls-15" points="33.83 16.18 23.75 18.25 23.75 18.13 33.83 16.05 33.83 16.18"/>
        <polygon class="cls-125" points="33.83 16.3 23.75 18.38 23.75 18.25 33.83 16.18 33.83 16.3"/>
        <polygon class="cls-49" points="33.83 16.43 23.75 18.51 23.75 18.38 33.83 16.3 33.83 16.43"/>
        <polygon class="cls-39" points="33.83 16.56 23.75 18.63 23.75 18.51 33.83 16.43 33.83 16.56"/>
        <polygon class="cls-18" points="33.83 16.68 23.75 18.76 23.75 18.63 33.83 16.56 33.83 16.68"/>
        <polygon class="cls-152" points="33.83 16.81 23.75 18.89 23.75 18.76 33.83 16.68 33.83 16.81"/>
        <polygon class="cls-59" points="33.83 16.94 23.75 19.01 23.75 18.89 33.83 16.81 33.83 16.94"/>
        <polygon class="cls-104" points="33.83 17.06 23.75 19.14 23.75 19.01 33.83 16.94 33.83 17.06"/>
        <polygon class="cls-60" points="33.83 17.19 23.75 19.27 23.75 19.14 33.83 17.06 33.83 17.19"/>
        <polygon class="cls-69" points="33.83 17.32 23.75 19.4 23.75 19.27 33.83 17.19 33.83 17.32"/>
        <polygon class="cls-32" points="33.83 17.44 23.75 19.52 23.75 19.4 33.83 17.32 33.83 17.44"/>
        <polygon class="cls-127" points="33.83 17.57 23.75 19.65 23.75 19.52 33.83 17.44 33.83 17.57"/>
        <polygon class="cls-111" points="33.83 17.7 23.75 19.78 23.75 19.65 33.83 17.57 33.83 17.7"/>
        <polygon class="cls-148" points="33.83 17.83 23.75 19.9 23.75 19.78 33.83 17.7 33.83 17.83"/>
        <polygon class="cls-14" points="33.83 17.95 23.75 20.03 23.75 19.9 33.83 17.83 33.83 17.95"/>
        <polygon class="cls-33" points="33.83 18.08 23.75 20.16 23.75 20.03 33.83 17.95 33.83 18.08"/>
        <polygon class="cls-110" points="33.83 18.21 23.75 20.28 23.75 20.16 33.83 18.08 33.83 18.21"/>
        <polygon class="cls-113" points="33.83 18.33 23.75 20.41 23.75 20.28 33.83 18.21 33.83 18.33"/>
        <polygon class="cls-11" points="33.83 18.46 23.75 20.54 23.75 20.41 33.83 18.33 33.83 18.46"/>
        <polygon class="cls-48" points="33.83 18.59 23.75 20.66 23.75 20.54 33.83 18.46 33.83 18.59"/>
        <polygon class="cls-85" points="33.83 18.71 23.75 20.79 23.75 20.66 33.83 18.59 33.83 18.71"/>
        <polygon class="cls-85" points="23.75 20.79 33.83 18.71 33.83 28.01 23.75 28.01 23.75 20.79"/>
      </g>
      <g class="cls-157">
        <polygon class="cls-150" points="43.6 17.36 43.39 16.33 43.6 16.33 43.6 17.36"/>
        <polygon class="cls-150" points="43.6 17.98 43.26 16.33 43.39 16.33 43.6 17.36 43.6 17.98"/>
        <polygon class="cls-97" points="43.6 18.59 43.13 16.33 43.26 16.33 43.6 17.98 43.6 18.59"/>
        <polygon class="cls-93" points="43.6 19.21 43.01 16.33 43.13 16.33 43.6 18.59 43.6 19.21"/>
        <polygon class="cls-109" points="43.6 19.83 42.88 16.33 43.01 16.33 43.6 19.21 43.6 19.83"/>
        <polygon class="cls-137" points="43.6 20.44 42.75 16.33 42.88 16.33 43.6 19.83 43.6 20.44"/>
        <polygon class="cls-144" points="43.6 21.06 42.63 16.33 42.75 16.33 43.6 20.44 43.6 21.06"/>
        <polygon class="cls-140" points="43.6 21.68 42.5 16.33 42.63 16.33 43.6 21.06 43.6 21.68"/>
        <polygon class="cls-72" points="43.6 22.29 42.37 16.33 42.5 16.33 43.6 21.68 43.6 22.29"/>
        <polygon class="cls-34" points="43.6 22.91 42.25 16.33 42.37 16.33 43.6 22.29 43.6 22.91"/>
        <polygon class="cls-77" points="43.6 23.52 42.12 16.33 42.25 16.33 43.6 22.91 43.6 23.52"/>
        <polygon class="cls-16" points="43.6 24.14 41.99 16.33 42.12 16.33 43.6 23.52 43.6 24.14"/>
        <polygon class="cls-74" points="43.6 24.76 41.87 16.33 41.99 16.33 43.6 24.14 43.6 24.76"/>
        <polygon class="cls-3" points="43.6 25.37 41.74 16.33 41.87 16.33 43.6 24.76 43.6 25.37"/>
        <polygon class="cls-66" points="43.6 25.99 41.61 16.33 41.74 16.33 43.6 25.37 43.6 25.99"/>
        <polygon class="cls-30" points="43.6 26.61 41.49 16.33 41.61 16.33 43.6 25.99 43.6 26.61"/>
        <polygon class="cls-87" points="43.6 27.22 41.36 16.33 41.49 16.33 43.6 26.61 43.6 27.22"/>
        <polygon class="cls-61" points="43.6 27.84 41.23 16.33 41.36 16.33 43.6 27.22 43.6 27.84"/>
        <polygon class="cls-21" points="43.6 28.45 41.11 16.33 41.23 16.33 43.6 27.84 43.6 28.45"/>
        <polygon class="cls-115" points="43.54 28.76 40.98 16.33 41.11 16.33 43.6 28.45 43.6 28.76 43.54 28.76"/>
        <polygon class="cls-84" points="43.41 28.76 40.85 16.33 40.98 16.33 43.54 28.76 43.41 28.76"/>
        <polygon class="cls-58" points="43.28 28.76 40.73 16.33 40.85 16.33 43.41 28.76 43.28 28.76"/>
        <polygon class="cls-4" points="43.16 28.76 40.6 16.33 40.73 16.33 43.28 28.76 43.16 28.76"/>
        <polygon class="cls-99" points="43.03 28.76 40.47 16.33 40.6 16.33 43.16 28.76 43.03 28.76"/>
        <polygon class="cls-15" points="42.9 28.76 40.34 16.33 40.47 16.33 43.03 28.76 42.9 28.76"/>
        <polygon class="cls-125" points="42.77 28.76 40.22 16.33 40.34 16.33 42.9 28.76 42.77 28.76"/>
        <polygon class="cls-49" points="42.65 28.76 40.09 16.33 40.22 16.33 42.77 28.76 42.65 28.76"/>
        <polygon class="cls-39" points="42.52 28.76 39.96 16.33 40.09 16.33 42.65 28.76 42.52 28.76"/>
        <polygon class="cls-18" points="42.39 28.76 39.84 16.33 39.96 16.33 42.52 28.76 42.39 28.76"/>
        <polygon class="cls-152" points="42.27 28.76 39.71 16.33 39.84 16.33 42.39 28.76 42.27 28.76"/>
        <polygon class="cls-59" points="42.14 28.76 39.58 16.33 39.71 16.33 42.27 28.76 42.14 28.76"/>
        <polygon class="cls-104" points="42.01 28.76 39.46 16.33 39.58 16.33 42.14 28.76 42.01 28.76"/>
        <polygon class="cls-60" points="41.89 28.76 39.33 16.33 39.46 16.33 42.01 28.76 41.89 28.76"/>
        <polygon class="cls-69" points="41.76 28.76 39.2 16.33 39.33 16.33 41.89 28.76 41.76 28.76"/>
        <polygon class="cls-32" points="41.63 28.76 39.08 16.33 39.2 16.33 41.76 28.76 41.63 28.76"/>
        <polygon class="cls-127" points="41.51 28.76 38.95 16.33 39.08 16.33 41.63 28.76 41.51 28.76"/>
        <polygon class="cls-111" points="41.38 28.76 38.82 16.33 38.95 16.33 41.51 28.76 41.38 28.76"/>
        <polygon class="cls-148" points="41.25 28.76 38.7 16.33 38.82 16.33 41.38 28.76 41.25 28.76"/>
        <polygon class="cls-14" points="41.13 28.76 38.57 16.33 38.7 16.33 41.25 28.76 41.13 28.76"/>
        <polygon class="cls-33" points="41 28.76 38.44 16.33 38.57 16.33 41.13 28.76 41 28.76"/>
        <polygon class="cls-110" points="40.87 28.76 38.32 16.33 38.44 16.33 41 28.76 40.87 28.76"/>
        <polygon class="cls-113" points="40.75 28.76 38.19 16.33 38.32 16.33 40.87 28.76 40.75 28.76"/>
        <polygon class="cls-11" points="40.62 28.76 38.06 16.33 38.19 16.33 40.75 28.76 40.62 28.76"/>
        <polygon class="cls-48" points="40.49 28.76 37.94 16.33 38.06 16.33 40.62 28.76 40.49 28.76"/>
        <polygon class="cls-85" points="40.37 28.76 37.81 16.33 37.94 16.33 40.49 28.76 40.37 28.76"/>
        <polygon class="cls-85" points="37.81 16.33 40.37 28.76 31.95 28.76 31.95 16.33 37.81 16.33"/>
      </g>
      <g class="cls-159">
        <polygon class="cls-90" points="37.32 10.97 33.53 10.5 37.32 10.5 37.32 10.97"/>
        <polygon class="cls-90" points="37.32 11.12 32.31 10.5 33.53 10.5 37.32 10.97 37.32 11.12"/>
        <polygon class="cls-10" points="37.32 11.27 31.1 10.5 32.31 10.5 37.32 11.12 37.32 11.27"/>
        <polygon class="cls-56" points="37.32 11.41 29.88 10.5 31.1 10.5 37.32 11.27 37.32 11.41"/>
        <polygon class="cls-42" points="37.32 11.56 29.55 10.61 29.55 10.5 29.88 10.5 37.32 11.41 37.32 11.56"/>
        <polygon class="cls-47" points="37.32 11.71 29.55 10.76 29.55 10.61 37.32 11.56 37.32 11.71"/>
        <polygon class="cls-124" points="37.32 11.86 29.55 10.91 29.55 10.76 37.32 11.71 37.32 11.86"/>
        <polygon class="cls-128" points="37.32 12.01 29.55 11.06 29.55 10.91 37.32 11.86 37.32 12.01"/>
        <polygon class="cls-19" points="37.32 12.16 29.55 11.21 29.55 11.06 37.32 12.01 37.32 12.16"/>
        <polygon class="cls-12" points="37.32 12.31 29.55 11.36 29.55 11.21 37.32 12.16 37.32 12.31"/>
        <polygon class="cls-91" points="37.32 12.46 29.55 11.51 29.55 11.36 37.32 12.31 37.32 12.46"/>
        <polygon class="cls-114" points="37.32 12.61 29.55 11.66 29.55 11.51 37.32 12.46 37.32 12.61"/>
        <polygon class="cls-134" points="37.32 12.76 29.55 11.81 29.55 11.66 37.32 12.61 37.32 12.76"/>
        <polygon class="cls-102" points="37.32 12.91 29.55 11.95 29.55 11.81 37.32 12.76 37.32 12.91"/>
        <polygon class="cls-131" points="37.32 13.06 29.55 12.1 29.55 11.95 37.32 12.91 37.32 13.06"/>
        <polygon class="cls-23" points="37.32 13.21 29.55 12.25 29.55 12.1 37.32 13.06 37.32 13.21"/>
        <polygon class="cls-22" points="37.32 13.36 29.55 12.4 29.55 12.25 37.32 13.21 37.32 13.36"/>
        <polygon class="cls-100" points="37.32 13.51 29.55 12.55 29.55 12.4 37.32 13.36 37.32 13.51"/>
        <polygon class="cls-145" points="37.32 13.66 29.55 12.7 29.55 12.55 37.32 13.51 37.32 13.66"/>
        <polygon class="cls-146" points="37.32 13.8 29.55 12.85 29.55 12.7 37.32 13.66 37.32 13.8"/>
        <polygon class="cls-70" points="37.32 13.95 29.55 13 29.55 12.85 37.32 13.8 37.32 13.95"/>
        <polygon class="cls-122" points="37.32 14.1 29.55 13.15 29.55 13 37.32 13.95 37.32 14.1"/>
        <polygon class="cls-37" points="37.32 14.25 29.55 13.3 29.55 13.15 37.32 14.1 37.32 14.25"/>
        <polygon class="cls-96" points="37.32 14.4 29.55 13.45 29.55 13.3 37.32 14.25 37.32 14.4"/>
        <polygon class="cls-43" points="37.32 14.55 29.55 13.6 29.55 13.45 37.32 14.4 37.32 14.55"/>
        <polygon class="cls-132" points="37.32 14.7 29.55 13.75 29.55 13.6 37.32 14.55 37.32 14.7"/>
        <polygon class="cls-27" points="37.32 14.85 29.55 13.9 29.55 13.75 37.32 14.7 37.32 14.85"/>
        <polygon class="cls-147" points="37.32 15 29.55 14.05 29.55 13.9 37.32 14.85 37.32 15"/>
        <polygon class="cls-118" points="37.32 15.15 29.55 14.19 29.55 14.05 37.32 15 37.32 15.15"/>
        <polygon class="cls-50" points="37.32 15.3 29.55 14.34 29.55 14.19 37.32 15.15 37.32 15.3"/>
        <polygon class="cls-44" points="37.32 15.45 29.55 14.49 29.55 14.34 37.32 15.3 37.32 15.45"/>
        <polygon class="cls-123" points="37.32 15.6 29.55 14.64 29.55 14.49 37.32 15.45 37.32 15.6"/>
        <polygon class="cls-71" points="37.32 15.75 29.55 14.79 29.55 14.64 37.32 15.6 37.32 15.75"/>
        <polygon class="cls-120" points="37.32 15.9 29.55 14.94 29.55 14.79 37.32 15.75 37.32 15.9"/>
        <polygon class="cls-101" points="37.32 16.04 29.55 15.09 29.55 14.94 37.32 15.9 37.32 16.04"/>
        <polygon class="cls-138" points="37.32 16.19 29.55 15.24 29.55 15.09 37.32 16.04 37.32 16.19"/>
        <polygon class="cls-94" points="37.32 16.34 29.55 15.39 29.55 15.24 37.32 16.19 37.32 16.34"/>
        <polygon class="cls-133" points="37.32 16.49 29.55 15.54 29.55 15.39 37.32 16.34 37.32 16.49"/>
        <polygon class="cls-55" points="37.32 16.64 29.55 15.69 29.55 15.54 37.32 16.49 37.32 16.64"/>
        <polygon class="cls-141" points="37.32 16.79 29.55 15.84 29.55 15.69 37.32 16.64 37.32 16.79"/>
        <polygon class="cls-65" points="37.32 16.94 29.55 15.99 29.55 15.84 37.32 16.79 37.32 16.94"/>
        <polygon class="cls-98" points="37.32 17.09 29.55 16.14 29.55 15.99 37.32 16.94 37.32 17.09"/>
        <polygon class="cls-117" points="37.32 17.24 29.55 16.29 29.55 16.14 37.32 17.09 37.32 17.24"/>
        <polygon class="cls-79" points="37.32 17.39 29.55 16.44 29.55 16.29 37.32 17.24 37.32 17.39"/>
        <polygon class="cls-64" points="37.32 17.54 29.55 16.58 29.55 16.44 37.32 17.39 37.32 17.54"/>
        <polygon class="cls-36" points="37.32 17.69 29.55 16.73 29.55 16.58 37.32 17.54 37.32 17.69"/>
        <polygon class="cls-24" points="37.32 17.84 29.55 16.88 29.55 16.73 37.32 17.69 37.32 17.84"/>
        <polygon class="cls-31" points="37.32 17.99 29.55 17.03 29.55 16.88 37.32 17.84 37.32 17.99"/>
        <polygon class="cls-105" points="37.32 18.14 29.55 17.18 29.55 17.03 37.32 17.99 37.32 18.14"/>
        <polygon class="cls-63" points="37.32 18.29 29.55 17.33 29.55 17.18 37.32 18.14 37.32 18.29"/>
        <polygon class="cls-136" points="37.32 18.43 29.55 17.48 29.55 17.33 37.32 18.29 37.32 18.43"/>
        <polygon class="cls-130" points="37.32 18.58 29.55 17.63 29.55 17.48 37.32 18.43 37.32 18.58"/>
        <polygon class="cls-143" points="37.32 18.73 29.55 17.78 29.55 17.63 37.32 18.58 37.32 18.73"/>
        <polygon class="cls-68" points="37.32 18.88 29.55 17.93 29.55 17.78 37.32 18.73 37.32 18.88"/>
        <polygon class="cls-106" points="37.32 19.03 29.55 18.08 29.55 17.93 37.32 18.88 37.32 19.03"/>
        <polygon class="cls-13" points="37.32 19.18 29.55 18.23 29.55 18.08 37.32 19.03 37.32 19.18"/>
        <polygon class="cls-135" points="37.32 19.33 29.55 18.38 29.55 18.23 37.32 19.18 37.32 19.33"/>
        <polygon class="cls-150" points="37.32 19.48 29.55 18.53 29.55 18.38 37.32 19.33 37.32 19.48"/>
        <polygon class="cls-150" points="29.55 18.53 37.32 19.48 37.32 25.2 29.55 25.2 29.55 18.53"/>
      </g>
    </g>
    <g class="cls-158">
      <polygon class="cls-29" points="42.02 24.89 22 23.07 22 20.14 42.02 20.14 42.02 24.89"/>
      <polygon class="cls-29" points="42.02 25.26 22 23.44 22 23.07 42.02 24.89 42.02 25.26"/>
      <polygon class="cls-78" points="42.02 25.63 22 23.81 22 23.44 42.02 25.26 42.02 25.63"/>
      <polygon class="cls-73" points="42.02 26 22 24.18 22 23.81 42.02 25.63 42.02 26"/>
      <polygon class="cls-95" points="42.02 26.37 22 24.54 22 24.18 42.02 26 42.02 26.37"/>
      <polygon class="cls-57" points="42.02 26.74 22 24.91 22 24.54 42.02 26.37 42.02 26.74"/>
      <polygon class="cls-38" points="42.02 27.1 22 25.28 22 24.91 42.02 26.74 42.02 27.1"/>
      <polygon class="cls-107" points="42.02 27.47 22 25.65 22 25.28 42.02 27.1 42.02 27.47"/>
      <polygon class="cls-26" points="42.02 27.84 22 26.02 22 25.65 42.02 27.47 42.02 27.84"/>
      <polygon class="cls-83" points="42.02 28.21 22 26.38 22 26.02 42.02 27.84 42.02 28.21"/>
      <polygon class="cls-116" points="42.02 28.58 22 26.75 22 26.38 42.02 28.21 42.02 28.58"/>
      <polygon class="cls-67" points="42.02 28.94 22 27.12 22 26.75 42.02 28.58 42.02 28.94"/>
      <polygon class="cls-142" points="42.02 29.31 22 27.49 22 27.12 42.02 28.94 42.02 29.31"/>
      <polygon class="cls-51" points="42.02 29.68 22 27.86 22 27.49 42.02 29.31 42.02 29.68"/>
      <polygon class="cls-129" points="42.02 30.05 22 28.22 22 27.86 42.02 29.68 42.02 30.05"/>
      <polygon class="cls-7" points="42.02 30.42 22 28.59 22 28.22 42.02 30.05 42.02 30.42"/>
      <polygon class="cls-41" points="42.02 30.78 22 28.96 22 28.59 42.02 30.42 42.02 30.78"/>
      <polygon class="cls-75" points="42.02 31.15 22 29.33 22 28.96 42.02 30.78 42.02 31.15"/>
      <polygon class="cls-28" points="42.02 31.52 22 29.7 22 29.33 42.02 31.15 42.02 31.52"/>
      <polygon class="cls-17" points="42.02 31.89 22 30.07 22 29.7 42.02 31.52 42.02 31.89"/>
      <polygon class="cls-121" points="42.02 32.26 22 30.43 22 30.07 42.02 31.89 42.02 32.26"/>
      <polygon class="cls-40" points="42.02 32.62 22 30.8 22 30.43 42.02 32.26 42.02 32.62"/>
      <polygon class="cls-81" points="42.02 32.99 22 31.17 22 30.8 42.02 32.62 42.02 32.99"/>
      <polygon class="cls-119" points="42.02 33.36 22 31.54 22 31.17 42.02 32.99 42.02 33.36"/>
      <polygon class="cls-25" points="42.02 33.73 22 31.91 22 31.54 42.02 33.36 42.02 33.73"/>
      <polygon class="cls-9" points="42.02 34.1 22 32.27 22 31.91 42.02 33.73 42.02 34.1"/>
      <polygon class="cls-89" points="42.02 34.47 22 32.64 22 32.27 42.02 34.1 42.02 34.47"/>
      <polygon class="cls-139" points="42.02 34.83 22 33.01 22 32.64 42.02 34.47 42.02 34.83"/>
      <polygon class="cls-45" points="42.02 35.2 22 33.38 22 33.01 42.02 34.83 42.02 35.2"/>
      <polygon class="cls-153" points="42.02 35.57 22 33.75 22 33.38 42.02 35.2 42.02 35.57"/>
      <polygon class="cls-80" points="42.02 35.94 22 34.11 22 33.75 42.02 35.57 42.02 35.94"/>
      <polygon class="cls-82" points="42.02 36.31 22 34.48 22 34.11 42.02 35.94 42.02 36.31"/>
      <polygon class="cls-92" points="42.02 36.67 22 34.85 22 34.48 42.02 36.31 42.02 36.67"/>
      <polygon class="cls-62" points="42.02 37.04 22 35.22 22 34.85 42.02 36.67 42.02 37.04"/>
      <polygon class="cls-103" points="42.02 37.41 22 35.59 22 35.22 42.02 37.04 42.02 37.41"/>
      <polygon class="cls-54" points="42.02 37.78 22 35.96 22 35.59 42.02 37.41 42.02 37.78"/>
      <polygon class="cls-6" points="42.02 38.15 22 36.32 22 35.96 42.02 37.78 42.02 38.15"/>
      <polygon class="cls-8" points="42.02 38.51 22 36.69 22 36.32 42.02 38.15 42.02 38.51"/>
      <polygon class="cls-52" points="42.02 38.88 22 37.06 22 36.69 42.02 38.51 42.02 38.88"/>
      <polygon class="cls-112" points="42.02 39.25 22 37.43 22 37.06 42.02 38.88 42.02 39.25"/>
      <polygon class="cls-5" points="42.02 39.62 22 37.8 22 37.43 42.02 39.25 42.02 39.62"/>
      <polygon class="cls-46" points="42.02 39.99 22 38.16 22 37.8 42.02 39.62 42.02 39.99"/>
      <polygon class="cls-149" points="42.02 40.36 22 38.53 22 38.16 42.02 39.99 42.02 40.36"/>
      <polygon class="cls-151" points="42.02 40.72 22 38.9 22 38.53 42.02 40.36 42.02 40.72"/>
      <polygon class="cls-35" points="42.02 41.09 22 39.27 22 38.9 42.02 40.72 42.02 41.09"/>
      <polygon class="cls-53" points="42.02 41.46 22 39.64 22 39.27 42.02 41.09 42.02 41.46"/>
      <polygon class="cls-86" points="42.02 41.83 22 40 22 39.64 42.02 41.46 42.02 41.83"/>
      <polygon class="cls-126" points="42.02 42.2 22 40.37 22 40 42.02 41.83 42.02 42.2"/>
      <polygon class="cls-108" points="39.01 42.29 22 40.74 22 40.37 42.02 42.2 42.02 42.29 39.01 42.29"/>
      <polygon class="cls-88" points="34.97 42.29 22 41.11 22 40.74 39.01 42.29 34.97 42.29"/>
      <polygon class="cls-2" points="30.93 42.29 22 41.48 22 41.11 34.97 42.29 30.93 42.29"/>
      <polygon class="cls-2" points="22 41.48 30.93 42.29 22 42.29 22 41.48"/>
    </g>
    <ellipse class="cls-156" cx="37.07" cy="31.25" rx="1.43" ry=".67"/>
    <ellipse class="cls-156" cx="26.56" cy="30.85" rx=".67" ry="1.43" transform="translate(-7.3 53.45) rotate(-83)"/>
    <g>
      <path d="M31.69,31.65c-.09,0-.19,0-.28-.02-.62-.07-1.09-.34-1.4-.79-.06-.09-.04-.22.05-.28.09-.06.22-.04.28.05.24.36.6.56,1.11.62.51.06.95-.07,1.34-.38.09-.07.21-.06.28.03s.06.21-.03.28c-.4.32-.86.49-1.36.49Z"/>
      <path class="cls-76" d="M27.39,27.55c.39-.01.76.13,1.03.38.27.25.44.6.45,1s-.13.76-.38,1.03c-.25.27-.6.44-1,.45s-.76-.13-1.03-.38c-.27-.25-.44-.6-.45-1s.13-.76.38-1.03c.25-.27.6-.44,1-.45Z"/>
      <path class="cls-20" d="M27.46,28.74c0-.26-.22-.46-.48-.45s-.46.22-.45.48.22.46.48.45c.26,0,.46-.22.45-.48Z"/>
      <path class="cls-76" d="M36.05,27.91c.39-.01.76.13,1.03.38.27.25.44.6.45,1s-.13.76-.38,1.03c-.25.27-.6.44-1,.45s-.76-.13-1.03-.38c-.27-.25-.44-.6-.45-1s.13-.76.38-1.03c.25-.27.6-.44,1-.45Z"/>
      <g>
        <g>
          <path class="cls-154" d="M28.67,28.94c.02.68-.51,1.25-1.19,1.27s-1.25-.51-1.27-1.19.51-1.25,1.19-1.27,1.25.51,1.27,1.19ZM29.07,28.92c-.03-.9-.79-1.6-1.69-1.57s-1.6.79-1.57,1.69.79,1.6,1.69,1.57,1.6-.79,1.57-1.69Z"/>
          <path class="cls-154" d="M27.44,30.71c-.44,0-.86-.16-1.18-.46-.34-.32-.53-.74-.55-1.2-.02-.46.15-.9.46-1.24.32-.34.74-.53,1.2-.55.46-.02.9.15,1.24.46.34.32.53.74.55,1.2h0c.03.95-.72,1.76-1.67,1.79-.02,0-.04,0-.06,0ZM27.44,27.45s-.04,0-.05,0c-.41.01-.79.19-1.07.49-.28.3-.42.69-.41,1.1.01.41.19.79.49,1.07.3.28.69.42,1.1.41.84-.03,1.51-.74,1.48-1.58h0c-.01-.41-.19-.79-.49-1.07-.29-.27-.65-.41-1.04-.41ZM27.44,30.31c-.34,0-.66-.13-.91-.36-.26-.24-.41-.57-.42-.93-.01-.36.11-.69.36-.95.24-.26.57-.41.93-.42.73-.03,1.35.55,1.38,1.28.01.36-.11.69-.36.95-.24.26-.57.41-.93.42-.02,0-.03,0-.05,0ZM27.44,27.85s-.03,0-.04,0c-.3.01-.58.14-.79.36-.21.22-.31.51-.3.81.01.3.14.58.36.79.22.21.51.31.81.3.3-.01.58-.14.79-.36.21-.22.31-.51.3-.81-.02-.61-.52-1.09-1.13-1.09Z"/>
        </g>
        <g>
          <path class="cls-154" d="M37.33,29.3c.02.68-.51,1.25-1.19,1.27s-1.25-.51-1.27-1.19.51-1.25,1.19-1.27,1.25.51,1.27,1.19ZM37.73,29.28c-.03-.9-.79-1.6-1.69-1.57s-1.6.79-1.57,1.69.79,1.6,1.69,1.57,1.6-.79,1.57-1.69Z"/>
          <path class="cls-154" d="M36.1,31.07c-.93,0-1.7-.74-1.73-1.67-.03-.95.72-1.76,1.67-1.79.46-.02.9.15,1.24.46.34.32.53.74.55,1.2h0c.02.46-.15.9-.46,1.24-.32.34-.74.53-1.2.55-.02,0-.04,0-.06,0ZM36.1,27.81s-.04,0-.05,0c-.84.03-1.51.74-1.48,1.58.03.84.74,1.5,1.58,1.48.41-.01.79-.19,1.07-.49.28-.3.42-.69.41-1.1h0c-.01-.41-.19-.79-.49-1.07-.29-.27-.65-.41-1.04-.41ZM36.1,30.67c-.34,0-.66-.13-.91-.36-.26-.24-.41-.57-.42-.93-.03-.73.55-1.35,1.28-1.38.73-.03,1.35.55,1.38,1.28h0c.03.73-.55,1.35-1.28,1.38-.02,0-.03,0-.05,0ZM36.1,28.21s-.03,0-.04,0c-.62.02-1.11.55-1.09,1.17.01.3.14.58.36.79.22.21.51.31.81.3.62-.02,1.11-.55,1.09-1.17-.02-.61-.52-1.09-1.13-1.09Z"/>
        </g>
        <path class="cls-20" d="M36.13,29.11c0-.26-.22-.46-.48-.45s-.46.22-.45.48.22.46.48.45.46-.22.45-.48Z"/>
      </g>
    </g>
    <g>
      <g>
        <path class="cls-161" d="M29.35,39.56c-.1,0-.19-.04-.26-.11l-4.92-5.12c-.14-.15-.14-.38.01-.52.15-.14.38-.14.52.01l4.92,5.12c.14.15.14.38-.01.52-.07.07-.16.1-.25.1Z"/>
        <path class="cls-161" d="M25.56,38.36c-.09,0-.18-.03-.25-.1-.15-.14-.15-.37-.02-.52l3.13-3.33c.14-.15.37-.15.52-.02.15.14.15.37.02.52l-3.13,3.33c-.07.08-.17.12-.27.12Z"/>
      </g>
      <g>
        <path class="cls-161" d="M34.61,39.56c-.09,0-.18-.03-.25-.1-.15-.14-.15-.37-.01-.52l4.92-5.12c.14-.15.37-.15.52-.01.15.14.15.37.01.52l-4.92,5.12c-.07.07-.17.11-.26.11Z"/>
        <path class="cls-161" d="M38.4,38.36c-.1,0-.19-.04-.27-.12l-3.13-3.33c-.14-.15-.13-.38.02-.52.15-.14.38-.13.52.02l3.13,3.33c.14.15.13.38-.02.52-.07.07-.16.1-.25.1Z"/>
      </g>
      <g>
        <path class="cls-155" d="M30.75,26.39c-.09,0-.19-.04-.26-.11-.14-.14-.14-.37,0-.52l3.26-3.26c.14-.14.37-.14.52,0,.14.14.14.37,0,.52l-3.26,3.26c-.07.07-.17.11-.26.11Z"/>
        <path class="cls-155" d="M33.34,26.39c-.09,0-.19-.04-.26-.11l-3.26-3.26c-.14-.14-.14-.37,0-.52.14-.14.37-.14.52,0l3.26,3.26c.14.14.14.37,0,.52-.07.07-.17.11-.26.11Z"/>
      </g>
    </g>
  </g>
</svg>