<?xml version="1.0" encoding="UTF-8"?>
<svg id="Layer_1" xmlns="http://www.w3.org/2000/svg" xmlns:xlink="http://www.w3.org/1999/xlink" viewBox="0 0 64 64">
  <defs>
    <style>
      .cls-1, .cls-2 {
        fill: #ffc63a;
      }

      .cls-3 {
        fill: #52c25f;
      }

      .cls-3, .cls-4, .cls-5, .cls-6, .cls-7, .cls-8, .cls-9, .cls-10, .cls-11, .cls-12, .cls-13, .cls-14, .cls-15, .cls-16, .cls-17, .cls-18, .cls-19, .cls-20, .cls-21, .cls-22, .cls-23, .cls-24, .cls-25, .cls-26, .cls-27, .cls-28, .cls-29, .cls-30, .cls-31, .cls-32, .cls-33, .cls-34, .cls-35, .cls-36, .cls-37, .cls-38, .cls-39, .cls-40, .cls-41, .cls-42, .cls-43, .cls-44, .cls-45, .cls-46, .cls-47, .cls-48, .cls-49, .cls-50, .cls-51, .cls-52, .cls-53, .cls-54, .cls-55, .cls-56, .cls-57, .cls-58, .cls-59, .cls-60, .cls-61, .cls-62, .cls-63, .cls-64, .cls-65, .cls-66, .cls-67, .cls-68, .cls-69, .cls-70, .cls-71, .cls-72, .cls-73, .cls-74, .cls-75, .cls-76, .cls-77, .cls-78, .cls-79, .cls-80, .cls-2, .cls-81, .cls-82, .cls-83, .cls-84, .cls-85, .cls-86, .cls-87, .cls-88, .cls-89, .cls-90, .cls-91, .cls-92, .cls-93, .cls-94, .cls-95, .cls-96, .cls-97, .cls-98, .cls-99, .cls-100, .cls-101, .cls-102, .cls-103, .cls-104, .cls-105, .cls-106, .cls-107, .cls-108, .cls-109, .cls-110, .cls-111, .cls-112, .cls-113, .cls-114, .cls-115, .cls-116, .cls-117, .cls-118, .cls-119, .cls-120, .cls-121, .cls-122, .cls-123, .cls-124, .cls-125, .cls-126, .cls-127, .cls-128, .cls-129, .cls-130, .cls-131, .cls-132, .cls-133, .cls-134, .cls-135, .cls-136, .cls-137, .cls-138, .cls-139, .cls-140, .cls-141, .cls-142, .cls-143, .cls-144, .cls-145, .cls-146, .cls-147, .cls-148, .cls-149, .cls-150, .cls-151, .cls-152, .cls-153 {
        fill-rule: evenodd;
      }

      .cls-4 {
        fill: #52b95d;
      }

      .cls-5 {
        fill: #fc4;
      }

      .cls-6 {
        fill: #ffcf48;
      }

      .cls-7 {
        fill: #ffdc5e;
      }

      .cls-8 {
        fill: #ffce47;
      }

      .cls-9 {
        fill: #ffd654;
      }

      .cls-10 {
        fill: #89e99b;
      }

      .cls-11 {
        fill: #51a457;
      }

      .cls-12 {
        fill: #82e594;
      }

      .cls-13 {
        fill: #54cf65;
      }

      .cls-14 {
        fill: #51a858;
      }

      .cls-15 {
        fill: #51b65c;
      }

      .cls-16 {
        fill: #52c460;
      }

      .cls-17 {
        fill: #ffda5a;
      }

      .cls-18 {
        fill: #51b25b;
      }

      .cls-19 {
        fill: #83e695;
      }

      .cls-20, .cls-154 {
        fill: #fff;
      }

      .cls-21 {
        fill: #52bd5e;
      }

      .cls-22 {
        fill: #7be28d;
      }

      .cls-23 {
        fill: #7ce28e;
      }

      .cls-155, .cls-88 {
        fill: #ffc73b;
      }

      .cls-24 {
        fill: #5dd36e;
      }

      .cls-25 {
        fill: #ffd655;
      }

      .cls-26 {
        fill: #ffe165;
      }

      .cls-27 {
        fill: #71dd83;
      }

      .cls-28 {
        fill: #ffda5b;
      }

      .cls-29 {
        fill: #ffe56c;
      }

      .cls-30 {
        fill: #52c05f;
      }

      .cls-31 {
        fill: #5cd36d;
      }

      .cls-32 {
        fill: #51ac59;
      }

      .cls-33 {
        fill: #51a758;
      }

      .cls-34 {
        fill: #52c661;
      }

      .cls-35 {
        fill: #ffca40;
      }

      .cls-36 {
        fill: #5ed46f;
      }

      .cls-37 {
        fill: #75df87;
      }

      .cls-38 {
        fill: #ffe267;
      }

      .cls-39 {
        fill: #51b35b;
      }

      .cls-40 {
        fill: #ffd858;
      }

      .cls-41 {
        fill: #ffdc5d;
      }

      .cls-42 {
        fill: #87e899;
      }

      .cls-43 {
        fill: #73de85;
      }

      .cls-44 {
        fill: #6ddb7e;
      }

      .cls-45 {
        fill: #ffd450;
      }

      .cls-156 {
        fill: #eaadcc;
      }

      .cls-46 {
        fill: #ffcc43;
      }

      .cls-47 {
        fill: #86e798;
      }

      .cls-48 {
        fill: #51a356;
      }

      .cls-49 {
        fill: #51b45b;
      }

      .cls-50 {
        fill: #6edc80;
      }

      .cls-51 {
        fill: #ffdd60;
      }

      .cls-52 {
        fill: #ffce46;
      }

      .cls-53 {
        fill: #ffc93f;
      }

      .cls-54 {
        fill: #ffcf49;
      }

      .cls-55 {
        fill: #65d776;
      }

      .cls-56 {
        fill: #88e89a;
      }

      .cls-57 {
        fill: #ffe268;
      }

      .cls-58 {
        fill: #52ba5d;
      }

      .cls-59 {
        fill: #51b05a;
      }

      .cls-60 {
        fill: #51ae5a;
      }

      .cls-61 {
        fill: #52be5e;
      }

      .cls-62 {
        fill: #ffd14b;
      }

      .cls-63 {
        fill: #5ad26b;
      }

      .cls-64 {
        fill: #5fd470;
      }

      .cls-65 {
        fill: #63d674;
      }

      .cls-66 {
        fill: #52c15f;
      }

      .cls-67 {
        fill: #ffdf62;
      }

      .cls-68 {
        fill: #56d067;
      }

      .cls-69 {
        fill: #51ad59;
      }

      .cls-70 {
        fill: #77e089;
      }

      .cls-71 {
        fill: #6bda7c;
      }

      .cls-72 {
        fill: #52c761;
      }

      .cls-157 {
        clip-path: url(#clippath-1);
      }

      .cls-158 {
        clip-path: url(#clippath-3);
      }

      .cls-159 {
        clip-path: url(#clippath-2);
      }

      .cls-73 {
        fill: #ffe46a;
      }

      .cls-74 {
        fill: #52c360;
      }

      .cls-75 {
        fill: #ffdb5c;
      }

      .cls-77 {
        fill: #52c560;
      }

      .cls-78 {
        fill: #ffe46b;
      }

      .cls-79 {
        fill: #60d571;
      }

      .cls-80 {
        fill: #ffd34e;
      }

      .cls-81 {
        fill: #ffd857;
      }

      .cls-82 {
        fill: #ffd24d;
      }

      .cls-83 {
        fill: #ffe064;
      }

      .cls-84 {
        fill: #52bb5d;
      }

      .cls-85 {
        fill: #51a256;
      }

      .cls-86 {
        fill: #ffc93e;
      }

      .cls-87 {
        fill: #52bf5e;
      }

      .cls-160 {
        clip-rule: evenodd;
        fill: none;
      }

      .cls-89 {
        fill: #ffd552;
      }

      .cls-90 {
        fill: #8ae99c;
      }

      .cls-91 {
        fill: #81e593;
      }

      .cls-92 {
        fill: #ffd14c;
      }

      .cls-93 {
        fill: #52cc62;
      }

      .cls-94 {
        fill: #67d878;
      }

      .cls-95 {
        fill: #ffe369;
      }

      .cls-96 {
        fill: #74de86;
      }

      .cls-97 {
        fill: #52cd63;
      }

      .cls-98 {
        fill: #62d673;
      }

      .cls-99 {
        fill: #51b75c;
      }

      .cls-100 {
        fill: #7ae18c;
      }

      .cls-101 {
        fill: #69d97a;
      }

      .cls-102 {
        fill: #7ee390;
      }

      .cls-103 {
        fill: #ffd04a;
      }

      .cls-104 {
        fill: #51af5a;
      }

      .cls-105 {
        fill: #5bd26c;
      }

      .cls-106 {
        fill: #55cf66;
      }

      .cls-107 {
        fill: #ffe166;
      }

      .cls-108 {
        fill: #ffc73c;
      }

      .cls-109 {
        fill: #52cb62;
      }

      .cls-110 {
        fill: #51a657;
      }

      .cls-111 {
        fill: #51aa58;
      }

      .cls-112 {
        fill: #ffcd45;
      }

      .cls-113 {
        fill: #51a557;
      }

      .cls-114 {
        fill: #80e492;
      }

      .cls-115 {
        fill: #52bc5e;
      }

      .cls-116 {
        fill: #ffdf63;
      }

      .cls-117 {
        fill: #61d572;
      }

      .cls-118 {
        fill: #6fdc81;
      }

      .cls-119 {
        fill: #ffd756;
      }

      .cls-120 {
        fill: #6ada7b;
      }

      .cls-121 {
        fill: #ffd959;
      }

      .cls-122 {
        fill: #76df88;
      }

      .cls-123 {
        fill: #6cdb7d;
      }

      .cls-124 {
        fill: #85e797;
      }

      .cls-125 {
        fill: #51b55c;
      }

      .cls-126 {
        fill: #ffc83d;
      }

      .cls-127 {
        fill: #51ab59;
      }

      .cls-128 {
        fill: #84e696;
      }

      .cls-129 {
        fill: #ffdd5f;
      }

      .cls-130 {
        fill: #58d169;
      }

      .cls-131 {
        fill: #7de38f;
      }

      .cls-132 {
        fill: #72dd84;
      }

      .cls-133 {
        fill: #66d877;
      }

      .cls-161 {
        fill: #ecb732;
      }

      .cls-134 {
        fill: #7fe491;
      }

      .cls-135 {
        fill: #53ce64;
      }

      .cls-136 {
        fill: #59d16a;
      }

      .cls-137 {
        fill: #52ca62;
      }

      .cls-138 {
        fill: #68d979;
      }

      .cls-139 {
        fill: #ffd551;
      }

      .cls-140 {
        fill: #52c861;
      }

      .cls-141 {
        fill: #64d775;
      }

      .cls-142 {
        fill: #ffde61;
      }

      .cls-143 {
        fill: #57d068;
      }

      .cls-162 {
        clip-path: url(#clippath);
      }

      .cls-144 {
        fill: #52c961;
      }

      .cls-145 {
        fill: #79e18b;
      }

      .cls-146 {
        fill: #78e08a;
      }

      .cls-147 {
        fill: #70dc82;
      }

      .cls-148 {
        fill: #51a958;
      }

      .cls-149 {
        fill: #ffcb42;
      }

      .cls-150 {
        fill: #52ce63;
      }

      .cls-151 {
        fill: #ffca41;
      }

      .cls-152 {
        fill: #51b15b;
      }

      .cls-153 {
        fill: #ffd34f;
      }
    </style>
    <clipPath id="clippath">
      <path class="cls-160" d="M44.86,44.23c-.07,2.96,2.18,4.29,5.72,5.08s7.08-1.2,7.11-2.21-3.38-4.64-6.92-5.43c-3.54-.79-5.84-.4-5.91,2.56h0Z"/>
    </clipPath>
    <clipPath id="clippath-1">
      <path class="cls-160" d="M43.35,45.34c-2.89-.65-3.75,1.5-3.84,5.13s2.53,7.79,3.52,8.01c.98.22,3.86-2.71,3.94-6.34s-.73-6.15-3.63-6.8h0Z"/>
    </clipPath>
    <clipPath id="clippath-2">
      <path class="cls-160" d="M44.93,45.7c-2.09,1.64-1.1,4.09,1.34,7.22s6.8,4.66,7.51,4.1.33-5.2-2.11-8.32-4.64-4.64-6.74-3Z"/>
    </clipPath>
    <clipPath id="clippath-3">
      <path class="cls-160" d="M33.09,32.91c-3.91,3.91-5.94,8.22-.79,13.37s12.55,6.21,16.46,2.3,2.85-11.3-2.3-16.46-9.45-3.12-13.36.79Z"/>
    </clipPath>
  </defs>
  <rect class="cls-1" x="-25.71" y="-49.85" width="20.01" height="67.95" transform="translate(6.63 -15.75) rotate(-45)"/>
  <rect class="cls-1" x="5.88" y="-18.27" width="20.01" height="67.95" transform="translate(38.23 15.58) rotate(135)"/>
  <g>
    <g>
      <g class="cls-162">
        <polygon class="cls-150" points="55.24 50.52 58.08 46.22 58.81 46.96 55.24 50.52"/>
        <polygon class="cls-150" points="54.81 50.96 57.99 46.13 58.08 46.22 55.24 50.52 54.81 50.96"/>
        <polygon class="cls-97" points="54.37 51.39 57.9 46.04 57.99 46.13 54.81 50.96 54.37 51.39"/>
        <polygon class="cls-93" points="53.94 51.83 57.81 45.95 57.9 46.04 54.37 51.39 53.94 51.83"/>
        <polygon class="cls-109" points="53.5 52.26 57.72 45.86 57.81 45.95 53.94 51.83 53.5 52.26"/>
        <polygon class="cls-137" points="53.07 52.7 57.63 45.77 57.72 45.86 53.5 52.26 53.07 52.7"/>
        <polygon class="cls-144" points="52.63 53.13 57.54 45.69 57.63 45.77 53.07 52.7 52.63 53.13"/>
        <polygon class="cls-140" points="52.2 53.57 57.45 45.6 57.54 45.69 52.63 53.13 52.2 53.57"/>
        <polygon class="cls-72" points="51.76 54.01 57.36 45.51 57.45 45.6 52.2 53.57 51.76 54.01"/>
        <polygon class="cls-34" points="51.61 54.01 57.27 45.42 57.36 45.51 51.76 54.01 51.68 54.09 51.61 54.01"/>
        <polygon class="cls-77" points="51.52 53.92 57.18 45.33 57.27 45.42 51.61 54.01 51.52 53.92"/>
        <polygon class="cls-16" points="51.43 53.83 57.09 45.24 57.18 45.33 51.52 53.92 51.43 53.83"/>
        <polygon class="cls-74" points="51.34 53.74 57 45.15 57.09 45.24 51.43 53.83 51.34 53.74"/>
        <polygon class="cls-3" points="51.25 53.65 56.91 45.06 57 45.15 51.34 53.74 51.25 53.65"/>
        <polygon class="cls-66" points="51.16 53.56 56.82 44.97 56.91 45.06 51.25 53.65 51.16 53.56"/>
        <polygon class="cls-30" points="51.07 53.47 56.73 44.88 56.82 44.97 51.16 53.56 51.07 53.47"/>
        <polygon class="cls-87" points="50.98 53.38 56.64 44.79 56.73 44.88 51.07 53.47 50.98 53.38"/>
        <polygon class="cls-61" points="50.89 53.3 56.55 44.7 56.64 44.79 50.98 53.38 50.89 53.3"/>
        <polygon class="cls-21" points="50.8 53.21 56.46 44.61 56.55 44.7 50.89 53.3 50.8 53.21"/>
        <polygon class="cls-115" points="50.71 53.12 56.37 44.52 56.46 44.61 50.8 53.21 50.71 53.12"/>
        <polygon class="cls-84" points="50.62 53.03 56.28 44.43 56.37 44.52 50.71 53.12 50.62 53.03"/>
        <polygon class="cls-58" points="50.53 52.94 56.19 44.34 56.28 44.43 50.62 53.03 50.53 52.94"/>
        <polygon class="cls-4" points="50.44 52.85 56.1 44.25 56.19 44.34 50.53 52.94 50.44 52.85"/>
        <polygon class="cls-99" points="50.35 52.76 56.01 44.16 56.1 44.25 50.44 52.85 50.35 52.76"/>
        <polygon class="cls-15" points="50.26 52.67 55.92 44.07 56.01 44.16 50.35 52.76 50.26 52.67"/>
        <polygon class="cls-125" points="50.17 52.58 55.83 43.98 55.92 44.07 50.26 52.67 50.17 52.58"/>
        <polygon class="cls-49" points="50.08 52.49 55.74 43.89 55.83 43.98 50.17 52.58 50.08 52.49"/>
        <polygon class="cls-39" points="49.99 52.4 55.65 43.8 55.74 43.89 50.08 52.49 49.99 52.4"/>
        <polygon class="cls-18" points="49.91 52.31 55.56 43.71 55.65 43.8 49.99 52.4 49.91 52.31"/>
        <polygon class="cls-152" points="49.82 52.22 55.47 43.62 55.56 43.71 49.91 52.31 49.82 52.22"/>
        <polygon class="cls-59" points="49.73 52.13 55.38 43.53 55.47 43.62 49.82 52.22 49.73 52.13"/>
        <polygon class="cls-104" points="49.64 52.04 55.3 43.44 55.38 43.53 49.73 52.13 49.64 52.04"/>
        <polygon class="cls-60" points="49.55 51.95 55.21 43.35 55.3 43.44 49.64 52.04 49.55 51.95"/>
        <polygon class="cls-69" points="49.46 51.86 55.12 43.26 55.21 43.35 49.55 51.95 49.46 51.86"/>
        <polygon class="cls-32" points="49.37 51.77 55.03 43.17 55.12 43.26 49.46 51.86 49.37 51.77"/>
        <polygon class="cls-127" points="49.28 51.68 54.94 43.08 55.03 43.17 49.37 51.77 49.28 51.68"/>
        <polygon class="cls-111" points="49.19 51.59 54.85 42.99 54.94 43.08 49.28 51.68 49.19 51.59"/>
        <polygon class="cls-148" points="49.1 51.5 54.76 42.91 54.85 42.99 49.19 51.59 49.1 51.5"/>
        <polygon class="cls-14" points="49.01 51.41 54.67 42.82 54.76 42.91 49.1 51.5 49.01 51.41"/>
        <polygon class="cls-33" points="48.92 51.32 54.58 42.73 54.67 42.82 49.01 51.41 48.92 51.32"/>
        <polygon class="cls-110" points="48.83 51.23 54.49 42.64 54.58 42.73 48.92 51.32 48.83 51.23"/>
        <polygon class="cls-113" points="48.74 51.14 54.4 42.55 54.49 42.64 48.83 51.23 48.74 51.14"/>
        <polygon class="cls-11" points="48.65 51.05 54.31 42.46 54.4 42.55 48.74 51.14 48.65 51.05"/>
        <polygon class="cls-48" points="48.56 50.96 54.22 42.37 54.31 42.46 48.65 51.05 48.56 50.96"/>
        <polygon class="cls-85" points="48.47 50.87 54.13 42.28 54.22 42.37 48.56 50.96 48.47 50.87"/>
        <polygon class="cls-85" points="54.13 42.28 48.47 50.87 41.89 44.3 49.02 37.17 54.13 42.28"/>
      </g>
      <g class="cls-157">
        <polygon class="cls-150" points="42.52 58.74 43.4 59.31 43.25 59.46 42.52 58.74"/>
        <polygon class="cls-150" points="42.08 58.3 43.49 59.23 43.4 59.31 42.52 58.74 42.08 58.3"/>
        <polygon class="cls-97" points="41.65 57.86 43.58 59.14 43.49 59.23 42.08 58.3 41.65 57.86"/>
        <polygon class="cls-93" points="41.21 57.43 43.67 59.05 43.58 59.14 41.65 57.86 41.21 57.43"/>
        <polygon class="cls-109" points="40.78 56.99 43.76 58.96 43.67 59.05 41.21 57.43 40.78 56.99"/>
        <polygon class="cls-137" points="40.34 56.56 43.85 58.87 43.76 58.96 40.78 56.99 40.34 56.56"/>
        <polygon class="cls-144" points="39.9 56.12 43.94 58.78 43.85 58.87 40.34 56.56 39.9 56.12"/>
        <polygon class="cls-140" points="39.47 55.69 44.03 58.69 43.94 58.78 39.9 56.12 39.47 55.69"/>
        <polygon class="cls-72" points="39.03 55.25 44.12 58.6 44.03 58.69 39.47 55.69 39.03 55.25"/>
        <polygon class="cls-34" points="38.6 54.81 44.21 58.51 44.12 58.6 39.03 55.25 38.6 54.81"/>
        <polygon class="cls-77" points="38.16 54.38 44.29 58.42 44.21 58.51 38.6 54.81 38.16 54.38"/>
        <polygon class="cls-16" points="37.73 53.94 44.38 58.33 44.29 58.42 38.16 54.38 37.73 53.94"/>
        <polygon class="cls-74" points="37.29 53.51 44.47 58.24 44.38 58.33 37.73 53.94 37.29 53.51"/>
        <polygon class="cls-3" points="36.85 53.07 44.56 58.15 44.47 58.24 37.29 53.51 36.85 53.07"/>
        <polygon class="cls-66" points="36.42 52.64 44.65 58.06 44.56 58.15 36.85 53.07 36.42 52.64"/>
        <polygon class="cls-30" points="35.98 52.2 44.74 57.97 44.65 58.06 36.42 52.64 35.98 52.2"/>
        <polygon class="cls-87" points="35.55 51.76 44.83 57.88 44.74 57.97 35.98 52.2 35.55 51.76"/>
        <polygon class="cls-61" points="35.11 51.33 44.92 57.79 44.83 57.88 35.55 51.76 35.11 51.33"/>
        <polygon class="cls-21" points="34.68 50.89 45.01 57.7 44.92 57.79 35.11 51.33 34.68 50.89"/>
        <polygon class="cls-115" points="34.51 50.63 45.1 57.61 45.01 57.7 34.68 50.89 34.46 50.68 34.51 50.63"/>
        <polygon class="cls-84" points="34.6 50.54 45.19 57.52 45.1 57.61 34.51 50.63 34.6 50.54"/>
        <polygon class="cls-58" points="34.69 50.45 45.28 57.43 45.19 57.52 34.6 50.54 34.69 50.45"/>
        <polygon class="cls-4" points="34.78 50.36 45.37 57.34 45.28 57.43 34.69 50.45 34.78 50.36"/>
        <polygon class="cls-99" points="34.87 50.28 45.46 57.25 45.37 57.34 34.78 50.36 34.87 50.28"/>
        <polygon class="cls-15" points="34.96 50.19 45.55 57.16 45.46 57.25 34.87 50.28 34.96 50.19"/>
        <polygon class="cls-125" points="35.05 50.1 45.64 57.07 45.55 57.16 34.96 50.19 35.05 50.1"/>
        <polygon class="cls-49" points="35.14 50.01 45.73 56.98 45.64 57.07 35.05 50.1 35.14 50.01"/>
        <polygon class="cls-39" points="35.23 49.92 45.82 56.89 45.73 56.98 35.14 50.01 35.23 49.92"/>
        <polygon class="cls-18" points="35.32 49.83 45.91 56.8 45.82 56.89 35.23 49.92 35.32 49.83"/>
        <polygon class="cls-152" points="35.41 49.74 46 56.71 45.91 56.8 35.32 49.83 35.41 49.74"/>
        <polygon class="cls-59" points="35.5 49.65 46.09 56.62 46 56.71 35.41 49.74 35.5 49.65"/>
        <polygon class="cls-104" points="35.58 49.56 46.18 56.53 46.09 56.62 35.5 49.65 35.58 49.56"/>
        <polygon class="cls-60" points="35.67 49.47 46.27 56.45 46.18 56.53 35.58 49.56 35.67 49.47"/>
        <polygon class="cls-69" points="35.76 49.38 46.36 56.36 46.27 56.45 35.67 49.47 35.76 49.38"/>
        <polygon class="cls-32" points="35.85 49.29 46.45 56.27 46.36 56.36 35.76 49.38 35.85 49.29"/>
        <polygon class="cls-127" points="35.94 49.2 46.54 56.18 46.45 56.27 35.85 49.29 35.94 49.2"/>
        <polygon class="cls-111" points="36.03 49.11 46.63 56.09 46.54 56.18 35.94 49.2 36.03 49.11"/>
        <polygon class="cls-148" points="36.12 49.02 46.72 56 46.63 56.09 36.03 49.11 36.12 49.02"/>
        <polygon class="cls-14" points="36.21 48.93 46.81 55.91 46.72 56 36.12 49.02 36.21 48.93"/>
        <polygon class="cls-33" points="36.3 48.84 46.9 55.82 46.81 55.91 36.21 48.93 36.3 48.84"/>
        <polygon class="cls-110" points="36.39 48.75 46.99 55.73 46.9 55.82 36.3 48.84 36.39 48.75"/>
        <polygon class="cls-113" points="36.48 48.66 47.07 55.64 46.99 55.73 36.39 48.75 36.48 48.66"/>
        <polygon class="cls-11" points="36.57 48.57 47.16 55.55 47.07 55.64 36.48 48.66 36.57 48.57"/>
        <polygon class="cls-48" points="36.66 48.48 47.25 55.46 47.16 55.55 36.57 48.57 36.66 48.48"/>
        <polygon class="cls-85" points="36.75 48.39 47.34 55.37 47.25 55.46 36.66 48.48 36.75 48.39"/>
        <polygon class="cls-85" points="47.34 55.37 36.75 48.39 42.7 42.44 51.48 51.23 47.34 55.37"/>
      </g>
      <g class="cls-159">
        <polygon class="cls-90" points="51.49 58.81 54.49 56.47 51.81 59.14 51.49 58.81"/>
        <polygon class="cls-90" points="51.38 58.71 55.35 55.6 54.49 56.47 51.49 58.81 51.38 58.71"/>
        <polygon class="cls-10" points="51.27 58.6 56.21 54.74 55.35 55.6 51.38 58.71 51.27 58.6"/>
        <polygon class="cls-56" points="51.17 58.5 57.07 53.88 56.21 54.74 51.27 58.6 51.17 58.5"/>
        <polygon class="cls-42" points="51.06 58.39 57.23 53.57 57.31 53.65 57.07 53.88 51.17 58.5 51.06 58.39"/>
        <polygon class="cls-47" points="50.96 58.29 57.12 53.47 57.23 53.57 51.06 58.39 50.96 58.29"/>
        <polygon class="cls-124" points="50.85 58.18 57.02 53.36 57.12 53.47 50.96 58.29 50.85 58.18"/>
        <polygon class="cls-128" points="50.75 58.07 56.91 53.26 57.02 53.36 50.85 58.18 50.75 58.07"/>
        <polygon class="cls-19" points="50.64 57.97 56.81 53.15 56.91 53.26 50.75 58.07 50.64 57.97"/>
        <polygon class="cls-12" points="50.53 57.86 56.7 53.05 56.81 53.15 50.64 57.97 50.53 57.86"/>
        <polygon class="cls-91" points="50.43 57.76 56.6 52.94 56.7 53.05 50.53 57.86 50.43 57.76"/>
        <polygon class="cls-114" points="50.32 57.65 56.49 52.83 56.6 52.94 50.43 57.76 50.32 57.65"/>
        <polygon class="cls-134" points="50.22 57.55 56.39 52.73 56.49 52.83 50.32 57.65 50.22 57.55"/>
        <polygon class="cls-102" points="50.11 57.44 56.28 52.62 56.39 52.73 50.22 57.55 50.11 57.44"/>
        <polygon class="cls-131" points="50.01 57.34 56.17 52.52 56.28 52.62 50.11 57.44 50.01 57.34"/>
        <polygon class="cls-23" points="49.9 57.23 56.07 52.41 56.17 52.52 50.01 57.34 49.9 57.23"/>
        <polygon class="cls-22" points="49.8 57.12 55.96 52.31 56.07 52.41 49.9 57.23 49.8 57.12"/>
        <polygon class="cls-100" points="49.69 57.02 55.86 52.2 55.96 52.31 49.8 57.12 49.69 57.02"/>
        <polygon class="cls-145" points="49.58 56.91 55.75 52.09 55.86 52.2 49.69 57.02 49.58 56.91"/>
        <polygon class="cls-146" points="49.48 56.81 55.65 51.99 55.75 52.09 49.58 56.91 49.48 56.81"/>
        <polygon class="cls-70" points="49.37 56.7 55.54 51.88 55.65 51.99 49.48 56.81 49.37 56.7"/>
        <polygon class="cls-122" points="49.27 56.6 55.43 51.78 55.54 51.88 49.37 56.7 49.27 56.6"/>
        <polygon class="cls-37" points="49.16 56.49 55.33 51.67 55.43 51.78 49.27 56.6 49.16 56.49"/>
        <polygon class="cls-96" points="49.06 56.38 55.22 51.57 55.33 51.67 49.16 56.49 49.06 56.38"/>
        <polygon class="cls-43" points="48.95 56.28 55.12 51.46 55.22 51.57 49.06 56.38 48.95 56.28"/>
        <polygon class="cls-132" points="48.85 56.17 55.01 51.36 55.12 51.46 48.95 56.28 48.85 56.17"/>
        <polygon class="cls-27" points="48.74 56.07 54.91 51.25 55.01 51.36 48.85 56.17 48.74 56.07"/>
        <polygon class="cls-147" points="48.63 55.96 54.8 51.14 54.91 51.25 48.74 56.07 48.63 55.96"/>
        <polygon class="cls-118" points="48.53 55.86 54.7 51.04 54.8 51.14 48.63 55.96 48.53 55.86"/>
        <polygon class="cls-50" points="48.42 55.75 54.59 50.93 54.7 51.04 48.53 55.86 48.42 55.75"/>
        <polygon class="cls-44" points="48.32 55.65 54.48 50.83 54.59 50.93 48.42 55.75 48.32 55.65"/>
        <polygon class="cls-123" points="48.21 55.54 54.38 50.72 54.48 50.83 48.32 55.65 48.21 55.54"/>
        <polygon class="cls-71" points="48.11 55.43 54.27 50.62 54.38 50.72 48.21 55.54 48.11 55.43"/>
        <polygon class="cls-120" points="48 55.33 54.17 50.51 54.27 50.62 48.11 55.43 48 55.33"/>
        <polygon class="cls-101" points="47.89 55.22 54.06 50.4 54.17 50.51 48 55.33 47.89 55.22"/>
        <polygon class="cls-138" points="47.79 55.12 53.96 50.3 54.06 50.4 47.89 55.22 47.79 55.12"/>
        <polygon class="cls-94" points="47.68 55.01 53.85 50.19 53.96 50.3 47.79 55.12 47.68 55.01"/>
        <polygon class="cls-133" points="47.58 54.91 53.74 50.09 53.85 50.19 47.68 55.01 47.58 54.91"/>
        <polygon class="cls-55" points="47.47 54.8 53.64 49.98 53.74 50.09 47.58 54.91 47.47 54.8"/>
        <polygon class="cls-141" points="47.37 54.7 53.53 49.88 53.64 49.98 47.47 54.8 47.37 54.7"/>
        <polygon class="cls-65" points="47.26 54.59 53.43 49.77 53.53 49.88 47.37 54.7 47.26 54.59"/>
        <polygon class="cls-98" points="47.16 54.48 53.32 49.67 53.43 49.77 47.26 54.59 47.16 54.48"/>
        <polygon class="cls-117" points="47.05 54.38 53.22 49.56 53.32 49.67 47.16 54.48 47.05 54.38"/>
        <polygon class="cls-79" points="46.94 54.27 53.11 49.45 53.22 49.56 47.05 54.38 46.94 54.27"/>
        <polygon class="cls-64" points="46.84 54.17 53.01 49.35 53.11 49.45 46.94 54.27 46.84 54.17"/>
        <polygon class="cls-36" points="46.73 54.06 52.9 49.24 53.01 49.35 46.84 54.17 46.73 54.06"/>
        <polygon class="cls-24" points="46.63 53.96 52.79 49.14 52.9 49.24 46.73 54.06 46.63 53.96"/>
        <polygon class="cls-31" points="46.52 53.85 52.69 49.03 52.79 49.14 46.63 53.96 46.52 53.85"/>
        <polygon class="cls-105" points="46.42 53.74 52.58 48.93 52.69 49.03 46.52 53.85 46.42 53.74"/>
        <polygon class="cls-63" points="46.31 53.64 52.48 48.82 52.58 48.93 46.42 53.74 46.31 53.64"/>
        <polygon class="cls-136" points="46.2 53.53 52.37 48.71 52.48 48.82 46.31 53.64 46.2 53.53"/>
        <polygon class="cls-130" points="46.1 53.43 52.27 48.61 52.37 48.71 46.2 53.53 46.1 53.43"/>
        <polygon class="cls-143" points="45.99 53.32 52.16 48.5 52.27 48.61 46.1 53.43 45.99 53.32"/>
        <polygon class="cls-68" points="45.89 53.22 52.05 48.4 52.16 48.5 45.99 53.32 45.89 53.22"/>
        <polygon class="cls-106" points="45.78 53.11 51.95 48.29 52.05 48.4 45.89 53.22 45.78 53.11"/>
        <polygon class="cls-13" points="45.68 53.01 51.84 48.19 51.95 48.29 45.78 53.11 45.68 53.01"/>
        <polygon class="cls-135" points="45.57 52.9 51.74 48.08 51.84 48.19 45.68 53.01 45.57 52.9"/>
        <polygon class="cls-150" points="45.47 52.79 51.63 47.98 51.74 48.08 45.57 52.9 45.47 52.79"/>
        <polygon class="cls-150" points="51.63 47.98 45.47 52.79 41.42 48.75 46.92 43.26 51.63 47.98"/>
      </g>
    </g>
    <g class="cls-158">
      <polygon class="cls-29" points="38.31 52.29 53.76 39.42 55.83 41.5 41.67 55.66 38.31 52.29"/>
      <polygon class="cls-29" points="38.05 52.03 53.5 39.16 53.76 39.42 38.31 52.29 38.05 52.03"/>
      <polygon class="cls-78" points="37.79 51.77 53.24 38.9 53.5 39.16 38.05 52.03 37.79 51.77"/>
      <polygon class="cls-73" points="37.53 51.51 52.98 38.64 53.24 38.9 37.79 51.77 37.53 51.51"/>
      <polygon class="cls-95" points="37.27 51.25 52.71 38.38 52.98 38.64 37.53 51.51 37.27 51.25"/>
      <polygon class="cls-57" points="37.01 50.99 52.45 38.12 52.71 38.38 37.27 51.25 37.01 50.99"/>
      <polygon class="cls-38" points="36.75 50.73 52.19 37.86 52.45 38.12 37.01 50.99 36.75 50.73"/>
      <polygon class="cls-107" points="36.49 50.47 51.93 37.6 52.19 37.86 36.75 50.73 36.49 50.47"/>
      <polygon class="cls-26" points="36.23 50.21 51.67 37.34 51.93 37.6 36.49 50.47 36.23 50.21"/>
      <polygon class="cls-83" points="35.97 49.95 51.41 37.08 51.67 37.34 36.23 50.21 35.97 49.95"/>
      <polygon class="cls-116" points="35.7 49.69 51.15 36.82 51.41 37.08 35.97 49.95 35.7 49.69"/>
      <polygon class="cls-67" points="35.44 49.43 50.89 36.56 51.15 36.82 35.7 49.69 35.44 49.43"/>
      <polygon class="cls-142" points="35.18 49.17 50.63 36.3 50.89 36.56 35.44 49.43 35.18 49.17"/>
      <polygon class="cls-51" points="34.92 48.91 50.37 36.04 50.63 36.3 35.18 49.17 34.92 48.91"/>
      <polygon class="cls-129" points="34.66 48.65 50.11 35.78 50.37 36.04 34.92 48.91 34.66 48.65"/>
      <polygon class="cls-7" points="34.4 48.39 49.85 35.52 50.11 35.78 34.66 48.65 34.4 48.39"/>
      <polygon class="cls-41" points="34.14 48.13 49.59 35.26 49.85 35.52 34.4 48.39 34.14 48.13"/>
      <polygon class="cls-75" points="33.88 47.87 49.33 35 49.59 35.26 34.14 48.13 33.88 47.87"/>
      <polygon class="cls-28" points="33.62 47.61 49.07 34.74 49.33 35 33.88 47.87 33.62 47.61"/>
      <polygon class="cls-17" points="33.36 47.35 48.81 34.48 49.07 34.74 33.62 47.61 33.36 47.35"/>
      <polygon class="cls-121" points="33.1 47.09 48.55 34.22 48.81 34.48 33.36 47.35 33.1 47.09"/>
      <polygon class="cls-40" points="32.84 46.83 48.29 33.96 48.55 34.22 33.1 47.09 32.84 46.83"/>
      <polygon class="cls-81" points="32.58 46.57 48.03 33.7 48.29 33.96 32.84 46.83 32.58 46.57"/>
      <polygon class="cls-119" points="32.32 46.31 47.77 33.44 48.03 33.7 32.58 46.57 32.32 46.31"/>
      <polygon class="cls-25" points="32.06 46.05 47.51 33.18 47.77 33.44 32.32 46.31 32.06 46.05"/>
      <polygon class="cls-9" points="31.8 45.79 47.25 32.92 47.51 33.18 32.06 46.05 31.8 45.79"/>
      <polygon class="cls-89" points="31.54 45.53 46.99 32.66 47.25 32.92 31.8 45.79 31.54 45.53"/>
      <polygon class="cls-139" points="31.28 45.27 46.73 32.4 46.99 32.66 31.54 45.53 31.28 45.27"/>
      <polygon class="cls-45" points="31.02 45.01 46.47 32.14 46.73 32.4 31.28 45.27 31.02 45.01"/>
      <polygon class="cls-153" points="30.76 44.75 46.21 31.88 46.47 32.14 31.02 45.01 30.76 44.75"/>
      <polygon class="cls-80" points="30.5 44.49 45.95 31.62 46.21 31.88 30.76 44.75 30.5 44.49"/>
      <polygon class="cls-82" points="30.24 44.23 45.69 31.36 45.95 31.62 30.5 44.49 30.24 44.23"/>
      <polygon class="cls-92" points="29.98 43.97 45.43 31.1 45.69 31.36 30.24 44.23 29.98 43.97"/>
      <polygon class="cls-62" points="29.72 43.7 45.17 30.84 45.43 31.1 29.98 43.97 29.72 43.7"/>
      <polygon class="cls-103" points="29.46 43.44 44.91 30.57 45.17 30.84 29.72 43.7 29.46 43.44"/>
      <polygon class="cls-54" points="29.2 43.18 44.65 30.31 44.91 30.57 29.46 43.44 29.2 43.18"/>
      <polygon class="cls-6" points="28.94 42.92 44.39 30.05 44.65 30.31 29.2 43.18 28.94 42.92"/>
      <polygon class="cls-8" points="28.68 42.66 44.13 29.79 44.39 30.05 28.94 42.92 28.68 42.66"/>
      <polygon class="cls-52" points="28.42 42.4 43.86 29.53 44.13 29.79 28.68 42.66 28.42 42.4"/>
      <polygon class="cls-112" points="28.16 42.14 43.6 29.27 43.86 29.53 28.42 42.4 28.16 42.14"/>
      <polygon class="cls-5" points="27.9 41.88 43.34 29.01 43.6 29.27 28.16 42.14 27.9 41.88"/>
      <polygon class="cls-46" points="27.64 41.62 43.08 28.75 43.34 29.01 27.9 41.88 27.64 41.62"/>
      <polygon class="cls-149" points="27.38 41.36 42.82 28.49 43.08 28.75 27.64 41.62 27.38 41.36"/>
      <polygon class="cls-151" points="27.12 41.1 42.56 28.23 42.82 28.49 27.38 41.36 27.12 41.1"/>
      <polygon class="cls-35" points="26.85 40.84 42.3 27.97 42.56 28.23 27.12 41.1 26.85 40.84"/>
      <polygon class="cls-53" points="26.59 40.58 42.04 27.71 42.3 27.97 26.85 40.84 26.59 40.58"/>
      <polygon class="cls-86" points="26.33 40.32 41.78 27.45 42.04 27.71 26.59 40.58 26.33 40.32"/>
      <polygon class="cls-126" points="26.07 40.06 41.52 27.19 41.78 27.45 26.33 40.32 26.07 40.06"/>
      <polygon class="cls-108" points="28.14 37.86 41.26 26.93 41.52 27.19 26.07 40.06 26.01 39.99 28.14 37.86"/>
      <polygon class="cls-88" points="31 35.01 41 26.67 41.26 26.93 28.14 37.86 31 35.01"/>
      <polygon class="cls-2" points="33.85 32.15 40.74 26.41 41 26.67 31 35.01 33.85 32.15"/>
      <polygon class="cls-2" points="40.74 26.41 33.85 32.15 40.17 25.84 40.74 26.41"/>
    </g>
    <ellipse class="cls-156" cx="37.32" cy="44.3" rx="1.43" ry=".67" transform="translate(-20.39 39.36) rotate(-45)"/>
    <ellipse class="cls-156" cx="45.03" cy="37.15" rx="1.43" ry=".67" transform="translate(-13.32 35.6) rotate(-38)"/>
    <g>
      <path d="M40.83,40.21c.06-.06.13-.13.21-.19.49-.39,1.01-.53,1.55-.43.11.02.18.13.16.23-.02.11-.13.18-.23.16-.42-.08-.82.03-1.22.35-.4.32-.63.72-.68,1.22-.01.11-.11.19-.22.18s-.19-.11-.18-.22c.05-.51.26-.95.62-1.31Z"/>
      <path class="cls-76" d="M46.78,40.07c-.27.29-.63.44-1,.45-.37.01-.74-.11-1.03-.38s-.44-.63-.45-1c-.01-.37.11-.74.38-1.03s.63-.44,1-.45c.37-.01.74.11,1.03.38s.44.63.45,1c.01.37-.11.74-.38,1.03Z"/>
      <path class="cls-20" d="M45.88,39.28c.19.18.48.17.66-.02s.17-.48-.02-.66-.48-.17-.66.02c-.18.19-.17.48.02.66Z"/>
      <path class="cls-76" d="M40.4,45.94c-.27.29-.63.44-1,.45-.37.01-.74-.11-1.03-.38s-.44-.63-.45-1c-.01-.37.11-.74.38-1.03s.63-.44,1-.45c.37-.01.74.11,1.03.38s.44.63.45,1c.01.37-.11.74-.38,1.03Z"/>
      <g>
        <g>
          <path class="cls-154" d="M44.89,39.99c-.5-.46-.52-1.24-.06-1.74s1.24-.52,1.74-.06.52,1.24.06,1.74-1.24.52-1.74.06ZM44.62,40.28c.66.61,1.69.58,2.3-.08s.58-1.69-.08-2.3-1.69-.58-2.3.08-.58,1.69.08,2.3Z"/>
          <path class="cls-154" d="M44.51,37.87c.31-.31.72-.49,1.16-.5.46-.02.9.15,1.24.46.34.32.53.74.55,1.2.02.46-.15.9-.46,1.24-.32.34-.74.53-1.2.55-.46.02-.9-.15-1.24-.46h0c-.7-.65-.74-1.75-.09-2.44.01-.02.03-.03.04-.04ZM46.81,40.18s.03-.03.04-.04c.28-.3.42-.69.41-1.1-.01-.41-.19-.79-.49-1.07-.3-.28-.69-.42-1.1-.41-.41.01-.79.19-1.07.49-.58.62-.54,1.59.08,2.16h0c.3.28.69.42,1.1.41.39-.01.75-.17,1.03-.45ZM44.79,38.15c.24-.24.55-.38.89-.39.36-.01.69.11.95.36.26.24.41.57.42.93.01.36-.11.69-.36.95-.5.54-1.34.57-1.88.07-.26-.24-.41-.57-.42-.93-.01-.36.11-.69.36-.95.01-.01.02-.02.03-.03ZM46.53,39.89s.02-.02.03-.03c.21-.22.31-.51.3-.81-.01-.3-.14-.58-.36-.79-.22-.21-.51-.31-.81-.3-.3.01-.58.14-.79.36-.21.22-.31.51-.3.81.01.3.14.58.36.79.45.42,1.14.4,1.57-.03Z"/>
        </g>
        <g>
          <path class="cls-154" d="M38.51,45.86c-.5-.46-.52-1.24-.06-1.74s1.24-.52,1.74-.06.52,1.24.06,1.74-1.24.52-1.74.06ZM38.24,46.16c.66.61,1.69.58,2.3-.08s.58-1.69-.08-2.3-1.69-.58-2.3.08-.58,1.69.08,2.3Z"/>
          <path class="cls-154" d="M38.13,43.74c.65-.65,1.72-.68,2.4-.04.7.65.74,1.75.09,2.44-.31.34-.74.53-1.2.55-.46.02-.9-.15-1.24-.46h0c-.34-.32-.53-.74-.55-1.2-.02-.46.15-.9.46-1.24.01-.01.03-.03.04-.04ZM40.43,46.05s.03-.03.04-.04c.58-.62.54-1.59-.08-2.16-.62-.58-1.59-.54-2.16.08-.28.3-.42.69-.41,1.1.01.41.19.79.49,1.07h0c.3.28.69.42,1.1.41.39-.01.75-.17,1.03-.45ZM38.41,44.02c.24-.24.55-.38.89-.39.36-.01.69.11.95.36.54.5.57,1.34.07,1.88-.5.54-1.34.57-1.88.07h0c-.54-.5-.57-1.34-.07-1.88.01-.01.02-.02.03-.03ZM40.15,45.76s.02-.02.03-.03c.43-.46.4-1.17-.06-1.6-.22-.21-.51-.31-.81-.3-.3.01-.58.14-.79.36-.43.46-.4,1.17.06,1.6.45.42,1.14.4,1.57-.03Z"/>
        </g>
        <path class="cls-20" d="M39.5,45.15c.19.18.48.17.66-.02s.17-.48-.02-.66-.48-.17-.66.02-.17.48.02.66Z"/>
      </g>
    </g>
    <g>
      <g>
        <path class="cls-161" d="M36.9,32.96c.07-.07.16-.11.27-.11l7.1.14c.2,0,.36.17.36.37,0,.2-.17.36-.37.36l-7.1-.14c-.2,0-.36-.17-.36-.37,0-.1.04-.19.11-.25Z"/>
        <path class="cls-161" d="M40.43,31.13c.06-.06.15-.1.25-.11.2,0,.37.15.38.35l.14,4.56c0,.2-.15.37-.35.38-.2,0-.37-.15-.38-.35l-.14-4.56c0-.11.04-.2.11-.27Z"/>
      </g>
      <g>
        <path class="cls-161" d="M33.18,36.68c.06-.06.15-.11.25-.11.2,0,.37.16.37.36l.14,7.1c0,.2-.16.37-.36.37-.2,0-.37-.16-.37-.36l-.14-7.1c0-.1.04-.2.11-.27Z"/>
        <path class="cls-161" d="M31.35,40.21c.07-.07.16-.11.27-.11l4.56.14c.2,0,.36.18.35.38,0,.2-.17.36-.38.35l-4.56-.14c-.2,0-.36-.18-.35-.38,0-.1.04-.18.11-.25Z"/>
      </g>
      <g>
        <path class="cls-155" d="M45.22,43.26c.07-.07.16-.11.26-.11.2,0,.37.16.37.37v4.61c0,.2-.16.37-.37.37-.2,0-.37-.16-.37-.37v-4.61c0-.1.04-.19.11-.26Z"/>
        <path class="cls-155" d="M43.39,45.1c.07-.07.16-.11.26-.11h4.61c.2,0,.37.16.37.37,0,.2-.16.37-.37.37h-4.61c-.2,0-.37-.16-.37-.37,0-.1.04-.19.11-.26Z"/>
      </g>
    </g>
  </g>
  <rect class="cls-1" x="-25.7" y="-18.27" width="20.01" height="67.95" transform="translate(-37.9 15.72) rotate(-135)"/>
  <rect class="cls-1" x="5.88" y="-49.85" width="20.01" height="67.95" transform="translate(-6.57 -15.88) rotate(45)"/>
</svg>