<?xml version="1.0" encoding="UTF-8"?>
<svg id="Layer_1" xmlns="http://www.w3.org/2000/svg" xmlns:xlink="http://www.w3.org/1999/xlink" viewBox="0 0 64 64">
  <defs>
    <style>
      .cls-1, .cls-2 {
        fill: #ffc63a;
      }

      .cls-3 {
        fill: #52c25f;
      }

      .cls-3, .cls-4, .cls-5, .cls-6, .cls-7, .cls-8, .cls-9, .cls-10, .cls-11, .cls-12, .cls-13, .cls-14, .cls-15, .cls-16, .cls-17, .cls-18, .cls-19, .cls-20, .cls-21, .cls-22, .cls-23, .cls-24, .cls-25, .cls-26, .cls-27, .cls-28, .cls-29, .cls-30, .cls-31, .cls-32, .cls-33, .cls-34, .cls-35, .cls-36, .cls-37, .cls-38, .cls-39, .cls-40, .cls-41, .cls-42, .cls-43, .cls-44, .cls-45, .cls-46, .cls-47, .cls-48, .cls-49, .cls-50, .cls-51, .cls-52, .cls-53, .cls-54, .cls-55, .cls-56, .cls-57, .cls-58, .cls-59, .cls-60, .cls-61, .cls-62, .cls-63, .cls-64, .cls-65, .cls-66, .cls-67, .cls-68, .cls-69, .cls-70, .cls-71, .cls-72, .cls-73, .cls-74, .cls-75, .cls-76, .cls-77, .cls-78, .cls-79, .cls-80, .cls-2, .cls-81, .cls-82, .cls-83, .cls-84, .cls-85, .cls-86, .cls-87, .cls-88, .cls-89, .cls-90, .cls-91, .cls-92, .cls-93, .cls-94, .cls-95, .cls-96, .cls-97, .cls-98, .cls-99, .cls-100, .cls-101, .cls-102, .cls-103, .cls-104, .cls-105, .cls-106, .cls-107, .cls-108, .cls-109, .cls-110, .cls-111, .cls-112, .cls-113, .cls-114, .cls-115, .cls-116, .cls-117, .cls-118, .cls-119, .cls-120, .cls-121, .cls-122, .cls-123, .cls-124, .cls-125, .cls-126, .cls-127, .cls-128, .cls-129, .cls-130, .cls-131, .cls-132, .cls-133, .cls-134, .cls-135, .cls-136, .cls-137, .cls-138, .cls-139, .cls-140, .cls-141, .cls-142, .cls-143, .cls-144, .cls-145, .cls-146, .cls-147, .cls-148, .cls-149, .cls-150, .cls-151, .cls-152, .cls-153 {
        fill-rule: evenodd;
      }

      .cls-4 {
        fill: #52b95d;
      }

      .cls-5 {
        fill: #fc4;
      }

      .cls-6 {
        fill: #ffcf48;
      }

      .cls-7 {
        fill: #ffdc5e;
      }

      .cls-8 {
        fill: #ffce47;
      }

      .cls-9 {
        fill: #ffd654;
      }

      .cls-10 {
        fill: #89e99b;
      }

      .cls-11 {
        fill: #51a457;
      }

      .cls-12 {
        fill: #82e594;
      }

      .cls-13 {
        fill: #54cf65;
      }

      .cls-14 {
        fill: #51a858;
      }

      .cls-15 {
        fill: #51b65c;
      }

      .cls-16 {
        fill: #52c460;
      }

      .cls-17 {
        fill: #ffda5a;
      }

      .cls-18 {
        fill: #51b25b;
      }

      .cls-19 {
        fill: #83e695;
      }

      .cls-20, .cls-154 {
        fill: #fff;
      }

      .cls-21 {
        fill: #52bd5e;
      }

      .cls-22 {
        fill: #7be28d;
      }

      .cls-23 {
        fill: #7ce28e;
      }

      .cls-155, .cls-88 {
        fill: #ffc73b;
      }

      .cls-24 {
        fill: #5dd36e;
      }

      .cls-25 {
        fill: #ffd655;
      }

      .cls-26 {
        fill: #ffe165;
      }

      .cls-27 {
        fill: #71dd83;
      }

      .cls-28 {
        fill: #ffda5b;
      }

      .cls-29 {
        fill: #ffe56c;
      }

      .cls-30 {
        fill: #52c05f;
      }

      .cls-31 {
        fill: #5cd36d;
      }

      .cls-32 {
        fill: #51ac59;
      }

      .cls-33 {
        fill: #51a758;
      }

      .cls-34 {
        fill: #52c661;
      }

      .cls-35 {
        fill: #ffca40;
      }

      .cls-36 {
        fill: #5ed46f;
      }

      .cls-37 {
        fill: #75df87;
      }

      .cls-38 {
        fill: #ffe267;
      }

      .cls-39 {
        fill: #51b35b;
      }

      .cls-40 {
        fill: #ffd858;
      }

      .cls-41 {
        fill: #ffdc5d;
      }

      .cls-42 {
        fill: #87e899;
      }

      .cls-43 {
        fill: #73de85;
      }

      .cls-44 {
        fill: #6ddb7e;
      }

      .cls-45 {
        fill: #ffd450;
      }

      .cls-156 {
        fill: #eaadcc;
      }

      .cls-46 {
        fill: #ffcc43;
      }

      .cls-47 {
        fill: #86e798;
      }

      .cls-48 {
        fill: #51a356;
      }

      .cls-49 {
        fill: #51b45b;
      }

      .cls-50 {
        fill: #6edc80;
      }

      .cls-51 {
        fill: #ffdd60;
      }

      .cls-52 {
        fill: #ffce46;
      }

      .cls-53 {
        fill: #ffc93f;
      }

      .cls-54 {
        fill: #ffcf49;
      }

      .cls-55 {
        fill: #65d776;
      }

      .cls-56 {
        fill: #88e89a;
      }

      .cls-57 {
        fill: #ffe268;
      }

      .cls-58 {
        fill: #52ba5d;
      }

      .cls-59 {
        fill: #51b05a;
      }

      .cls-60 {
        fill: #51ae5a;
      }

      .cls-61 {
        fill: #52be5e;
      }

      .cls-62 {
        fill: #ffd14b;
      }

      .cls-63 {
        fill: #5ad26b;
      }

      .cls-64 {
        fill: #5fd470;
      }

      .cls-65 {
        fill: #63d674;
      }

      .cls-66 {
        fill: #52c15f;
      }

      .cls-67 {
        fill: #ffdf62;
      }

      .cls-68 {
        fill: #56d067;
      }

      .cls-69 {
        fill: #51ad59;
      }

      .cls-70 {
        fill: #77e089;
      }

      .cls-71 {
        fill: #6bda7c;
      }

      .cls-72 {
        fill: #52c761;
      }

      .cls-157 {
        clip-path: url(#clippath-1);
      }

      .cls-158 {
        clip-path: url(#clippath-3);
      }

      .cls-159 {
        clip-path: url(#clippath-2);
      }

      .cls-73 {
        fill: #ffe46a;
      }

      .cls-74 {
        fill: #52c360;
      }

      .cls-75 {
        fill: #ffdb5c;
      }

      .cls-77 {
        fill: #52c560;
      }

      .cls-78 {
        fill: #ffe46b;
      }

      .cls-79 {
        fill: #60d571;
      }

      .cls-80 {
        fill: #ffd34e;
      }

      .cls-81 {
        fill: #ffd857;
      }

      .cls-82 {
        fill: #ffd24d;
      }

      .cls-83 {
        fill: #ffe064;
      }

      .cls-84 {
        fill: #52bb5d;
      }

      .cls-85 {
        fill: #51a256;
      }

      .cls-86 {
        fill: #ffc93e;
      }

      .cls-87 {
        fill: #52bf5e;
      }

      .cls-160 {
        clip-rule: evenodd;
        fill: none;
      }

      .cls-89 {
        fill: #ffd552;
      }

      .cls-90 {
        fill: #8ae99c;
      }

      .cls-91 {
        fill: #81e593;
      }

      .cls-92 {
        fill: #ffd14c;
      }

      .cls-93 {
        fill: #52cc62;
      }

      .cls-94 {
        fill: #67d878;
      }

      .cls-95 {
        fill: #ffe369;
      }

      .cls-96 {
        fill: #74de86;
      }

      .cls-97 {
        fill: #52cd63;
      }

      .cls-98 {
        fill: #62d673;
      }

      .cls-99 {
        fill: #51b75c;
      }

      .cls-100 {
        fill: #7ae18c;
      }

      .cls-101 {
        fill: #69d97a;
      }

      .cls-102 {
        fill: #7ee390;
      }

      .cls-103 {
        fill: #ffd04a;
      }

      .cls-104 {
        fill: #51af5a;
      }

      .cls-105 {
        fill: #5bd26c;
      }

      .cls-106 {
        fill: #55cf66;
      }

      .cls-107 {
        fill: #ffe166;
      }

      .cls-108 {
        fill: #ffc73c;
      }

      .cls-109 {
        fill: #52cb62;
      }

      .cls-110 {
        fill: #51a657;
      }

      .cls-111 {
        fill: #51aa58;
      }

      .cls-112 {
        fill: #ffcd45;
      }

      .cls-113 {
        fill: #51a557;
      }

      .cls-114 {
        fill: #80e492;
      }

      .cls-115 {
        fill: #52bc5e;
      }

      .cls-116 {
        fill: #ffdf63;
      }

      .cls-117 {
        fill: #61d572;
      }

      .cls-118 {
        fill: #6fdc81;
      }

      .cls-119 {
        fill: #ffd756;
      }

      .cls-120 {
        fill: #6ada7b;
      }

      .cls-121 {
        fill: #ffd959;
      }

      .cls-122 {
        fill: #76df88;
      }

      .cls-123 {
        fill: #6cdb7d;
      }

      .cls-124 {
        fill: #85e797;
      }

      .cls-125 {
        fill: #51b55c;
      }

      .cls-126 {
        fill: #ffc83d;
      }

      .cls-127 {
        fill: #51ab59;
      }

      .cls-128 {
        fill: #84e696;
      }

      .cls-129 {
        fill: #ffdd5f;
      }

      .cls-130 {
        fill: #58d169;
      }

      .cls-131 {
        fill: #7de38f;
      }

      .cls-132 {
        fill: #72dd84;
      }

      .cls-133 {
        fill: #66d877;
      }

      .cls-161 {
        fill: #ecb732;
      }

      .cls-134 {
        fill: #7fe491;
      }

      .cls-135 {
        fill: #53ce64;
      }

      .cls-136 {
        fill: #59d16a;
      }

      .cls-137 {
        fill: #52ca62;
      }

      .cls-138 {
        fill: #68d979;
      }

      .cls-139 {
        fill: #ffd551;
      }

      .cls-140 {
        fill: #52c861;
      }

      .cls-141 {
        fill: #64d775;
      }

      .cls-142 {
        fill: #ffde61;
      }

      .cls-143 {
        fill: #57d068;
      }

      .cls-162 {
        clip-path: url(#clippath);
      }

      .cls-144 {
        fill: #52c961;
      }

      .cls-145 {
        fill: #79e18b;
      }

      .cls-146 {
        fill: #78e08a;
      }

      .cls-147 {
        fill: #70dc82;
      }

      .cls-148 {
        fill: #51a958;
      }

      .cls-149 {
        fill: #ffcb42;
      }

      .cls-150 {
        fill: #52ce63;
      }

      .cls-151 {
        fill: #ffca41;
      }

      .cls-152 {
        fill: #51b15b;
      }

      .cls-153 {
        fill: #ffd34f;
      }
    </style>
    <clipPath id="clippath">
      <path class="cls-160" d="M44.4,19.15c2.96.07,4.29-2.18,5.08-5.72s-1.2-7.08-2.21-7.11-4.64,3.38-5.43,6.92c-.79,3.54-.4,5.84,2.56,5.91h0Z"/>
    </clipPath>
    <clipPath id="clippath-1">
      <path class="cls-160" d="M45.52,20.67c-.65,2.89,1.5,3.75,5.13,3.84s7.79-2.53,8.01-3.52c.22-.98-2.71-3.86-6.34-3.94s-6.15.73-6.8,3.63h0Z"/>
    </clipPath>
    <clipPath id="clippath-2">
      <path class="cls-160" d="M45.88,19.08c1.64,2.09,4.09,1.1,7.22-1.34s4.66-6.8,4.1-7.51-5.2-.33-8.32,2.11-4.64,4.64-3,6.74Z"/>
    </clipPath>
    <clipPath id="clippath-3">
      <path class="cls-160" d="M33.09,30.92c3.91,3.91,8.22,5.94,13.37.79s6.21-12.55,2.3-16.46-11.3-2.85-16.46,2.3-3.12,9.45.79,13.36Z"/>
    </clipPath>
  </defs>
  <rect class="cls-1" x="-25.71" y="14.15" width="20.01" height="67.95" transform="translate(-38.63 3) rotate(-45)"/>
  <rect class="cls-1" x="5.88" y="45.73" width="20.01" height="67.95" transform="translate(83.48 124.84) rotate(135)"/>
  <rect class="cls-1" x="-25.7" y="45.73" width="20.01" height="67.95" transform="translate(-83.16 124.97) rotate(-135)"/>
  <rect class="cls-1" x="5.88" y="14.15" width="20.01" height="67.95" transform="translate(38.68 2.86) rotate(45)"/>
  <g>
    <g>
      <g class="cls-162">
        <polygon class="cls-150" points="50.7 8.77 46.4 5.94 47.14 5.2 50.7 8.77"/>
        <polygon class="cls-150" points="51.14 9.2 46.31 6.03 46.4 5.94 50.7 8.77 51.14 9.2"/>
        <polygon class="cls-97" points="51.57 9.64 46.22 6.12 46.31 6.03 51.14 9.2 51.57 9.64"/>
        <polygon class="cls-93" points="52.01 10.07 46.13 6.21 46.22 6.12 51.57 9.64 52.01 10.07"/>
        <polygon class="cls-109" points="52.44 10.51 46.04 6.3 46.13 6.21 52.01 10.07 52.44 10.51"/>
        <polygon class="cls-137" points="52.88 10.94 45.95 6.38 46.04 6.3 52.44 10.51 52.88 10.94"/>
        <polygon class="cls-144" points="53.31 11.38 45.86 6.47 45.95 6.38 52.88 10.94 53.31 11.38"/>
        <polygon class="cls-140" points="53.75 11.81 45.77 6.56 45.86 6.47 53.31 11.38 53.75 11.81"/>
        <polygon class="cls-72" points="54.18 12.25 45.68 6.65 45.77 6.56 53.75 11.81 54.18 12.25"/>
        <polygon class="cls-34" points="54.19 12.4 45.59 6.74 45.68 6.65 54.18 12.25 54.26 12.33 54.19 12.4"/>
        <polygon class="cls-77" points="54.1 12.49 45.5 6.83 45.59 6.74 54.19 12.4 54.1 12.49"/>
        <polygon class="cls-16" points="54.01 12.58 45.41 6.92 45.5 6.83 54.1 12.49 54.01 12.58"/>
        <polygon class="cls-74" points="53.92 12.67 45.32 7.01 45.41 6.92 54.01 12.58 53.92 12.67"/>
        <polygon class="cls-3" points="53.83 12.76 45.24 7.1 45.32 7.01 53.92 12.67 53.83 12.76"/>
        <polygon class="cls-66" points="53.74 12.85 45.15 7.19 45.24 7.1 53.83 12.76 53.74 12.85"/>
        <polygon class="cls-30" points="53.65 12.94 45.06 7.28 45.15 7.19 53.74 12.85 53.65 12.94"/>
        <polygon class="cls-87" points="53.56 13.03 44.97 7.37 45.06 7.28 53.65 12.94 53.56 13.03"/>
        <polygon class="cls-61" points="53.47 13.12 44.88 7.46 44.97 7.37 53.56 13.03 53.47 13.12"/>
        <polygon class="cls-21" points="53.38 13.21 44.79 7.55 44.88 7.46 53.47 13.12 53.38 13.21"/>
        <polygon class="cls-115" points="53.29 13.3 44.7 7.64 44.79 7.55 53.38 13.21 53.29 13.3"/>
        <polygon class="cls-84" points="53.2 13.39 44.61 7.73 44.7 7.64 53.29 13.3 53.2 13.39"/>
        <polygon class="cls-58" points="53.11 13.48 44.52 7.82 44.61 7.73 53.2 13.39 53.11 13.48"/>
        <polygon class="cls-4" points="53.02 13.57 44.43 7.91 44.52 7.82 53.11 13.48 53.02 13.57"/>
        <polygon class="cls-99" points="52.93 13.66 44.34 8 44.43 7.91 53.02 13.57 52.93 13.66"/>
        <polygon class="cls-15" points="52.85 13.75 44.25 8.09 44.34 8 52.93 13.66 52.85 13.75"/>
        <polygon class="cls-125" points="52.76 13.84 44.16 8.18 44.25 8.09 52.85 13.75 52.76 13.84"/>
        <polygon class="cls-49" points="52.67 13.93 44.07 8.27 44.16 8.18 52.76 13.84 52.67 13.93"/>
        <polygon class="cls-39" points="52.58 14.02 43.98 8.36 44.07 8.27 52.67 13.93 52.58 14.02"/>
        <polygon class="cls-18" points="52.49 14.11 43.89 8.45 43.98 8.36 52.58 14.02 52.49 14.11"/>
        <polygon class="cls-152" points="52.4 14.2 43.8 8.54 43.89 8.45 52.49 14.11 52.4 14.2"/>
        <polygon class="cls-59" points="52.31 14.29 43.71 8.63 43.8 8.54 52.4 14.2 52.31 14.29"/>
        <polygon class="cls-104" points="52.22 14.38 43.62 8.72 43.71 8.63 52.31 14.29 52.22 14.38"/>
        <polygon class="cls-60" points="52.13 14.47 43.53 8.81 43.62 8.72 52.22 14.38 52.13 14.47"/>
        <polygon class="cls-69" points="52.04 14.55 43.44 8.9 43.53 8.81 52.13 14.47 52.04 14.55"/>
        <polygon class="cls-32" points="51.95 14.64 43.35 8.99 43.44 8.9 52.04 14.55 51.95 14.64"/>
        <polygon class="cls-127" points="51.86 14.73 43.26 9.08 43.35 8.99 51.95 14.64 51.86 14.73"/>
        <polygon class="cls-111" points="51.77 14.82 43.17 9.16 43.26 9.08 51.86 14.73 51.77 14.82"/>
        <polygon class="cls-148" points="51.68 14.91 43.08 9.25 43.17 9.16 51.77 14.82 51.68 14.91"/>
        <polygon class="cls-14" points="51.59 15 42.99 9.34 43.08 9.25 51.68 14.91 51.59 15"/>
        <polygon class="cls-33" points="51.5 15.09 42.9 9.43 42.99 9.34 51.59 15 51.5 15.09"/>
        <polygon class="cls-110" points="51.41 15.18 42.81 9.52 42.9 9.43 51.5 15.09 51.41 15.18"/>
        <polygon class="cls-113" points="51.32 15.27 42.72 9.61 42.81 9.52 51.41 15.18 51.32 15.27"/>
        <polygon class="cls-11" points="51.23 15.36 42.63 9.7 42.72 9.61 51.32 15.27 51.23 15.36"/>
        <polygon class="cls-48" points="51.14 15.45 42.54 9.79 42.63 9.7 51.23 15.36 51.14 15.45"/>
        <polygon class="cls-85" points="51.05 15.54 42.46 9.88 42.54 9.79 51.14 15.45 51.05 15.54"/>
        <polygon class="cls-85" points="42.46 9.88 51.05 15.54 44.48 22.12 37.35 14.99 42.46 9.88"/>
      </g>
      <g class="cls-157">
        <polygon class="cls-150" points="58.91 21.49 59.49 20.61 59.64 20.76 58.91 21.49"/>
        <polygon class="cls-150" points="58.48 21.93 59.4 20.52 59.49 20.61 58.91 21.49 58.48 21.93"/>
        <polygon class="cls-97" points="58.04 22.36 59.31 20.43 59.4 20.52 58.48 21.93 58.04 22.36"/>
        <polygon class="cls-93" points="57.61 22.8 59.22 20.34 59.31 20.43 58.04 22.36 57.61 22.8"/>
        <polygon class="cls-109" points="57.17 23.24 59.13 20.25 59.22 20.34 57.61 22.8 57.17 23.24"/>
        <polygon class="cls-137" points="56.73 23.67 59.04 20.17 59.13 20.25 57.17 23.24 56.73 23.67"/>
        <polygon class="cls-144" points="56.3 24.11 58.95 20.08 59.04 20.17 56.73 23.67 56.3 24.11"/>
        <polygon class="cls-140" points="55.86 24.54 58.86 19.99 58.95 20.08 56.3 24.11 55.86 24.54"/>
        <polygon class="cls-72" points="55.43 24.98 58.77 19.9 58.86 19.99 55.86 24.54 55.43 24.98"/>
        <polygon class="cls-34" points="54.99 25.41 58.69 19.81 58.77 19.9 55.43 24.98 54.99 25.41"/>
        <polygon class="cls-77" points="54.56 25.85 58.6 19.72 58.69 19.81 54.99 25.41 54.56 25.85"/>
        <polygon class="cls-16" points="54.12 26.29 58.51 19.63 58.6 19.72 54.56 25.85 54.12 26.29"/>
        <polygon class="cls-74" points="53.68 26.72 58.42 19.54 58.51 19.63 54.12 26.29 53.68 26.72"/>
        <polygon class="cls-3" points="53.25 27.16 58.33 19.45 58.42 19.54 53.68 26.72 53.25 27.16"/>
        <polygon class="cls-66" points="52.81 27.59 58.24 19.36 58.33 19.45 53.25 27.16 52.81 27.59"/>
        <polygon class="cls-30" points="52.38 28.03 58.15 19.27 58.24 19.36 52.81 27.59 52.38 28.03"/>
        <polygon class="cls-87" points="51.94 28.46 58.06 19.18 58.15 19.27 52.38 28.03 51.94 28.46"/>
        <polygon class="cls-61" points="51.51 28.9 57.97 19.09 58.06 19.18 51.94 28.46 51.51 28.9"/>
        <polygon class="cls-21" points="51.07 29.34 57.88 19 57.97 19.09 51.51 28.9 51.07 29.34"/>
        <polygon class="cls-115" points="50.81 29.5 57.79 18.91 57.88 19 51.07 29.34 50.86 29.55 50.81 29.5"/>
        <polygon class="cls-84" points="50.72 29.41 57.7 18.82 57.79 18.91 50.81 29.5 50.72 29.41"/>
        <polygon class="cls-58" points="50.63 29.32 57.61 18.73 57.7 18.82 50.72 29.41 50.63 29.32"/>
        <polygon class="cls-4" points="50.54 29.23 57.52 18.64 57.61 18.73 50.63 29.32 50.54 29.23"/>
        <polygon class="cls-99" points="50.45 29.14 57.43 18.55 57.52 18.64 50.54 29.23 50.45 29.14"/>
        <polygon class="cls-15" points="50.36 29.05 57.34 18.46 57.43 18.55 50.45 29.14 50.36 29.05"/>
        <polygon class="cls-125" points="50.27 28.96 57.25 18.37 57.34 18.46 50.36 29.05 50.27 28.96"/>
        <polygon class="cls-49" points="50.18 28.88 57.16 18.28 57.25 18.37 50.27 28.96 50.18 28.88"/>
        <polygon class="cls-39" points="50.09 28.79 57.07 18.19 57.16 18.28 50.18 28.88 50.09 28.79"/>
        <polygon class="cls-18" points="50 28.7 56.98 18.1 57.07 18.19 50.09 28.79 50 28.7"/>
        <polygon class="cls-152" points="49.91 28.61 56.89 18.01 56.98 18.1 50 28.7 49.91 28.61"/>
        <polygon class="cls-59" points="49.82 28.52 56.8 17.92 56.89 18.01 49.91 28.61 49.82 28.52"/>
        <polygon class="cls-104" points="49.74 28.43 56.71 17.83 56.8 17.92 49.82 28.52 49.74 28.43"/>
        <polygon class="cls-60" points="49.65 28.34 56.62 17.74 56.71 17.83 49.74 28.43 49.65 28.34"/>
        <polygon class="cls-69" points="49.56 28.25 56.53 17.65 56.62 17.74 49.65 28.34 49.56 28.25"/>
        <polygon class="cls-32" points="49.47 28.16 56.44 17.56 56.53 17.65 49.56 28.25 49.47 28.16"/>
        <polygon class="cls-127" points="49.38 28.07 56.35 17.47 56.44 17.56 49.47 28.16 49.38 28.07"/>
        <polygon class="cls-111" points="49.29 27.98 56.26 17.39 56.35 17.47 49.38 28.07 49.29 27.98"/>
        <polygon class="cls-148" points="49.2 27.89 56.17 17.3 56.26 17.39 49.29 27.98 49.2 27.89"/>
        <polygon class="cls-14" points="49.11 27.8 56.08 17.21 56.17 17.3 49.2 27.89 49.11 27.8"/>
        <polygon class="cls-33" points="49.02 27.71 55.99 17.12 56.08 17.21 49.11 27.8 49.02 27.71"/>
        <polygon class="cls-110" points="48.93 27.62 55.91 17.03 55.99 17.12 49.02 27.71 48.93 27.62"/>
        <polygon class="cls-113" points="48.84 27.53 55.82 16.94 55.91 17.03 48.93 27.62 48.84 27.53"/>
        <polygon class="cls-11" points="48.75 27.44 55.73 16.85 55.82 16.94 48.84 27.53 48.75 27.44"/>
        <polygon class="cls-48" points="48.66 27.35 55.64 16.76 55.73 16.85 48.75 27.44 48.66 27.35"/>
        <polygon class="cls-85" points="48.57 27.26 55.55 16.67 55.64 16.76 48.66 27.35 48.57 27.26"/>
        <polygon class="cls-85" points="55.55 16.67 48.57 27.26 42.62 21.31 51.41 12.53 55.55 16.67"/>
      </g>
      <g class="cls-159">
        <polygon class="cls-90" points="58.99 12.53 56.64 9.52 59.32 12.2 58.99 12.53"/>
        <polygon class="cls-90" points="58.89 12.63 55.78 8.66 56.64 9.52 58.99 12.53 58.89 12.63"/>
        <polygon class="cls-10" points="58.78 12.74 54.92 7.8 55.78 8.66 58.89 12.63 58.78 12.74"/>
        <polygon class="cls-56" points="58.67 12.84 54.06 6.94 54.92 7.8 58.78 12.74 58.67 12.84"/>
        <polygon class="cls-42" points="58.57 12.95 53.75 6.78 53.83 6.7 54.06 6.94 58.67 12.84 58.57 12.95"/>
        <polygon class="cls-47" points="58.46 13.05 53.65 6.89 53.75 6.78 58.57 12.95 58.46 13.05"/>
        <polygon class="cls-124" points="58.36 13.16 53.54 6.99 53.65 6.89 58.46 13.05 58.36 13.16"/>
        <polygon class="cls-128" points="58.25 13.27 53.43 7.1 53.54 6.99 58.36 13.16 58.25 13.27"/>
        <polygon class="cls-19" points="58.15 13.37 53.33 7.2 53.43 7.1 58.25 13.27 58.15 13.37"/>
        <polygon class="cls-12" points="58.04 13.48 53.22 7.31 53.33 7.2 58.15 13.37 58.04 13.48"/>
        <polygon class="cls-91" points="57.94 13.58 53.12 7.41 53.22 7.31 58.04 13.48 57.94 13.58"/>
        <polygon class="cls-114" points="57.83 13.69 53.01 7.52 53.12 7.41 57.94 13.58 57.83 13.69"/>
        <polygon class="cls-134" points="57.72 13.79 52.91 7.63 53.01 7.52 57.83 13.69 57.72 13.79"/>
        <polygon class="cls-102" points="57.62 13.9 52.8 7.73 52.91 7.63 57.72 13.79 57.62 13.9"/>
        <polygon class="cls-131" points="57.51 14 52.69 7.84 52.8 7.73 57.62 13.9 57.51 14"/>
        <polygon class="cls-23" points="57.41 14.11 52.59 7.94 52.69 7.84 57.51 14 57.41 14.11"/>
        <polygon class="cls-22" points="57.3 14.22 52.48 8.05 52.59 7.94 57.41 14.11 57.3 14.22"/>
        <polygon class="cls-100" points="57.2 14.32 52.38 8.15 52.48 8.05 57.3 14.22 57.2 14.32"/>
        <polygon class="cls-145" points="57.09 14.43 52.27 8.26 52.38 8.15 57.2 14.32 57.09 14.43"/>
        <polygon class="cls-146" points="56.98 14.53 52.17 8.37 52.27 8.26 57.09 14.43 56.98 14.53"/>
        <polygon class="cls-70" points="56.88 14.64 52.06 8.47 52.17 8.37 56.98 14.53 56.88 14.64"/>
        <polygon class="cls-122" points="56.77 14.74 51.96 8.58 52.06 8.47 56.88 14.64 56.77 14.74"/>
        <polygon class="cls-37" points="56.67 14.85 51.85 8.68 51.96 8.58 56.77 14.74 56.67 14.85"/>
        <polygon class="cls-96" points="56.56 14.96 51.74 8.79 51.85 8.68 56.67 14.85 56.56 14.96"/>
        <polygon class="cls-43" points="56.46 15.06 51.64 8.89 51.74 8.79 56.56 14.96 56.46 15.06"/>
        <polygon class="cls-132" points="56.35 15.17 51.53 9 51.64 8.89 56.46 15.06 56.35 15.17"/>
        <polygon class="cls-27" points="56.25 15.27 51.43 9.1 51.53 9 56.35 15.17 56.25 15.27"/>
        <polygon class="cls-147" points="56.14 15.38 51.32 9.21 51.43 9.1 56.25 15.27 56.14 15.38"/>
        <polygon class="cls-118" points="56.03 15.48 51.22 9.32 51.32 9.21 56.14 15.38 56.03 15.48"/>
        <polygon class="cls-50" points="55.93 15.59 51.11 9.42 51.22 9.32 56.03 15.48 55.93 15.59"/>
        <polygon class="cls-44" points="55.82 15.69 51 9.53 51.11 9.42 55.93 15.59 55.82 15.69"/>
        <polygon class="cls-123" points="55.72 15.8 50.9 9.63 51 9.53 55.82 15.69 55.72 15.8"/>
        <polygon class="cls-71" points="55.61 15.91 50.79 9.74 50.9 9.63 55.72 15.8 55.61 15.91"/>
        <polygon class="cls-120" points="55.51 16.01 50.69 9.84 50.79 9.74 55.61 15.91 55.51 16.01"/>
        <polygon class="cls-101" points="55.4 16.12 50.58 9.95 50.69 9.84 55.51 16.01 55.4 16.12"/>
        <polygon class="cls-138" points="55.3 16.22 50.48 10.06 50.58 9.95 55.4 16.12 55.3 16.22"/>
        <polygon class="cls-94" points="55.19 16.33 50.37 10.16 50.48 10.06 55.3 16.22 55.19 16.33"/>
        <polygon class="cls-133" points="55.08 16.43 50.27 10.27 50.37 10.16 55.19 16.33 55.08 16.43"/>
        <polygon class="cls-55" points="54.98 16.54 50.16 10.37 50.27 10.27 55.08 16.43 54.98 16.54"/>
        <polygon class="cls-141" points="54.87 16.65 50.05 10.48 50.16 10.37 54.98 16.54 54.87 16.65"/>
        <polygon class="cls-65" points="54.77 16.75 49.95 10.58 50.05 10.48 54.87 16.65 54.77 16.75"/>
        <polygon class="cls-98" points="54.66 16.86 49.84 10.69 49.95 10.58 54.77 16.75 54.66 16.86"/>
        <polygon class="cls-117" points="54.56 16.96 49.74 10.79 49.84 10.69 54.66 16.86 54.56 16.96"/>
        <polygon class="cls-79" points="54.45 17.07 49.63 10.9 49.74 10.79 54.56 16.96 54.45 17.07"/>
        <polygon class="cls-64" points="54.34 17.17 49.53 11.01 49.63 10.9 54.45 17.07 54.34 17.17"/>
        <polygon class="cls-36" points="54.24 17.28 49.42 11.11 49.53 11.01 54.34 17.17 54.24 17.28"/>
        <polygon class="cls-24" points="54.13 17.38 49.31 11.22 49.42 11.11 54.24 17.28 54.13 17.38"/>
        <polygon class="cls-31" points="54.03 17.49 49.21 11.32 49.31 11.22 54.13 17.38 54.03 17.49"/>
        <polygon class="cls-105" points="53.92 17.6 49.1 11.43 49.21 11.32 54.03 17.49 53.92 17.6"/>
        <polygon class="cls-63" points="53.82 17.7 49 11.53 49.1 11.43 53.92 17.6 53.82 17.7"/>
        <polygon class="cls-136" points="53.71 17.81 48.89 11.64 49 11.53 53.82 17.7 53.71 17.81"/>
        <polygon class="cls-130" points="53.61 17.91 48.79 11.75 48.89 11.64 53.71 17.81 53.61 17.91"/>
        <polygon class="cls-143" points="53.5 18.02 48.68 11.85 48.79 11.75 53.61 17.91 53.5 18.02"/>
        <polygon class="cls-68" points="53.39 18.12 48.58 11.96 48.68 11.85 53.5 18.02 53.39 18.12"/>
        <polygon class="cls-106" points="53.29 18.23 48.47 12.06 48.58 11.96 53.39 18.12 53.29 18.23"/>
        <polygon class="cls-13" points="53.18 18.34 48.36 12.17 48.47 12.06 53.29 18.23 53.18 18.34"/>
        <polygon class="cls-135" points="53.08 18.44 48.26 12.27 48.36 12.17 53.18 18.34 53.08 18.44"/>
        <polygon class="cls-150" points="52.97 18.55 48.15 12.38 48.26 12.27 53.08 18.44 52.97 18.55"/>
        <polygon class="cls-150" points="48.15 12.38 52.97 18.55 48.93 22.59 43.44 17.1 48.15 12.38"/>
      </g>
    </g>
    <g class="cls-158">
      <polygon class="cls-29" points="52.47 25.7 39.6 10.26 41.68 8.18 55.84 22.34 52.47 25.7"/>
      <polygon class="cls-29" points="52.21 25.96 39.34 10.52 39.6 10.26 52.47 25.7 52.21 25.96"/>
      <polygon class="cls-78" points="51.95 26.22 39.08 10.78 39.34 10.52 52.21 25.96 51.95 26.22"/>
      <polygon class="cls-73" points="51.69 26.48 38.82 11.04 39.08 10.78 51.95 26.22 51.69 26.48"/>
      <polygon class="cls-95" points="51.43 26.74 38.56 11.3 38.82 11.04 51.69 26.48 51.43 26.74"/>
      <polygon class="cls-57" points="51.17 27.01 38.3 11.56 38.56 11.3 51.43 26.74 51.17 27.01"/>
      <polygon class="cls-38" points="50.91 27.27 38.04 11.82 38.3 11.56 51.17 27.01 50.91 27.27"/>
      <polygon class="cls-107" points="50.65 27.53 37.78 12.08 38.04 11.82 50.91 27.27 50.65 27.53"/>
      <polygon class="cls-26" points="50.39 27.79 37.52 12.34 37.78 12.08 50.65 27.53 50.39 27.79"/>
      <polygon class="cls-83" points="50.13 28.05 37.26 12.6 37.52 12.34 50.39 27.79 50.13 28.05"/>
      <polygon class="cls-116" points="49.87 28.31 37 12.86 37.26 12.6 50.13 28.05 49.87 28.31"/>
      <polygon class="cls-67" points="49.61 28.57 36.74 13.12 37 12.86 49.87 28.31 49.61 28.57"/>
      <polygon class="cls-142" points="49.35 28.83 36.48 13.38 36.74 13.12 49.61 28.57 49.35 28.83"/>
      <polygon class="cls-51" points="49.09 29.09 36.22 13.64 36.48 13.38 49.35 28.83 49.09 29.09"/>
      <polygon class="cls-129" points="48.83 29.35 35.96 13.9 36.22 13.64 49.09 29.09 48.83 29.35"/>
      <polygon class="cls-7" points="48.57 29.61 35.7 14.16 35.96 13.9 48.83 29.35 48.57 29.61"/>
      <polygon class="cls-41" points="48.31 29.87 35.44 14.42 35.7 14.16 48.57 29.61 48.31 29.87"/>
      <polygon class="cls-75" points="48.05 30.13 35.18 14.68 35.44 14.42 48.31 29.87 48.05 30.13"/>
      <polygon class="cls-28" points="47.79 30.39 34.92 14.94 35.18 14.68 48.05 30.13 47.79 30.39"/>
      <polygon class="cls-17" points="47.53 30.65 34.66 15.2 34.92 14.94 47.79 30.39 47.53 30.65"/>
      <polygon class="cls-121" points="47.27 30.91 34.4 15.46 34.66 15.2 47.53 30.65 47.27 30.91"/>
      <polygon class="cls-40" points="47.01 31.17 34.14 15.72 34.4 15.46 47.27 30.91 47.01 31.17"/>
      <polygon class="cls-81" points="46.75 31.43 33.88 15.98 34.14 15.72 47.01 31.17 46.75 31.43"/>
      <polygon class="cls-119" points="46.49 31.69 33.62 16.24 33.88 15.98 46.75 31.43 46.49 31.69"/>
      <polygon class="cls-25" points="46.22 31.95 33.36 16.5 33.62 16.24 46.49 31.69 46.22 31.95"/>
      <polygon class="cls-9" points="45.96 32.21 33.1 16.76 33.36 16.5 46.22 31.95 45.96 32.21"/>
      <polygon class="cls-89" points="45.7 32.47 32.83 17.02 33.1 16.76 45.96 32.21 45.7 32.47"/>
      <polygon class="cls-139" points="45.44 32.73 32.57 17.28 32.83 17.02 45.7 32.47 45.44 32.73"/>
      <polygon class="cls-45" points="45.18 32.99 32.31 17.54 32.57 17.28 45.44 32.73 45.18 32.99"/>
      <polygon class="cls-153" points="44.92 33.25 32.05 17.8 32.31 17.54 45.18 32.99 44.92 33.25"/>
      <polygon class="cls-80" points="44.66 33.51 31.79 18.06 32.05 17.8 44.92 33.25 44.66 33.51"/>
      <polygon class="cls-82" points="44.4 33.77 31.53 18.32 31.79 18.06 44.66 33.51 44.4 33.77"/>
      <polygon class="cls-92" points="44.14 34.03 31.27 18.58 31.53 18.32 44.4 33.77 44.14 34.03"/>
      <polygon class="cls-62" points="43.88 34.29 31.01 18.85 31.27 18.58 44.14 34.03 43.88 34.29"/>
      <polygon class="cls-103" points="43.62 34.55 30.75 19.11 31.01 18.85 43.88 34.29 43.62 34.55"/>
      <polygon class="cls-54" points="43.36 34.81 30.49 19.37 30.75 19.11 43.62 34.55 43.36 34.81"/>
      <polygon class="cls-6" points="43.1 35.07 30.23 19.63 30.49 19.37 43.36 34.81 43.1 35.07"/>
      <polygon class="cls-8" points="42.84 35.33 29.97 19.89 30.23 19.63 43.1 35.07 42.84 35.33"/>
      <polygon class="cls-52" points="42.58 35.59 29.71 20.15 29.97 19.89 42.84 35.33 42.58 35.59"/>
      <polygon class="cls-112" points="42.32 35.86 29.45 20.41 29.71 20.15 42.58 35.59 42.32 35.86"/>
      <polygon class="cls-5" points="42.06 36.12 29.19 20.67 29.45 20.41 42.32 35.86 42.06 36.12"/>
      <polygon class="cls-46" points="41.8 36.38 28.93 20.93 29.19 20.67 42.06 36.12 41.8 36.38"/>
      <polygon class="cls-149" points="41.54 36.64 28.67 21.19 28.93 20.93 41.8 36.38 41.54 36.64"/>
      <polygon class="cls-151" points="41.28 36.9 28.41 21.45 28.67 21.19 41.54 36.64 41.28 36.9"/>
      <polygon class="cls-35" points="41.02 37.16 28.15 21.71 28.41 21.45 41.28 36.9 41.02 37.16"/>
      <polygon class="cls-53" points="40.76 37.42 27.89 21.97 28.15 21.71 41.02 37.16 40.76 37.42"/>
      <polygon class="cls-86" points="40.5 37.68 27.63 22.23 27.89 21.97 40.76 37.42 40.5 37.68"/>
      <polygon class="cls-126" points="40.24 37.94 27.37 22.49 27.63 22.23 40.5 37.68 40.24 37.94"/>
      <polygon class="cls-108" points="38.04 35.87 27.11 22.75 27.37 22.49 40.24 37.94 40.17 38 38.04 35.87"/>
      <polygon class="cls-88" points="35.18 33.02 26.85 23.01 27.11 22.75 38.04 35.87 35.18 33.02"/>
      <polygon class="cls-2" points="32.33 30.16 26.59 23.27 26.85 23.01 35.18 33.02 32.33 30.16"/>
      <polygon class="cls-2" points="26.59 23.27 32.33 30.16 26.01 23.85 26.59 23.27"/>
    </g>
    <ellipse class="cls-156" cx="44.48" cy="26.69" rx=".67" ry="1.43" transform="translate(-5.85 39.27) rotate(-45)"/>
    <ellipse class="cls-156" cx="37.33" cy="18.98" rx=".67" ry="1.43" transform="translate(-3.77 27) rotate(-38)"/>
    <g>
      <path d="M40.39,23.18c-.06-.06-.13-.13-.19-.21-.39-.49-.53-1.01-.43-1.55.02-.11.13-.18.23-.16.11.02.18.13.16.23-.08.42.03.82.35,1.22.32.4.72.63,1.22.68.11.01.19.11.18.22s-.11.19-.22.18c-.51-.05-.95-.26-1.31-.62Z"/>
      <path class="cls-76" d="M40.25,17.23c.29.27.44.63.45,1,.01.37-.11.74-.38,1.03s-.63.44-1,.45c-.37.01-.74-.11-1.03-.38s-.44-.63-.45-1c-.01-.37.11-.74.38-1.03s.63-.44,1-.45c.37-.01.74.11,1.03.38Z"/>
      <path class="cls-20" d="M39.45,18.13c.18-.19.17-.48-.02-.66s-.48-.17-.66.02-.17.48.02.66c.19.18.48.17.66-.02Z"/>
      <path class="cls-76" d="M46.12,23.62c.29.27.44.63.45,1,.01.37-.11.74-.38,1.03s-.63.44-1,.45c-.37.01-.74-.11-1.03-.38s-.44-.63-.45-1c-.01-.37.11-.74.38-1.03s.63-.44,1-.45c.37-.01.74.11,1.03.38Z"/>
      <g>
        <g>
          <path class="cls-154" d="M40.17,19.12c-.46.5-1.24.52-1.74.06s-.52-1.24-.06-1.74,1.24-.52,1.74-.06.52,1.24.06,1.74ZM40.46,19.39c.61-.66.58-1.69-.08-2.3s-1.69-.58-2.3.08-.58,1.69.08,2.3,1.69.58,2.3-.08Z"/>
          <path class="cls-154" d="M38.05,19.5c-.31-.31-.49-.72-.5-1.16-.02-.46.15-.9.46-1.24.32-.34.74-.53,1.2-.55.46-.02.9.15,1.24.46.34.32.53.74.55,1.2.02.46-.15.9-.46,1.24h0c-.65.7-1.75.74-2.44.09-.02-.01-.03-.03-.04-.04ZM40.35,17.2s-.03-.03-.04-.04c-.3-.28-.69-.42-1.1-.41-.41.01-.79.19-1.07.49-.28.3-.42.69-.41,1.1.01.41.19.79.49,1.07.62.58,1.59.54,2.16-.08h0c.28-.3.42-.69.41-1.1-.01-.39-.17-.75-.45-1.03ZM38.33,19.22c-.24-.24-.38-.55-.39-.89-.01-.36.11-.69.36-.95.24-.26.57-.41.93-.42.36-.01.69.11.95.36.54.5.57,1.34.07,1.88-.24.26-.57.41-.93.42-.36.01-.69-.11-.95-.36-.01-.01-.02-.02-.03-.03ZM40.07,17.48s-.02-.02-.03-.03c-.22-.21-.51-.31-.81-.3-.3.01-.58.14-.79.36-.21.22-.31.51-.3.81.01.3.14.58.36.79.22.21.51.31.81.3.3-.01.58-.14.79-.36.42-.45.4-1.14-.03-1.57Z"/>
        </g>
        <g>
          <path class="cls-154" d="M46.04,25.5c-.46.5-1.24.52-1.74.06s-.52-1.24-.06-1.74,1.24-.52,1.74-.06.52,1.24.06,1.74ZM46.33,25.77c.61-.66.58-1.69-.08-2.3s-1.69-.58-2.3.08-.58,1.69.08,2.3,1.69.58,2.3-.08Z"/>
          <path class="cls-154" d="M43.92,25.88c-.65-.65-.68-1.72-.04-2.4.65-.7,1.75-.74,2.44-.09.34.31.53.74.55,1.2.02.46-.15.9-.46,1.24h0c-.32.34-.74.53-1.2.55-.46.02-.9-.15-1.24-.46-.01-.01-.03-.03-.04-.04ZM46.22,23.58s-.03-.03-.04-.04c-.62-.58-1.59-.54-2.16.08-.58.62-.54,1.59.08,2.16.3.28.69.42,1.1.41.41-.01.79-.19,1.07-.49h0c.28-.3.42-.69.41-1.1-.01-.39-.17-.75-.45-1.03ZM44.2,25.6c-.24-.24-.38-.55-.39-.89-.01-.36.11-.69.36-.95.5-.54,1.34-.57,1.88-.07.54.5.57,1.34.07,1.88h0c-.5.54-1.34.57-1.88.07-.01-.01-.02-.02-.03-.03ZM45.94,23.86s-.02-.02-.03-.03c-.46-.43-1.17-.4-1.6.06-.21.22-.31.51-.3.81.01.3.14.58.36.79.46.43,1.17.4,1.6-.06.42-.45.4-1.14-.03-1.57Z"/>
        </g>
        <path class="cls-20" d="M45.32,24.51c.18-.19.17-.48-.02-.66s-.48-.17-.66.02-.17.48.02.66.48.17.66-.02Z"/>
      </g>
    </g>
    <g>
      <g>
        <path class="cls-161" d="M33.14,27.11c-.07-.07-.11-.16-.11-.27l.14-7.1c0-.2.17-.36.37-.36.2,0,.36.17.36.37l-.14,7.1c0,.2-.17.36-.37.36-.1,0-.19-.04-.25-.11Z"/>
        <path class="cls-161" d="M31.3,23.59c-.06-.06-.1-.15-.11-.25,0-.2.15-.37.35-.38l4.56-.14c.2,0,.37.15.38.35,0,.2-.15.37-.35.38l-4.56.14c-.11,0-.2-.04-.27-.11Z"/>
      </g>
      <g>
        <path class="cls-161" d="M36.86,30.83c-.06-.06-.11-.15-.11-.25,0-.2.16-.37.36-.37l7.1-.14c.2,0,.37.16.37.36,0,.2-.16.37-.36.37l-7.1.14c-.1,0-.2-.04-.27-.11Z"/>
        <path class="cls-161" d="M40.38,32.67c-.07-.07-.11-.16-.11-.27l.14-4.56c0-.2.18-.36.38-.35.2,0,.36.17.35.38l-.14,4.56c0,.2-.18.36-.38.35-.1,0-.18-.04-.25-.11Z"/>
      </g>
      <g>
        <path class="cls-155" d="M43.44,18.79c-.07-.07-.11-.16-.11-.26,0-.2.16-.37.37-.37h4.61c.2,0,.37.16.37.37,0,.2-.16.37-.37.37h-4.61c-.1,0-.19-.04-.26-.11Z"/>
        <path class="cls-155" d="M45.28,20.62c-.07-.07-.11-.16-.11-.26v-4.61c0-.2.16-.37.37-.37.2,0,.37.16.37.37v4.61c0,.2-.16.37-.37.37-.1,0-.19-.04-.26-.11Z"/>
      </g>
    </g>
  </g>
</svg>