<?xml version="1.0" encoding="UTF-8"?>
<svg id="Layer_1" xmlns="http://www.w3.org/2000/svg" xmlns:xlink="http://www.w3.org/1999/xlink" viewBox="0 0 64 64">
  <defs>
    <style>
      .cls-1, .cls-2 {
        fill: #ffc63a;
      }

      .cls-3 {
        fill: #52c25f;
      }

      .cls-3, .cls-4, .cls-5, .cls-6, .cls-7, .cls-8, .cls-9, .cls-10, .cls-11, .cls-12, .cls-13, .cls-14, .cls-15, .cls-16, .cls-17, .cls-18, .cls-19, .cls-20, .cls-21, .cls-22, .cls-23, .cls-24, .cls-25, .cls-26, .cls-27, .cls-28, .cls-29, .cls-30, .cls-31, .cls-32, .cls-33, .cls-34, .cls-35, .cls-36, .cls-37, .cls-38, .cls-39, .cls-40, .cls-41, .cls-42, .cls-43, .cls-44, .cls-45, .cls-46, .cls-47, .cls-48, .cls-49, .cls-50, .cls-51, .cls-52, .cls-53, .cls-54, .cls-55, .cls-56, .cls-57, .cls-58, .cls-59, .cls-60, .cls-61, .cls-62, .cls-63, .cls-64, .cls-65, .cls-66, .cls-67, .cls-68, .cls-69, .cls-70, .cls-71, .cls-72, .cls-73, .cls-74, .cls-75, .cls-76, .cls-77, .cls-78, .cls-79, .cls-80, .cls-2, .cls-81, .cls-82, .cls-83, .cls-84, .cls-85, .cls-86, .cls-87, .cls-88, .cls-89, .cls-90, .cls-91, .cls-92, .cls-93, .cls-94, .cls-95, .cls-96, .cls-97, .cls-98, .cls-99, .cls-100, .cls-101, .cls-102, .cls-103, .cls-104, .cls-105, .cls-106, .cls-107, .cls-108, .cls-109, .cls-110, .cls-111, .cls-112, .cls-113, .cls-114, .cls-115, .cls-116, .cls-117, .cls-118, .cls-119, .cls-120, .cls-121, .cls-122, .cls-123, .cls-124, .cls-125, .cls-126, .cls-127, .cls-128, .cls-129, .cls-130, .cls-131, .cls-132, .cls-133, .cls-134, .cls-135, .cls-136, .cls-137, .cls-138, .cls-139, .cls-140, .cls-141, .cls-142, .cls-143, .cls-144, .cls-145, .cls-146, .cls-147, .cls-148, .cls-149, .cls-150, .cls-151, .cls-152, .cls-153 {
        fill-rule: evenodd;
      }

      .cls-4 {
        fill: #52b95d;
      }

      .cls-5 {
        fill: #fc4;
      }

      .cls-6 {
        fill: #ffcf48;
      }

      .cls-7 {
        fill: #ffdc5e;
      }

      .cls-8 {
        fill: #ffce47;
      }

      .cls-9 {
        fill: #ffd654;
      }

      .cls-10 {
        fill: #89e99b;
      }

      .cls-11 {
        fill: #51a457;
      }

      .cls-12 {
        fill: #82e594;
      }

      .cls-13 {
        fill: #54cf65;
      }

      .cls-14 {
        fill: #51a858;
      }

      .cls-15 {
        fill: #51b65c;
      }

      .cls-16 {
        fill: #52c460;
      }

      .cls-17 {
        fill: #ffda5a;
      }

      .cls-18 {
        fill: #51b25b;
      }

      .cls-19 {
        fill: #83e695;
      }

      .cls-20, .cls-154 {
        fill: #fff;
      }

      .cls-21 {
        fill: #52bd5e;
      }

      .cls-22 {
        fill: #7be28d;
      }

      .cls-23 {
        fill: #7ce28e;
      }

      .cls-155, .cls-88 {
        fill: #ffc73b;
      }

      .cls-24 {
        fill: #5dd36e;
      }

      .cls-25 {
        fill: #ffd655;
      }

      .cls-26 {
        fill: #ffe165;
      }

      .cls-27 {
        fill: #71dd83;
      }

      .cls-28 {
        fill: #ffda5b;
      }

      .cls-29 {
        fill: #ffe56c;
      }

      .cls-30 {
        fill: #52c05f;
      }

      .cls-31 {
        fill: #5cd36d;
      }

      .cls-32 {
        fill: #51ac59;
      }

      .cls-33 {
        fill: #51a758;
      }

      .cls-34 {
        fill: #52c661;
      }

      .cls-35 {
        fill: #ffca40;
      }

      .cls-36 {
        fill: #5ed46f;
      }

      .cls-37 {
        fill: #75df87;
      }

      .cls-38 {
        fill: #ffe267;
      }

      .cls-39 {
        fill: #51b35b;
      }

      .cls-40 {
        fill: #ffd858;
      }

      .cls-41 {
        fill: #ffdc5d;
      }

      .cls-42 {
        fill: #87e899;
      }

      .cls-43 {
        fill: #73de85;
      }

      .cls-44 {
        fill: #6ddb7e;
      }

      .cls-45 {
        fill: #ffd450;
      }

      .cls-156 {
        fill: #eaadcc;
      }

      .cls-46 {
        fill: #ffcc43;
      }

      .cls-47 {
        fill: #86e798;
      }

      .cls-48 {
        fill: #51a356;
      }

      .cls-49 {
        fill: #51b45b;
      }

      .cls-50 {
        fill: #6edc80;
      }

      .cls-51 {
        fill: #ffdd60;
      }

      .cls-52 {
        fill: #ffce46;
      }

      .cls-53 {
        fill: #ffc93f;
      }

      .cls-54 {
        fill: #ffcf49;
      }

      .cls-55 {
        fill: #65d776;
      }

      .cls-56 {
        fill: #88e89a;
      }

      .cls-57 {
        fill: #ffe268;
      }

      .cls-58 {
        fill: #52ba5d;
      }

      .cls-59 {
        fill: #51b05a;
      }

      .cls-60 {
        fill: #51ae5a;
      }

      .cls-61 {
        fill: #52be5e;
      }

      .cls-62 {
        fill: #ffd14b;
      }

      .cls-63 {
        fill: #5ad26b;
      }

      .cls-64 {
        fill: #5fd470;
      }

      .cls-65 {
        fill: #63d674;
      }

      .cls-66 {
        fill: #52c15f;
      }

      .cls-67 {
        fill: #ffdf62;
      }

      .cls-68 {
        fill: #56d067;
      }

      .cls-69 {
        fill: #51ad59;
      }

      .cls-70 {
        fill: #77e089;
      }

      .cls-71 {
        fill: #6bda7c;
      }

      .cls-72 {
        fill: #52c761;
      }

      .cls-157 {
        clip-path: url(#clippath-1);
      }

      .cls-158 {
        clip-path: url(#clippath-3);
      }

      .cls-159 {
        clip-path: url(#clippath-2);
      }

      .cls-73 {
        fill: #ffe46a;
      }

      .cls-74 {
        fill: #52c360;
      }

      .cls-75 {
        fill: #ffdb5c;
      }

      .cls-77 {
        fill: #52c560;
      }

      .cls-78 {
        fill: #ffe46b;
      }

      .cls-79 {
        fill: #60d571;
      }

      .cls-80 {
        fill: #ffd34e;
      }

      .cls-81 {
        fill: #ffd857;
      }

      .cls-82 {
        fill: #ffd24d;
      }

      .cls-83 {
        fill: #ffe064;
      }

      .cls-84 {
        fill: #52bb5d;
      }

      .cls-85 {
        fill: #51a256;
      }

      .cls-86 {
        fill: #ffc93e;
      }

      .cls-87 {
        fill: #52bf5e;
      }

      .cls-160 {
        clip-rule: evenodd;
        fill: none;
      }

      .cls-89 {
        fill: #ffd552;
      }

      .cls-90 {
        fill: #8ae99c;
      }

      .cls-91 {
        fill: #81e593;
      }

      .cls-92 {
        fill: #ffd14c;
      }

      .cls-93 {
        fill: #52cc62;
      }

      .cls-94 {
        fill: #67d878;
      }

      .cls-95 {
        fill: #ffe369;
      }

      .cls-96 {
        fill: #74de86;
      }

      .cls-97 {
        fill: #52cd63;
      }

      .cls-98 {
        fill: #62d673;
      }

      .cls-99 {
        fill: #51b75c;
      }

      .cls-100 {
        fill: #7ae18c;
      }

      .cls-101 {
        fill: #69d97a;
      }

      .cls-102 {
        fill: #7ee390;
      }

      .cls-103 {
        fill: #ffd04a;
      }

      .cls-104 {
        fill: #51af5a;
      }

      .cls-105 {
        fill: #5bd26c;
      }

      .cls-106 {
        fill: #55cf66;
      }

      .cls-107 {
        fill: #ffe166;
      }

      .cls-108 {
        fill: #ffc73c;
      }

      .cls-109 {
        fill: #52cb62;
      }

      .cls-110 {
        fill: #51a657;
      }

      .cls-111 {
        fill: #51aa58;
      }

      .cls-112 {
        fill: #ffcd45;
      }

      .cls-113 {
        fill: #51a557;
      }

      .cls-114 {
        fill: #80e492;
      }

      .cls-115 {
        fill: #52bc5e;
      }

      .cls-116 {
        fill: #ffdf63;
      }

      .cls-117 {
        fill: #61d572;
      }

      .cls-118 {
        fill: #6fdc81;
      }

      .cls-119 {
        fill: #ffd756;
      }

      .cls-120 {
        fill: #6ada7b;
      }

      .cls-121 {
        fill: #ffd959;
      }

      .cls-122 {
        fill: #76df88;
      }

      .cls-123 {
        fill: #6cdb7d;
      }

      .cls-124 {
        fill: #85e797;
      }

      .cls-125 {
        fill: #51b55c;
      }

      .cls-126 {
        fill: #ffc83d;
      }

      .cls-127 {
        fill: #51ab59;
      }

      .cls-128 {
        fill: #84e696;
      }

      .cls-129 {
        fill: #ffdd5f;
      }

      .cls-130 {
        fill: #58d169;
      }

      .cls-131 {
        fill: #7de38f;
      }

      .cls-132 {
        fill: #72dd84;
      }

      .cls-133 {
        fill: #66d877;
      }

      .cls-161 {
        fill: #ecb732;
      }

      .cls-134 {
        fill: #7fe491;
      }

      .cls-135 {
        fill: #53ce64;
      }

      .cls-136 {
        fill: #59d16a;
      }

      .cls-137 {
        fill: #52ca62;
      }

      .cls-138 {
        fill: #68d979;
      }

      .cls-139 {
        fill: #ffd551;
      }

      .cls-140 {
        fill: #52c861;
      }

      .cls-141 {
        fill: #64d775;
      }

      .cls-142 {
        fill: #ffde61;
      }

      .cls-143 {
        fill: #57d068;
      }

      .cls-162 {
        clip-path: url(#clippath);
      }

      .cls-144 {
        fill: #52c961;
      }

      .cls-145 {
        fill: #79e18b;
      }

      .cls-146 {
        fill: #78e08a;
      }

      .cls-147 {
        fill: #70dc82;
      }

      .cls-148 {
        fill: #51a958;
      }

      .cls-149 {
        fill: #ffcb42;
      }

      .cls-150 {
        fill: #52ce63;
      }

      .cls-151 {
        fill: #ffca41;
      }

      .cls-152 {
        fill: #51b15b;
      }

      .cls-153 {
        fill: #ffd34f;
      }
    </style>
    <clipPath id="clippath">
      <path class="cls-160" d="M19.79,44.68c-2.96-.07-4.29,2.18-5.08,5.72s1.2,7.08,2.21,7.11,4.64-3.38,5.43-6.92c.79-3.54.4-5.84-2.56-5.91h0Z"/>
    </clipPath>
    <clipPath id="clippath-1">
      <path class="cls-160" d="M18.67,43.17c.65-2.89-1.5-3.75-5.13-3.84s-7.79,2.53-8.01,3.52c-.22.98,2.71,3.86,6.34,3.94,3.63.09,6.15-.73,6.8-3.63h0Z"/>
    </clipPath>
    <clipPath id="clippath-2">
      <path class="cls-160" d="M18.31,44.76c-1.64-2.09-4.09-1.1-7.22,1.34-3.13,2.44-4.66,6.8-4.1,7.51s5.2.33,8.32-2.11,4.64-4.64,3-6.74Z"/>
    </clipPath>
    <clipPath id="clippath-3">
      <path class="cls-160" d="M31.1,32.91c-3.91-3.91-8.22-5.94-13.37-.79-5.15,5.15-6.21,12.55-2.3,16.46,3.91,3.91,11.3,2.85,16.46-2.3,5.15-5.15,3.12-9.45-.79-13.36Z"/>
    </clipPath>
  </defs>
  <rect class="cls-1" x="38.29" y="-49.85" width="20.01" height="67.95" transform="translate(25.37 29.51) rotate(-45)"/>
  <rect class="cls-1" x="69.88" y="-18.27" width="20.01" height="67.95" transform="translate(147.48 -29.67) rotate(135)"/>
  <rect class="cls-1" x="38.3" y="-18.27" width="20.01" height="67.95" transform="translate(71.35 60.97) rotate(-135)"/>
  <g>
    <g>
      <g class="cls-162">
        <polygon class="cls-150" points="13.49 55.07 17.79 57.9 17.05 58.63 13.49 55.07"/>
        <polygon class="cls-150" points="13.05 54.63 17.88 57.81 17.79 57.9 13.49 55.07 13.05 54.63"/>
        <polygon class="cls-97" points="12.62 54.2 17.97 57.72 17.88 57.81 13.05 54.63 12.62 54.2"/>
        <polygon class="cls-93" points="12.18 53.76 18.06 57.63 17.97 57.72 12.62 54.2 12.18 53.76"/>
        <polygon class="cls-109" points="11.75 53.33 18.15 57.54 18.06 57.63 12.18 53.76 11.75 53.33"/>
        <polygon class="cls-137" points="11.31 52.89 18.24 57.45 18.15 57.54 11.75 53.33 11.31 52.89"/>
        <polygon class="cls-144" points="10.88 52.46 18.33 57.36 18.24 57.45 11.31 52.89 10.88 52.46"/>
        <polygon class="cls-140" points="10.44 52.02 18.42 57.27 18.33 57.36 10.88 52.46 10.44 52.02"/>
        <polygon class="cls-72" points="10.01 51.59 18.51 57.18 18.42 57.27 10.44 52.02 10.01 51.59"/>
        <polygon class="cls-34" points="10 51.43 18.6 57.09 18.51 57.18 10.01 51.59 9.93 51.5 10 51.43"/>
        <polygon class="cls-77" points="10.09 51.34 18.69 57 18.6 57.09 10 51.43 10.09 51.34"/>
        <polygon class="cls-16" points="10.18 51.25 18.77 56.91 18.69 57 10.09 51.34 10.18 51.25"/>
        <polygon class="cls-74" points="10.27 51.16 18.86 56.82 18.77 56.91 10.18 51.25 10.27 51.16"/>
        <polygon class="cls-3" points="10.36 51.07 18.95 56.73 18.86 56.82 10.27 51.16 10.36 51.07"/>
        <polygon class="cls-66" points="10.45 50.98 19.04 56.64 18.95 56.73 10.36 51.07 10.45 50.98"/>
        <polygon class="cls-30" points="10.54 50.89 19.13 56.55 19.04 56.64 10.45 50.98 10.54 50.89"/>
        <polygon class="cls-87" points="10.63 50.8 19.22 56.46 19.13 56.55 10.54 50.89 10.63 50.8"/>
        <polygon class="cls-61" points="10.72 50.71 19.31 56.37 19.22 56.46 10.63 50.8 10.72 50.71"/>
        <polygon class="cls-21" points="10.81 50.62 19.4 56.28 19.31 56.37 10.72 50.71 10.81 50.62"/>
        <polygon class="cls-115" points="10.9 50.53 19.49 56.19 19.4 56.28 10.81 50.62 10.9 50.53"/>
        <polygon class="cls-84" points="10.99 50.45 19.58 56.1 19.49 56.19 10.9 50.53 10.99 50.45"/>
        <polygon class="cls-58" points="11.07 50.36 19.67 56.01 19.58 56.1 10.99 50.45 11.07 50.36"/>
        <polygon class="cls-4" points="11.16 50.27 19.76 55.92 19.67 56.01 11.07 50.36 11.16 50.27"/>
        <polygon class="cls-99" points="11.25 50.18 19.85 55.84 19.76 55.92 11.16 50.27 11.25 50.18"/>
        <polygon class="cls-15" points="11.34 50.09 19.94 55.75 19.85 55.84 11.25 50.18 11.34 50.09"/>
        <polygon class="cls-125" points="11.43 50 20.03 55.66 19.94 55.75 11.34 50.09 11.43 50"/>
        <polygon class="cls-49" points="11.52 49.91 20.12 55.57 20.03 55.66 11.43 50 11.52 49.91"/>
        <polygon class="cls-39" points="11.61 49.82 20.21 55.48 20.12 55.57 11.52 49.91 11.61 49.82"/>
        <polygon class="cls-18" points="11.7 49.73 20.3 55.39 20.21 55.48 11.61 49.82 11.7 49.73"/>
        <polygon class="cls-152" points="11.79 49.64 20.39 55.3 20.3 55.39 11.7 49.73 11.79 49.64"/>
        <polygon class="cls-59" points="11.88 49.55 20.48 55.21 20.39 55.3 11.79 49.64 11.88 49.55"/>
        <polygon class="cls-104" points="11.97 49.46 20.57 55.12 20.48 55.21 11.88 49.55 11.97 49.46"/>
        <polygon class="cls-60" points="12.06 49.37 20.66 55.03 20.57 55.12 11.97 49.46 12.06 49.37"/>
        <polygon class="cls-69" points="12.15 49.28 20.75 54.94 20.66 55.03 12.06 49.37 12.15 49.28"/>
        <polygon class="cls-32" points="12.24 49.19 20.84 54.85 20.75 54.94 12.15 49.28 12.24 49.19"/>
        <polygon class="cls-127" points="12.33 49.1 20.93 54.76 20.84 54.85 12.24 49.19 12.33 49.1"/>
        <polygon class="cls-111" points="12.42 49.01 21.02 54.67 20.93 54.76 12.33 49.1 12.42 49.01"/>
        <polygon class="cls-148" points="12.51 48.92 21.11 54.58 21.02 54.67 12.42 49.01 12.51 48.92"/>
        <polygon class="cls-14" points="12.6 48.83 21.2 54.49 21.11 54.58 12.51 48.92 12.6 48.83"/>
        <polygon class="cls-33" points="12.69 48.74 21.29 54.4 21.2 54.49 12.6 48.83 12.69 48.74"/>
        <polygon class="cls-110" points="12.78 48.65 21.38 54.31 21.29 54.4 12.69 48.74 12.78 48.65"/>
        <polygon class="cls-113" points="12.87 48.56 21.46 54.22 21.38 54.31 12.78 48.65 12.87 48.56"/>
        <polygon class="cls-11" points="12.96 48.47 21.55 54.13 21.46 54.22 12.87 48.56 12.96 48.47"/>
        <polygon class="cls-48" points="13.05 48.38 21.64 54.04 21.55 54.13 12.96 48.47 13.05 48.38"/>
        <polygon class="cls-85" points="13.14 48.29 21.73 53.95 21.64 54.04 13.05 48.38 13.14 48.29"/>
        <polygon class="cls-85" points="21.73 53.95 13.14 48.29 19.71 41.72 26.84 48.84 21.73 53.95"/>
      </g>
      <g class="cls-157">
        <polygon class="cls-150" points="5.28 42.34 4.7 43.22 4.55 43.07 5.28 42.34"/>
        <polygon class="cls-150" points="5.71 41.91 4.79 43.31 4.7 43.22 5.28 42.34 5.71 41.91"/>
        <polygon class="cls-97" points="6.15 41.47 4.88 43.4 4.79 43.31 5.71 41.91 6.15 41.47"/>
        <polygon class="cls-93" points="6.58 41.03 4.97 43.49 4.88 43.4 6.15 41.47 6.58 41.03"/>
        <polygon class="cls-109" points="7.02 40.6 5.06 43.58 4.97 43.49 6.58 41.03 7.02 40.6"/>
        <polygon class="cls-137" points="7.45 40.16 5.15 43.67 5.06 43.58 7.02 40.6 7.45 40.16"/>
        <polygon class="cls-144" points="7.89 39.73 5.23 43.76 5.15 43.67 7.45 40.16 7.89 39.73"/>
        <polygon class="cls-140" points="8.33 39.29 5.32 43.85 5.23 43.76 7.89 39.73 8.33 39.29"/>
        <polygon class="cls-72" points="8.76 38.86 5.41 43.94 5.32 43.85 8.33 39.29 8.76 38.86"/>
        <polygon class="cls-34" points="9.2 38.42 5.5 44.03 5.41 43.94 8.76 38.86 9.2 38.42"/>
        <polygon class="cls-77" points="9.63 37.98 5.59 44.12 5.5 44.03 9.2 38.42 9.63 37.98"/>
        <polygon class="cls-16" points="10.07 37.55 5.68 44.21 5.59 44.12 9.63 37.98 10.07 37.55"/>
        <polygon class="cls-74" points="10.5 37.11 5.77 44.3 5.68 44.21 10.07 37.55 10.5 37.11"/>
        <polygon class="cls-3" points="10.94 36.68 5.86 44.39 5.77 44.3 10.5 37.11 10.94 36.68"/>
        <polygon class="cls-66" points="11.38 36.24 5.95 44.48 5.86 44.39 10.94 36.68 11.38 36.24"/>
        <polygon class="cls-30" points="11.81 35.81 6.04 44.57 5.95 44.48 11.38 36.24 11.81 35.81"/>
        <polygon class="cls-87" points="12.25 35.37 6.13 44.66 6.04 44.57 11.81 35.81 12.25 35.37"/>
        <polygon class="cls-61" points="12.68 34.93 6.22 44.74 6.13 44.66 12.25 35.37 12.68 34.93"/>
        <polygon class="cls-21" points="13.12 34.5 6.31 44.83 6.22 44.74 12.68 34.93 13.12 34.5"/>
        <polygon class="cls-115" points="13.38 34.33 6.4 44.92 6.31 44.83 13.12 34.5 13.33 34.29 13.38 34.33"/>
        <polygon class="cls-84" points="13.47 34.42 6.49 45.01 6.4 44.92 13.38 34.33 13.47 34.42"/>
        <polygon class="cls-58" points="13.56 34.51 6.58 45.1 6.49 45.01 13.47 34.42 13.56 34.51"/>
        <polygon class="cls-4" points="13.65 34.6 6.67 45.19 6.58 45.1 13.56 34.51 13.65 34.6"/>
        <polygon class="cls-99" points="13.74 34.69 6.76 45.28 6.67 45.19 13.65 34.6 13.74 34.69"/>
        <polygon class="cls-15" points="13.83 34.78 6.85 45.37 6.76 45.28 13.74 34.69 13.83 34.78"/>
        <polygon class="cls-125" points="13.92 34.87 6.94 45.46 6.85 45.37 13.83 34.78 13.92 34.87"/>
        <polygon class="cls-49" points="14.01 34.96 7.03 45.55 6.94 45.46 13.92 34.87 14.01 34.96"/>
        <polygon class="cls-39" points="14.1 35.05 7.12 45.64 7.03 45.55 14.01 34.96 14.1 35.05"/>
        <polygon class="cls-18" points="14.18 35.14 7.21 45.73 7.12 45.64 14.1 35.05 14.18 35.14"/>
        <polygon class="cls-152" points="14.27 35.23 7.3 45.82 7.21 45.73 14.18 35.14 14.27 35.23"/>
        <polygon class="cls-59" points="14.36 35.32 7.39 45.91 7.3 45.82 14.27 35.23 14.36 35.32"/>
        <polygon class="cls-104" points="14.45 35.41 7.48 46 7.39 45.91 14.36 35.32 14.45 35.41"/>
        <polygon class="cls-60" points="14.54 35.5 7.57 46.09 7.48 46 14.45 35.41 14.54 35.5"/>
        <polygon class="cls-69" points="14.63 35.59 7.66 46.18 7.57 46.09 14.54 35.5 14.63 35.59"/>
        <polygon class="cls-32" points="14.72 35.68 7.75 46.27 7.66 46.18 14.63 35.59 14.72 35.68"/>
        <polygon class="cls-127" points="14.81 35.77 7.84 46.36 7.75 46.27 14.72 35.68 14.81 35.77"/>
        <polygon class="cls-111" points="14.9 35.86 7.93 46.45 7.84 46.36 14.81 35.77 14.9 35.86"/>
        <polygon class="cls-148" points="14.99 35.95 8.01 46.54 7.93 46.45 14.9 35.86 14.99 35.95"/>
        <polygon class="cls-14" points="15.08 36.04 8.1 46.63 8.01 46.54 14.99 35.95 15.08 36.04"/>
        <polygon class="cls-33" points="15.17 36.12 8.19 46.72 8.1 46.63 15.08 36.04 15.17 36.12"/>
        <polygon class="cls-110" points="15.26 36.21 8.28 46.81 8.19 46.72 15.17 36.12 15.26 36.21"/>
        <polygon class="cls-113" points="15.35 36.3 8.37 46.9 8.28 46.81 15.26 36.21 15.35 36.3"/>
        <polygon class="cls-11" points="15.44 36.39 8.46 46.99 8.37 46.9 15.35 36.3 15.44 36.39"/>
        <polygon class="cls-48" points="15.53 36.48 8.55 47.08 8.46 46.99 15.44 36.39 15.53 36.48"/>
        <polygon class="cls-85" points="15.62 36.57 8.64 47.17 8.55 47.08 15.53 36.48 15.62 36.57"/>
        <polygon class="cls-85" points="8.64 47.17 15.62 36.57 21.57 42.52 12.78 51.31 8.64 47.17"/>
      </g>
      <g class="cls-159">
        <polygon class="cls-90" points="5.2 51.31 7.55 54.31 4.87 51.64 5.2 51.31"/>
        <polygon class="cls-90" points="5.3 51.2 8.41 55.18 7.55 54.31 5.2 51.31 5.3 51.2"/>
        <polygon class="cls-10" points="5.41 51.1 9.27 56.04 8.41 55.18 5.3 51.2 5.41 51.1"/>
        <polygon class="cls-56" points="5.51 50.99 10.13 56.9 9.27 56.04 5.41 51.1 5.51 50.99"/>
        <polygon class="cls-42" points="5.62 50.89 10.44 57.05 10.36 57.13 10.13 56.9 5.51 50.99 5.62 50.89"/>
        <polygon class="cls-47" points="5.73 50.78 10.54 56.95 10.44 57.05 5.62 50.89 5.73 50.78"/>
        <polygon class="cls-124" points="5.83 50.67 10.65 56.84 10.54 56.95 5.73 50.78 5.83 50.67"/>
        <polygon class="cls-128" points="5.94 50.57 10.75 56.74 10.65 56.84 5.83 50.67 5.94 50.57"/>
        <polygon class="cls-19" points="6.04 50.46 10.86 56.63 10.75 56.74 5.94 50.57 6.04 50.46"/>
        <polygon class="cls-12" points="6.15 50.36 10.97 56.52 10.86 56.63 6.04 50.46 6.15 50.36"/>
        <polygon class="cls-91" points="6.25 50.25 11.07 56.42 10.97 56.52 6.15 50.36 6.25 50.25"/>
        <polygon class="cls-114" points="6.36 50.15 11.18 56.31 11.07 56.42 6.25 50.25 6.36 50.15"/>
        <polygon class="cls-134" points="6.46 50.04 11.28 56.21 11.18 56.31 6.36 50.15 6.46 50.04"/>
        <polygon class="cls-102" points="6.57 49.93 11.39 56.1 11.28 56.21 6.46 50.04 6.57 49.93"/>
        <polygon class="cls-131" points="6.68 49.83 11.49 56 11.39 56.1 6.57 49.93 6.68 49.83"/>
        <polygon class="cls-23" points="6.78 49.72 11.6 55.89 11.49 56 6.68 49.83 6.78 49.72"/>
        <polygon class="cls-22" points="6.89 49.62 11.71 55.79 11.6 55.89 6.78 49.72 6.89 49.62"/>
        <polygon class="cls-100" points="6.99 49.51 11.81 55.68 11.71 55.79 6.89 49.62 6.99 49.51"/>
        <polygon class="cls-145" points="7.1 49.41 11.92 55.57 11.81 55.68 6.99 49.51 7.1 49.41"/>
        <polygon class="cls-146" points="7.2 49.3 12.02 55.47 11.92 55.57 7.1 49.41 7.2 49.3"/>
        <polygon class="cls-70" points="7.31 49.2 12.13 55.36 12.02 55.47 7.2 49.3 7.31 49.2"/>
        <polygon class="cls-122" points="7.42 49.09 12.23 55.26 12.13 55.36 7.31 49.2 7.42 49.09"/>
        <polygon class="cls-37" points="7.52 48.98 12.34 55.15 12.23 55.26 7.42 49.09 7.52 48.98"/>
        <polygon class="cls-96" points="7.63 48.88 12.44 55.05 12.34 55.15 7.52 48.98 7.63 48.88"/>
        <polygon class="cls-43" points="7.73 48.77 12.55 54.94 12.44 55.05 7.63 48.88 7.73 48.77"/>
        <polygon class="cls-132" points="7.84 48.67 12.66 54.83 12.55 54.94 7.73 48.77 7.84 48.67"/>
        <polygon class="cls-27" points="7.94 48.56 12.76 54.73 12.66 54.83 7.84 48.67 7.94 48.56"/>
        <polygon class="cls-147" points="8.05 48.46 12.87 54.62 12.76 54.73 7.94 48.56 8.05 48.46"/>
        <polygon class="cls-118" points="8.15 48.35 12.97 54.52 12.87 54.62 8.05 48.46 8.15 48.35"/>
        <polygon class="cls-50" points="8.26 48.25 13.08 54.41 12.97 54.52 8.15 48.35 8.26 48.25"/>
        <polygon class="cls-44" points="8.37 48.14 13.18 54.31 13.08 54.41 8.26 48.25 8.37 48.14"/>
        <polygon class="cls-123" points="8.47 48.03 13.29 54.2 13.18 54.31 8.37 48.14 8.47 48.03"/>
        <polygon class="cls-71" points="8.58 47.93 13.4 54.1 13.29 54.2 8.47 48.03 8.58 47.93"/>
        <polygon class="cls-120" points="8.68 47.82 13.5 53.99 13.4 54.1 8.58 47.93 8.68 47.82"/>
        <polygon class="cls-101" points="8.79 47.72 13.61 53.88 13.5 53.99 8.68 47.82 8.79 47.72"/>
        <polygon class="cls-138" points="8.89 47.61 13.71 53.78 13.61 53.88 8.79 47.72 8.89 47.61"/>
        <polygon class="cls-94" points="9 47.51 13.82 53.67 13.71 53.78 8.89 47.61 9 47.51"/>
        <polygon class="cls-133" points="9.11 47.4 13.92 53.57 13.82 53.67 9 47.51 9.11 47.4"/>
        <polygon class="cls-55" points="9.21 47.29 14.03 53.46 13.92 53.57 9.11 47.4 9.21 47.29"/>
        <polygon class="cls-141" points="9.32 47.19 14.13 53.36 14.03 53.46 9.21 47.29 9.32 47.19"/>
        <polygon class="cls-65" points="9.42 47.08 14.24 53.25 14.13 53.36 9.32 47.19 9.42 47.08"/>
        <polygon class="cls-98" points="9.53 46.98 14.35 53.14 14.24 53.25 9.42 47.08 9.53 46.98"/>
        <polygon class="cls-117" points="9.63 46.87 14.45 53.04 14.35 53.14 9.53 46.98 9.63 46.87"/>
        <polygon class="cls-79" points="9.74 46.77 14.56 52.93 14.45 53.04 9.63 46.87 9.74 46.77"/>
        <polygon class="cls-64" points="9.84 46.66 14.66 52.83 14.56 52.93 9.74 46.77 9.84 46.66"/>
        <polygon class="cls-36" points="9.95 46.56 14.77 52.72 14.66 52.83 9.84 46.66 9.95 46.56"/>
        <polygon class="cls-24" points="10.06 46.45 14.87 52.62 14.77 52.72 9.95 46.56 10.06 46.45"/>
        <polygon class="cls-31" points="10.16 46.34 14.98 52.51 14.87 52.62 10.06 46.45 10.16 46.34"/>
        <polygon class="cls-105" points="10.27 46.24 15.09 52.41 14.98 52.51 10.16 46.34 10.27 46.24"/>
        <polygon class="cls-63" points="10.37 46.13 15.19 52.3 15.09 52.41 10.27 46.24 10.37 46.13"/>
        <polygon class="cls-136" points="10.48 46.03 15.3 52.19 15.19 52.3 10.37 46.13 10.48 46.03"/>
        <polygon class="cls-130" points="10.58 45.92 15.4 52.09 15.3 52.19 10.48 46.03 10.58 45.92"/>
        <polygon class="cls-143" points="10.69 45.82 15.51 51.98 15.4 52.09 10.58 45.92 10.69 45.82"/>
        <polygon class="cls-68" points="10.8 45.71 15.61 51.88 15.51 51.98 10.69 45.82 10.8 45.71"/>
        <polygon class="cls-106" points="10.9 45.6 15.72 51.77 15.61 51.88 10.8 45.71 10.9 45.6"/>
        <polygon class="cls-13" points="11.01 45.5 15.82 51.67 15.72 51.77 10.9 45.6 11.01 45.5"/>
        <polygon class="cls-135" points="11.11 45.39 15.93 51.56 15.82 51.67 11.01 45.5 11.11 45.39"/>
        <polygon class="cls-150" points="11.22 45.29 16.04 51.45 15.93 51.56 11.11 45.39 11.22 45.29"/>
        <polygon class="cls-150" points="16.04 51.45 11.22 45.29 15.26 41.25 20.75 46.74 16.04 51.45"/>
      </g>
    </g>
    <g class="cls-158">
      <polygon class="cls-29" points="11.72 38.13 24.59 53.58 22.51 55.65 8.35 41.49 11.72 38.13"/>
      <polygon class="cls-29" points="11.98 37.87 24.85 53.32 24.59 53.58 11.72 38.13 11.98 37.87"/>
      <polygon class="cls-78" points="12.24 37.61 25.11 53.06 24.85 53.32 11.98 37.87 12.24 37.61"/>
      <polygon class="cls-73" points="12.5 37.35 25.37 52.8 25.11 53.06 12.24 37.61 12.5 37.35"/>
      <polygon class="cls-95" points="12.76 37.09 25.63 52.54 25.37 52.8 12.5 37.35 12.76 37.09"/>
      <polygon class="cls-57" points="13.02 36.83 25.89 52.28 25.63 52.54 12.76 37.09 13.02 36.83"/>
      <polygon class="cls-38" points="13.28 36.57 26.15 52.02 25.89 52.28 13.02 36.83 13.28 36.57"/>
      <polygon class="cls-107" points="13.54 36.31 26.41 51.76 26.15 52.02 13.28 36.57 13.54 36.31"/>
      <polygon class="cls-26" points="13.8 36.05 26.67 51.5 26.41 51.76 13.54 36.31 13.8 36.05"/>
      <polygon class="cls-83" points="14.06 35.79 26.93 51.24 26.67 51.5 13.8 36.05 14.06 35.79"/>
      <polygon class="cls-116" points="14.32 35.53 27.19 50.98 26.93 51.24 14.06 35.79 14.32 35.53"/>
      <polygon class="cls-67" points="14.58 35.27 27.45 50.72 27.19 50.98 14.32 35.53 14.58 35.27"/>
      <polygon class="cls-142" points="14.84 35.01 27.71 50.45 27.45 50.72 14.58 35.27 14.84 35.01"/>
      <polygon class="cls-51" points="15.1 34.75 27.97 50.19 27.71 50.45 14.84 35.01 15.1 34.75"/>
      <polygon class="cls-129" points="15.36 34.49 28.23 49.93 27.97 50.19 15.1 34.75 15.36 34.49"/>
      <polygon class="cls-7" points="15.62 34.23 28.49 49.67 28.23 49.93 15.36 34.49 15.62 34.23"/>
      <polygon class="cls-41" points="15.88 33.97 28.75 49.41 28.49 49.67 15.62 34.23 15.88 33.97"/>
      <polygon class="cls-75" points="16.14 33.71 29.01 49.15 28.75 49.41 15.88 33.97 16.14 33.71"/>
      <polygon class="cls-28" points="16.4 33.45 29.27 48.89 29.01 49.15 16.14 33.71 16.4 33.45"/>
      <polygon class="cls-17" points="16.66 33.18 29.53 48.63 29.27 48.89 16.4 33.45 16.66 33.18"/>
      <polygon class="cls-121" points="16.92 32.92 29.79 48.37 29.53 48.63 16.66 33.18 16.92 32.92"/>
      <polygon class="cls-40" points="17.18 32.66 30.05 48.11 29.79 48.37 16.92 32.92 17.18 32.66"/>
      <polygon class="cls-81" points="17.44 32.4 30.31 47.85 30.05 48.11 17.18 32.66 17.44 32.4"/>
      <polygon class="cls-119" points="17.7 32.14 30.57 47.59 30.31 47.85 17.44 32.4 17.7 32.14"/>
      <polygon class="cls-25" points="17.96 31.88 30.83 47.33 30.57 47.59 17.7 32.14 17.96 31.88"/>
      <polygon class="cls-9" points="18.22 31.62 31.09 47.07 30.83 47.33 17.96 31.88 18.22 31.62"/>
      <polygon class="cls-89" points="18.48 31.36 31.35 46.81 31.09 47.07 18.22 31.62 18.48 31.36"/>
      <polygon class="cls-139" points="18.75 31.1 31.61 46.55 31.35 46.81 18.48 31.36 18.75 31.1"/>
      <polygon class="cls-45" points="19.01 30.84 31.87 46.29 31.61 46.55 18.75 31.1 19.01 30.84"/>
      <polygon class="cls-153" points="19.27 30.58 32.14 46.03 31.87 46.29 19.01 30.84 19.27 30.58"/>
      <polygon class="cls-80" points="19.53 30.32 32.4 45.77 32.14 46.03 19.27 30.58 19.53 30.32"/>
      <polygon class="cls-82" points="19.79 30.06 32.66 45.51 32.4 45.77 19.53 30.32 19.79 30.06"/>
      <polygon class="cls-92" points="20.05 29.8 32.92 45.25 32.66 45.51 19.79 30.06 20.05 29.8"/>
      <polygon class="cls-62" points="20.31 29.54 33.18 44.99 32.92 45.25 20.05 29.8 20.31 29.54"/>
      <polygon class="cls-103" points="20.57 29.28 33.44 44.73 33.18 44.99 20.31 29.54 20.57 29.28"/>
      <polygon class="cls-54" points="20.83 29.02 33.7 44.47 33.44 44.73 20.57 29.28 20.83 29.02"/>
      <polygon class="cls-6" points="21.09 28.76 33.96 44.21 33.7 44.47 20.83 29.02 21.09 28.76"/>
      <polygon class="cls-8" points="21.35 28.5 34.22 43.95 33.96 44.21 21.09 28.76 21.35 28.5"/>
      <polygon class="cls-52" points="21.61 28.24 34.48 43.69 34.22 43.95 21.35 28.5 21.61 28.24"/>
      <polygon class="cls-112" points="21.87 27.98 34.74 43.43 34.48 43.69 21.61 28.24 21.87 27.98"/>
      <polygon class="cls-5" points="22.13 27.72 35 43.17 34.74 43.43 21.87 27.98 22.13 27.72"/>
      <polygon class="cls-46" points="22.39 27.46 35.26 42.91 35 43.17 22.13 27.72 22.39 27.46"/>
      <polygon class="cls-149" points="22.65 27.2 35.52 42.65 35.26 42.91 22.39 27.46 22.65 27.2"/>
      <polygon class="cls-151" points="22.91 26.94 35.78 42.39 35.52 42.65 22.65 27.2 22.91 26.94"/>
      <polygon class="cls-35" points="23.17 26.68 36.04 42.13 35.78 42.39 22.91 26.94 23.17 26.68"/>
      <polygon class="cls-53" points="23.43 26.42 36.3 41.87 36.04 42.13 23.17 26.68 23.43 26.42"/>
      <polygon class="cls-86" points="23.69 26.16 36.56 41.6 36.3 41.87 23.43 26.42 23.69 26.16"/>
      <polygon class="cls-126" points="23.95 25.9 36.82 41.34 36.56 41.6 23.69 26.16 23.95 25.9"/>
      <polygon class="cls-108" points="26.15 27.96 37.08 41.08 36.82 41.34 23.95 25.9 24.02 25.83 26.15 27.96"/>
      <polygon class="cls-88" points="29.01 30.82 37.34 40.82 37.08 41.08 26.15 27.96 29.01 30.82"/>
      <polygon class="cls-2" points="31.86 33.68 37.6 40.56 37.34 40.82 29.01 30.82 31.86 33.68"/>
      <polygon class="cls-2" points="37.6 40.56 31.86 33.68 38.18 39.99 37.6 40.56"/>
    </g>
    <ellipse class="cls-156" cx="19.71" cy="37.14" rx=".67" ry="1.43" transform="translate(-20.49 24.82) rotate(-45)"/>
    <ellipse class="cls-156" cx="26.86" cy="44.86" rx=".67" ry="1.43" transform="translate(-21.92 26.05) rotate(-38)"/>
    <g>
      <path d="M23.8,40.66c.06.06.13.13.19.21.39.49.53,1.01.43,1.55-.02.11-.13.18-.23.16-.11-.02-.18-.13-.16-.23.08-.42-.03-.82-.35-1.22-.32-.4-.72-.63-1.22-.68-.11-.01-.19-.11-.18-.22s.11-.19.22-.18c.51.05.95.26,1.31.62Z"/>
      <path class="cls-76" d="M23.94,46.6c-.29-.27-.44-.63-.45-1-.01-.37.11-.74.38-1.03s.63-.44,1-.45c.37-.01.74.11,1.03.38s.44.63.45,1c.01.37-.11.74-.38,1.03s-.63.44-1,.45c-.37.01-.74-.11-1.03-.38Z"/>
      <path class="cls-20" d="M24.74,45.7c-.18.19-.17.48.02.66s.48.17.66-.02.17-.48-.02-.66c-.19-.18-.48-.17-.66.02Z"/>
      <path class="cls-76" d="M18.07,40.22c-.29-.27-.44-.63-.45-1-.01-.37.11-.74.38-1.03s.63-.44,1-.45c.37-.01.74.11,1.03.38s.44.63.45,1c.01.37-.11.74-.38,1.03s-.63.44-1,.45c-.37.01-.74-.11-1.03-.38Z"/>
      <g>
        <g>
          <path class="cls-154" d="M24.02,44.72c.46-.5,1.24-.52,1.74-.06s.52,1.24.06,1.74-1.24.52-1.74.06-.52-1.24-.06-1.74ZM23.73,44.45c-.61.66-.58,1.69.08,2.3s1.69.58,2.3-.08.58-1.69-.08-2.3-1.69-.58-2.3.08Z"/>
          <path class="cls-154" d="M26.14,44.33c.31.31.49.72.5,1.16.02.46-.15.9-.46,1.24-.32.34-.74.53-1.2.55-.46.02-.9-.15-1.24-.46-.34-.32-.53-.74-.55-1.2-.02-.46.15-.9.46-1.24h0c.65-.7,1.75-.74,2.44-.09.02.01.03.03.04.04ZM23.84,46.64s.03.03.04.04c.3.28.69.42,1.1.41.41-.01.79-.19,1.07-.49.28-.3.42-.69.41-1.1-.01-.41-.19-.79-.49-1.07-.62-.58-1.59-.54-2.16.08h0c-.28.3-.42.69-.41,1.1.01.39.17.75.45,1.03ZM25.86,44.62c.24.24.38.55.39.89.01.36-.11.69-.36.95-.24.26-.57.41-.93.42-.36.01-.69-.11-.95-.36-.54-.5-.57-1.34-.07-1.88.24-.26.57-.41.93-.42.36-.01.69.11.95.36.01.01.02.02.03.03ZM24.12,46.36s.02.02.03.03c.22.21.51.31.81.3.3-.01.58-.14.79-.36.21-.22.31-.51.3-.81-.01-.3-.14-.58-.36-.79-.22-.21-.51-.31-.81-.3-.3.01-.58.14-.79.36-.42.45-.4,1.14.03,1.57Z"/>
        </g>
        <g>
          <path class="cls-154" d="M18.15,38.33c.46-.5,1.24-.52,1.74-.06s.52,1.24.06,1.74-1.24.52-1.74.06-.52-1.24-.06-1.74ZM17.86,38.06c-.61.66-.58,1.69.08,2.3s1.69.58,2.3-.08.58-1.69-.08-2.3-1.69-.58-2.3.08Z"/>
          <path class="cls-154" d="M20.27,37.95c.65.65.68,1.72.04,2.4-.65.7-1.75.74-2.44.09-.34-.31-.53-.74-.55-1.2-.02-.46.15-.9.46-1.24h0c.32-.34.74-.53,1.2-.55.46-.02.9.15,1.24.46.01.01.03.03.04.04ZM17.97,40.25s.03.03.04.04c.62.58,1.59.54,2.16-.08.58-.62.54-1.59-.08-2.16-.3-.28-.69-.42-1.1-.41-.41.01-.79.19-1.07.49h0c-.28.3-.42.69-.41,1.1.01.39.17.75.45,1.03ZM19.99,38.23c.24.24.38.55.39.89.01.36-.11.69-.36.95-.5.54-1.34.57-1.88.07-.54-.5-.57-1.34-.07-1.88h0c.5-.54,1.34-.57,1.88-.07.01.01.02.02.03.03ZM18.25,39.97s.02.02.03.03c.46.43,1.17.4,1.6-.06.21-.22.31-.51.3-.81-.01-.3-.14-.58-.36-.79-.46-.43-1.17-.4-1.6.06-.42.45-.4,1.14.03,1.57Z"/>
        </g>
        <path class="cls-20" d="M18.86,39.32c-.18.19-.17.48.02.66s.48.17.66-.02.17-.48-.02-.66-.48-.17-.66.02Z"/>
      </g>
    </g>
    <g>
      <g>
        <path class="cls-161" d="M31.05,36.72c.07.07.11.16.11.27l-.14,7.1c0,.2-.17.36-.37.36-.2,0-.36-.17-.36-.37l.14-7.1c0-.2.17-.36.37-.36.1,0,.19.04.25.11Z"/>
        <path class="cls-161" d="M32.88,40.25c.06.06.1.15.11.25,0,.2-.15.37-.35.38l-4.56.14c-.2,0-.37-.15-.38-.35,0-.2.15-.37.35-.38l4.56-.14c.11,0,.2.04.27.11Z"/>
      </g>
      <g>
        <path class="cls-161" d="M27.33,33c.06.06.11.15.11.25,0,.2-.16.37-.36.37l-7.1.14c-.2,0-.37-.16-.37-.36,0-.2.16-.37.36-.37l7.1-.14c.1,0,.2.04.27.11Z"/>
        <path class="cls-161" d="M23.81,31.17c.07.07.11.16.11.27l-.14,4.56c0,.2-.18.36-.38.35-.2,0-.36-.17-.35-.38l.14-4.56c0-.2.18-.36.38-.35.1,0,.18.04.25.11Z"/>
      </g>
      <g>
        <path class="cls-155" d="M20.75,45.05c.07.07.11.16.11.26,0,.2-.16.37-.37.37h-4.61c-.2,0-.37-.16-.37-.37,0-.2.16-.37.37-.37h4.61c.1,0,.19.04.26.11Z"/>
        <path class="cls-155" d="M18.91,43.21c.07.07.11.16.11.26v4.61c0,.2-.16.37-.37.37-.2,0-.37-.16-.37-.37v-4.61c0-.2.16-.37.37-.37.1,0,.19.04.26.11Z"/>
      </g>
    </g>
  </g>
  <rect class="cls-1" x="69.88" y="-49.85" width="20.01" height="67.95" transform="translate(12.17 -61.14) rotate(45)"/>
</svg>