<?xml version="1.0" encoding="UTF-8"?>
<svg id="Layer_1" xmlns="http://www.w3.org/2000/svg" xmlns:xlink="http://www.w3.org/1999/xlink" viewBox="0 0 64 64">
  <defs>
    <style>
      .cls-1, .cls-2 {
        fill: #ffc63a;
      }

      .cls-3 {
        fill: #52c25f;
      }

      .cls-3, .cls-4, .cls-5, .cls-6, .cls-7, .cls-8, .cls-9, .cls-10, .cls-11, .cls-12, .cls-13, .cls-14, .cls-15, .cls-16, .cls-17, .cls-18, .cls-19, .cls-20, .cls-21, .cls-22, .cls-23, .cls-24, .cls-25, .cls-26, .cls-27, .cls-28, .cls-29, .cls-30, .cls-31, .cls-32, .cls-33, .cls-34, .cls-35, .cls-36, .cls-37, .cls-38, .cls-39, .cls-40, .cls-41, .cls-42, .cls-43, .cls-44, .cls-45, .cls-46, .cls-47, .cls-48, .cls-49, .cls-50, .cls-51, .cls-52, .cls-53, .cls-54, .cls-55, .cls-56, .cls-57, .cls-58, .cls-59, .cls-60, .cls-61, .cls-62, .cls-63, .cls-64, .cls-65, .cls-66, .cls-67, .cls-68, .cls-69, .cls-70, .cls-71, .cls-72, .cls-73, .cls-74, .cls-75, .cls-76, .cls-77, .cls-78, .cls-79, .cls-80, .cls-2, .cls-81, .cls-82, .cls-83, .cls-84, .cls-85, .cls-86, .cls-87, .cls-88, .cls-89, .cls-90, .cls-91, .cls-92, .cls-93, .cls-94, .cls-95, .cls-96, .cls-97, .cls-98, .cls-99, .cls-100, .cls-101, .cls-102, .cls-103, .cls-104, .cls-105, .cls-106, .cls-107, .cls-108, .cls-109, .cls-110, .cls-111, .cls-112, .cls-113, .cls-114, .cls-115, .cls-116, .cls-117, .cls-118, .cls-119, .cls-120, .cls-121, .cls-122, .cls-123, .cls-124, .cls-125, .cls-126, .cls-127, .cls-128, .cls-129, .cls-130, .cls-131, .cls-132, .cls-133, .cls-134, .cls-135, .cls-136, .cls-137, .cls-138, .cls-139, .cls-140, .cls-141, .cls-142, .cls-143, .cls-144, .cls-145, .cls-146, .cls-147, .cls-148, .cls-149, .cls-150, .cls-151, .cls-152, .cls-153 {
        fill-rule: evenodd;
      }

      .cls-4 {
        fill: #52b95d;
      }

      .cls-5 {
        fill: #fc4;
      }

      .cls-6 {
        fill: #ffcf48;
      }

      .cls-7 {
        fill: #ffdc5e;
      }

      .cls-8 {
        fill: #ffce47;
      }

      .cls-9 {
        fill: #ffd654;
      }

      .cls-10 {
        fill: #89e99b;
      }

      .cls-11 {
        fill: #51a457;
      }

      .cls-12 {
        fill: #82e594;
      }

      .cls-13 {
        fill: #54cf65;
      }

      .cls-14 {
        fill: #51a858;
      }

      .cls-15 {
        fill: #51b65c;
      }

      .cls-16 {
        fill: #52c460;
      }

      .cls-17 {
        fill: #ffda5a;
      }

      .cls-18 {
        fill: #51b25b;
      }

      .cls-19 {
        fill: #83e695;
      }

      .cls-20, .cls-154 {
        fill: #fff;
      }

      .cls-21 {
        fill: #52bd5e;
      }

      .cls-22 {
        fill: #7be28d;
      }

      .cls-23 {
        fill: #7ce28e;
      }

      .cls-155, .cls-88 {
        fill: #ffc73b;
      }

      .cls-24 {
        fill: #5dd36e;
      }

      .cls-25 {
        fill: #ffd655;
      }

      .cls-26 {
        fill: #ffe165;
      }

      .cls-27 {
        fill: #71dd83;
      }

      .cls-28 {
        fill: #ffda5b;
      }

      .cls-29 {
        fill: #ffe56c;
      }

      .cls-30 {
        fill: #52c05f;
      }

      .cls-31 {
        fill: #5cd36d;
      }

      .cls-32 {
        fill: #51ac59;
      }

      .cls-33 {
        fill: #51a758;
      }

      .cls-34 {
        fill: #52c661;
      }

      .cls-35 {
        fill: #ffca40;
      }

      .cls-36 {
        fill: #5ed46f;
      }

      .cls-37 {
        fill: #75df87;
      }

      .cls-38 {
        fill: #ffe267;
      }

      .cls-39 {
        fill: #51b35b;
      }

      .cls-40 {
        fill: #ffd858;
      }

      .cls-41 {
        fill: #ffdc5d;
      }

      .cls-42 {
        fill: #87e899;
      }

      .cls-43 {
        fill: #73de85;
      }

      .cls-44 {
        fill: #6ddb7e;
      }

      .cls-45 {
        fill: #ffd450;
      }

      .cls-156 {
        fill: #eaadcc;
      }

      .cls-46 {
        fill: #ffcc43;
      }

      .cls-47 {
        fill: #86e798;
      }

      .cls-48 {
        fill: #51a356;
      }

      .cls-49 {
        fill: #51b45b;
      }

      .cls-50 {
        fill: #6edc80;
      }

      .cls-51 {
        fill: #ffdd60;
      }

      .cls-52 {
        fill: #ffce46;
      }

      .cls-53 {
        fill: #ffc93f;
      }

      .cls-54 {
        fill: #ffcf49;
      }

      .cls-55 {
        fill: #65d776;
      }

      .cls-56 {
        fill: #88e89a;
      }

      .cls-57 {
        fill: #ffe268;
      }

      .cls-58 {
        fill: #52ba5d;
      }

      .cls-59 {
        fill: #51b05a;
      }

      .cls-60 {
        fill: #51ae5a;
      }

      .cls-61 {
        fill: #52be5e;
      }

      .cls-62 {
        fill: #ffd14b;
      }

      .cls-63 {
        fill: #5ad26b;
      }

      .cls-64 {
        fill: #5fd470;
      }

      .cls-65 {
        fill: #63d674;
      }

      .cls-66 {
        fill: #52c15f;
      }

      .cls-67 {
        fill: #ffdf62;
      }

      .cls-68 {
        fill: #56d067;
      }

      .cls-69 {
        fill: #51ad59;
      }

      .cls-70 {
        fill: #77e089;
      }

      .cls-71 {
        fill: #6bda7c;
      }

      .cls-72 {
        fill: #52c761;
      }

      .cls-157 {
        clip-path: url(#clippath-1);
      }

      .cls-158 {
        clip-path: url(#clippath-3);
      }

      .cls-159 {
        clip-path: url(#clippath-2);
      }

      .cls-73 {
        fill: #ffe46a;
      }

      .cls-74 {
        fill: #52c360;
      }

      .cls-75 {
        fill: #ffdb5c;
      }

      .cls-77 {
        fill: #52c560;
      }

      .cls-78 {
        fill: #ffe46b;
      }

      .cls-79 {
        fill: #60d571;
      }

      .cls-80 {
        fill: #ffd34e;
      }

      .cls-81 {
        fill: #ffd857;
      }

      .cls-82 {
        fill: #ffd24d;
      }

      .cls-83 {
        fill: #ffe064;
      }

      .cls-84 {
        fill: #52bb5d;
      }

      .cls-85 {
        fill: #51a256;
      }

      .cls-86 {
        fill: #ffc93e;
      }

      .cls-87 {
        fill: #52bf5e;
      }

      .cls-160 {
        clip-rule: evenodd;
        fill: none;
      }

      .cls-89 {
        fill: #ffd552;
      }

      .cls-90 {
        fill: #8ae99c;
      }

      .cls-91 {
        fill: #81e593;
      }

      .cls-92 {
        fill: #ffd14c;
      }

      .cls-93 {
        fill: #52cc62;
      }

      .cls-94 {
        fill: #67d878;
      }

      .cls-95 {
        fill: #ffe369;
      }

      .cls-96 {
        fill: #74de86;
      }

      .cls-97 {
        fill: #52cd63;
      }

      .cls-98 {
        fill: #62d673;
      }

      .cls-99 {
        fill: #51b75c;
      }

      .cls-100 {
        fill: #7ae18c;
      }

      .cls-101 {
        fill: #69d97a;
      }

      .cls-102 {
        fill: #7ee390;
      }

      .cls-103 {
        fill: #ffd04a;
      }

      .cls-104 {
        fill: #51af5a;
      }

      .cls-105 {
        fill: #5bd26c;
      }

      .cls-106 {
        fill: #55cf66;
      }

      .cls-107 {
        fill: #ffe166;
      }

      .cls-108 {
        fill: #ffc73c;
      }

      .cls-109 {
        fill: #52cb62;
      }

      .cls-110 {
        fill: #51a657;
      }

      .cls-111 {
        fill: #51aa58;
      }

      .cls-112 {
        fill: #ffcd45;
      }

      .cls-113 {
        fill: #51a557;
      }

      .cls-114 {
        fill: #80e492;
      }

      .cls-115 {
        fill: #52bc5e;
      }

      .cls-116 {
        fill: #ffdf63;
      }

      .cls-117 {
        fill: #61d572;
      }

      .cls-118 {
        fill: #6fdc81;
      }

      .cls-119 {
        fill: #ffd756;
      }

      .cls-120 {
        fill: #6ada7b;
      }

      .cls-121 {
        fill: #ffd959;
      }

      .cls-122 {
        fill: #76df88;
      }

      .cls-123 {
        fill: #6cdb7d;
      }

      .cls-124 {
        fill: #85e797;
      }

      .cls-125 {
        fill: #51b55c;
      }

      .cls-126 {
        fill: #ffc83d;
      }

      .cls-127 {
        fill: #51ab59;
      }

      .cls-128 {
        fill: #84e696;
      }

      .cls-129 {
        fill: #ffdd5f;
      }

      .cls-130 {
        fill: #58d169;
      }

      .cls-131 {
        fill: #7de38f;
      }

      .cls-132 {
        fill: #72dd84;
      }

      .cls-133 {
        fill: #66d877;
      }

      .cls-161 {
        fill: #ecb732;
      }

      .cls-134 {
        fill: #7fe491;
      }

      .cls-135 {
        fill: #53ce64;
      }

      .cls-136 {
        fill: #59d16a;
      }

      .cls-137 {
        fill: #52ca62;
      }

      .cls-138 {
        fill: #68d979;
      }

      .cls-139 {
        fill: #ffd551;
      }

      .cls-140 {
        fill: #52c861;
      }

      .cls-141 {
        fill: #64d775;
      }

      .cls-142 {
        fill: #ffde61;
      }

      .cls-143 {
        fill: #57d068;
      }

      .cls-162 {
        clip-path: url(#clippath);
      }

      .cls-144 {
        fill: #52c961;
      }

      .cls-145 {
        fill: #79e18b;
      }

      .cls-146 {
        fill: #78e08a;
      }

      .cls-147 {
        fill: #70dc82;
      }

      .cls-148 {
        fill: #51a958;
      }

      .cls-149 {
        fill: #ffcb42;
      }

      .cls-150 {
        fill: #52ce63;
      }

      .cls-151 {
        fill: #ffca41;
      }

      .cls-152 {
        fill: #51b15b;
      }

      .cls-153 {
        fill: #ffd34f;
      }
    </style>
    <clipPath id="clippath">
      <path class="cls-160" d="M32.33,38.02c-2.15,2.05-1.49,4.58.45,7.64s5.86,4.16,6.59,3.46.89-5.67-1.05-8.74c-1.94-3.07-3.84-4.41-5.99-2.37h0Z"/>
    </clipPath>
    <clipPath id="clippath-1">
      <path class="cls-160" d="M30.47,37.74c-1.59-2.5-3.71-1.59-6.34.92s-3.72,7.3-3.18,8.15c.54.85,4.65.81,7.27-1.7s3.83-4.87,2.24-7.37h0Z"/>
    </clipPath>
    <clipPath id="clippath-2">
      <path class="cls-160" d="M31.34,39.11c-2.64-.32-3.67,2.11-4.16,6.05s1.51,8.1,2.41,8.21,3.91-3.44,4.39-7.38,0-6.56-2.64-6.89Z"/>
    </clipPath>
    <clipPath id="clippath-3">
      <path class="cls-160" d="M32,21.7c-5.53,0-10.01,1.61-10.01,8.89s4.48,13.26,10.01,13.26,10.01-5.98,10.01-13.26-4.48-8.89-10.01-8.89Z"/>
    </clipPath>
  </defs>
  <rect class="cls-1" x="22" y="-30.45" width="20.01" height="42.19"/>
  <rect class="cls-1" x="22" width="20.01" height="30.43" transform="translate(64.01 30.43) rotate(180)"/>
  <g>
    <g>
      <g class="cls-162">
        <polygon class="cls-150" points="35.22 49.82 40.26 48.78 40.26 49.82 35.22 49.82"/>
        <polygon class="cls-150" points="34.6 49.82 40.26 48.65 40.26 48.78 35.22 49.82 34.6 49.82"/>
        <polygon class="cls-97" points="33.99 49.82 40.26 48.52 40.26 48.65 34.6 49.82 33.99 49.82"/>
        <polygon class="cls-93" points="33.37 49.82 40.26 48.4 40.26 48.52 33.99 49.82 33.37 49.82"/>
        <polygon class="cls-109" points="32.76 49.82 40.26 48.27 40.26 48.4 33.37 49.82 32.76 49.82"/>
        <polygon class="cls-137" points="32.14 49.82 40.26 48.14 40.26 48.27 32.76 49.82 32.14 49.82"/>
        <polygon class="cls-144" points="31.53 49.82 40.26 48.02 40.26 48.14 32.14 49.82 31.53 49.82"/>
        <polygon class="cls-140" points="30.91 49.82 40.26 47.89 40.26 48.02 31.53 49.82 30.91 49.82"/>
        <polygon class="cls-72" points="30.3 49.82 40.26 47.76 40.26 47.89 30.91 49.82 30.3 49.82"/>
        <polygon class="cls-34" points="30.18 49.71 40.26 47.64 40.26 47.76 30.3 49.82 30.18 49.82 30.18 49.71"/>
        <polygon class="cls-77" points="30.18 49.59 40.26 47.51 40.26 47.64 30.18 49.71 30.18 49.59"/>
        <polygon class="cls-16" points="30.18 49.46 40.26 47.38 40.26 47.51 30.18 49.59 30.18 49.46"/>
        <polygon class="cls-74" points="30.18 49.33 40.26 47.26 40.26 47.38 30.18 49.46 30.18 49.33"/>
        <polygon class="cls-3" points="30.18 49.21 40.26 47.13 40.26 47.26 30.18 49.33 30.18 49.21"/>
        <polygon class="cls-66" points="30.18 49.08 40.26 47 40.26 47.13 30.18 49.21 30.18 49.08"/>
        <polygon class="cls-30" points="30.18 48.95 40.26 46.88 40.26 47 30.18 49.08 30.18 48.95"/>
        <polygon class="cls-87" points="30.18 48.83 40.26 46.75 40.26 46.88 30.18 48.95 30.18 48.83"/>
        <polygon class="cls-61" points="30.18 48.7 40.26 46.62 40.26 46.75 30.18 48.83 30.18 48.7"/>
        <polygon class="cls-21" points="30.18 48.57 40.26 46.5 40.26 46.62 30.18 48.7 30.18 48.57"/>
        <polygon class="cls-115" points="30.18 48.45 40.26 46.37 40.26 46.5 30.18 48.57 30.18 48.45"/>
        <polygon class="cls-84" points="30.18 48.32 40.26 46.24 40.26 46.37 30.18 48.45 30.18 48.32"/>
        <polygon class="cls-58" points="30.18 48.19 40.26 46.11 40.26 46.24 30.18 48.32 30.18 48.19"/>
        <polygon class="cls-4" points="30.18 48.07 40.26 45.99 40.26 46.11 30.18 48.19 30.18 48.07"/>
        <polygon class="cls-99" points="30.18 47.94 40.26 45.86 40.26 45.99 30.18 48.07 30.18 47.94"/>
        <polygon class="cls-15" points="30.18 47.81 40.26 45.73 40.26 45.86 30.18 47.94 30.18 47.81"/>
        <polygon class="cls-125" points="30.18 47.68 40.26 45.61 40.26 45.73 30.18 47.81 30.18 47.68"/>
        <polygon class="cls-49" points="30.18 47.56 40.26 45.48 40.26 45.61 30.18 47.68 30.18 47.56"/>
        <polygon class="cls-39" points="30.18 47.43 40.26 45.35 40.26 45.48 30.18 47.56 30.18 47.43"/>
        <polygon class="cls-18" points="30.18 47.3 40.26 45.23 40.26 45.35 30.18 47.43 30.18 47.3"/>
        <polygon class="cls-152" points="30.18 47.18 40.26 45.1 40.26 45.23 30.18 47.3 30.18 47.18"/>
        <polygon class="cls-59" points="30.18 47.05 40.26 44.97 40.26 45.1 30.18 47.18 30.18 47.05"/>
        <polygon class="cls-104" points="30.18 46.92 40.26 44.85 40.26 44.97 30.18 47.05 30.18 46.92"/>
        <polygon class="cls-60" points="30.18 46.8 40.26 44.72 40.26 44.85 30.18 46.92 30.18 46.8"/>
        <polygon class="cls-69" points="30.18 46.67 40.26 44.59 40.26 44.72 30.18 46.8 30.18 46.67"/>
        <polygon class="cls-32" points="30.18 46.54 40.26 44.47 40.26 44.59 30.18 46.67 30.18 46.54"/>
        <polygon class="cls-127" points="30.18 46.42 40.26 44.34 40.26 44.47 30.18 46.54 30.18 46.42"/>
        <polygon class="cls-111" points="30.18 46.29 40.26 44.21 40.26 44.34 30.18 46.42 30.18 46.29"/>
        <polygon class="cls-148" points="30.18 46.16 40.26 44.09 40.26 44.21 30.18 46.29 30.18 46.16"/>
        <polygon class="cls-14" points="30.18 46.04 40.26 43.96 40.26 44.09 30.18 46.16 30.18 46.04"/>
        <polygon class="cls-33" points="30.18 45.91 40.26 43.83 40.26 43.96 30.18 46.04 30.18 45.91"/>
        <polygon class="cls-110" points="30.18 45.78 40.26 43.71 40.26 43.83 30.18 45.91 30.18 45.78"/>
        <polygon class="cls-113" points="30.18 45.66 40.26 43.58 40.26 43.71 30.18 45.78 30.18 45.66"/>
        <polygon class="cls-11" points="30.18 45.53 40.26 43.45 40.26 43.58 30.18 45.66 30.18 45.53"/>
        <polygon class="cls-48" points="30.18 45.4 40.26 43.32 40.26 43.45 30.18 45.53 30.18 45.4"/>
        <polygon class="cls-85" points="30.18 45.28 40.26 43.2 40.26 43.32 30.18 45.4 30.18 45.28"/>
        <polygon class="cls-85" points="40.26 43.2 30.18 45.28 30.18 35.97 40.26 35.97 40.26 43.2"/>
      </g>
      <g class="cls-157">
        <polygon class="cls-150" points="20.41 46.63 20.63 47.66 20.41 47.66 20.41 46.63"/>
        <polygon class="cls-150" points="20.41 46.01 20.75 47.66 20.63 47.66 20.41 46.63 20.41 46.01"/>
        <polygon class="cls-97" points="20.41 45.39 20.88 47.66 20.75 47.66 20.41 46.01 20.41 45.39"/>
        <polygon class="cls-93" points="20.41 44.78 21.01 47.66 20.88 47.66 20.41 45.39 20.41 44.78"/>
        <polygon class="cls-109" points="20.41 44.16 21.13 47.66 21.01 47.66 20.41 44.78 20.41 44.16"/>
        <polygon class="cls-137" points="20.41 43.55 21.26 47.66 21.13 47.66 20.41 44.16 20.41 43.55"/>
        <polygon class="cls-144" points="20.41 42.93 21.39 47.66 21.26 47.66 20.41 43.55 20.41 42.93"/>
        <polygon class="cls-140" points="20.41 42.31 21.51 47.66 21.39 47.66 20.41 42.93 20.41 42.31"/>
        <polygon class="cls-72" points="20.41 41.7 21.64 47.66 21.51 47.66 20.41 42.31 20.41 41.7"/>
        <polygon class="cls-34" points="20.41 41.08 21.77 47.66 21.64 47.66 20.41 41.7 20.41 41.08"/>
        <polygon class="cls-77" points="20.41 40.46 21.89 47.66 21.77 47.66 20.41 41.08 20.41 40.46"/>
        <polygon class="cls-16" points="20.41 39.85 22.02 47.66 21.89 47.66 20.41 40.46 20.41 39.85"/>
        <polygon class="cls-74" points="20.41 39.23 22.15 47.66 22.02 47.66 20.41 39.85 20.41 39.23"/>
        <polygon class="cls-3" points="20.41 38.62 22.27 47.66 22.15 47.66 20.41 39.23 20.41 38.62"/>
        <polygon class="cls-66" points="20.41 38 22.4 47.66 22.27 47.66 20.41 38.62 20.41 38"/>
        <polygon class="cls-30" points="20.41 37.38 22.53 47.66 22.4 47.66 20.41 38 20.41 37.38"/>
        <polygon class="cls-87" points="20.41 36.77 22.65 47.66 22.53 47.66 20.41 37.38 20.41 36.77"/>
        <polygon class="cls-61" points="20.41 36.15 22.78 47.66 22.65 47.66 20.41 36.77 20.41 36.15"/>
        <polygon class="cls-21" points="20.41 35.53 22.91 47.66 22.78 47.66 20.41 36.15 20.41 35.53"/>
        <polygon class="cls-115" points="20.48 35.23 23.04 47.66 22.91 47.66 20.41 35.53 20.41 35.23 20.48 35.23"/>
        <polygon class="cls-84" points="20.61 35.23 23.16 47.66 23.04 47.66 20.48 35.23 20.61 35.23"/>
        <polygon class="cls-58" points="20.73 35.23 23.29 47.66 23.16 47.66 20.61 35.23 20.73 35.23"/>
        <polygon class="cls-4" points="20.86 35.23 23.42 47.66 23.29 47.66 20.73 35.23 20.86 35.23"/>
        <polygon class="cls-99" points="20.99 35.23 23.54 47.66 23.42 47.66 20.86 35.23 20.99 35.23"/>
        <polygon class="cls-15" points="21.11 35.23 23.67 47.66 23.54 47.66 20.99 35.23 21.11 35.23"/>
        <polygon class="cls-125" points="21.24 35.23 23.8 47.66 23.67 47.66 21.11 35.23 21.24 35.23"/>
        <polygon class="cls-49" points="21.37 35.23 23.92 47.66 23.8 47.66 21.24 35.23 21.37 35.23"/>
        <polygon class="cls-39" points="21.49 35.23 24.05 47.66 23.92 47.66 21.37 35.23 21.49 35.23"/>
        <polygon class="cls-18" points="21.62 35.23 24.18 47.66 24.05 47.66 21.49 35.23 21.62 35.23"/>
        <polygon class="cls-152" points="21.75 35.23 24.3 47.66 24.18 47.66 21.62 35.23 21.75 35.23"/>
        <polygon class="cls-59" points="21.87 35.23 24.43 47.66 24.3 47.66 21.75 35.23 21.87 35.23"/>
        <polygon class="cls-104" points="22 35.23 24.56 47.66 24.43 47.66 21.87 35.23 22 35.23"/>
        <polygon class="cls-60" points="22.13 35.23 24.68 47.66 24.56 47.66 22 35.23 22.13 35.23"/>
        <polygon class="cls-69" points="22.25 35.23 24.81 47.66 24.68 47.66 22.13 35.23 22.25 35.23"/>
        <polygon class="cls-32" points="22.38 35.23 24.94 47.66 24.81 47.66 22.25 35.23 22.38 35.23"/>
        <polygon class="cls-127" points="22.51 35.23 25.06 47.66 24.94 47.66 22.38 35.23 22.51 35.23"/>
        <polygon class="cls-111" points="22.63 35.23 25.19 47.66 25.06 47.66 22.51 35.23 22.63 35.23"/>
        <polygon class="cls-148" points="22.76 35.23 25.32 47.66 25.19 47.66 22.63 35.23 22.76 35.23"/>
        <polygon class="cls-14" points="22.89 35.23 25.44 47.66 25.32 47.66 22.76 35.23 22.89 35.23"/>
        <polygon class="cls-33" points="23.01 35.23 25.57 47.66 25.44 47.66 22.89 35.23 23.01 35.23"/>
        <polygon class="cls-110" points="23.14 35.23 25.7 47.66 25.57 47.66 23.01 35.23 23.14 35.23"/>
        <polygon class="cls-113" points="23.27 35.23 25.83 47.66 25.7 47.66 23.14 35.23 23.27 35.23"/>
        <polygon class="cls-11" points="23.4 35.23 25.95 47.66 25.83 47.66 23.27 35.23 23.4 35.23"/>
        <polygon class="cls-48" points="23.52 35.23 26.08 47.66 25.95 47.66 23.4 35.23 23.52 35.23"/>
        <polygon class="cls-85" points="23.65 35.23 26.21 47.66 26.08 47.66 23.52 35.23 23.65 35.23"/>
        <polygon class="cls-85" points="26.21 47.66 23.65 35.23 32.06 35.23 32.06 47.66 26.21 47.66"/>
      </g>
      <g class="cls-159">
        <polygon class="cls-90" points="26.7 53.02 30.49 53.49 26.7 53.49 26.7 53.02"/>
        <polygon class="cls-90" points="26.7 52.87 31.7 53.49 30.49 53.49 26.7 53.02 26.7 52.87"/>
        <polygon class="cls-10" points="26.7 52.72 32.92 53.49 31.7 53.49 26.7 52.87 26.7 52.72"/>
        <polygon class="cls-56" points="26.7 52.57 34.14 53.49 32.92 53.49 26.7 52.72 26.7 52.57"/>
        <polygon class="cls-42" points="26.7 52.42 34.47 53.38 34.47 53.49 34.14 53.49 26.7 52.57 26.7 52.42"/>
        <polygon class="cls-47" points="26.7 52.27 34.47 53.23 34.47 53.38 26.7 52.42 26.7 52.27"/>
        <polygon class="cls-124" points="26.7 52.13 34.47 53.08 34.47 53.23 26.7 52.27 26.7 52.13"/>
        <polygon class="cls-128" points="26.7 51.98 34.47 52.93 34.47 53.08 26.7 52.13 26.7 51.98"/>
        <polygon class="cls-19" points="26.7 51.83 34.47 52.78 34.47 52.93 26.7 51.98 26.7 51.83"/>
        <polygon class="cls-12" points="26.7 51.68 34.47 52.63 34.47 52.78 26.7 51.83 26.7 51.68"/>
        <polygon class="cls-91" points="26.7 51.53 34.47 52.48 34.47 52.63 26.7 51.68 26.7 51.53"/>
        <polygon class="cls-114" points="26.7 51.38 34.47 52.33 34.47 52.48 26.7 51.53 26.7 51.38"/>
        <polygon class="cls-134" points="26.7 51.23 34.47 52.18 34.47 52.33 26.7 51.38 26.7 51.23"/>
        <polygon class="cls-102" points="26.7 51.08 34.47 52.03 34.47 52.18 26.7 51.23 26.7 51.08"/>
        <polygon class="cls-131" points="26.7 50.93 34.47 51.88 34.47 52.03 26.7 51.08 26.7 50.93"/>
        <polygon class="cls-23" points="26.7 50.78 34.47 51.73 34.47 51.88 26.7 50.93 26.7 50.78"/>
        <polygon class="cls-22" points="26.7 50.63 34.47 51.59 34.47 51.73 26.7 50.78 26.7 50.63"/>
        <polygon class="cls-100" points="26.7 50.48 34.47 51.44 34.47 51.59 26.7 50.63 26.7 50.48"/>
        <polygon class="cls-145" points="26.7 50.33 34.47 51.29 34.47 51.44 26.7 50.48 26.7 50.33"/>
        <polygon class="cls-146" points="26.7 50.18 34.47 51.14 34.47 51.29 26.7 50.33 26.7 50.18"/>
        <polygon class="cls-70" points="26.7 50.03 34.47 50.99 34.47 51.14 26.7 50.18 26.7 50.03"/>
        <polygon class="cls-122" points="26.7 49.88 34.47 50.84 34.47 50.99 26.7 50.03 26.7 49.88"/>
        <polygon class="cls-37" points="26.7 49.74 34.47 50.69 34.47 50.84 26.7 49.88 26.7 49.74"/>
        <polygon class="cls-96" points="26.7 49.59 34.47 50.54 34.47 50.69 26.7 49.74 26.7 49.59"/>
        <polygon class="cls-43" points="26.7 49.44 34.47 50.39 34.47 50.54 26.7 49.59 26.7 49.44"/>
        <polygon class="cls-132" points="26.7 49.29 34.47 50.24 34.47 50.39 26.7 49.44 26.7 49.29"/>
        <polygon class="cls-27" points="26.7 49.14 34.47 50.09 34.47 50.24 26.7 49.29 26.7 49.14"/>
        <polygon class="cls-147" points="26.7 48.99 34.47 49.94 34.47 50.09 26.7 49.14 26.7 48.99"/>
        <polygon class="cls-118" points="26.7 48.84 34.47 49.79 34.47 49.94 26.7 48.99 26.7 48.84"/>
        <polygon class="cls-50" points="26.7 48.69 34.47 49.64 34.47 49.79 26.7 48.84 26.7 48.69"/>
        <polygon class="cls-44" points="26.7 48.54 34.47 49.49 34.47 49.64 26.7 48.69 26.7 48.54"/>
        <polygon class="cls-123" points="26.7 48.39 34.47 49.35 34.47 49.49 26.7 48.54 26.7 48.39"/>
        <polygon class="cls-71" points="26.7 48.24 34.47 49.2 34.47 49.35 26.7 48.39 26.7 48.24"/>
        <polygon class="cls-120" points="26.7 48.09 34.47 49.05 34.47 49.2 26.7 48.24 26.7 48.09"/>
        <polygon class="cls-101" points="26.7 47.94 34.47 48.9 34.47 49.05 26.7 48.09 26.7 47.94"/>
        <polygon class="cls-138" points="26.7 47.79 34.47 48.75 34.47 48.9 26.7 47.94 26.7 47.79"/>
        <polygon class="cls-94" points="26.7 47.64 34.47 48.6 34.47 48.75 26.7 47.79 26.7 47.64"/>
        <polygon class="cls-133" points="26.7 47.5 34.47 48.45 34.47 48.6 26.7 47.64 26.7 47.5"/>
        <polygon class="cls-55" points="26.7 47.35 34.47 48.3 34.47 48.45 26.7 47.5 26.7 47.35"/>
        <polygon class="cls-141" points="26.7 47.2 34.47 48.15 34.47 48.3 26.7 47.35 26.7 47.2"/>
        <polygon class="cls-65" points="26.7 47.05 34.47 48 34.47 48.15 26.7 47.2 26.7 47.05"/>
        <polygon class="cls-98" points="26.7 46.9 34.47 47.85 34.47 48 26.7 47.05 26.7 46.9"/>
        <polygon class="cls-117" points="26.7 46.75 34.47 47.7 34.47 47.85 26.7 46.9 26.7 46.75"/>
        <polygon class="cls-79" points="26.7 46.6 34.47 47.55 34.47 47.7 26.7 46.75 26.7 46.6"/>
        <polygon class="cls-64" points="26.7 46.45 34.47 47.4 34.47 47.55 26.7 46.6 26.7 46.45"/>
        <polygon class="cls-36" points="26.7 46.3 34.47 47.25 34.47 47.4 26.7 46.45 26.7 46.3"/>
        <polygon class="cls-24" points="26.7 46.15 34.47 47.1 34.47 47.25 26.7 46.3 26.7 46.15"/>
        <polygon class="cls-31" points="26.7 46 34.47 46.96 34.47 47.1 26.7 46.15 26.7 46"/>
        <polygon class="cls-105" points="26.7 45.85 34.47 46.81 34.47 46.96 26.7 46 26.7 45.85"/>
        <polygon class="cls-63" points="26.7 45.7 34.47 46.66 34.47 46.81 26.7 45.85 26.7 45.7"/>
        <polygon class="cls-136" points="26.7 45.55 34.47 46.51 34.47 46.66 26.7 45.7 26.7 45.55"/>
        <polygon class="cls-130" points="26.7 45.4 34.47 46.36 34.47 46.51 26.7 45.55 26.7 45.4"/>
        <polygon class="cls-143" points="26.7 45.25 34.47 46.21 34.47 46.36 26.7 45.4 26.7 45.25"/>
        <polygon class="cls-68" points="26.7 45.11 34.47 46.06 34.47 46.21 26.7 45.25 26.7 45.11"/>
        <polygon class="cls-106" points="26.7 44.96 34.47 45.91 34.47 46.06 26.7 45.11 26.7 44.96"/>
        <polygon class="cls-13" points="26.7 44.81 34.47 45.76 34.47 45.91 26.7 44.96 26.7 44.81"/>
        <polygon class="cls-135" points="26.7 44.66 34.47 45.61 34.47 45.76 26.7 44.81 26.7 44.66"/>
        <polygon class="cls-150" points="26.7 44.51 34.47 45.46 34.47 45.61 26.7 44.66 26.7 44.51"/>
        <polygon class="cls-150" points="34.47 45.46 26.7 44.51 26.7 38.79 34.47 38.79 34.47 45.46"/>
      </g>
    </g>
    <g class="cls-158">
      <polygon class="cls-29" points="21.99 39.09 42.01 40.92 42.01 43.85 21.99 43.85 21.99 39.09"/>
      <polygon class="cls-29" points="21.99 38.73 42.01 40.55 42.01 40.92 21.99 39.09 21.99 38.73"/>
      <polygon class="cls-78" points="21.99 38.36 42.01 40.18 42.01 40.55 21.99 38.73 21.99 38.36"/>
      <polygon class="cls-73" points="21.99 37.99 42.01 39.81 42.01 40.18 21.99 38.36 21.99 37.99"/>
      <polygon class="cls-95" points="21.99 37.62 42.01 39.44 42.01 39.81 21.99 37.99 21.99 37.62"/>
      <polygon class="cls-57" points="21.99 37.25 42.01 39.08 42.01 39.44 21.99 37.62 21.99 37.25"/>
      <polygon class="cls-38" points="21.99 36.88 42.01 38.71 42.01 39.08 21.99 37.25 21.99 36.88"/>
      <polygon class="cls-107" points="21.99 36.52 42.01 38.34 42.01 38.71 21.99 36.88 21.99 36.52"/>
      <polygon class="cls-26" points="21.99 36.15 42.01 37.97 42.01 38.34 21.99 36.52 21.99 36.15"/>
      <polygon class="cls-83" points="21.99 35.78 42.01 37.6 42.01 37.97 21.99 36.15 21.99 35.78"/>
      <polygon class="cls-116" points="21.99 35.41 42.01 37.24 42.01 37.6 21.99 35.78 21.99 35.41"/>
      <polygon class="cls-67" points="21.99 35.04 42.01 36.87 42.01 37.24 21.99 35.41 21.99 35.04"/>
      <polygon class="cls-142" points="21.99 34.68 42.01 36.5 42.01 36.87 21.99 35.04 21.99 34.68"/>
      <polygon class="cls-51" points="21.99 34.31 42.01 36.13 42.01 36.5 21.99 34.68 21.99 34.31"/>
      <polygon class="cls-129" points="21.99 33.94 42.01 35.76 42.01 36.13 21.99 34.31 21.99 33.94"/>
      <polygon class="cls-7" points="21.99 33.57 42.01 35.4 42.01 35.76 21.99 33.94 21.99 33.57"/>
      <polygon class="cls-41" points="21.99 33.2 42.01 35.03 42.01 35.4 21.99 33.57 21.99 33.2"/>
      <polygon class="cls-75" points="21.99 32.84 42.01 34.66 42.01 35.03 21.99 33.2 21.99 32.84"/>
      <polygon class="cls-28" points="21.99 32.47 42.01 34.29 42.01 34.66 21.99 32.84 21.99 32.47"/>
      <polygon class="cls-17" points="21.99 32.1 42.01 33.92 42.01 34.29 21.99 32.47 21.99 32.1"/>
      <polygon class="cls-121" points="21.99 31.73 42.01 33.55 42.01 33.92 21.99 32.1 21.99 31.73"/>
      <polygon class="cls-40" points="21.99 31.36 42.01 33.19 42.01 33.55 21.99 31.73 21.99 31.36"/>
      <polygon class="cls-81" points="21.99 31 42.01 32.82 42.01 33.19 21.99 31.36 21.99 31"/>
      <polygon class="cls-119" points="21.99 30.63 42.01 32.45 42.01 32.82 21.99 31 21.99 30.63"/>
      <polygon class="cls-25" points="21.99 30.26 42.01 32.08 42.01 32.45 21.99 30.63 21.99 30.26"/>
      <polygon class="cls-9" points="21.99 29.89 42.01 31.71 42.01 32.08 21.99 30.26 21.99 29.89"/>
      <polygon class="cls-89" points="21.99 29.52 42.01 31.35 42.01 31.71 21.99 29.89 21.99 29.52"/>
      <polygon class="cls-139" points="21.99 29.15 42.01 30.98 42.01 31.35 21.99 29.52 21.99 29.15"/>
      <polygon class="cls-45" points="21.99 28.79 42.01 30.61 42.01 30.98 21.99 29.15 21.99 28.79"/>
      <polygon class="cls-153" points="21.99 28.42 42.01 30.24 42.01 30.61 21.99 28.79 21.99 28.42"/>
      <polygon class="cls-80" points="21.99 28.05 42.01 29.87 42.01 30.24 21.99 28.42 21.99 28.05"/>
      <polygon class="cls-82" points="21.99 27.68 42.01 29.51 42.01 29.87 21.99 28.05 21.99 27.68"/>
      <polygon class="cls-92" points="21.99 27.31 42.01 29.14 42.01 29.51 21.99 27.68 21.99 27.31"/>
      <polygon class="cls-62" points="21.99 26.95 42.01 28.77 42.01 29.14 21.99 27.31 21.99 26.95"/>
      <polygon class="cls-103" points="21.99 26.58 42.01 28.4 42.01 28.77 21.99 26.95 21.99 26.58"/>
      <polygon class="cls-54" points="21.99 26.21 42.01 28.03 42.01 28.4 21.99 26.58 21.99 26.21"/>
      <polygon class="cls-6" points="21.99 25.84 42.01 27.66 42.01 28.03 21.99 26.21 21.99 25.84"/>
      <polygon class="cls-8" points="21.99 25.47 42.01 27.3 42.01 27.66 21.99 25.84 21.99 25.47"/>
      <polygon class="cls-52" points="21.99 25.11 42.01 26.93 42.01 27.3 21.99 25.47 21.99 25.11"/>
      <polygon class="cls-112" points="21.99 24.74 42.01 26.56 42.01 26.93 21.99 25.11 21.99 24.74"/>
      <polygon class="cls-5" points="21.99 24.37 42.01 26.19 42.01 26.56 21.99 24.74 21.99 24.37"/>
      <polygon class="cls-46" points="21.99 24 42.01 25.82 42.01 26.19 21.99 24.37 21.99 24"/>
      <polygon class="cls-149" points="21.99 23.63 42.01 25.46 42.01 25.82 21.99 24 21.99 23.63"/>
      <polygon class="cls-151" points="21.99 23.26 42.01 25.09 42.01 25.46 21.99 23.63 21.99 23.26"/>
      <polygon class="cls-35" points="21.99 22.9 42.01 24.72 42.01 25.09 21.99 23.26 21.99 22.9"/>
      <polygon class="cls-53" points="21.99 22.53 42.01 24.35 42.01 24.72 21.99 22.9 21.99 22.53"/>
      <polygon class="cls-86" points="21.99 22.16 42.01 23.98 42.01 24.35 21.99 22.53 21.99 22.16"/>
      <polygon class="cls-126" points="21.99 21.79 42.01 23.62 42.01 23.98 21.99 22.16 21.99 21.79"/>
      <polygon class="cls-108" points="25 21.7 42.01 23.25 42.01 23.62 21.99 21.79 21.99 21.7 25 21.7"/>
      <polygon class="cls-88" points="29.04 21.7 42.01 22.88 42.01 23.25 25 21.7 29.04 21.7"/>
      <polygon class="cls-2" points="33.09 21.7 42.01 22.51 42.01 22.88 29.04 21.7 33.09 21.7"/>
      <polygon class="cls-2" points="42.01 22.51 33.09 21.7 42.01 21.7 42.01 22.51"/>
    </g>
    <ellipse class="cls-156" cx="26.95" cy="32.74" rx="1.43" ry=".67"/>
    <ellipse class="cls-156" cx="37.46" cy="33.14" rx=".67" ry="1.43" transform="translate(0 66.28) rotate(-83)"/>
    <g>
      <path d="M32.32,32.33c.09,0,.19,0,.28.02.62.07,1.09.34,1.4.79.06.09.04.22-.05.28-.09.06-.22.04-.28-.05-.24-.36-.6-.56-1.11-.62-.51-.06-.95.07-1.34.38-.09.07-.21.06-.28-.03s-.06-.21.03-.28c.4-.32.86-.49,1.36-.49Z"/>
      <path class="cls-76" d="M36.63,36.44c-.39.01-.76-.13-1.03-.38-.27-.25-.44-.6-.45-1s.13-.76.38-1.03c.25-.27.6-.44,1-.45s.76.13,1.03.38c.27.25.44.6.45,1s-.13.76-.38,1.03c-.25.27-.6.44-1,.45Z"/>
      <path class="cls-20" d="M36.55,35.24c0,.26.22.46.48.45s.46-.22.45-.48-.22-.46-.48-.45c-.26,0-.46.22-.45.48Z"/>
      <path class="cls-76" d="M27.96,36.08c-.39.01-.76-.13-1.03-.38-.27-.25-.44-.6-.45-1s.13-.76.38-1.03c.25-.27.6-.44,1-.45s.76.13,1.03.38c.27.25.44.6.45,1s-.13.76-.38,1.03c-.25.27-.6.44-1,.45Z"/>
      <g>
        <g>
          <path class="cls-154" d="M35.35,35.05c-.02-.68.51-1.25,1.19-1.27s1.25.51,1.27,1.19-.51,1.25-1.19,1.27-1.25-.51-1.27-1.19ZM34.95,35.07c.03.9.79,1.6,1.69,1.57s1.6-.79,1.57-1.69-.79-1.6-1.69-1.57-1.6.79-1.57,1.69Z"/>
          <path class="cls-154" d="M36.58,33.28c.44,0,.86.16,1.18.46.34.32.53.74.55,1.2.02.46-.15.9-.46,1.24-.32.34-.74.53-1.2.55-.46.02-.9-.15-1.24-.46-.34-.32-.53-.74-.55-1.2h0c-.03-.95.72-1.76,1.67-1.79.02,0,.04,0,.06,0ZM36.58,36.54s.04,0,.05,0c.41-.01.79-.19,1.07-.49.28-.3.42-.69.41-1.1-.01-.41-.19-.79-.49-1.07-.3-.28-.69-.42-1.1-.41-.84.03-1.51.74-1.48,1.58h0c.01.41.19.79.49,1.07.29.27.65.41,1.04.41ZM36.58,33.68c.34,0,.66.13.91.36.26.24.41.57.42.93.01.36-.11.69-.36.95-.24.26-.57.41-.93.42-.73.03-1.35-.55-1.38-1.28-.01-.36.11-.69.36-.95.24-.26.57-.41.93-.42.02,0,.03,0,.05,0ZM36.58,36.14s.03,0,.04,0c.3-.01.58-.14.79-.36.21-.22.31-.51.3-.81-.01-.3-.14-.58-.36-.79-.22-.21-.51-.31-.81-.3-.3.01-.58.14-.79.36-.21.22-.31.51-.3.81.02.61.52,1.09,1.13,1.09Z"/>
        </g>
        <g>
          <path class="cls-154" d="M26.68,34.69c-.02-.68.51-1.25,1.19-1.27s1.25.51,1.27,1.19-.51,1.25-1.19,1.27-1.25-.51-1.27-1.19ZM26.28,34.7c.03.9.79,1.6,1.69,1.57s1.6-.79,1.57-1.69-.79-1.6-1.69-1.57-1.6.79-1.57,1.69Z"/>
          <path class="cls-154" d="M27.91,32.92c.93,0,1.7.74,1.73,1.67.03.95-.72,1.76-1.67,1.79-.46.02-.9-.15-1.24-.46-.34-.32-.53-.74-.55-1.2h0c-.02-.46.15-.9.46-1.24.32-.34.74-.53,1.2-.55.02,0,.04,0,.06,0ZM27.91,36.18s.04,0,.05,0c.84-.03,1.51-.74,1.48-1.58-.03-.84-.74-1.5-1.58-1.48-.41.01-.79.19-1.07.49-.28.3-.42.69-.41,1.1h0c.01.41.19.79.49,1.07.29.27.65.41,1.04.41ZM27.91,33.32c.34,0,.66.13.91.36.26.24.41.57.42.93.03.73-.55,1.35-1.28,1.38-.73.03-1.35-.55-1.38-1.28h0c-.03-.73.55-1.35,1.28-1.38.02,0,.03,0,.05,0ZM27.91,35.78s.03,0,.04,0c.62-.02,1.11-.55,1.09-1.17-.01-.3-.14-.58-.36-.79-.22-.21-.51-.31-.81-.3-.62.02-1.11.55-1.09,1.17.02.61.52,1.09,1.13,1.09Z"/>
        </g>
        <path class="cls-20" d="M27.89,34.88c0,.26.22.46.48.45s.46-.22.45-.48-.22-.46-.48-.45-.46.22-.45.48Z"/>
      </g>
    </g>
    <g>
      <g>
        <path class="cls-161" d="M34.66,24.43c.1,0,.19.04.26.11l4.92,5.12c.14.15.14.38-.01.52-.15.14-.38.14-.52-.01l-4.92-5.12c-.14-.15-.14-.38.01-.52.07-.07.16-.1.25-.1Z"/>
        <path class="cls-161" d="M38.46,25.62c.09,0,.18.03.25.1.15.14.15.37.02.52l-3.13,3.33c-.14.15-.37.15-.52.02-.15-.14-.15-.37-.02-.52l3.13-3.33c.07-.08.17-.12.27-.12Z"/>
      </g>
      <g>
        <path class="cls-161" d="M29.41,24.43c.09,0,.18.03.25.1.15.14.15.37.01.52l-4.92,5.12c-.14.15-.37.15-.52.01-.15-.14-.15-.37-.01-.52l4.92-5.12c.07-.07.17-.11.26-.11Z"/>
        <path class="cls-161" d="M25.62,25.62c.1,0,.19.04.27.12l3.13,3.33c.14.15.13.38-.02.52-.15.14-.38.13-.52-.02l-3.13-3.33c-.14-.15-.13-.38.02-.52.07-.07.16-.1.25-.1Z"/>
      </g>
      <g>
        <path class="cls-155" d="M33.27,37.6c.09,0,.19.04.26.11.14.14.14.37,0,.52l-3.26,3.26c-.14.14-.37.14-.52,0-.14-.14-.14-.37,0-.52l3.26-3.26c.07-.07.17-.11.26-.11Z"/>
        <path class="cls-155" d="M30.67,37.6c.09,0,.19.04.26.11l3.26,3.26c.14.14.14.37,0,.52-.14.14-.37.14-.52,0l-3.26-3.26c-.14-.14-.14-.37,0-.52.07-.07.17-.11.26-.11Z"/>
      </g>
    </g>
  </g>
</svg>