<?xml version="1.0" encoding="UTF-8"?>
<svg id="Layer_1" xmlns="http://www.w3.org/2000/svg" xmlns:xlink="http://www.w3.org/1999/xlink" viewBox="0 0 64 64">
  <defs>
    <style>
      .cls-1, .cls-2 {
        fill: #ffc63a;
      }

      .cls-3 {
        fill: #52c25f;
      }

      .cls-3, .cls-4, .cls-5, .cls-6, .cls-7, .cls-8, .cls-9, .cls-10, .cls-11, .cls-12, .cls-13, .cls-14, .cls-15, .cls-16, .cls-17, .cls-18, .cls-19, .cls-20, .cls-21, .cls-22, .cls-23, .cls-24, .cls-25, .cls-26, .cls-27, .cls-28, .cls-29, .cls-30, .cls-31, .cls-32, .cls-33, .cls-34, .cls-35, .cls-36, .cls-37, .cls-38, .cls-39, .cls-40, .cls-41, .cls-42, .cls-43, .cls-44, .cls-45, .cls-46, .cls-47, .cls-48, .cls-49, .cls-50, .cls-51, .cls-52, .cls-53, .cls-54, .cls-55, .cls-56, .cls-57, .cls-58, .cls-59, .cls-60, .cls-61, .cls-62, .cls-63, .cls-64, .cls-65, .cls-66, .cls-67, .cls-68, .cls-69, .cls-70, .cls-71, .cls-72, .cls-73, .cls-74, .cls-75, .cls-76, .cls-77, .cls-78, .cls-79, .cls-80, .cls-2, .cls-81, .cls-82, .cls-83, .cls-84, .cls-85, .cls-86, .cls-87, .cls-88, .cls-89, .cls-90, .cls-91, .cls-92, .cls-93, .cls-94, .cls-95, .cls-96, .cls-97, .cls-98, .cls-99, .cls-100, .cls-101, .cls-102, .cls-103, .cls-104, .cls-105, .cls-106, .cls-107, .cls-108, .cls-109, .cls-110, .cls-111, .cls-112, .cls-113, .cls-114, .cls-115, .cls-116, .cls-117, .cls-118, .cls-119, .cls-120, .cls-121, .cls-122, .cls-123, .cls-124, .cls-125, .cls-126, .cls-127, .cls-128, .cls-129, .cls-130, .cls-131, .cls-132, .cls-133, .cls-134, .cls-135, .cls-136, .cls-137, .cls-138, .cls-139, .cls-140, .cls-141, .cls-142, .cls-143, .cls-144, .cls-145, .cls-146, .cls-147, .cls-148, .cls-149, .cls-150, .cls-151, .cls-152, .cls-153 {
        fill-rule: evenodd;
      }

      .cls-4 {
        fill: #52b95d;
      }

      .cls-5 {
        fill: #fc4;
      }

      .cls-6 {
        fill: #ffcf48;
      }

      .cls-7 {
        fill: #ffdc5e;
      }

      .cls-8 {
        fill: #ffce47;
      }

      .cls-9 {
        fill: #ffd654;
      }

      .cls-10 {
        fill: #89e99b;
      }

      .cls-11 {
        fill: #51a457;
      }

      .cls-12 {
        fill: #82e594;
      }

      .cls-13 {
        fill: #54cf65;
      }

      .cls-14 {
        fill: #51a858;
      }

      .cls-15 {
        fill: #51b65c;
      }

      .cls-16 {
        fill: #52c460;
      }

      .cls-17 {
        fill: #ffda5a;
      }

      .cls-18 {
        fill: #51b25b;
      }

      .cls-19 {
        fill: #83e695;
      }

      .cls-20, .cls-154 {
        fill: #fff;
      }

      .cls-21 {
        fill: #52bd5e;
      }

      .cls-22 {
        fill: #7be28d;
      }

      .cls-23 {
        fill: #7ce28e;
      }

      .cls-155, .cls-88 {
        fill: #ffc73b;
      }

      .cls-24 {
        fill: #5dd36e;
      }

      .cls-25 {
        fill: #ffd655;
      }

      .cls-26 {
        fill: #ffe165;
      }

      .cls-27 {
        fill: #71dd83;
      }

      .cls-28 {
        fill: #ffda5b;
      }

      .cls-29 {
        fill: #ffe56c;
      }

      .cls-30 {
        fill: #52c05f;
      }

      .cls-31 {
        fill: #5cd36d;
      }

      .cls-32 {
        fill: #51ac59;
      }

      .cls-33 {
        fill: #51a758;
      }

      .cls-34 {
        fill: #52c661;
      }

      .cls-35 {
        fill: #ffca40;
      }

      .cls-36 {
        fill: #5ed46f;
      }

      .cls-37 {
        fill: #75df87;
      }

      .cls-38 {
        fill: #ffe267;
      }

      .cls-39 {
        fill: #51b35b;
      }

      .cls-40 {
        fill: #ffd858;
      }

      .cls-41 {
        fill: #ffdc5d;
      }

      .cls-42 {
        fill: #87e899;
      }

      .cls-43 {
        fill: #73de85;
      }

      .cls-44 {
        fill: #6ddb7e;
      }

      .cls-45 {
        fill: #ffd450;
      }

      .cls-156 {
        fill: #eaadcc;
      }

      .cls-46 {
        fill: #ffcc43;
      }

      .cls-47 {
        fill: #86e798;
      }

      .cls-48 {
        fill: #51a356;
      }

      .cls-49 {
        fill: #51b45b;
      }

      .cls-50 {
        fill: #6edc80;
      }

      .cls-51 {
        fill: #ffdd60;
      }

      .cls-52 {
        fill: #ffce46;
      }

      .cls-53 {
        fill: #ffc93f;
      }

      .cls-54 {
        fill: #ffcf49;
      }

      .cls-55 {
        fill: #65d776;
      }

      .cls-56 {
        fill: #88e89a;
      }

      .cls-57 {
        fill: #ffe268;
      }

      .cls-58 {
        fill: #52ba5d;
      }

      .cls-59 {
        fill: #51b05a;
      }

      .cls-60 {
        fill: #51ae5a;
      }

      .cls-61 {
        fill: #52be5e;
      }

      .cls-62 {
        fill: #ffd14b;
      }

      .cls-63 {
        fill: #5ad26b;
      }

      .cls-64 {
        fill: #5fd470;
      }

      .cls-65 {
        fill: #63d674;
      }

      .cls-66 {
        fill: #52c15f;
      }

      .cls-67 {
        fill: #ffdf62;
      }

      .cls-68 {
        fill: #56d067;
      }

      .cls-69 {
        fill: #51ad59;
      }

      .cls-70 {
        fill: #77e089;
      }

      .cls-71 {
        fill: #6bda7c;
      }

      .cls-72 {
        fill: #52c761;
      }

      .cls-157 {
        clip-path: url(#clippath-1);
      }

      .cls-158 {
        clip-path: url(#clippath-3);
      }

      .cls-159 {
        clip-path: url(#clippath-2);
      }

      .cls-73 {
        fill: #ffe46a;
      }

      .cls-74 {
        fill: #52c360;
      }

      .cls-75 {
        fill: #ffdb5c;
      }

      .cls-77 {
        fill: #52c560;
      }

      .cls-78 {
        fill: #ffe46b;
      }

      .cls-79 {
        fill: #60d571;
      }

      .cls-80 {
        fill: #ffd34e;
      }

      .cls-81 {
        fill: #ffd857;
      }

      .cls-82 {
        fill: #ffd24d;
      }

      .cls-83 {
        fill: #ffe064;
      }

      .cls-84 {
        fill: #52bb5d;
      }

      .cls-85 {
        fill: #51a256;
      }

      .cls-86 {
        fill: #ffc93e;
      }

      .cls-87 {
        fill: #52bf5e;
      }

      .cls-160 {
        clip-rule: evenodd;
        fill: none;
      }

      .cls-89 {
        fill: #ffd552;
      }

      .cls-90 {
        fill: #8ae99c;
      }

      .cls-91 {
        fill: #81e593;
      }

      .cls-92 {
        fill: #ffd14c;
      }

      .cls-93 {
        fill: #52cc62;
      }

      .cls-94 {
        fill: #67d878;
      }

      .cls-95 {
        fill: #ffe369;
      }

      .cls-96 {
        fill: #74de86;
      }

      .cls-97 {
        fill: #52cd63;
      }

      .cls-98 {
        fill: #62d673;
      }

      .cls-99 {
        fill: #51b75c;
      }

      .cls-100 {
        fill: #7ae18c;
      }

      .cls-101 {
        fill: #69d97a;
      }

      .cls-102 {
        fill: #7ee390;
      }

      .cls-103 {
        fill: #ffd04a;
      }

      .cls-104 {
        fill: #51af5a;
      }

      .cls-105 {
        fill: #5bd26c;
      }

      .cls-106 {
        fill: #55cf66;
      }

      .cls-107 {
        fill: #ffe166;
      }

      .cls-108 {
        fill: #ffc73c;
      }

      .cls-109 {
        fill: #52cb62;
      }

      .cls-110 {
        fill: #51a657;
      }

      .cls-111 {
        fill: #51aa58;
      }

      .cls-112 {
        fill: #ffcd45;
      }

      .cls-113 {
        fill: #51a557;
      }

      .cls-114 {
        fill: #80e492;
      }

      .cls-115 {
        fill: #52bc5e;
      }

      .cls-116 {
        fill: #ffdf63;
      }

      .cls-117 {
        fill: #61d572;
      }

      .cls-118 {
        fill: #6fdc81;
      }

      .cls-119 {
        fill: #ffd756;
      }

      .cls-120 {
        fill: #6ada7b;
      }

      .cls-121 {
        fill: #ffd959;
      }

      .cls-122 {
        fill: #76df88;
      }

      .cls-123 {
        fill: #6cdb7d;
      }

      .cls-124 {
        fill: #85e797;
      }

      .cls-125 {
        fill: #51b55c;
      }

      .cls-126 {
        fill: #ffc83d;
      }

      .cls-127 {
        fill: #51ab59;
      }

      .cls-128 {
        fill: #84e696;
      }

      .cls-129 {
        fill: #ffdd5f;
      }

      .cls-130 {
        fill: #58d169;
      }

      .cls-131 {
        fill: #7de38f;
      }

      .cls-132 {
        fill: #72dd84;
      }

      .cls-133 {
        fill: #66d877;
      }

      .cls-161 {
        fill: #ecb732;
      }

      .cls-134 {
        fill: #7fe491;
      }

      .cls-135 {
        fill: #53ce64;
      }

      .cls-136 {
        fill: #59d16a;
      }

      .cls-137 {
        fill: #52ca62;
      }

      .cls-138 {
        fill: #68d979;
      }

      .cls-139 {
        fill: #ffd551;
      }

      .cls-140 {
        fill: #52c861;
      }

      .cls-141 {
        fill: #64d775;
      }

      .cls-142 {
        fill: #ffde61;
      }

      .cls-143 {
        fill: #57d068;
      }

      .cls-162 {
        clip-path: url(#clippath);
      }

      .cls-144 {
        fill: #52c961;
      }

      .cls-145 {
        fill: #79e18b;
      }

      .cls-146 {
        fill: #78e08a;
      }

      .cls-147 {
        fill: #70dc82;
      }

      .cls-148 {
        fill: #51a958;
      }

      .cls-149 {
        fill: #ffcb42;
      }

      .cls-150 {
        fill: #52ce63;
      }

      .cls-151 {
        fill: #ffca41;
      }

      .cls-152 {
        fill: #51b15b;
      }

      .cls-153 {
        fill: #ffd34f;
      }
    </style>
    <clipPath id="clippath">
      <path class="cls-160" d="M19.33,19.61c.07-2.96-2.18-4.29-5.72-5.08s-7.08,1.2-7.11,2.21,3.38,4.64,6.92,5.43c3.54.79,5.84.4,5.91-2.56h0Z"/>
    </clipPath>
    <clipPath id="clippath-1">
      <path class="cls-160" d="M20.84,18.5c2.89.65,3.75-1.5,3.84-5.13s-2.53-7.79-3.52-8.01c-.98-.22-3.86,2.71-3.94,6.34-.09,3.63.73,6.15,3.63,6.8h0Z"/>
    </clipPath>
    <clipPath id="clippath-2">
      <path class="cls-160" d="M19.26,18.14c2.09-1.64,1.1-4.09-1.34-7.22-2.44-3.13-6.8-4.66-7.51-4.1s-.33,5.2,2.11,8.32,4.64,4.64,6.74,3Z"/>
    </clipPath>
    <clipPath id="clippath-3">
      <path class="cls-160" d="M31.1,30.92c3.91-3.91,5.94-8.22.79-13.37-5.15-5.15-12.55-6.21-16.46-2.3-3.91,3.91-2.85,11.3,2.3,16.46,5.15,5.15,9.45,3.12,13.36-.79Z"/>
    </clipPath>
  </defs>
  <rect class="cls-1" x="38.29" y="14.15" width="20.01" height="67.95" transform="translate(-19.88 48.25) rotate(-45)"/>
  <g>
    <g>
      <g class="cls-162">
        <polygon class="cls-150" points="8.94 13.31 6.11 17.61 5.38 16.88 8.94 13.31"/>
        <polygon class="cls-150" points="9.38 12.88 6.2 17.7 6.11 17.61 8.94 13.31 9.38 12.88"/>
        <polygon class="cls-97" points="9.82 12.44 6.29 17.79 6.2 17.7 9.38 12.88 9.82 12.44"/>
        <polygon class="cls-93" points="10.25 12 6.38 17.88 6.29 17.79 9.82 12.44 10.25 12"/>
        <polygon class="cls-109" points="10.69 11.57 6.47 17.97 6.38 17.88 10.25 12 10.69 11.57"/>
        <polygon class="cls-137" points="11.12 11.13 6.56 18.06 6.47 17.97 10.69 11.57 11.12 11.13"/>
        <polygon class="cls-144" points="11.56 10.7 6.65 18.15 6.56 18.06 11.12 11.13 11.56 10.7"/>
        <polygon class="cls-140" points="11.99 10.26 6.74 18.24 6.65 18.15 11.56 10.7 11.99 10.26"/>
        <polygon class="cls-72" points="12.43 9.83 6.83 18.33 6.74 18.24 11.99 10.26 12.43 9.83"/>
        <polygon class="cls-34" points="12.58 9.82 6.92 18.42 6.83 18.33 12.43 9.83 12.51 9.75 12.58 9.82"/>
        <polygon class="cls-77" points="12.67 9.91 7.01 18.51 6.92 18.42 12.58 9.82 12.67 9.91"/>
        <polygon class="cls-16" points="12.76 10 7.1 18.6 7.01 18.51 12.67 9.91 12.76 10"/>
        <polygon class="cls-74" points="12.85 10.09 7.19 18.69 7.1 18.6 12.76 10 12.85 10.09"/>
        <polygon class="cls-3" points="12.94 10.18 7.28 18.78 7.19 18.69 12.85 10.09 12.94 10.18"/>
        <polygon class="cls-66" points="13.03 10.27 7.37 18.87 7.28 18.78 12.94 10.18 13.03 10.27"/>
        <polygon class="cls-30" points="13.12 10.36 7.46 18.96 7.37 18.87 13.03 10.27 13.12 10.36"/>
        <polygon class="cls-87" points="13.21 10.45 7.55 19.05 7.46 18.96 13.12 10.36 13.21 10.45"/>
        <polygon class="cls-61" points="13.3 10.54 7.64 19.14 7.55 19.05 13.21 10.45 13.3 10.54"/>
        <polygon class="cls-21" points="13.39 10.63 7.73 19.22 7.64 19.14 13.3 10.54 13.39 10.63"/>
        <polygon class="cls-115" points="13.48 10.72 7.82 19.31 7.73 19.22 13.39 10.63 13.48 10.72"/>
        <polygon class="cls-84" points="13.57 10.81 7.91 19.4 7.82 19.31 13.48 10.72 13.57 10.81"/>
        <polygon class="cls-58" points="13.66 10.9 8 19.49 7.91 19.4 13.57 10.81 13.66 10.9"/>
        <polygon class="cls-4" points="13.75 10.99 8.09 19.58 8 19.49 13.66 10.9 13.75 10.99"/>
        <polygon class="cls-99" points="13.84 11.08 8.18 19.67 8.09 19.58 13.75 10.99 13.84 11.08"/>
        <polygon class="cls-15" points="13.93 11.17 8.27 19.76 8.18 19.67 13.84 11.08 13.93 11.17"/>
        <polygon class="cls-125" points="14.01 11.26 8.36 19.85 8.27 19.76 13.93 11.17 14.01 11.26"/>
        <polygon class="cls-49" points="14.1 11.35 8.45 19.94 8.36 19.85 14.01 11.26 14.1 11.35"/>
        <polygon class="cls-39" points="14.19 11.44 8.54 20.03 8.45 19.94 14.1 11.35 14.19 11.44"/>
        <polygon class="cls-18" points="14.28 11.53 8.62 20.12 8.54 20.03 14.19 11.44 14.28 11.53"/>
        <polygon class="cls-152" points="14.37 11.61 8.71 20.21 8.62 20.12 14.28 11.53 14.37 11.61"/>
        <polygon class="cls-59" points="14.46 11.7 8.8 20.3 8.71 20.21 14.37 11.61 14.46 11.7"/>
        <polygon class="cls-104" points="14.55 11.79 8.89 20.39 8.8 20.3 14.46 11.7 14.55 11.79"/>
        <polygon class="cls-60" points="14.64 11.88 8.98 20.48 8.89 20.39 14.55 11.79 14.64 11.88"/>
        <polygon class="cls-69" points="14.73 11.97 9.07 20.57 8.98 20.48 14.64 11.88 14.73 11.97"/>
        <polygon class="cls-32" points="14.82 12.06 9.16 20.66 9.07 20.57 14.73 11.97 14.82 12.06"/>
        <polygon class="cls-127" points="14.91 12.15 9.25 20.75 9.16 20.66 14.82 12.06 14.91 12.15"/>
        <polygon class="cls-111" points="15 12.24 9.34 20.84 9.25 20.75 14.91 12.15 15 12.24"/>
        <polygon class="cls-148" points="15.09 12.33 9.43 20.93 9.34 20.84 15 12.24 15.09 12.33"/>
        <polygon class="cls-14" points="15.18 12.42 9.52 21.02 9.43 20.93 15.09 12.33 15.18 12.42"/>
        <polygon class="cls-33" points="15.27 12.51 9.61 21.11 9.52 21.02 15.18 12.42 15.27 12.51"/>
        <polygon class="cls-110" points="15.36 12.6 9.7 21.2 9.61 21.11 15.27 12.51 15.36 12.6"/>
        <polygon class="cls-113" points="15.45 12.69 9.79 21.29 9.7 21.2 15.36 12.6 15.45 12.69"/>
        <polygon class="cls-11" points="15.54 12.78 9.88 21.38 9.79 21.29 15.45 12.69 15.54 12.78"/>
        <polygon class="cls-48" points="15.63 12.87 9.97 21.47 9.88 21.38 15.54 12.78 15.63 12.87"/>
        <polygon class="cls-85" points="15.72 12.96 10.06 21.56 9.97 21.47 15.63 12.87 15.72 12.96"/>
        <polygon class="cls-85" points="10.06 21.56 15.72 12.96 22.3 19.54 15.17 26.66 10.06 21.56"/>
      </g>
      <g class="cls-157">
        <polygon class="cls-150" points="21.67 5.1 20.79 4.52 20.94 4.37 21.67 5.1"/>
        <polygon class="cls-150" points="22.11 5.53 20.7 4.61 20.79 4.52 21.67 5.1 22.11 5.53"/>
        <polygon class="cls-97" points="22.54 5.97 20.61 4.7 20.7 4.61 22.11 5.53 22.54 5.97"/>
        <polygon class="cls-93" points="22.98 6.41 20.52 4.79 20.61 4.7 22.54 5.97 22.98 6.41"/>
        <polygon class="cls-109" points="23.41 6.84 20.43 4.88 20.52 4.79 22.98 6.41 23.41 6.84"/>
        <polygon class="cls-137" points="23.85 7.28 20.34 4.97 20.43 4.88 23.41 6.84 23.85 7.28"/>
        <polygon class="cls-144" points="24.28 7.71 20.25 5.06 20.34 4.97 23.85 7.28 24.28 7.71"/>
        <polygon class="cls-140" points="24.72 8.15 20.16 5.15 20.25 5.06 24.28 7.71 24.72 8.15"/>
        <polygon class="cls-72" points="25.16 8.58 20.07 5.24 20.16 5.15 24.72 8.15 25.16 8.58"/>
        <polygon class="cls-34" points="25.59 9.02 19.98 5.33 20.07 5.24 25.16 8.58 25.59 9.02"/>
        <polygon class="cls-77" points="26.03 9.46 19.89 5.42 19.98 5.33 25.59 9.02 26.03 9.46"/>
        <polygon class="cls-16" points="26.46 9.89 19.8 5.51 19.89 5.42 26.03 9.46 26.46 9.89"/>
        <polygon class="cls-74" points="26.9 10.33 19.71 5.6 19.8 5.51 26.46 9.89 26.9 10.33"/>
        <polygon class="cls-3" points="27.33 10.76 19.63 5.69 19.71 5.6 26.9 10.33 27.33 10.76"/>
        <polygon class="cls-66" points="27.77 11.2 19.54 5.77 19.63 5.69 27.33 10.76 27.77 11.2"/>
        <polygon class="cls-30" points="28.21 11.63 19.45 5.86 19.54 5.77 27.77 11.2 28.21 11.63"/>
        <polygon class="cls-87" points="28.64 12.07 19.36 5.95 19.45 5.86 28.21 11.63 28.64 12.07"/>
        <polygon class="cls-61" points="29.08 12.51 19.27 6.04 19.36 5.95 28.64 12.07 29.08 12.51"/>
        <polygon class="cls-21" points="29.51 12.94 19.18 6.13 19.27 6.04 29.08 12.51 29.51 12.94"/>
        <polygon class="cls-115" points="29.68 13.2 19.09 6.22 19.18 6.13 29.51 12.94 29.73 13.15 29.68 13.2"/>
        <polygon class="cls-84" points="29.59 13.29 19 6.31 19.09 6.22 29.68 13.2 29.59 13.29"/>
        <polygon class="cls-58" points="29.5 13.38 18.91 6.4 19 6.31 29.59 13.29 29.5 13.38"/>
        <polygon class="cls-4" points="29.41 13.47 18.82 6.49 18.91 6.4 29.5 13.38 29.41 13.47"/>
        <polygon class="cls-99" points="29.32 13.56 18.73 6.58 18.82 6.49 29.41 13.47 29.32 13.56"/>
        <polygon class="cls-15" points="29.23 13.65 18.64 6.67 18.73 6.58 29.32 13.56 29.23 13.65"/>
        <polygon class="cls-125" points="29.14 13.74 18.55 6.76 18.64 6.67 29.23 13.65 29.14 13.74"/>
        <polygon class="cls-49" points="29.05 13.83 18.46 6.85 18.55 6.76 29.14 13.74 29.05 13.83"/>
        <polygon class="cls-39" points="28.96 13.92 18.37 6.94 18.46 6.85 29.05 13.83 28.96 13.92"/>
        <polygon class="cls-18" points="28.87 14.01 18.28 7.03 18.37 6.94 28.96 13.92 28.87 14.01"/>
        <polygon class="cls-152" points="28.78 14.1 18.19 7.12 18.28 7.03 28.87 14.01 28.78 14.1"/>
        <polygon class="cls-59" points="28.69 14.19 18.1 7.21 18.19 7.12 28.78 14.1 28.69 14.19"/>
        <polygon class="cls-104" points="28.6 14.28 18.01 7.3 18.1 7.21 28.69 14.19 28.6 14.28"/>
        <polygon class="cls-60" points="28.51 14.37 17.92 7.39 18.01 7.3 28.6 14.28 28.51 14.37"/>
        <polygon class="cls-69" points="28.42 14.46 17.83 7.48 17.92 7.39 28.51 14.37 28.42 14.46"/>
        <polygon class="cls-32" points="28.34 14.55 17.74 7.57 17.83 7.48 28.42 14.46 28.34 14.55"/>
        <polygon class="cls-127" points="28.25 14.63 17.65 7.66 17.74 7.57 28.34 14.55 28.25 14.63"/>
        <polygon class="cls-111" points="28.16 14.72 17.56 7.75 17.65 7.66 28.25 14.63 28.16 14.72"/>
        <polygon class="cls-148" points="28.07 14.81 17.47 7.84 17.56 7.75 28.16 14.72 28.07 14.81"/>
        <polygon class="cls-14" points="27.98 14.9 17.38 7.93 17.47 7.84 28.07 14.81 27.98 14.9"/>
        <polygon class="cls-33" points="27.89 14.99 17.29 8.02 17.38 7.93 27.98 14.9 27.89 14.99"/>
        <polygon class="cls-110" points="27.8 15.08 17.2 8.11 17.29 8.02 27.89 14.99 27.8 15.08"/>
        <polygon class="cls-113" points="27.71 15.17 17.11 8.2 17.2 8.11 27.8 15.08 27.71 15.17"/>
        <polygon class="cls-11" points="27.62 15.26 17.02 8.29 17.11 8.2 27.71 15.17 27.62 15.26"/>
        <polygon class="cls-48" points="27.53 15.35 16.93 8.38 17.02 8.29 27.62 15.26 27.53 15.35"/>
        <polygon class="cls-85" points="27.44 15.44 16.85 8.47 16.93 8.38 27.53 15.35 27.44 15.44"/>
        <polygon class="cls-85" points="16.85 8.47 27.44 15.44 21.49 21.39 12.71 12.6 16.85 8.47"/>
      </g>
      <g class="cls-159">
        <polygon class="cls-90" points="12.7 5.02 9.7 7.37 12.37 4.69 12.7 5.02"/>
        <polygon class="cls-90" points="12.81 5.13 8.84 8.23 9.7 7.37 12.7 5.02 12.81 5.13"/>
        <polygon class="cls-10" points="12.91 5.23 7.98 9.09 8.84 8.23 12.81 5.13 12.91 5.23"/>
        <polygon class="cls-56" points="13.02 5.34 7.12 9.95 7.98 9.09 12.91 5.23 13.02 5.34"/>
        <polygon class="cls-42" points="13.13 5.44 6.96 10.26 6.88 10.18 7.12 9.95 13.02 5.34 13.13 5.44"/>
        <polygon class="cls-47" points="13.23 5.55 7.06 10.37 6.96 10.26 13.13 5.44 13.23 5.55"/>
        <polygon class="cls-124" points="13.34 5.65 7.17 10.47 7.06 10.37 13.23 5.55 13.34 5.65"/>
        <polygon class="cls-128" points="13.44 5.76 7.28 10.58 7.17 10.47 13.34 5.65 13.44 5.76"/>
        <polygon class="cls-19" points="13.55 5.86 7.38 10.68 7.28 10.58 13.44 5.76 13.55 5.86"/>
        <polygon class="cls-12" points="13.65 5.97 7.49 10.79 7.38 10.68 13.55 5.86 13.65 5.97"/>
        <polygon class="cls-91" points="13.76 6.08 7.59 10.89 7.49 10.79 13.65 5.97 13.76 6.08"/>
        <polygon class="cls-114" points="13.87 6.18 7.7 11 7.59 10.89 13.76 6.08 13.87 6.18"/>
        <polygon class="cls-134" points="13.97 6.29 7.8 11.11 7.7 11 13.87 6.18 13.97 6.29"/>
        <polygon class="cls-102" points="14.08 6.39 7.91 11.21 7.8 11.11 13.97 6.29 14.08 6.39"/>
        <polygon class="cls-131" points="14.18 6.5 8.01 11.32 7.91 11.21 14.08 6.39 14.18 6.5"/>
        <polygon class="cls-23" points="14.29 6.6 8.12 11.42 8.01 11.32 14.18 6.5 14.29 6.6"/>
        <polygon class="cls-22" points="14.39 6.71 8.23 11.53 8.12 11.42 14.29 6.6 14.39 6.71"/>
        <polygon class="cls-100" points="14.5 6.82 8.33 11.63 8.23 11.53 14.39 6.71 14.5 6.82"/>
        <polygon class="cls-145" points="14.6 6.92 8.44 11.74 8.33 11.63 14.5 6.82 14.6 6.92"/>
        <polygon class="cls-146" points="14.71 7.03 8.54 11.84 8.44 11.74 14.6 6.92 14.71 7.03"/>
        <polygon class="cls-70" points="14.82 7.13 8.65 11.95 8.54 11.84 14.71 7.03 14.82 7.13"/>
        <polygon class="cls-122" points="14.92 7.24 8.75 12.06 8.65 11.95 14.82 7.13 14.92 7.24"/>
        <polygon class="cls-37" points="15.03 7.34 8.86 12.16 8.75 12.06 14.92 7.24 15.03 7.34"/>
        <polygon class="cls-96" points="15.13 7.45 8.97 12.27 8.86 12.16 15.03 7.34 15.13 7.45"/>
        <polygon class="cls-43" points="15.24 7.55 9.07 12.37 8.97 12.27 15.13 7.45 15.24 7.55"/>
        <polygon class="cls-132" points="15.34 7.66 9.18 12.48 9.07 12.37 15.24 7.55 15.34 7.66"/>
        <polygon class="cls-27" points="15.45 7.77 9.28 12.58 9.18 12.48 15.34 7.66 15.45 7.77"/>
        <polygon class="cls-147" points="15.56 7.87 9.39 12.69 9.28 12.58 15.45 7.77 15.56 7.87"/>
        <polygon class="cls-118" points="15.66 7.98 9.49 12.8 9.39 12.69 15.56 7.87 15.66 7.98"/>
        <polygon class="cls-50" points="15.77 8.08 9.6 12.9 9.49 12.8 15.66 7.98 15.77 8.08"/>
        <polygon class="cls-44" points="15.87 8.19 9.7 13.01 9.6 12.9 15.77 8.08 15.87 8.19"/>
        <polygon class="cls-123" points="15.98 8.29 9.81 13.11 9.7 13.01 15.87 8.19 15.98 8.29"/>
        <polygon class="cls-71" points="16.08 8.4 9.92 13.22 9.81 13.11 15.98 8.29 16.08 8.4"/>
        <polygon class="cls-120" points="16.19 8.51 10.02 13.32 9.92 13.22 16.08 8.4 16.19 8.51"/>
        <polygon class="cls-101" points="16.29 8.61 10.13 13.43 10.02 13.32 16.19 8.51 16.29 8.61"/>
        <polygon class="cls-138" points="16.4 8.72 10.23 13.53 10.13 13.43 16.29 8.61 16.4 8.72"/>
        <polygon class="cls-94" points="16.51 8.82 10.34 13.64 10.23 13.53 16.4 8.72 16.51 8.82"/>
        <polygon class="cls-133" points="16.61 8.93 10.44 13.75 10.34 13.64 16.51 8.82 16.61 8.93"/>
        <polygon class="cls-55" points="16.72 9.03 10.55 13.85 10.44 13.75 16.61 8.93 16.72 9.03"/>
        <polygon class="cls-141" points="16.82 9.14 10.66 13.96 10.55 13.85 16.72 9.03 16.82 9.14"/>
        <polygon class="cls-65" points="16.93 9.24 10.76 14.06 10.66 13.96 16.82 9.14 16.93 9.24"/>
        <polygon class="cls-98" points="17.03 9.35 10.87 14.17 10.76 14.06 16.93 9.24 17.03 9.35"/>
        <polygon class="cls-117" points="17.14 9.46 10.97 14.27 10.87 14.17 17.03 9.35 17.14 9.46"/>
        <polygon class="cls-79" points="17.25 9.56 11.08 14.38 10.97 14.27 17.14 9.46 17.25 9.56"/>
        <polygon class="cls-64" points="17.35 9.67 11.18 14.49 11.08 14.38 17.25 9.56 17.35 9.67"/>
        <polygon class="cls-36" points="17.46 9.77 11.29 14.59 11.18 14.49 17.35 9.67 17.46 9.77"/>
        <polygon class="cls-24" points="17.56 9.88 11.39 14.7 11.29 14.59 17.46 9.77 17.56 9.88"/>
        <polygon class="cls-31" points="17.67 9.98 11.5 14.8 11.39 14.7 17.56 9.88 17.67 9.98"/>
        <polygon class="cls-105" points="17.77 10.09 11.61 14.91 11.5 14.8 17.67 9.98 17.77 10.09"/>
        <polygon class="cls-63" points="17.88 10.2 11.71 15.01 11.61 14.91 17.77 10.09 17.88 10.2"/>
        <polygon class="cls-136" points="17.98 10.3 11.82 15.12 11.71 15.01 17.88 10.2 17.98 10.3"/>
        <polygon class="cls-130" points="18.09 10.41 11.92 15.22 11.82 15.12 17.98 10.3 18.09 10.41"/>
        <polygon class="cls-143" points="18.2 10.51 12.03 15.33 11.92 15.22 18.09 10.41 18.2 10.51"/>
        <polygon class="cls-68" points="18.3 10.62 12.13 15.44 12.03 15.33 18.2 10.51 18.3 10.62"/>
        <polygon class="cls-106" points="18.41 10.72 12.24 15.54 12.13 15.44 18.3 10.62 18.41 10.72"/>
        <polygon class="cls-13" points="18.51 10.83 12.35 15.65 12.24 15.54 18.41 10.72 18.51 10.83"/>
        <polygon class="cls-135" points="18.62 10.93 12.45 15.75 12.35 15.65 18.51 10.83 18.62 10.93"/>
        <polygon class="cls-150" points="18.72 11.04 12.56 15.86 12.45 15.75 18.62 10.93 18.72 11.04"/>
        <polygon class="cls-150" points="12.56 15.86 18.72 11.04 22.77 15.08 17.27 20.58 12.56 15.86"/>
      </g>
    </g>
    <g class="cls-158">
      <polygon class="cls-29" points="25.88 11.54 10.43 24.41 8.36 22.33 22.52 8.18 25.88 11.54"/>
      <polygon class="cls-29" points="26.14 11.8 10.69 24.67 10.43 24.41 25.88 11.54 26.14 11.8"/>
      <polygon class="cls-78" points="26.4 12.06 10.95 24.93 10.69 24.67 26.14 11.8 26.4 12.06"/>
      <polygon class="cls-73" points="26.66 12.32 11.21 25.19 10.95 24.93 26.4 12.06 26.66 12.32"/>
      <polygon class="cls-95" points="26.92 12.58 11.47 25.45 11.21 25.19 26.66 12.32 26.92 12.58"/>
      <polygon class="cls-57" points="27.18 12.84 11.73 25.71 11.47 25.45 26.92 12.58 27.18 12.84"/>
      <polygon class="cls-38" points="27.44 13.1 11.99 25.97 11.73 25.71 27.18 12.84 27.44 13.1"/>
      <polygon class="cls-107" points="27.7 13.36 12.26 26.23 11.99 25.97 27.44 13.1 27.7 13.36"/>
      <polygon class="cls-26" points="27.96 13.62 12.52 26.49 12.26 26.23 27.7 13.36 27.96 13.62"/>
      <polygon class="cls-83" points="28.22 13.88 12.78 26.75 12.52 26.49 27.96 13.62 28.22 13.88"/>
      <polygon class="cls-116" points="28.48 14.14 13.04 27.01 12.78 26.75 28.22 13.88 28.48 14.14"/>
      <polygon class="cls-67" points="28.74 14.4 13.3 27.27 13.04 27.01 28.48 14.14 28.74 14.4"/>
      <polygon class="cls-142" points="29 14.66 13.56 27.53 13.3 27.27 28.74 14.4 29 14.66"/>
      <polygon class="cls-51" points="29.27 14.92 13.82 27.79 13.56 27.53 29 14.66 29.27 14.92"/>
      <polygon class="cls-129" points="29.53 15.18 14.08 28.05 13.82 27.79 29.27 14.92 29.53 15.18"/>
      <polygon class="cls-7" points="29.79 15.44 14.34 28.31 14.08 28.05 29.53 15.18 29.79 15.44"/>
      <polygon class="cls-41" points="30.05 15.7 14.6 28.57 14.34 28.31 29.79 15.44 30.05 15.7"/>
      <polygon class="cls-75" points="30.31 15.96 14.86 28.83 14.6 28.57 30.05 15.7 30.31 15.96"/>
      <polygon class="cls-28" points="30.57 16.22 15.12 29.09 14.86 28.83 30.31 15.96 30.57 16.22"/>
      <polygon class="cls-17" points="30.83 16.49 15.38 29.35 15.12 29.09 30.57 16.22 30.83 16.49"/>
      <polygon class="cls-121" points="31.09 16.75 15.64 29.61 15.38 29.35 30.83 16.49 31.09 16.75"/>
      <polygon class="cls-40" points="31.35 17.01 15.9 29.88 15.64 29.61 31.09 16.75 31.35 17.01"/>
      <polygon class="cls-81" points="31.61 17.27 16.16 30.14 15.9 29.88 31.35 17.01 31.61 17.27"/>
      <polygon class="cls-119" points="31.87 17.53 16.42 30.4 16.16 30.14 31.61 17.27 31.87 17.53"/>
      <polygon class="cls-25" points="32.13 17.79 16.68 30.66 16.42 30.4 31.87 17.53 32.13 17.79"/>
      <polygon class="cls-9" points="32.39 18.05 16.94 30.92 16.68 30.66 32.13 17.79 32.39 18.05"/>
      <polygon class="cls-89" points="32.65 18.31 17.2 31.18 16.94 30.92 32.39 18.05 32.65 18.31"/>
      <polygon class="cls-139" points="32.91 18.57 17.46 31.44 17.2 31.18 32.65 18.31 32.91 18.57"/>
      <polygon class="cls-45" points="33.17 18.83 17.72 31.7 17.46 31.44 32.91 18.57 33.17 18.83"/>
      <polygon class="cls-153" points="33.43 19.09 17.98 31.96 17.72 31.7 33.17 18.83 33.43 19.09"/>
      <polygon class="cls-80" points="33.69 19.35 18.24 32.22 17.98 31.96 33.43 19.09 33.69 19.35"/>
      <polygon class="cls-82" points="33.95 19.61 18.5 32.48 18.24 32.22 33.69 19.35 33.95 19.61"/>
      <polygon class="cls-92" points="34.21 19.87 18.76 32.74 18.5 32.48 33.95 19.61 34.21 19.87"/>
      <polygon class="cls-62" points="34.47 20.13 19.02 33 18.76 32.74 34.21 19.87 34.47 20.13"/>
      <polygon class="cls-103" points="34.73 20.39 19.28 33.26 19.02 33 34.47 20.13 34.73 20.39"/>
      <polygon class="cls-54" points="34.99 20.65 19.54 33.52 19.28 33.26 34.73 20.39 34.99 20.65"/>
      <polygon class="cls-6" points="35.25 20.91 19.8 33.78 19.54 33.52 34.99 20.65 35.25 20.91"/>
      <polygon class="cls-8" points="35.51 21.17 20.06 34.04 19.8 33.78 35.25 20.91 35.51 21.17"/>
      <polygon class="cls-52" points="35.77 21.43 20.32 34.3 20.06 34.04 35.51 21.17 35.77 21.43"/>
      <polygon class="cls-112" points="36.03 21.69 20.58 34.56 20.32 34.3 35.77 21.43 36.03 21.69"/>
      <polygon class="cls-5" points="36.29 21.95 20.84 34.82 20.58 34.56 36.03 21.69 36.29 21.95"/>
      <polygon class="cls-46" points="36.55 22.21 21.11 35.08 20.84 34.82 36.29 21.95 36.55 22.21"/>
      <polygon class="cls-149" points="36.81 22.47 21.37 35.34 21.11 35.08 36.55 22.21 36.81 22.47"/>
      <polygon class="cls-151" points="37.07 22.73 21.63 35.6 21.37 35.34 36.81 22.47 37.07 22.73"/>
      <polygon class="cls-35" points="37.33 22.99 21.89 35.86 21.63 35.6 37.07 22.73 37.33 22.99"/>
      <polygon class="cls-53" points="37.59 23.25 22.15 36.12 21.89 35.86 37.33 22.99 37.59 23.25"/>
      <polygon class="cls-86" points="37.85 23.51 22.41 36.38 22.15 36.12 37.59 23.25 37.85 23.51"/>
      <polygon class="cls-126" points="38.12 23.77 22.67 36.64 22.41 36.38 37.85 23.51 38.12 23.77"/>
      <polygon class="cls-108" points="36.05 25.97 22.93 36.9 22.67 36.64 38.12 23.77 38.18 23.84 36.05 25.97"/>
      <polygon class="cls-88" points="33.19 28.83 23.19 37.16 22.93 36.9 36.05 25.97 33.19 28.83"/>
      <polygon class="cls-2" points="30.34 31.69 23.45 37.42 23.19 37.16 33.19 28.83 30.34 31.69"/>
      <polygon class="cls-2" points="23.45 37.42 30.34 31.69 24.02 38 23.45 37.42"/>
    </g>
    <ellipse class="cls-156" cx="26.87" cy="19.54" rx="1.43" ry=".67" transform="translate(-5.94 24.72) rotate(-45)"/>
    <ellipse class="cls-156" cx="19.15" cy="26.69" rx="1.43" ry=".67" transform="translate(-12.37 17.45) rotate(-38)"/>
    <g>
      <path d="M23.36,23.62c-.06.06-.13.13-.21.19-.49.39-1.01.53-1.55.43-.11-.02-.18-.13-.16-.23.02-.11.13-.18.23-.16.42.08.82-.03,1.22-.35.4-.32.63-.72.68-1.22.01-.11.11-.19.22-.18s.19.11.18.22c-.05.51-.26.95-.62,1.31Z"/>
      <path class="cls-76" d="M17.41,23.77c.27-.29.63-.44,1-.45.37-.01.74.11,1.03.38s.44.63.45,1c.01.37-.11.74-.38,1.03s-.63.44-1,.45c-.37.01-.74-.11-1.03-.38s-.44-.63-.45-1c-.01-.37.11-.74.38-1.03Z"/>
      <path class="cls-20" d="M18.31,24.56c-.19-.18-.48-.17-.66.02s-.17.48.02.66.48.17.66-.02c.18-.19.17-.48-.02-.66Z"/>
      <path class="cls-76" d="M23.79,17.9c.27-.29.63-.44,1-.45.37-.01.74.11,1.03.38s.44.63.45,1c.01.37-.11.74-.38,1.03s-.63.44-1,.45c-.37.01-.74-.11-1.03-.38s-.44-.63-.45-1c-.01-.37.11-.74.38-1.03Z"/>
      <g>
        <g>
          <path class="cls-154" d="M19.29,23.84c.5.46.52,1.24.06,1.74s-1.24.52-1.74.06-.52-1.24-.06-1.74,1.24-.52,1.74-.06ZM19.57,23.55c-.66-.61-1.69-.58-2.3.08s-.58,1.69.08,2.3,1.69.58,2.3-.08.58-1.69-.08-2.3Z"/>
          <path class="cls-154" d="M19.68,25.97c-.31.31-.72.49-1.16.5-.46.02-.9-.15-1.24-.46-.34-.32-.53-.74-.55-1.2-.02-.46.15-.9.46-1.24.32-.34.74-.53,1.2-.55.46-.02.9.15,1.24.46h0c.7.65.74,1.75.09,2.44-.01.02-.03.03-.04.04ZM17.37,23.66s-.03.03-.04.04c-.28.3-.42.69-.41,1.1.01.41.19.79.49,1.07.3.28.69.42,1.1.41.41-.01.79-.19,1.07-.49.58-.62.54-1.59-.08-2.16h0c-.3-.28-.69-.42-1.1-.41-.39.01-.75.17-1.03.45ZM19.39,25.68c-.24.24-.55.38-.89.39-.36.01-.69-.11-.95-.36-.26-.24-.41-.57-.42-.93-.01-.36.11-.69.36-.95.5-.54,1.34-.57,1.88-.07.26.24.41.57.42.93.01.36-.11.69-.36.95-.01.01-.02.02-.03.03ZM17.66,23.94s-.02.02-.03.03c-.21.22-.31.51-.3.81.01.3.14.58.36.79.22.21.51.31.81.3.3-.01.58-.14.79-.36.21-.22.31-.51.3-.81-.01-.3-.14-.58-.36-.79-.45-.42-1.14-.4-1.57.03Z"/>
        </g>
        <g>
          <path class="cls-154" d="M25.68,17.97c.5.46.52,1.24.06,1.74s-1.24.52-1.74.06-.52-1.24-.06-1.74,1.24-.52,1.74-.06ZM25.95,17.68c-.66-.61-1.69-.58-2.3.08s-.58,1.69.08,2.3,1.69.58,2.3-.08.58-1.69-.08-2.3Z"/>
          <path class="cls-154" d="M26.06,20.09c-.65.65-1.72.68-2.4.04-.7-.65-.74-1.75-.09-2.44.31-.34.74-.53,1.2-.55.46-.02.9.15,1.24.46h0c.34.32.53.74.55,1.2.02.46-.15.9-.46,1.24-.01.01-.03.03-.04.04ZM23.76,17.79s-.03.03-.04.04c-.58.62-.54,1.59.08,2.16.62.58,1.59.54,2.16-.08.28-.3.42-.69.41-1.1-.01-.41-.19-.79-.49-1.07h0c-.3-.28-.69-.42-1.1-.41-.39.01-.75.17-1.03.45ZM25.78,19.81c-.24.24-.55.38-.89.39-.36.01-.69-.11-.95-.36-.54-.5-.57-1.34-.07-1.88.5-.54,1.34-.57,1.88-.07h0c.54.5.57,1.34.07,1.88-.01.01-.02.02-.03.03ZM24.04,18.07s-.02.02-.03.03c-.43.46-.4,1.17.06,1.6.22.21.51.31.81.3.3-.01.58-.14.79-.36.43-.46.4-1.17-.06-1.6-.45-.42-1.14-.4-1.57.03Z"/>
        </g>
        <path class="cls-20" d="M24.69,18.69c-.19-.18-.48-.17-.66.02s-.17.48.02.66.48.17.66-.02.17-.48-.02-.66Z"/>
      </g>
    </g>
    <g>
      <g>
        <path class="cls-161" d="M27.29,30.87c-.07.07-.16.11-.27.11l-7.1-.14c-.2,0-.36-.17-.36-.37,0-.2.17-.36.37-.36l7.1.14c.2,0,.36.17.36.37,0,.1-.04.19-.11.25Z"/>
        <path class="cls-161" d="M23.76,32.71c-.06.06-.15.1-.25.11-.2,0-.37-.15-.38-.35l-.14-4.56c0-.2.15-.37.35-.38.2,0,.37.15.38.35l.14,4.56c0,.11-.04.2-.11.27Z"/>
      </g>
      <g>
        <path class="cls-161" d="M31.01,27.16c-.06.06-.15.11-.25.11-.2,0-.37-.16-.37-.36l-.14-7.1c0-.2.16-.37.36-.37.2,0,.37.16.37.36l.14,7.1c0,.1-.04.2-.11.27Z"/>
        <path class="cls-161" d="M32.84,23.63c-.07.07-.16.11-.27.11l-4.56-.14c-.2,0-.36-.18-.35-.38,0-.2.17-.36.38-.35l4.56.14c.2,0,.36.18.35.38,0,.1-.04.18-.11.25Z"/>
      </g>
      <g>
        <path class="cls-155" d="M18.97,20.57c-.07.07-.16.11-.26.11-.2,0-.37-.16-.37-.37v-4.61c0-.2.16-.37.37-.37.2,0,.37.16.37.37v4.61c0,.1-.04.19-.11.26Z"/>
        <path class="cls-155" d="M20.8,18.74c-.07.07-.16.11-.26.11h-4.61c-.2,0-.37-.16-.37-.37,0-.2.16-.37.37-.37h4.61c.2,0,.37.16.37.37,0,.1-.04.19-.11.26Z"/>
      </g>
    </g>
  </g>
  <rect class="cls-1" x="69.88" y="45.73" width="20.01" height="67.95" transform="translate(192.74 79.58) rotate(135)"/>
  <rect class="cls-1" x="38.3" y="45.73" width="20.01" height="67.95" transform="translate(26.1 170.23) rotate(-135)"/>
  <rect class="cls-1" x="69.88" y="14.15" width="20.01" height="67.95" transform="translate(57.43 -42.39) rotate(45)"/>
</svg>