<?xml version="1.0" encoding="UTF-8"?>
<svg id="Layer_1" xmlns="http://www.w3.org/2000/svg" xmlns:xlink="http://www.w3.org/1999/xlink" viewBox="0 0 64 64">
  <defs>
    <style>
      .cls-1, .cls-2 {
        fill: #ffc63a;
      }

      .cls-3 {
        fill: #52c25f;
      }

      .cls-3, .cls-4, .cls-5, .cls-6, .cls-7, .cls-8, .cls-9, .cls-10, .cls-11, .cls-12, .cls-13, .cls-14, .cls-15, .cls-16, .cls-17, .cls-18, .cls-19, .cls-20, .cls-21, .cls-22, .cls-23, .cls-24, .cls-25, .cls-26, .cls-27, .cls-28, .cls-29, .cls-30, .cls-31, .cls-32, .cls-33, .cls-34, .cls-35, .cls-36, .cls-37, .cls-38, .cls-39, .cls-40, .cls-41, .cls-42, .cls-43, .cls-44, .cls-45, .cls-46, .cls-47, .cls-48, .cls-49, .cls-50, .cls-51, .cls-52, .cls-53, .cls-54, .cls-55, .cls-56, .cls-57, .cls-58, .cls-59, .cls-60, .cls-61, .cls-62, .cls-63, .cls-64, .cls-65, .cls-66, .cls-67, .cls-68, .cls-69, .cls-70, .cls-71, .cls-72, .cls-73, .cls-74, .cls-75, .cls-76, .cls-77, .cls-78, .cls-79, .cls-80, .cls-2, .cls-81, .cls-82, .cls-83, .cls-84, .cls-85, .cls-86, .cls-87, .cls-88, .cls-89, .cls-90, .cls-91, .cls-92, .cls-93, .cls-94, .cls-95, .cls-96, .cls-97, .cls-98, .cls-99, .cls-100, .cls-101, .cls-102, .cls-103, .cls-104, .cls-105, .cls-106, .cls-107, .cls-108, .cls-109, .cls-110, .cls-111, .cls-112, .cls-113, .cls-114, .cls-115, .cls-116, .cls-117, .cls-118, .cls-119, .cls-120, .cls-121, .cls-122, .cls-123, .cls-124, .cls-125, .cls-126, .cls-127, .cls-128, .cls-129, .cls-130, .cls-131, .cls-132, .cls-133, .cls-134, .cls-135, .cls-136, .cls-137, .cls-138, .cls-139, .cls-140, .cls-141, .cls-142, .cls-143, .cls-144, .cls-145, .cls-146, .cls-147, .cls-148, .cls-149, .cls-150, .cls-151, .cls-152, .cls-153 {
        fill-rule: evenodd;
      }

      .cls-4 {
        fill: #52b95d;
      }

      .cls-5 {
        fill: #fc4;
      }

      .cls-6 {
        fill: #ffcf48;
      }

      .cls-7 {
        fill: #ffdc5e;
      }

      .cls-8 {
        fill: #ffce47;
      }

      .cls-9 {
        fill: #ffd654;
      }

      .cls-10 {
        fill: #89e99b;
      }

      .cls-11 {
        fill: #51a457;
      }

      .cls-12 {
        fill: #82e594;
      }

      .cls-13 {
        fill: #54cf65;
      }

      .cls-14 {
        fill: #51a858;
      }

      .cls-15 {
        fill: #51b65c;
      }

      .cls-16 {
        fill: #52c460;
      }

      .cls-17 {
        fill: #ffda5a;
      }

      .cls-18 {
        fill: #51b25b;
      }

      .cls-19 {
        fill: #83e695;
      }

      .cls-20, .cls-154 {
        fill: #fff;
      }

      .cls-21 {
        fill: #52bd5e;
      }

      .cls-22 {
        fill: #7be28d;
      }

      .cls-23 {
        fill: #7ce28e;
      }

      .cls-155, .cls-88 {
        fill: #ffc73b;
      }

      .cls-24 {
        fill: #5dd36e;
      }

      .cls-25 {
        fill: #ffd655;
      }

      .cls-26 {
        fill: #ffe165;
      }

      .cls-27 {
        fill: #71dd83;
      }

      .cls-28 {
        fill: #ffda5b;
      }

      .cls-29 {
        fill: #ffe56c;
      }

      .cls-30 {
        fill: #52c05f;
      }

      .cls-31 {
        fill: #5cd36d;
      }

      .cls-32 {
        fill: #51ac59;
      }

      .cls-33 {
        fill: #51a758;
      }

      .cls-34 {
        fill: #52c661;
      }

      .cls-35 {
        fill: #ffca40;
      }

      .cls-36 {
        fill: #5ed46f;
      }

      .cls-37 {
        fill: #75df87;
      }

      .cls-38 {
        fill: #ffe267;
      }

      .cls-39 {
        fill: #51b35b;
      }

      .cls-40 {
        fill: #ffd858;
      }

      .cls-41 {
        fill: #ffdc5d;
      }

      .cls-42 {
        fill: #87e899;
      }

      .cls-43 {
        fill: #73de85;
      }

      .cls-44 {
        fill: #6ddb7e;
      }

      .cls-45 {
        fill: #ffd450;
      }

      .cls-156 {
        fill: #eaadcc;
      }

      .cls-46 {
        fill: #ffcc43;
      }

      .cls-47 {
        fill: #86e798;
      }

      .cls-48 {
        fill: #51a356;
      }

      .cls-49 {
        fill: #51b45b;
      }

      .cls-50 {
        fill: #6edc80;
      }

      .cls-51 {
        fill: #ffdd60;
      }

      .cls-52 {
        fill: #ffce46;
      }

      .cls-53 {
        fill: #ffc93f;
      }

      .cls-54 {
        fill: #ffcf49;
      }

      .cls-55 {
        fill: #65d776;
      }

      .cls-56 {
        fill: #88e89a;
      }

      .cls-57 {
        fill: #ffe268;
      }

      .cls-58 {
        fill: #52ba5d;
      }

      .cls-59 {
        fill: #51b05a;
      }

      .cls-60 {
        fill: #51ae5a;
      }

      .cls-61 {
        fill: #52be5e;
      }

      .cls-62 {
        fill: #ffd14b;
      }

      .cls-63 {
        fill: #5ad26b;
      }

      .cls-64 {
        fill: #5fd470;
      }

      .cls-65 {
        fill: #63d674;
      }

      .cls-66 {
        fill: #52c15f;
      }

      .cls-67 {
        fill: #ffdf62;
      }

      .cls-68 {
        fill: #56d067;
      }

      .cls-69 {
        fill: #51ad59;
      }

      .cls-70 {
        fill: #77e089;
      }

      .cls-71 {
        fill: #6bda7c;
      }

      .cls-72 {
        fill: #52c761;
      }

      .cls-157 {
        clip-path: url(#clippath-1);
      }

      .cls-158 {
        clip-path: url(#clippath-3);
      }

      .cls-159 {
        clip-path: url(#clippath-2);
      }

      .cls-73 {
        fill: #ffe46a;
      }

      .cls-74 {
        fill: #52c360;
      }

      .cls-75 {
        fill: #ffdb5c;
      }

      .cls-77 {
        fill: #52c560;
      }

      .cls-78 {
        fill: #ffe46b;
      }

      .cls-79 {
        fill: #60d571;
      }

      .cls-80 {
        fill: #ffd34e;
      }

      .cls-81 {
        fill: #ffd857;
      }

      .cls-82 {
        fill: #ffd24d;
      }

      .cls-83 {
        fill: #ffe064;
      }

      .cls-84 {
        fill: #52bb5d;
      }

      .cls-85 {
        fill: #51a256;
      }

      .cls-86 {
        fill: #ffc93e;
      }

      .cls-87 {
        fill: #52bf5e;
      }

      .cls-160 {
        clip-rule: evenodd;
        fill: none;
      }

      .cls-89 {
        fill: #ffd552;
      }

      .cls-90 {
        fill: #8ae99c;
      }

      .cls-91 {
        fill: #81e593;
      }

      .cls-92 {
        fill: #ffd14c;
      }

      .cls-93 {
        fill: #52cc62;
      }

      .cls-94 {
        fill: #67d878;
      }

      .cls-95 {
        fill: #ffe369;
      }

      .cls-96 {
        fill: #74de86;
      }

      .cls-97 {
        fill: #52cd63;
      }

      .cls-98 {
        fill: #62d673;
      }

      .cls-99 {
        fill: #51b75c;
      }

      .cls-100 {
        fill: #7ae18c;
      }

      .cls-101 {
        fill: #69d97a;
      }

      .cls-102 {
        fill: #7ee390;
      }

      .cls-103 {
        fill: #ffd04a;
      }

      .cls-104 {
        fill: #51af5a;
      }

      .cls-105 {
        fill: #5bd26c;
      }

      .cls-106 {
        fill: #55cf66;
      }

      .cls-107 {
        fill: #ffe166;
      }

      .cls-108 {
        fill: #ffc73c;
      }

      .cls-109 {
        fill: #52cb62;
      }

      .cls-110 {
        fill: #51a657;
      }

      .cls-111 {
        fill: #51aa58;
      }

      .cls-112 {
        fill: #ffcd45;
      }

      .cls-113 {
        fill: #51a557;
      }

      .cls-114 {
        fill: #80e492;
      }

      .cls-115 {
        fill: #52bc5e;
      }

      .cls-116 {
        fill: #ffdf63;
      }

      .cls-117 {
        fill: #61d572;
      }

      .cls-118 {
        fill: #6fdc81;
      }

      .cls-119 {
        fill: #ffd756;
      }

      .cls-120 {
        fill: #6ada7b;
      }

      .cls-121 {
        fill: #ffd959;
      }

      .cls-122 {
        fill: #76df88;
      }

      .cls-123 {
        fill: #6cdb7d;
      }

      .cls-124 {
        fill: #85e797;
      }

      .cls-125 {
        fill: #51b55c;
      }

      .cls-126 {
        fill: #ffc83d;
      }

      .cls-127 {
        fill: #51ab59;
      }

      .cls-128 {
        fill: #84e696;
      }

      .cls-129 {
        fill: #ffdd5f;
      }

      .cls-130 {
        fill: #58d169;
      }

      .cls-131 {
        fill: #7de38f;
      }

      .cls-132 {
        fill: #72dd84;
      }

      .cls-133 {
        fill: #66d877;
      }

      .cls-161 {
        fill: #ecb732;
      }

      .cls-134 {
        fill: #7fe491;
      }

      .cls-135 {
        fill: #53ce64;
      }

      .cls-136 {
        fill: #59d16a;
      }

      .cls-137 {
        fill: #52ca62;
      }

      .cls-138 {
        fill: #68d979;
      }

      .cls-139 {
        fill: #ffd551;
      }

      .cls-140 {
        fill: #52c861;
      }

      .cls-141 {
        fill: #64d775;
      }

      .cls-142 {
        fill: #ffde61;
      }

      .cls-143 {
        fill: #57d068;
      }

      .cls-162 {
        clip-path: url(#clippath);
      }

      .cls-144 {
        fill: #52c961;
      }

      .cls-145 {
        fill: #79e18b;
      }

      .cls-146 {
        fill: #78e08a;
      }

      .cls-147 {
        fill: #70dc82;
      }

      .cls-148 {
        fill: #51a958;
      }

      .cls-149 {
        fill: #ffcb42;
      }

      .cls-150 {
        fill: #52ce63;
      }

      .cls-151 {
        fill: #ffca41;
      }

      .cls-152 {
        fill: #51b15b;
      }

      .cls-153 {
        fill: #ffd34f;
      }
    </style>
    <clipPath id="clippath">
      <path class="cls-160" d="M25.98,32.32c-2.05-2.15-4.58-1.49-7.64.45s-4.16,5.86-3.46,6.59,5.67.89,8.74-1.05c3.07-1.94,4.41-3.84,2.37-5.99h0Z"/>
    </clipPath>
    <clipPath id="clippath-1">
      <path class="cls-160" d="M26.26,30.46c2.5-1.59,1.59-3.71-.92-6.34s-7.3-3.72-8.15-3.18c-.85.54-.81,4.65,1.7,7.27s4.87,3.83,7.37,2.24h0Z"/>
    </clipPath>
    <clipPath id="clippath-2">
      <path class="cls-160" d="M24.89,31.33c.32-2.64-2.11-3.67-6.05-4.16s-8.1,1.51-8.21,2.41,3.44,3.91,7.38,4.39,6.56,0,6.89-2.64Z"/>
    </clipPath>
    <clipPath id="clippath-3">
      <path class="cls-160" d="M42.3,32c0-5.53-1.61-10.01-8.89-10.01s-13.26,4.48-13.26,10.01,5.98,10.01,13.26,10.01,8.89-4.48,8.89-10.01Z"/>
    </clipPath>
  </defs>
  <rect class="cls-1" x="66.02" y="13.58" width="20.01" height="36.84" transform="translate(108.03 -44.03) rotate(90)"/>
  <rect class="cls-1" x="38.78" y="16.78" width="20.01" height="30.43" transform="translate(16.78 80.78) rotate(-90)"/>
  <g>
    <g>
      <g class="cls-162">
        <polygon class="cls-150" points="14.18 35.21 15.22 40.25 14.18 40.25 14.18 35.21"/>
        <polygon class="cls-150" points="14.18 34.6 15.35 40.25 15.22 40.25 14.18 35.21 14.18 34.6"/>
        <polygon class="cls-97" points="14.18 33.98 15.48 40.25 15.35 40.25 14.18 34.6 14.18 33.98"/>
        <polygon class="cls-93" points="14.18 33.37 15.6 40.25 15.48 40.25 14.18 33.98 14.18 33.37"/>
        <polygon class="cls-109" points="14.18 32.75 15.73 40.25 15.6 40.25 14.18 33.37 14.18 32.75"/>
        <polygon class="cls-137" points="14.18 32.13 15.86 40.25 15.73 40.25 14.18 32.75 14.18 32.13"/>
        <polygon class="cls-144" points="14.18 31.52 15.98 40.25 15.86 40.25 14.18 32.13 14.18 31.52"/>
        <polygon class="cls-140" points="14.18 30.9 16.11 40.25 15.98 40.25 14.18 31.52 14.18 30.9"/>
        <polygon class="cls-72" points="14.18 30.29 16.24 40.25 16.11 40.25 14.18 30.9 14.18 30.29"/>
        <polygon class="cls-34" points="14.29 30.17 16.36 40.25 16.24 40.25 14.18 30.29 14.18 30.17 14.29 30.17"/>
        <polygon class="cls-77" points="14.41 30.17 16.49 40.25 16.36 40.25 14.29 30.17 14.41 30.17"/>
        <polygon class="cls-16" points="14.54 30.17 16.62 40.25 16.49 40.25 14.41 30.17 14.54 30.17"/>
        <polygon class="cls-74" points="14.67 30.17 16.74 40.25 16.62 40.25 14.54 30.17 14.67 30.17"/>
        <polygon class="cls-3" points="14.79 30.17 16.87 40.25 16.74 40.25 14.67 30.17 14.79 30.17"/>
        <polygon class="cls-66" points="14.92 30.17 17 40.25 16.87 40.25 14.79 30.17 14.92 30.17"/>
        <polygon class="cls-30" points="15.05 30.17 17.12 40.25 17 40.25 14.92 30.17 15.05 30.17"/>
        <polygon class="cls-87" points="15.17 30.17 17.25 40.25 17.12 40.25 15.05 30.17 15.17 30.17"/>
        <polygon class="cls-61" points="15.3 30.17 17.38 40.25 17.25 40.25 15.17 30.17 15.3 30.17"/>
        <polygon class="cls-21" points="15.43 30.17 17.5 40.25 17.38 40.25 15.3 30.17 15.43 30.17"/>
        <polygon class="cls-115" points="15.55 30.17 17.63 40.25 17.5 40.25 15.43 30.17 15.55 30.17"/>
        <polygon class="cls-84" points="15.68 30.17 17.76 40.25 17.63 40.25 15.55 30.17 15.68 30.17"/>
        <polygon class="cls-58" points="15.81 30.17 17.89 40.25 17.76 40.25 15.68 30.17 15.81 30.17"/>
        <polygon class="cls-4" points="15.93 30.17 18.01 40.25 17.89 40.25 15.81 30.17 15.93 30.17"/>
        <polygon class="cls-99" points="16.06 30.17 18.14 40.25 18.01 40.25 15.93 30.17 16.06 30.17"/>
        <polygon class="cls-15" points="16.19 30.17 18.27 40.25 18.14 40.25 16.06 30.17 16.19 30.17"/>
        <polygon class="cls-125" points="16.32 30.17 18.39 40.25 18.27 40.25 16.19 30.17 16.32 30.17"/>
        <polygon class="cls-49" points="16.44 30.17 18.52 40.25 18.39 40.25 16.32 30.17 16.44 30.17"/>
        <polygon class="cls-39" points="16.57 30.17 18.65 40.25 18.52 40.25 16.44 30.17 16.57 30.17"/>
        <polygon class="cls-18" points="16.7 30.17 18.77 40.25 18.65 40.25 16.57 30.17 16.7 30.17"/>
        <polygon class="cls-152" points="16.82 30.17 18.9 40.25 18.77 40.25 16.7 30.17 16.82 30.17"/>
        <polygon class="cls-59" points="16.95 30.17 19.03 40.25 18.9 40.25 16.82 30.17 16.95 30.17"/>
        <polygon class="cls-104" points="17.08 30.17 19.15 40.25 19.03 40.25 16.95 30.17 17.08 30.17"/>
        <polygon class="cls-60" points="17.2 30.17 19.28 40.25 19.15 40.25 17.08 30.17 17.2 30.17"/>
        <polygon class="cls-69" points="17.33 30.17 19.41 40.25 19.28 40.25 17.2 30.17 17.33 30.17"/>
        <polygon class="cls-32" points="17.46 30.17 19.53 40.25 19.41 40.25 17.33 30.17 17.46 30.17"/>
        <polygon class="cls-127" points="17.58 30.17 19.66 40.25 19.53 40.25 17.46 30.17 17.58 30.17"/>
        <polygon class="cls-111" points="17.71 30.17 19.79 40.25 19.66 40.25 17.58 30.17 17.71 30.17"/>
        <polygon class="cls-148" points="17.84 30.17 19.91 40.25 19.79 40.25 17.71 30.17 17.84 30.17"/>
        <polygon class="cls-14" points="17.96 30.17 20.04 40.25 19.91 40.25 17.84 30.17 17.96 30.17"/>
        <polygon class="cls-33" points="18.09 30.17 20.17 40.25 20.04 40.25 17.96 30.17 18.09 30.17"/>
        <polygon class="cls-110" points="18.22 30.17 20.29 40.25 20.17 40.25 18.09 30.17 18.22 30.17"/>
        <polygon class="cls-113" points="18.34 30.17 20.42 40.25 20.29 40.25 18.22 30.17 18.34 30.17"/>
        <polygon class="cls-11" points="18.47 30.17 20.55 40.25 20.42 40.25 18.34 30.17 18.47 30.17"/>
        <polygon class="cls-48" points="18.6 30.17 20.68 40.25 20.55 40.25 18.47 30.17 18.6 30.17"/>
        <polygon class="cls-85" points="18.72 30.17 20.8 40.25 20.68 40.25 18.6 30.17 18.72 30.17"/>
        <polygon class="cls-85" points="20.8 40.25 18.72 30.17 28.03 30.17 28.03 40.25 20.8 40.25"/>
      </g>
      <g class="cls-157">
        <polygon class="cls-150" points="17.37 20.41 16.34 20.62 16.34 20.41 17.37 20.41"/>
        <polygon class="cls-150" points="17.99 20.41 16.34 20.75 16.34 20.62 17.37 20.41 17.99 20.41"/>
        <polygon class="cls-97" points="18.61 20.41 16.34 20.87 16.34 20.75 17.99 20.41 18.61 20.41"/>
        <polygon class="cls-93" points="19.22 20.41 16.34 21 16.34 20.87 18.61 20.41 19.22 20.41"/>
        <polygon class="cls-109" points="19.84 20.41 16.34 21.13 16.34 21 19.22 20.41 19.84 20.41"/>
        <polygon class="cls-137" points="20.45 20.41 16.34 21.25 16.34 21.13 19.84 20.41 20.45 20.41"/>
        <polygon class="cls-144" points="21.07 20.41 16.34 21.38 16.34 21.25 20.45 20.41 21.07 20.41"/>
        <polygon class="cls-140" points="21.69 20.41 16.34 21.51 16.34 21.38 21.07 20.41 21.69 20.41"/>
        <polygon class="cls-72" points="22.3 20.41 16.34 21.63 16.34 21.51 21.69 20.41 22.3 20.41"/>
        <polygon class="cls-34" points="22.92 20.41 16.34 21.76 16.34 21.63 22.3 20.41 22.92 20.41"/>
        <polygon class="cls-77" points="23.54 20.41 16.34 21.89 16.34 21.76 22.92 20.41 23.54 20.41"/>
        <polygon class="cls-16" points="24.15 20.41 16.34 22.01 16.34 21.89 23.54 20.41 24.15 20.41"/>
        <polygon class="cls-74" points="24.77 20.41 16.34 22.14 16.34 22.01 24.15 20.41 24.77 20.41"/>
        <polygon class="cls-3" points="25.38 20.41 16.34 22.27 16.34 22.14 24.77 20.41 25.38 20.41"/>
        <polygon class="cls-66" points="26 20.41 16.34 22.39 16.34 22.27 25.38 20.41 26 20.41"/>
        <polygon class="cls-30" points="26.62 20.41 16.34 22.52 16.34 22.39 26 20.41 26.62 20.41"/>
        <polygon class="cls-87" points="27.23 20.41 16.34 22.65 16.34 22.52 26.62 20.41 27.23 20.41"/>
        <polygon class="cls-61" points="27.85 20.41 16.34 22.77 16.34 22.65 27.23 20.41 27.85 20.41"/>
        <polygon class="cls-21" points="28.47 20.41 16.34 22.9 16.34 22.77 27.85 20.41 28.47 20.41"/>
        <polygon class="cls-115" points="28.77 20.47 16.34 23.03 16.34 22.9 28.47 20.41 28.77 20.41 28.77 20.47"/>
        <polygon class="cls-84" points="28.77 20.6 16.34 23.15 16.34 23.03 28.77 20.47 28.77 20.6"/>
        <polygon class="cls-58" points="28.77 20.72 16.34 23.28 16.34 23.15 28.77 20.6 28.77 20.72"/>
        <polygon class="cls-4" points="28.77 20.85 16.34 23.41 16.34 23.28 28.77 20.72 28.77 20.85"/>
        <polygon class="cls-99" points="28.77 20.98 16.34 23.54 16.34 23.41 28.77 20.85 28.77 20.98"/>
        <polygon class="cls-15" points="28.77 21.11 16.34 23.66 16.34 23.54 28.77 20.98 28.77 21.11"/>
        <polygon class="cls-125" points="28.77 21.23 16.34 23.79 16.34 23.66 28.77 21.11 28.77 21.23"/>
        <polygon class="cls-49" points="28.77 21.36 16.34 23.92 16.34 23.79 28.77 21.23 28.77 21.36"/>
        <polygon class="cls-39" points="28.77 21.49 16.34 24.04 16.34 23.92 28.77 21.36 28.77 21.49"/>
        <polygon class="cls-18" points="28.77 21.61 16.34 24.17 16.34 24.04 28.77 21.49 28.77 21.61"/>
        <polygon class="cls-152" points="28.77 21.74 16.34 24.3 16.34 24.17 28.77 21.61 28.77 21.74"/>
        <polygon class="cls-59" points="28.77 21.87 16.34 24.42 16.34 24.3 28.77 21.74 28.77 21.87"/>
        <polygon class="cls-104" points="28.77 21.99 16.34 24.55 16.34 24.42 28.77 21.87 28.77 21.99"/>
        <polygon class="cls-60" points="28.77 22.12 16.34 24.68 16.34 24.55 28.77 21.99 28.77 22.12"/>
        <polygon class="cls-69" points="28.77 22.25 16.34 24.8 16.34 24.68 28.77 22.12 28.77 22.25"/>
        <polygon class="cls-32" points="28.77 22.37 16.34 24.93 16.34 24.8 28.77 22.25 28.77 22.37"/>
        <polygon class="cls-127" points="28.77 22.5 16.34 25.06 16.34 24.93 28.77 22.37 28.77 22.5"/>
        <polygon class="cls-111" points="28.77 22.63 16.34 25.18 16.34 25.06 28.77 22.5 28.77 22.63"/>
        <polygon class="cls-148" points="28.77 22.75 16.34 25.31 16.34 25.18 28.77 22.63 28.77 22.75"/>
        <polygon class="cls-14" points="28.77 22.88 16.34 25.44 16.34 25.31 28.77 22.75 28.77 22.88"/>
        <polygon class="cls-33" points="28.77 23.01 16.34 25.56 16.34 25.44 28.77 22.88 28.77 23.01"/>
        <polygon class="cls-110" points="28.77 23.13 16.34 25.69 16.34 25.56 28.77 23.01 28.77 23.13"/>
        <polygon class="cls-113" points="28.77 23.26 16.34 25.82 16.34 25.69 28.77 23.13 28.77 23.26"/>
        <polygon class="cls-11" points="28.77 23.39 16.34 25.95 16.34 25.82 28.77 23.26 28.77 23.39"/>
        <polygon class="cls-48" points="28.77 23.52 16.34 26.07 16.34 25.95 28.77 23.39 28.77 23.52"/>
        <polygon class="cls-85" points="28.77 23.64 16.34 26.2 16.34 26.07 28.77 23.52 28.77 23.64"/>
        <polygon class="cls-85" points="16.34 26.2 28.77 23.64 28.77 32.05 16.34 32.05 16.34 26.2"/>
      </g>
      <g class="cls-159">
        <polygon class="cls-90" points="10.98 26.69 10.51 30.48 10.51 26.69 10.98 26.69"/>
        <polygon class="cls-90" points="11.13 26.69 10.51 31.7 10.51 30.48 10.98 26.69 11.13 26.69"/>
        <polygon class="cls-10" points="11.28 26.69 10.51 32.91 10.51 31.7 11.13 26.69 11.28 26.69"/>
        <polygon class="cls-56" points="11.43 26.69 10.51 34.13 10.51 32.91 11.28 26.69 11.43 26.69"/>
        <polygon class="cls-42" points="11.58 26.69 10.62 34.46 10.51 34.46 10.51 34.13 11.43 26.69 11.58 26.69"/>
        <polygon class="cls-47" points="11.73 26.69 10.77 34.46 10.62 34.46 11.58 26.69 11.73 26.69"/>
        <polygon class="cls-124" points="11.87 26.69 10.92 34.46 10.77 34.46 11.73 26.69 11.87 26.69"/>
        <polygon class="cls-128" points="12.02 26.69 11.07 34.46 10.92 34.46 11.87 26.69 12.02 26.69"/>
        <polygon class="cls-19" points="12.17 26.69 11.22 34.46 11.07 34.46 12.02 26.69 12.17 26.69"/>
        <polygon class="cls-12" points="12.32 26.69 11.37 34.46 11.22 34.46 12.17 26.69 12.32 26.69"/>
        <polygon class="cls-91" points="12.47 26.69 11.52 34.46 11.37 34.46 12.32 26.69 12.47 26.69"/>
        <polygon class="cls-114" points="12.62 26.69 11.67 34.46 11.52 34.46 12.47 26.69 12.62 26.69"/>
        <polygon class="cls-134" points="12.77 26.69 11.82 34.46 11.67 34.46 12.62 26.69 12.77 26.69"/>
        <polygon class="cls-102" points="12.92 26.69 11.97 34.46 11.82 34.46 12.77 26.69 12.92 26.69"/>
        <polygon class="cls-131" points="13.07 26.69 12.12 34.46 11.97 34.46 12.92 26.69 13.07 26.69"/>
        <polygon class="cls-23" points="13.22 26.69 12.27 34.46 12.12 34.46 13.07 26.69 13.22 26.69"/>
        <polygon class="cls-22" points="13.37 26.69 12.41 34.46 12.27 34.46 13.22 26.69 13.37 26.69"/>
        <polygon class="cls-100" points="13.52 26.69 12.56 34.46 12.41 34.46 13.37 26.69 13.52 26.69"/>
        <polygon class="cls-145" points="13.67 26.69 12.71 34.46 12.56 34.46 13.52 26.69 13.67 26.69"/>
        <polygon class="cls-146" points="13.82 26.69 12.86 34.46 12.71 34.46 13.67 26.69 13.82 26.69"/>
        <polygon class="cls-70" points="13.97 26.69 13.01 34.46 12.86 34.46 13.82 26.69 13.97 26.69"/>
        <polygon class="cls-122" points="14.12 26.69 13.16 34.46 13.01 34.46 13.97 26.69 14.12 26.69"/>
        <polygon class="cls-37" points="14.26 26.69 13.31 34.46 13.16 34.46 14.12 26.69 14.26 26.69"/>
        <polygon class="cls-96" points="14.41 26.69 13.46 34.46 13.31 34.46 14.26 26.69 14.41 26.69"/>
        <polygon class="cls-43" points="14.56 26.69 13.61 34.46 13.46 34.46 14.41 26.69 14.56 26.69"/>
        <polygon class="cls-132" points="14.71 26.69 13.76 34.46 13.61 34.46 14.56 26.69 14.71 26.69"/>
        <polygon class="cls-27" points="14.86 26.69 13.91 34.46 13.76 34.46 14.71 26.69 14.86 26.69"/>
        <polygon class="cls-147" points="15.01 26.69 14.06 34.46 13.91 34.46 14.86 26.69 15.01 26.69"/>
        <polygon class="cls-118" points="15.16 26.69 14.21 34.46 14.06 34.46 15.01 26.69 15.16 26.69"/>
        <polygon class="cls-50" points="15.31 26.69 14.36 34.46 14.21 34.46 15.16 26.69 15.31 26.69"/>
        <polygon class="cls-44" points="15.46 26.69 14.51 34.46 14.36 34.46 15.31 26.69 15.46 26.69"/>
        <polygon class="cls-123" points="15.61 26.69 14.65 34.46 14.51 34.46 15.46 26.69 15.61 26.69"/>
        <polygon class="cls-71" points="15.76 26.69 14.8 34.46 14.65 34.46 15.61 26.69 15.76 26.69"/>
        <polygon class="cls-120" points="15.91 26.69 14.95 34.46 14.8 34.46 15.76 26.69 15.91 26.69"/>
        <polygon class="cls-101" points="16.06 26.69 15.1 34.46 14.95 34.46 15.91 26.69 16.06 26.69"/>
        <polygon class="cls-138" points="16.21 26.69 15.25 34.46 15.1 34.46 16.06 26.69 16.21 26.69"/>
        <polygon class="cls-94" points="16.36 26.69 15.4 34.46 15.25 34.46 16.21 26.69 16.36 26.69"/>
        <polygon class="cls-133" points="16.5 26.69 15.55 34.46 15.4 34.46 16.36 26.69 16.5 26.69"/>
        <polygon class="cls-55" points="16.65 26.69 15.7 34.46 15.55 34.46 16.5 26.69 16.65 26.69"/>
        <polygon class="cls-141" points="16.8 26.69 15.85 34.46 15.7 34.46 16.65 26.69 16.8 26.69"/>
        <polygon class="cls-65" points="16.95 26.69 16 34.46 15.85 34.46 16.8 26.69 16.95 26.69"/>
        <polygon class="cls-98" points="17.1 26.69 16.15 34.46 16 34.46 16.95 26.69 17.1 26.69"/>
        <polygon class="cls-117" points="17.25 26.69 16.3 34.46 16.15 34.46 17.1 26.69 17.25 26.69"/>
        <polygon class="cls-79" points="17.4 26.69 16.45 34.46 16.3 34.46 17.25 26.69 17.4 26.69"/>
        <polygon class="cls-64" points="17.55 26.69 16.6 34.46 16.45 34.46 17.4 26.69 17.55 26.69"/>
        <polygon class="cls-36" points="17.7 26.69 16.75 34.46 16.6 34.46 17.55 26.69 17.7 26.69"/>
        <polygon class="cls-24" points="17.85 26.69 16.9 34.46 16.75 34.46 17.7 26.69 17.85 26.69"/>
        <polygon class="cls-31" points="18 26.69 17.04 34.46 16.9 34.46 17.85 26.69 18 26.69"/>
        <polygon class="cls-105" points="18.15 26.69 17.19 34.46 17.04 34.46 18 26.69 18.15 26.69"/>
        <polygon class="cls-63" points="18.3 26.69 17.34 34.46 17.19 34.46 18.15 26.69 18.3 26.69"/>
        <polygon class="cls-136" points="18.45 26.69 17.49 34.46 17.34 34.46 18.3 26.69 18.45 26.69"/>
        <polygon class="cls-130" points="18.6 26.69 17.64 34.46 17.49 34.46 18.45 26.69 18.6 26.69"/>
        <polygon class="cls-143" points="18.75 26.69 17.79 34.46 17.64 34.46 18.6 26.69 18.75 26.69"/>
        <polygon class="cls-68" points="18.89 26.69 17.94 34.46 17.79 34.46 18.75 26.69 18.89 26.69"/>
        <polygon class="cls-106" points="19.04 26.69 18.09 34.46 17.94 34.46 18.89 26.69 19.04 26.69"/>
        <polygon class="cls-13" points="19.19 26.69 18.24 34.46 18.09 34.46 19.04 26.69 19.19 26.69"/>
        <polygon class="cls-135" points="19.34 26.69 18.39 34.46 18.24 34.46 19.19 26.69 19.34 26.69"/>
        <polygon class="cls-150" points="19.49 26.69 18.54 34.46 18.39 34.46 19.34 26.69 19.49 26.69"/>
        <polygon class="cls-150" points="18.54 34.46 19.49 26.69 25.21 26.69 25.21 34.46 18.54 34.46"/>
      </g>
    </g>
    <g class="cls-158">
      <polygon class="cls-29" points="24.91 21.98 23.08 42.01 20.15 42.01 20.15 21.98 24.91 21.98"/>
      <polygon class="cls-29" points="25.27 21.98 23.45 42.01 23.08 42.01 24.91 21.98 25.27 21.98"/>
      <polygon class="cls-78" points="25.64 21.98 23.82 42.01 23.45 42.01 25.27 21.98 25.64 21.98"/>
      <polygon class="cls-73" points="26.01 21.98 24.19 42.01 23.82 42.01 25.64 21.98 26.01 21.98"/>
      <polygon class="cls-95" points="26.38 21.98 24.56 42.01 24.19 42.01 26.01 21.98 26.38 21.98"/>
      <polygon class="cls-57" points="26.75 21.98 24.92 42.01 24.56 42.01 26.38 21.98 26.75 21.98"/>
      <polygon class="cls-38" points="27.12 21.98 25.29 42.01 24.92 42.01 26.75 21.98 27.12 21.98"/>
      <polygon class="cls-107" points="27.48 21.98 25.66 42.01 25.29 42.01 27.12 21.98 27.48 21.98"/>
      <polygon class="cls-26" points="27.85 21.98 26.03 42.01 25.66 42.01 27.48 21.98 27.85 21.98"/>
      <polygon class="cls-83" points="28.22 21.98 26.4 42.01 26.03 42.01 27.85 21.98 28.22 21.98"/>
      <polygon class="cls-116" points="28.59 21.98 26.76 42.01 26.4 42.01 28.22 21.98 28.59 21.98"/>
      <polygon class="cls-67" points="28.96 21.98 27.13 42.01 26.76 42.01 28.59 21.98 28.96 21.98"/>
      <polygon class="cls-142" points="29.32 21.98 27.5 42.01 27.13 42.01 28.96 21.98 29.32 21.98"/>
      <polygon class="cls-51" points="29.69 21.98 27.87 42.01 27.5 42.01 29.32 21.98 29.69 21.98"/>
      <polygon class="cls-129" points="30.06 21.98 28.24 42.01 27.87 42.01 29.69 21.98 30.06 21.98"/>
      <polygon class="cls-7" points="30.43 21.98 28.6 42.01 28.24 42.01 30.06 21.98 30.43 21.98"/>
      <polygon class="cls-41" points="30.8 21.98 28.97 42.01 28.6 42.01 30.43 21.98 30.8 21.98"/>
      <polygon class="cls-75" points="31.16 21.98 29.34 42.01 28.97 42.01 30.8 21.98 31.16 21.98"/>
      <polygon class="cls-28" points="31.53 21.98 29.71 42.01 29.34 42.01 31.16 21.98 31.53 21.98"/>
      <polygon class="cls-17" points="31.9 21.98 30.08 42.01 29.71 42.01 31.53 21.98 31.9 21.98"/>
      <polygon class="cls-121" points="32.27 21.98 30.45 42.01 30.08 42.01 31.9 21.98 32.27 21.98"/>
      <polygon class="cls-40" points="32.64 21.98 30.81 42.01 30.45 42.01 32.27 21.98 32.64 21.98"/>
      <polygon class="cls-81" points="33 21.98 31.18 42.01 30.81 42.01 32.64 21.98 33 21.98"/>
      <polygon class="cls-119" points="33.37 21.98 31.55 42.01 31.18 42.01 33 21.98 33.37 21.98"/>
      <polygon class="cls-25" points="33.74 21.98 31.92 42.01 31.55 42.01 33.37 21.98 33.74 21.98"/>
      <polygon class="cls-9" points="34.11 21.98 32.29 42.01 31.92 42.01 33.74 21.98 34.11 21.98"/>
      <polygon class="cls-89" points="34.48 21.98 32.65 42.01 32.29 42.01 34.11 21.98 34.48 21.98"/>
      <polygon class="cls-139" points="34.85 21.98 33.02 42.01 32.65 42.01 34.48 21.98 34.85 21.98"/>
      <polygon class="cls-45" points="35.21 21.98 33.39 42.01 33.02 42.01 34.85 21.98 35.21 21.98"/>
      <polygon class="cls-153" points="35.58 21.98 33.76 42.01 33.39 42.01 35.21 21.98 35.58 21.98"/>
      <polygon class="cls-80" points="35.95 21.98 34.13 42.01 33.76 42.01 35.58 21.98 35.95 21.98"/>
      <polygon class="cls-82" points="36.32 21.98 34.49 42.01 34.13 42.01 35.95 21.98 36.32 21.98"/>
      <polygon class="cls-92" points="36.69 21.98 34.86 42.01 34.49 42.01 36.32 21.98 36.69 21.98"/>
      <polygon class="cls-62" points="37.05 21.98 35.23 42.01 34.86 42.01 36.69 21.98 37.05 21.98"/>
      <polygon class="cls-103" points="37.42 21.98 35.6 42.01 35.23 42.01 37.05 21.98 37.42 21.98"/>
      <polygon class="cls-54" points="37.79 21.98 35.97 42.01 35.6 42.01 37.42 21.98 37.79 21.98"/>
      <polygon class="cls-6" points="38.16 21.98 36.34 42.01 35.97 42.01 37.79 21.98 38.16 21.98"/>
      <polygon class="cls-8" points="38.53 21.98 36.7 42.01 36.34 42.01 38.16 21.98 38.53 21.98"/>
      <polygon class="cls-52" points="38.89 21.98 37.07 42.01 36.7 42.01 38.53 21.98 38.89 21.98"/>
      <polygon class="cls-112" points="39.26 21.98 37.44 42.01 37.07 42.01 38.89 21.98 39.26 21.98"/>
      <polygon class="cls-5" points="39.63 21.98 37.81 42.01 37.44 42.01 39.26 21.98 39.63 21.98"/>
      <polygon class="cls-46" points="40 21.98 38.18 42.01 37.81 42.01 39.63 21.98 40 21.98"/>
      <polygon class="cls-149" points="40.37 21.98 38.54 42.01 38.18 42.01 40 21.98 40.37 21.98"/>
      <polygon class="cls-151" points="40.74 21.98 38.91 42.01 38.54 42.01 40.37 21.98 40.74 21.98"/>
      <polygon class="cls-35" points="41.1 21.98 39.28 42.01 38.91 42.01 40.74 21.98 41.1 21.98"/>
      <polygon class="cls-53" points="41.47 21.98 39.65 42.01 39.28 42.01 41.1 21.98 41.47 21.98"/>
      <polygon class="cls-86" points="41.84 21.98 40.02 42.01 39.65 42.01 41.47 21.98 41.84 21.98"/>
      <polygon class="cls-126" points="42.21 21.98 40.38 42.01 40.02 42.01 41.84 21.98 42.21 21.98"/>
      <polygon class="cls-108" points="42.3 24.99 40.75 42.01 40.38 42.01 42.21 21.98 42.3 21.98 42.3 24.99"/>
      <polygon class="cls-88" points="42.3 29.04 41.12 42.01 40.75 42.01 42.3 24.99 42.3 29.04"/>
      <polygon class="cls-2" points="42.3 33.08 41.49 42.01 41.12 42.01 42.3 29.04 42.3 33.08"/>
      <polygon class="cls-2" points="41.49 42.01 42.3 33.08 42.3 42.01 41.49 42.01"/>
    </g>
    <ellipse class="cls-156" cx="31.26" cy="26.94" rx=".67" ry="1.43"/>
    <ellipse class="cls-156" cx="30.86" cy="37.45" rx="1.43" ry=".67" transform="translate(-10.07 63.52) rotate(-83)"/>
    <g>
      <path d="M31.67,32.31c0,.09,0,.19-.02.28-.07.62-.34,1.09-.79,1.4-.09.06-.22.04-.28-.05-.06-.09-.04-.22.05-.28.36-.24.56-.6.62-1.11.06-.51-.07-.95-.38-1.34-.07-.09-.06-.21.03-.28s.21-.06.28.03c.32.4.49.86.49,1.36Z"/>
      <path class="cls-76" d="M27.56,36.62c-.01-.39.13-.76.38-1.03.25-.27.6-.44,1-.45s.76.13,1.03.38c.27.25.44.6.45,1s-.13.76-.38,1.03c-.25.27-.6.44-1,.45s-.76-.13-1.03-.38c-.27-.25-.44-.6-.45-1Z"/>
      <path class="cls-20" d="M28.76,36.54c-.26,0-.46.22-.45.48s.22.46.48.45.46-.22.45-.48c0-.26-.22-.46-.48-.45Z"/>
      <path class="cls-76" d="M27.92,27.95c-.01-.39.13-.76.38-1.03.25-.27.6-.44,1-.45s.76.13,1.03.38c.27.25.44.6.45,1s-.13.76-.38,1.03c-.25.27-.6.44-1,.45s-.76-.13-1.03-.38c-.27-.25-.44-.6-.45-1Z"/>
      <g>
        <g>
          <path class="cls-154" d="M28.95,35.34c.68-.02,1.25.51,1.27,1.19s-.51,1.25-1.19,1.27-1.25-.51-1.27-1.19.51-1.25,1.19-1.27ZM28.93,34.94c-.9.03-1.6.79-1.57,1.69s.79,1.6,1.69,1.57,1.6-.79,1.57-1.69-.79-1.6-1.69-1.57Z"/>
          <path class="cls-154" d="M30.72,36.57c0,.44-.16.86-.46,1.18-.32.34-.74.53-1.2.55-.46.02-.9-.15-1.24-.46-.34-.32-.53-.74-.55-1.2-.02-.46.15-.9.46-1.24.32-.34.74-.53,1.2-.55h0c.95-.03,1.76.72,1.79,1.67,0,.02,0,.04,0,.06ZM27.46,36.57s0,.04,0,.05c.01.41.19.79.49,1.07.3.28.69.42,1.1.41.41-.01.79-.19,1.07-.49.28-.3.42-.69.41-1.1-.03-.84-.74-1.51-1.58-1.48h0c-.41.01-.79.19-1.07.49-.27.29-.41.65-.41,1.04ZM30.32,36.57c0,.34-.13.66-.36.91-.24.26-.57.41-.93.42-.36.01-.69-.11-.95-.36-.26-.24-.41-.57-.42-.93-.03-.73.55-1.35,1.28-1.38.36-.01.69.11.95.36.26.24.41.57.42.93,0,.02,0,.03,0,.05ZM27.86,36.57s0,.03,0,.04c.01.3.14.58.36.79.22.21.51.31.81.3.3-.01.58-.14.79-.36.21-.22.31-.51.3-.81-.01-.3-.14-.58-.36-.79-.22-.21-.51-.31-.81-.3-.61.02-1.09.52-1.09,1.13Z"/>
        </g>
        <g>
          <path class="cls-154" d="M29.31,26.67c.68-.02,1.25.51,1.27,1.19s-.51,1.25-1.19,1.27-1.25-.51-1.27-1.19.51-1.25,1.19-1.27ZM29.3,26.27c-.9.03-1.6.79-1.57,1.69s.79,1.6,1.69,1.57,1.6-.79,1.57-1.69-.79-1.6-1.69-1.57Z"/>
          <path class="cls-154" d="M31.08,27.9c0,.93-.74,1.7-1.67,1.73-.95.03-1.76-.72-1.79-1.67-.02-.46.15-.9.46-1.24.32-.34.74-.53,1.2-.55h0c.46-.02.9.15,1.24.46.34.32.53.74.55,1.2,0,.02,0,.04,0,.06ZM27.82,27.9s0,.04,0,.05c.03.84.74,1.51,1.58,1.48.84-.03,1.5-.74,1.48-1.58-.01-.41-.19-.79-.49-1.07-.3-.28-.69-.42-1.1-.41h0c-.41.01-.79.19-1.07.49-.27.29-.41.65-.41,1.04ZM30.68,27.9c0,.34-.13.66-.36.91-.24.26-.57.41-.93.42-.73.03-1.35-.55-1.38-1.28-.03-.73.55-1.35,1.28-1.38h0c.73-.03,1.35.55,1.38,1.28,0,.02,0,.03,0,.05ZM28.22,27.9s0,.03,0,.04c.02.62.55,1.11,1.17,1.09.3-.01.58-.14.79-.36.21-.22.31-.51.3-.81-.02-.62-.55-1.11-1.17-1.09-.61.02-1.09.52-1.09,1.13Z"/>
        </g>
        <path class="cls-20" d="M29.12,27.88c-.26,0-.46.22-.45.48s.22.46.48.45.46-.22.45-.48-.22-.46-.48-.45Z"/>
      </g>
    </g>
    <g>
      <g>
        <path class="cls-161" d="M39.57,34.66c0,.1-.04.19-.11.26l-5.12,4.92c-.15.14-.38.14-.52-.01-.14-.15-.14-.38.01-.52l5.12-4.92c.15-.14.38-.14.52.01.07.07.1.16.1.25Z"/>
        <path class="cls-161" d="M38.38,38.45c0,.09-.03.18-.1.25-.14.15-.37.15-.52.02l-3.33-3.13c-.15-.14-.15-.37-.02-.52.14-.15.37-.15.52-.02l3.33,3.13c.08.07.12.17.12.27Z"/>
      </g>
      <g>
        <path class="cls-161" d="M39.57,29.4c0,.09-.03.18-.1.25-.14.15-.37.15-.52.01l-5.12-4.92c-.15-.14-.15-.37-.01-.52.14-.15.37-.15.52-.01l5.12,4.92c.07.07.11.17.11.26Z"/>
        <path class="cls-161" d="M38.38,25.61c0,.1-.04.19-.12.27l-3.33,3.13c-.15.14-.38.13-.52-.02-.14-.15-.13-.38.02-.52l3.33-3.13c.15-.14.38-.13.52.02.07.07.1.16.1.25Z"/>
      </g>
      <g>
        <path class="cls-155" d="M26.4,33.26c0,.09-.04.19-.11.26-.14.14-.37.14-.52,0l-3.26-3.26c-.14-.14-.14-.37,0-.52.14-.14.37-.14.52,0l3.26,3.26c.07.07.11.17.11.26Z"/>
        <path class="cls-155" d="M26.4,30.66c0,.09-.04.19-.11.26l-3.26,3.26c-.14.14-.37.14-.52,0-.14-.14-.14-.37,0-.52l3.26-3.26c.14-.14.37-.14.52,0,.07.07.11.17.11.26Z"/>
      </g>
    </g>
  </g>
</svg>