<?xml version="1.0" encoding="UTF-8"?>
<svg id="Layer_1" xmlns="http://www.w3.org/2000/svg" xmlns:xlink="http://www.w3.org/1999/xlink" viewBox="0 0 64 64">
  <defs>
    <style>
      .cls-1 {
        fill: #52c25f;
      }

      .cls-1, .cls-2, .cls-3, .cls-4, .cls-5, .cls-6, .cls-7, .cls-8, .cls-9, .cls-10, .cls-11, .cls-12, .cls-13, .cls-14, .cls-15, .cls-16, .cls-17, .cls-18, .cls-19, .cls-20, .cls-21, .cls-22, .cls-23, .cls-24, .cls-25, .cls-26, .cls-27, .cls-28, .cls-29, .cls-30, .cls-31, .cls-32, .cls-33, .cls-34, .cls-35, .cls-36, .cls-37, .cls-38, .cls-39, .cls-40, .cls-41, .cls-42, .cls-43, .cls-44, .cls-45, .cls-46, .cls-47, .cls-48, .cls-49, .cls-50, .cls-51, .cls-52, .cls-53, .cls-54, .cls-55, .cls-56, .cls-57, .cls-58, .cls-59, .cls-60, .cls-61, .cls-62, .cls-63, .cls-64, .cls-65, .cls-66, .cls-67, .cls-68, .cls-69, .cls-70, .cls-71, .cls-72, .cls-73, .cls-74, .cls-75, .cls-76, .cls-77, .cls-78, .cls-79, .cls-80, .cls-81, .cls-82, .cls-83, .cls-84, .cls-85, .cls-86, .cls-87, .cls-88, .cls-89, .cls-90, .cls-91, .cls-92, .cls-93, .cls-94, .cls-95, .cls-96, .cls-97, .cls-98, .cls-99, .cls-100, .cls-101, .cls-102, .cls-103, .cls-104, .cls-105, .cls-106, .cls-107, .cls-108, .cls-109, .cls-110, .cls-111, .cls-112, .cls-113, .cls-114, .cls-115, .cls-116, .cls-117, .cls-118, .cls-119, .cls-120, .cls-121, .cls-122, .cls-123, .cls-124, .cls-125, .cls-126, .cls-127, .cls-128, .cls-129, .cls-130, .cls-131, .cls-132, .cls-133, .cls-134, .cls-135, .cls-136, .cls-137, .cls-138, .cls-139, .cls-140, .cls-141, .cls-142, .cls-143, .cls-144, .cls-145, .cls-146, .cls-147, .cls-148, .cls-149, .cls-150, .cls-151, .cls-152 {
        fill-rule: evenodd;
      }

      .cls-2 {
        fill: #52b95d;
      }

      .cls-3 {
        fill: #fc4;
      }

      .cls-4 {
        fill: #ffcf48;
      }

      .cls-5 {
        fill: #ffdc5e;
      }

      .cls-6 {
        fill: #ffce47;
      }

      .cls-7 {
        fill: #ffd654;
      }

      .cls-8 {
        fill: #89e99b;
      }

      .cls-9 {
        fill: #51a457;
      }

      .cls-10 {
        fill: #82e594;
      }

      .cls-11 {
        fill: #54cf65;
      }

      .cls-12 {
        fill: #51a858;
      }

      .cls-13 {
        fill: #51b65c;
      }

      .cls-14 {
        fill: #52c460;
      }

      .cls-15 {
        fill: #ffda5a;
      }

      .cls-16 {
        fill: #51b25b;
      }

      .cls-17 {
        fill: #83e695;
      }

      .cls-18, .cls-153 {
        fill: #fff;
      }

      .cls-19 {
        fill: #52bd5e;
      }

      .cls-20 {
        fill: #7be28d;
      }

      .cls-21 {
        fill: #7ce28e;
      }

      .cls-154, .cls-87 {
        fill: #ffc73b;
      }

      .cls-22 {
        fill: #5dd36e;
      }

      .cls-23 {
        fill: #ffd655;
      }

      .cls-24 {
        fill: #ffe165;
      }

      .cls-25 {
        fill: #71dd83;
      }

      .cls-26 {
        fill: #ffda5b;
      }

      .cls-27 {
        fill: #ffe56c;
      }

      .cls-28 {
        fill: #52c05f;
      }

      .cls-29 {
        fill: #5cd36d;
      }

      .cls-30 {
        fill: #51ac59;
      }

      .cls-31 {
        fill: #51a758;
      }

      .cls-32 {
        fill: #52c661;
      }

      .cls-33 {
        fill: #ffca40;
      }

      .cls-34 {
        fill: #5ed46f;
      }

      .cls-35 {
        fill: #75df87;
      }

      .cls-36 {
        fill: #ffe267;
      }

      .cls-37 {
        fill: #51b35b;
      }

      .cls-38 {
        fill: #ffd858;
      }

      .cls-39 {
        fill: #ffdc5d;
      }

      .cls-40 {
        fill: #87e899;
      }

      .cls-41 {
        fill: #73de85;
      }

      .cls-42 {
        fill: #6ddb7e;
      }

      .cls-43 {
        fill: #ffd450;
      }

      .cls-155 {
        fill: #eaadcc;
      }

      .cls-44 {
        fill: #ffcc43;
      }

      .cls-45 {
        fill: #86e798;
      }

      .cls-46 {
        fill: #51a356;
      }

      .cls-47 {
        fill: #51b45b;
      }

      .cls-48 {
        fill: #6edc80;
      }

      .cls-49 {
        fill: #ffdd60;
      }

      .cls-50 {
        fill: #ffce46;
      }

      .cls-51 {
        fill: #ffc93f;
      }

      .cls-52 {
        fill: #ffcf49;
      }

      .cls-53 {
        fill: #65d776;
      }

      .cls-54 {
        fill: #88e89a;
      }

      .cls-55 {
        fill: #ffe268;
      }

      .cls-56 {
        fill: #52ba5d;
      }

      .cls-57 {
        fill: #51b05a;
      }

      .cls-58 {
        fill: #51ae5a;
      }

      .cls-59 {
        fill: #52be5e;
      }

      .cls-60 {
        fill: #ffd14b;
      }

      .cls-61 {
        fill: #5ad26b;
      }

      .cls-62 {
        fill: #5fd470;
      }

      .cls-63 {
        fill: #63d674;
      }

      .cls-64 {
        fill: #52c15f;
      }

      .cls-65 {
        fill: #ffdf62;
      }

      .cls-66 {
        fill: #56d067;
      }

      .cls-67 {
        fill: #51ad59;
      }

      .cls-68 {
        fill: #77e089;
      }

      .cls-69 {
        fill: #6bda7c;
      }

      .cls-70 {
        fill: #52c761;
      }

      .cls-156 {
        clip-path: url(#clippath-3);
      }

      .cls-157 {
        clip-path: url(#clippath-4);
      }

      .cls-158 {
        clip-path: url(#clippath-2);
      }

      .cls-159 {
        clip-path: url(#clippath-5);
      }

      .cls-71 {
        fill: #ffe46a;
      }

      .cls-72 {
        fill: #52c360;
      }

      .cls-73 {
        fill: #ffdb5c;
      }

      .cls-75 {
        fill: #52c560;
      }

      .cls-76 {
        fill: #ffe46b;
      }

      .cls-77 {
        fill: #60d571;
      }

      .cls-78 {
        fill: #ffd34e;
      }

      .cls-79 {
        fill: #ffc63a;
      }

      .cls-80 {
        fill: #ffd857;
      }

      .cls-81 {
        fill: #ffd24d;
      }

      .cls-82 {
        fill: #ffe064;
      }

      .cls-83 {
        fill: #52bb5d;
      }

      .cls-84 {
        fill: #51a256;
      }

      .cls-85 {
        fill: #ffc93e;
      }

      .cls-86 {
        fill: #52bf5e;
      }

      .cls-160 {
        clip-rule: evenodd;
        fill: none;
      }

      .cls-88 {
        fill: #ffd552;
      }

      .cls-89 {
        fill: #8ae99c;
      }

      .cls-90 {
        fill: #81e593;
      }

      .cls-91 {
        fill: #ffd14c;
      }

      .cls-92 {
        fill: #52cc62;
      }

      .cls-93 {
        fill: #67d878;
      }

      .cls-94 {
        fill: #ffe369;
      }

      .cls-95 {
        fill: #74de86;
      }

      .cls-96 {
        fill: #52cd63;
      }

      .cls-97 {
        fill: #62d673;
      }

      .cls-98 {
        fill: #51b75c;
      }

      .cls-99 {
        fill: #7ae18c;
      }

      .cls-100 {
        fill: #69d97a;
      }

      .cls-101 {
        fill: #7ee390;
      }

      .cls-102 {
        fill: #ffd04a;
      }

      .cls-103 {
        fill: #51af5a;
      }

      .cls-104 {
        fill: #5bd26c;
      }

      .cls-105 {
        fill: #55cf66;
      }

      .cls-106 {
        fill: #ffe166;
      }

      .cls-107 {
        fill: #ffc73c;
      }

      .cls-108 {
        fill: #52cb62;
      }

      .cls-109 {
        fill: #51a657;
      }

      .cls-110 {
        fill: #51aa58;
      }

      .cls-111 {
        fill: #ffcd45;
      }

      .cls-112 {
        fill: #51a557;
      }

      .cls-113 {
        fill: #80e492;
      }

      .cls-114 {
        fill: #52bc5e;
      }

      .cls-115 {
        fill: #ffdf63;
      }

      .cls-116 {
        fill: #61d572;
      }

      .cls-117 {
        fill: #6fdc81;
      }

      .cls-118 {
        fill: #ffd756;
      }

      .cls-119 {
        fill: #6ada7b;
      }

      .cls-120 {
        fill: #ffd959;
      }

      .cls-121 {
        fill: #76df88;
      }

      .cls-122 {
        fill: #6cdb7d;
      }

      .cls-123 {
        fill: #85e797;
      }

      .cls-124 {
        fill: #51b55c;
      }

      .cls-125 {
        fill: #ffc83d;
      }

      .cls-126 {
        fill: #51ab59;
      }

      .cls-127 {
        fill: #84e696;
      }

      .cls-128 {
        fill: #ffdd5f;
      }

      .cls-129 {
        fill: #58d169;
      }

      .cls-130 {
        fill: #7de38f;
      }

      .cls-131 {
        fill: #72dd84;
      }

      .cls-132 {
        fill: #66d877;
      }

      .cls-161 {
        fill: #ecb732;
      }

      .cls-133 {
        fill: #7fe491;
      }

      .cls-134 {
        fill: #53ce64;
      }

      .cls-135 {
        fill: #59d16a;
      }

      .cls-136 {
        fill: #52ca62;
      }

      .cls-137 {
        fill: #68d979;
      }

      .cls-138 {
        fill: #ffd551;
      }

      .cls-139 {
        fill: #52c861;
      }

      .cls-140 {
        fill: #64d775;
      }

      .cls-141 {
        fill: #ffde61;
      }

      .cls-142 {
        fill: #57d068;
      }

      .cls-143 {
        fill: #52c961;
      }

      .cls-144 {
        fill: #79e18b;
      }

      .cls-145 {
        fill: #78e08a;
      }

      .cls-146 {
        fill: #70dc82;
      }

      .cls-147 {
        fill: #51a958;
      }

      .cls-148 {
        fill: #ffcb42;
      }

      .cls-149 {
        fill: #52ce63;
      }

      .cls-150 {
        fill: #ffca41;
      }

      .cls-151 {
        fill: #51b15b;
      }

      .cls-152 {
        fill: #ffd34f;
      }
    </style>
    <clipPath id="clippath-2">
      <path class="cls-160" d="M31.67,30.73c2.15-2.05,1.49-4.58-.45-7.64-1.94-3.07-5.86-4.16-6.59-3.46s-.89,5.67,1.05,8.74c1.94,3.07,3.84,4.41,5.99,2.37h0Z"/>
    </clipPath>
    <clipPath id="clippath-3">
      <path class="cls-160" d="M33.53,31.02c1.59,2.5,3.71,1.59,6.34-.92s3.72-7.3,3.18-8.15c-.54-.85-4.65-.81-7.27,1.7s-3.83,4.87-2.24,7.37h0Z"/>
    </clipPath>
    <clipPath id="clippath-4">
      <path class="cls-160" d="M32.66,29.64c2.64.32,3.67-2.11,4.16-6.05s-1.51-8.1-2.41-8.21-3.91,3.44-4.39,7.38c-.48,3.94,0,6.56,2.64,6.89Z"/>
    </clipPath>
    <clipPath id="clippath-5">
      <path class="cls-160" d="M32,47.06c5.53,0,10.01-1.61,10.01-8.89s-4.48-13.26-10.01-13.26-10.01,5.98-10.01,13.26,4.48,8.89,10.01,8.89Z"/>
    </clipPath>
  </defs>
  <g>
    <g class="cls-158">
      <polygon class="cls-149" points="28.78 18.94 23.74 19.98 23.74 18.94 28.78 18.94"/>
      <polygon class="cls-149" points="29.4 18.94 23.74 20.1 23.74 19.98 28.78 18.94 29.4 18.94"/>
      <polygon class="cls-96" points="30.01 18.94 23.74 20.23 23.74 20.1 29.4 18.94 30.01 18.94"/>
      <polygon class="cls-92" points="30.63 18.94 23.74 20.36 23.74 20.23 30.01 18.94 30.63 18.94"/>
      <polygon class="cls-108" points="31.25 18.94 23.74 20.48 23.74 20.36 30.63 18.94 31.25 18.94"/>
      <polygon class="cls-136" points="31.86 18.94 23.74 20.61 23.74 20.48 31.25 18.94 31.86 18.94"/>
      <polygon class="cls-143" points="32.48 18.94 23.74 20.74 23.74 20.61 31.86 18.94 32.48 18.94"/>
      <polygon class="cls-139" points="33.09 18.94 23.74 20.86 23.74 20.74 32.48 18.94 33.09 18.94"/>
      <polygon class="cls-70" points="33.71 18.94 23.74 20.99 23.74 20.86 33.09 18.94 33.71 18.94"/>
      <polygon class="cls-32" points="33.82 19.04 23.74 21.12 23.74 20.99 33.71 18.94 33.82 18.94 33.82 19.04"/>
      <polygon class="cls-75" points="33.82 19.17 23.74 21.24 23.74 21.12 33.82 19.04 33.82 19.17"/>
      <polygon class="cls-14" points="33.82 19.29 23.74 21.37 23.74 21.24 33.82 19.17 33.82 19.29"/>
      <polygon class="cls-72" points="33.82 19.42 23.74 21.5 23.74 21.37 33.82 19.29 33.82 19.42"/>
      <polygon class="cls-1" points="33.82 19.55 23.74 21.62 23.74 21.5 33.82 19.42 33.82 19.55"/>
      <polygon class="cls-64" points="33.82 19.67 23.74 21.75 23.74 21.62 33.82 19.55 33.82 19.67"/>
      <polygon class="cls-28" points="33.82 19.8 23.74 21.88 23.74 21.75 33.82 19.67 33.82 19.8"/>
      <polygon class="cls-86" points="33.82 19.93 23.74 22 23.74 21.88 33.82 19.8 33.82 19.93"/>
      <polygon class="cls-59" points="33.82 20.05 23.74 22.13 23.74 22 33.82 19.93 33.82 20.05"/>
      <polygon class="cls-19" points="33.82 20.18 23.74 22.26 23.74 22.13 33.82 20.05 33.82 20.18"/>
      <polygon class="cls-114" points="33.82 20.31 23.74 22.39 23.74 22.26 33.82 20.18 33.82 20.31"/>
      <polygon class="cls-83" points="33.82 20.43 23.74 22.51 23.74 22.39 33.82 20.31 33.82 20.43"/>
      <polygon class="cls-56" points="33.82 20.56 23.74 22.64 23.74 22.51 33.82 20.43 33.82 20.56"/>
      <polygon class="cls-2" points="33.82 20.69 23.74 22.77 23.74 22.64 33.82 20.56 33.82 20.69"/>
      <polygon class="cls-98" points="33.82 20.82 23.74 22.89 23.74 22.77 33.82 20.69 33.82 20.82"/>
      <polygon class="cls-13" points="33.82 20.94 23.74 23.02 23.74 22.89 33.82 20.82 33.82 20.94"/>
      <polygon class="cls-124" points="33.82 21.07 23.74 23.15 23.74 23.02 33.82 20.94 33.82 21.07"/>
      <polygon class="cls-47" points="33.82 21.2 23.74 23.27 23.74 23.15 33.82 21.07 33.82 21.2"/>
      <polygon class="cls-37" points="33.82 21.32 23.74 23.4 23.74 23.27 33.82 21.2 33.82 21.32"/>
      <polygon class="cls-16" points="33.82 21.45 23.74 23.53 23.74 23.4 33.82 21.32 33.82 21.45"/>
      <polygon class="cls-151" points="33.82 21.58 23.74 23.65 23.74 23.53 33.82 21.45 33.82 21.58"/>
      <polygon class="cls-57" points="33.82 21.7 23.74 23.78 23.74 23.65 33.82 21.58 33.82 21.7"/>
      <polygon class="cls-103" points="33.82 21.83 23.74 23.91 23.74 23.78 33.82 21.7 33.82 21.83"/>
      <polygon class="cls-58" points="33.82 21.96 23.74 24.03 23.74 23.91 33.82 21.83 33.82 21.96"/>
      <polygon class="cls-67" points="33.82 22.08 23.74 24.16 23.74 24.03 33.82 21.96 33.82 22.08"/>
      <polygon class="cls-30" points="33.82 22.21 23.74 24.29 23.74 24.16 33.82 22.08 33.82 22.21"/>
      <polygon class="cls-126" points="33.82 22.34 23.74 24.41 23.74 24.29 33.82 22.21 33.82 22.34"/>
      <polygon class="cls-110" points="33.82 22.46 23.74 24.54 23.74 24.41 33.82 22.34 33.82 22.46"/>
      <polygon class="cls-147" points="33.82 22.59 23.74 24.67 23.74 24.54 33.82 22.46 33.82 22.59"/>
      <polygon class="cls-12" points="33.82 22.72 23.74 24.79 23.74 24.67 33.82 22.59 33.82 22.72"/>
      <polygon class="cls-31" points="33.82 22.84 23.74 24.92 23.74 24.79 33.82 22.72 33.82 22.84"/>
      <polygon class="cls-109" points="33.82 22.97 23.74 25.05 23.74 24.92 33.82 22.84 33.82 22.97"/>
      <polygon class="cls-112" points="33.82 23.1 23.74 25.18 23.74 25.05 33.82 22.97 33.82 23.1"/>
      <polygon class="cls-9" points="33.82 23.22 23.74 25.3 23.74 25.18 33.82 23.1 33.82 23.22"/>
      <polygon class="cls-46" points="33.82 23.35 23.74 25.43 23.74 25.3 33.82 23.22 33.82 23.35"/>
      <polygon class="cls-84" points="33.82 23.48 23.74 25.56 23.74 25.43 33.82 23.35 33.82 23.48"/>
      <polygon class="cls-84" points="23.74 25.56 33.82 23.48 33.82 32.78 23.74 32.78 23.74 25.56"/>
    </g>
    <g class="cls-156">
      <polygon class="cls-149" points="43.59 22.13 43.38 21.1 43.59 21.1 43.59 22.13"/>
      <polygon class="cls-149" points="43.59 22.74 43.25 21.1 43.38 21.1 43.59 22.13 43.59 22.74"/>
      <polygon class="cls-96" points="43.59 23.36 43.12 21.1 43.25 21.1 43.59 22.74 43.59 23.36"/>
      <polygon class="cls-92" points="43.59 23.98 43 21.1 43.12 21.1 43.59 23.36 43.59 23.98"/>
      <polygon class="cls-108" points="43.59 24.59 42.87 21.1 43 21.1 43.59 23.98 43.59 24.59"/>
      <polygon class="cls-136" points="43.59 25.21 42.74 21.1 42.87 21.1 43.59 24.59 43.59 25.21"/>
      <polygon class="cls-143" points="43.59 25.82 42.62 21.1 42.74 21.1 43.59 25.21 43.59 25.82"/>
      <polygon class="cls-139" points="43.59 26.44 42.49 21.1 42.62 21.1 43.59 25.82 43.59 26.44"/>
      <polygon class="cls-70" points="43.59 27.06 42.36 21.1 42.49 21.1 43.59 26.44 43.59 27.06"/>
      <polygon class="cls-32" points="43.59 27.67 42.24 21.1 42.36 21.1 43.59 27.06 43.59 27.67"/>
      <polygon class="cls-75" points="43.59 28.29 42.11 21.1 42.24 21.1 43.59 27.67 43.59 28.29"/>
      <polygon class="cls-14" points="43.59 28.91 41.98 21.1 42.11 21.1 43.59 28.29 43.59 28.91"/>
      <polygon class="cls-72" points="43.59 29.52 41.85 21.1 41.98 21.1 43.59 28.91 43.59 29.52"/>
      <polygon class="cls-1" points="43.59 30.14 41.73 21.1 41.85 21.1 43.59 29.52 43.59 30.14"/>
      <polygon class="cls-64" points="43.59 30.75 41.6 21.1 41.73 21.1 43.59 30.14 43.59 30.75"/>
      <polygon class="cls-28" points="43.59 31.37 41.47 21.1 41.6 21.1 43.59 30.75 43.59 31.37"/>
      <polygon class="cls-86" points="43.59 31.99 41.35 21.1 41.47 21.1 43.59 31.37 43.59 31.99"/>
      <polygon class="cls-59" points="43.59 32.6 41.22 21.1 41.35 21.1 43.59 31.99 43.59 32.6"/>
      <polygon class="cls-19" points="43.59 33.22 41.09 21.1 41.22 21.1 43.59 32.6 43.59 33.22"/>
      <polygon class="cls-114" points="43.52 33.52 40.97 21.1 41.09 21.1 43.59 33.22 43.59 33.52 43.52 33.52"/>
      <polygon class="cls-83" points="43.4 33.52 40.84 21.1 40.97 21.1 43.52 33.52 43.4 33.52"/>
      <polygon class="cls-56" points="43.27 33.52 40.71 21.1 40.84 21.1 43.4 33.52 43.27 33.52"/>
      <polygon class="cls-2" points="43.14 33.52 40.59 21.1 40.71 21.1 43.27 33.52 43.14 33.52"/>
      <polygon class="cls-98" points="43.02 33.52 40.46 21.1 40.59 21.1 43.14 33.52 43.02 33.52"/>
      <polygon class="cls-13" points="42.89 33.52 40.33 21.1 40.46 21.1 43.02 33.52 42.89 33.52"/>
      <polygon class="cls-124" points="42.76 33.52 40.21 21.1 40.33 21.1 42.89 33.52 42.76 33.52"/>
      <polygon class="cls-47" points="42.64 33.52 40.08 21.1 40.21 21.1 42.76 33.52 42.64 33.52"/>
      <polygon class="cls-37" points="42.51 33.52 39.95 21.1 40.08 21.1 42.64 33.52 42.51 33.52"/>
      <polygon class="cls-16" points="42.38 33.52 39.83 21.1 39.95 21.1 42.51 33.52 42.38 33.52"/>
      <polygon class="cls-151" points="42.26 33.52 39.7 21.1 39.83 21.1 42.38 33.52 42.26 33.52"/>
      <polygon class="cls-57" points="42.13 33.52 39.57 21.1 39.7 21.1 42.26 33.52 42.13 33.52"/>
      <polygon class="cls-103" points="42 33.52 39.45 21.1 39.57 21.1 42.13 33.52 42 33.52"/>
      <polygon class="cls-58" points="41.88 33.52 39.32 21.1 39.45 21.1 42 33.52 41.88 33.52"/>
      <polygon class="cls-67" points="41.75 33.52 39.19 21.1 39.32 21.1 41.88 33.52 41.75 33.52"/>
      <polygon class="cls-30" points="41.62 33.52 39.06 21.1 39.19 21.1 41.75 33.52 41.62 33.52"/>
      <polygon class="cls-126" points="41.49 33.52 38.94 21.1 39.06 21.1 41.62 33.52 41.49 33.52"/>
      <polygon class="cls-110" points="41.37 33.52 38.81 21.1 38.94 21.1 41.49 33.52 41.37 33.52"/>
      <polygon class="cls-147" points="41.24 33.52 38.68 21.1 38.81 21.1 41.37 33.52 41.24 33.52"/>
      <polygon class="cls-12" points="41.11 33.52 38.56 21.1 38.68 21.1 41.24 33.52 41.11 33.52"/>
      <polygon class="cls-31" points="40.99 33.52 38.43 21.1 38.56 21.1 41.11 33.52 40.99 33.52"/>
      <polygon class="cls-109" points="40.86 33.52 38.3 21.1 38.43 21.1 40.99 33.52 40.86 33.52"/>
      <polygon class="cls-112" points="40.73 33.52 38.18 21.1 38.3 21.1 40.86 33.52 40.73 33.52"/>
      <polygon class="cls-9" points="40.61 33.52 38.05 21.1 38.18 21.1 40.73 33.52 40.61 33.52"/>
      <polygon class="cls-46" points="40.48 33.52 37.92 21.1 38.05 21.1 40.61 33.52 40.48 33.52"/>
      <polygon class="cls-84" points="40.35 33.52 37.8 21.1 37.92 21.1 40.48 33.52 40.35 33.52"/>
      <polygon class="cls-84" points="37.8 21.1 40.35 33.52 31.94 33.52 31.94 21.1 37.8 21.1"/>
    </g>
    <g class="cls-157">
      <polygon class="cls-89" points="37.3 15.73 33.52 15.27 37.3 15.27 37.3 15.73"/>
      <polygon class="cls-89" points="37.3 15.88 32.3 15.27 33.52 15.27 37.3 15.73 37.3 15.88"/>
      <polygon class="cls-8" points="37.3 16.03 31.08 15.27 32.3 15.27 37.3 15.88 37.3 16.03"/>
      <polygon class="cls-54" points="37.3 16.18 29.87 15.27 31.08 15.27 37.3 16.03 37.3 16.18"/>
      <polygon class="cls-40" points="37.3 16.33 29.54 15.38 29.54 15.27 29.87 15.27 37.3 16.18 37.3 16.33"/>
      <polygon class="cls-45" points="37.3 16.48 29.54 15.52 29.54 15.38 37.3 16.33 37.3 16.48"/>
      <polygon class="cls-123" points="37.3 16.63 29.54 15.67 29.54 15.52 37.3 16.48 37.3 16.63"/>
      <polygon class="cls-127" points="37.3 16.78 29.54 15.82 29.54 15.67 37.3 16.63 37.3 16.78"/>
      <polygon class="cls-17" points="37.3 16.93 29.54 15.97 29.54 15.82 37.3 16.78 37.3 16.93"/>
      <polygon class="cls-10" points="37.3 17.08 29.54 16.12 29.54 15.97 37.3 16.93 37.3 17.08"/>
      <polygon class="cls-90" points="37.3 17.23 29.54 16.27 29.54 16.12 37.3 17.08 37.3 17.23"/>
      <polygon class="cls-113" points="37.3 17.37 29.54 16.42 29.54 16.27 37.3 17.23 37.3 17.37"/>
      <polygon class="cls-133" points="37.3 17.52 29.54 16.57 29.54 16.42 37.3 17.37 37.3 17.52"/>
      <polygon class="cls-101" points="37.3 17.67 29.54 16.72 29.54 16.57 37.3 17.52 37.3 17.67"/>
      <polygon class="cls-130" points="37.3 17.82 29.54 16.87 29.54 16.72 37.3 17.67 37.3 17.82"/>
      <polygon class="cls-21" points="37.3 17.97 29.54 17.02 29.54 16.87 37.3 17.82 37.3 17.97"/>
      <polygon class="cls-20" points="37.3 18.12 29.54 17.17 29.54 17.02 37.3 17.97 37.3 18.12"/>
      <polygon class="cls-99" points="37.3 18.27 29.54 17.32 29.54 17.17 37.3 18.12 37.3 18.27"/>
      <polygon class="cls-144" points="37.3 18.42 29.54 17.47 29.54 17.32 37.3 18.27 37.3 18.42"/>
      <polygon class="cls-145" points="37.3 18.57 29.54 17.62 29.54 17.47 37.3 18.42 37.3 18.57"/>
      <polygon class="cls-68" points="37.3 18.72 29.54 17.77 29.54 17.62 37.3 18.57 37.3 18.72"/>
      <polygon class="cls-121" points="37.3 18.87 29.54 17.91 29.54 17.77 37.3 18.72 37.3 18.87"/>
      <polygon class="cls-35" points="37.3 19.02 29.54 18.06 29.54 17.91 37.3 18.87 37.3 19.02"/>
      <polygon class="cls-95" points="37.3 19.17 29.54 18.21 29.54 18.06 37.3 19.02 37.3 19.17"/>
      <polygon class="cls-41" points="37.3 19.32 29.54 18.36 29.54 18.21 37.3 19.17 37.3 19.32"/>
      <polygon class="cls-131" points="37.3 19.47 29.54 18.51 29.54 18.36 37.3 19.32 37.3 19.47"/>
      <polygon class="cls-25" points="37.3 19.62 29.54 18.66 29.54 18.51 37.3 19.47 37.3 19.62"/>
      <polygon class="cls-146" points="37.3 19.76 29.54 18.81 29.54 18.66 37.3 19.62 37.3 19.76"/>
      <polygon class="cls-117" points="37.3 19.91 29.54 18.96 29.54 18.81 37.3 19.76 37.3 19.91"/>
      <polygon class="cls-48" points="37.3 20.06 29.54 19.11 29.54 18.96 37.3 19.91 37.3 20.06"/>
      <polygon class="cls-42" points="37.3 20.21 29.54 19.26 29.54 19.11 37.3 20.06 37.3 20.21"/>
      <polygon class="cls-122" points="37.3 20.36 29.54 19.41 29.54 19.26 37.3 20.21 37.3 20.36"/>
      <polygon class="cls-69" points="37.3 20.51 29.54 19.56 29.54 19.41 37.3 20.36 37.3 20.51"/>
      <polygon class="cls-119" points="37.3 20.66 29.54 19.71 29.54 19.56 37.3 20.51 37.3 20.66"/>
      <polygon class="cls-100" points="37.3 20.81 29.54 19.86 29.54 19.71 37.3 20.66 37.3 20.81"/>
      <polygon class="cls-137" points="37.3 20.96 29.54 20.01 29.54 19.86 37.3 20.81 37.3 20.96"/>
      <polygon class="cls-93" points="37.3 21.11 29.54 20.16 29.54 20.01 37.3 20.96 37.3 21.11"/>
      <polygon class="cls-132" points="37.3 21.26 29.54 20.3 29.54 20.16 37.3 21.11 37.3 21.26"/>
      <polygon class="cls-53" points="37.3 21.41 29.54 20.45 29.54 20.3 37.3 21.26 37.3 21.41"/>
      <polygon class="cls-140" points="37.3 21.56 29.54 20.6 29.54 20.45 37.3 21.41 37.3 21.56"/>
      <polygon class="cls-63" points="37.3 21.71 29.54 20.75 29.54 20.6 37.3 21.56 37.3 21.71"/>
      <polygon class="cls-97" points="37.3 21.86 29.54 20.9 29.54 20.75 37.3 21.71 37.3 21.86"/>
      <polygon class="cls-116" points="37.3 22.01 29.54 21.05 29.54 20.9 37.3 21.86 37.3 22.01"/>
      <polygon class="cls-77" points="37.3 22.15 29.54 21.2 29.54 21.05 37.3 22.01 37.3 22.15"/>
      <polygon class="cls-62" points="37.3 22.3 29.54 21.35 29.54 21.2 37.3 22.15 37.3 22.3"/>
      <polygon class="cls-34" points="37.3 22.45 29.54 21.5 29.54 21.35 37.3 22.3 37.3 22.45"/>
      <polygon class="cls-22" points="37.3 22.6 29.54 21.65 29.54 21.5 37.3 22.45 37.3 22.6"/>
      <polygon class="cls-29" points="37.3 22.75 29.54 21.8 29.54 21.65 37.3 22.6 37.3 22.75"/>
      <polygon class="cls-104" points="37.3 22.9 29.54 21.95 29.54 21.8 37.3 22.75 37.3 22.9"/>
      <polygon class="cls-61" points="37.3 23.05 29.54 22.1 29.54 21.95 37.3 22.9 37.3 23.05"/>
      <polygon class="cls-135" points="37.3 23.2 29.54 22.25 29.54 22.1 37.3 23.05 37.3 23.2"/>
      <polygon class="cls-129" points="37.3 23.35 29.54 22.4 29.54 22.25 37.3 23.2 37.3 23.35"/>
      <polygon class="cls-142" points="37.3 23.5 29.54 22.55 29.54 22.4 37.3 23.35 37.3 23.5"/>
      <polygon class="cls-66" points="37.3 23.65 29.54 22.69 29.54 22.55 37.3 23.5 37.3 23.65"/>
      <polygon class="cls-105" points="37.3 23.8 29.54 22.84 29.54 22.69 37.3 23.65 37.3 23.8"/>
      <polygon class="cls-11" points="37.3 23.95 29.54 22.99 29.54 22.84 37.3 23.8 37.3 23.95"/>
      <polygon class="cls-134" points="37.3 24.1 29.54 23.14 29.54 22.99 37.3 23.95 37.3 24.1"/>
      <polygon class="cls-149" points="37.3 24.25 29.54 23.29 29.54 23.14 37.3 24.1 37.3 24.25"/>
      <polygon class="cls-149" points="29.54 23.29 37.3 24.25 37.3 29.96 29.54 29.96 29.54 23.29"/>
    </g>
  </g>
  <g class="cls-159">
    <polygon class="cls-27" points="42.01 29.66 21.99 27.84 21.99 24.9 42.01 24.9 42.01 29.66"/>
    <polygon class="cls-27" points="42.01 30.03 21.99 28.2 21.99 27.84 42.01 29.66 42.01 30.03"/>
    <polygon class="cls-76" points="42.01 30.4 21.99 28.57 21.99 28.2 42.01 30.03 42.01 30.4"/>
    <polygon class="cls-71" points="42.01 30.76 21.99 28.94 21.99 28.57 42.01 30.4 42.01 30.76"/>
    <polygon class="cls-94" points="42.01 31.13 21.99 29.31 21.99 28.94 42.01 30.76 42.01 31.13"/>
    <polygon class="cls-55" points="42.01 31.5 21.99 29.68 21.99 29.31 42.01 31.13 42.01 31.5"/>
    <polygon class="cls-36" points="42.01 31.87 21.99 30.05 21.99 29.68 42.01 31.5 42.01 31.87"/>
    <polygon class="cls-106" points="42.01 32.24 21.99 30.41 21.99 30.05 42.01 31.87 42.01 32.24"/>
    <polygon class="cls-24" points="42.01 32.61 21.99 30.78 21.99 30.41 42.01 32.24 42.01 32.61"/>
    <polygon class="cls-82" points="42.01 32.97 21.99 31.15 21.99 30.78 42.01 32.61 42.01 32.97"/>
    <polygon class="cls-115" points="42.01 33.34 21.99 31.52 21.99 31.15 42.01 32.97 42.01 33.34"/>
    <polygon class="cls-65" points="42.01 33.71 21.99 31.89 21.99 31.52 42.01 33.34 42.01 33.71"/>
    <polygon class="cls-141" points="42.01 34.08 21.99 32.25 21.99 31.89 42.01 33.71 42.01 34.08"/>
    <polygon class="cls-49" points="42.01 34.45 21.99 32.62 21.99 32.25 42.01 34.08 42.01 34.45"/>
    <polygon class="cls-128" points="42.01 34.81 21.99 32.99 21.99 32.62 42.01 34.45 42.01 34.81"/>
    <polygon class="cls-5" points="42.01 35.18 21.99 33.36 21.99 32.99 42.01 34.81 42.01 35.18"/>
    <polygon class="cls-39" points="42.01 35.55 21.99 33.73 21.99 33.36 42.01 35.18 42.01 35.55"/>
    <polygon class="cls-73" points="42.01 35.92 21.99 34.09 21.99 33.73 42.01 35.55 42.01 35.92"/>
    <polygon class="cls-26" points="42.01 36.29 21.99 34.46 21.99 34.09 42.01 35.92 42.01 36.29"/>
    <polygon class="cls-15" points="42.01 36.65 21.99 34.83 21.99 34.46 42.01 36.29 42.01 36.65"/>
    <polygon class="cls-120" points="42.01 37.02 21.99 35.2 21.99 34.83 42.01 36.65 42.01 37.02"/>
    <polygon class="cls-38" points="42.01 37.39 21.99 35.57 21.99 35.2 42.01 37.02 42.01 37.39"/>
    <polygon class="cls-80" points="42.01 37.76 21.99 35.94 21.99 35.57 42.01 37.39 42.01 37.76"/>
    <polygon class="cls-118" points="42.01 38.13 21.99 36.3 21.99 35.94 42.01 37.76 42.01 38.13"/>
    <polygon class="cls-23" points="42.01 38.49 21.99 36.67 21.99 36.3 42.01 38.13 42.01 38.49"/>
    <polygon class="cls-7" points="42.01 38.86 21.99 37.04 21.99 36.67 42.01 38.49 42.01 38.86"/>
    <polygon class="cls-88" points="42.01 39.23 21.99 37.41 21.99 37.04 42.01 38.86 42.01 39.23"/>
    <polygon class="cls-138" points="42.01 39.6 21.99 37.78 21.99 37.41 42.01 39.23 42.01 39.6"/>
    <polygon class="cls-43" points="42.01 39.97 21.99 38.14 21.99 37.78 42.01 39.6 42.01 39.97"/>
    <polygon class="cls-152" points="42.01 40.34 21.99 38.51 21.99 38.14 42.01 39.97 42.01 40.34"/>
    <polygon class="cls-78" points="42.01 40.7 21.99 38.88 21.99 38.51 42.01 40.34 42.01 40.7"/>
    <polygon class="cls-81" points="42.01 41.07 21.99 39.25 21.99 38.88 42.01 40.7 42.01 41.07"/>
    <polygon class="cls-91" points="42.01 41.44 21.99 39.62 21.99 39.25 42.01 41.07 42.01 41.44"/>
    <polygon class="cls-60" points="42.01 41.81 21.99 39.98 21.99 39.62 42.01 41.44 42.01 41.81"/>
    <polygon class="cls-102" points="42.01 42.18 21.99 40.35 21.99 39.98 42.01 41.81 42.01 42.18"/>
    <polygon class="cls-52" points="42.01 42.54 21.99 40.72 21.99 40.35 42.01 42.18 42.01 42.54"/>
    <polygon class="cls-4" points="42.01 42.91 21.99 41.09 21.99 40.72 42.01 42.54 42.01 42.91"/>
    <polygon class="cls-6" points="42.01 43.28 21.99 41.46 21.99 41.09 42.01 42.91 42.01 43.28"/>
    <polygon class="cls-50" points="42.01 43.65 21.99 41.82 21.99 41.46 42.01 43.28 42.01 43.65"/>
    <polygon class="cls-111" points="42.01 44.02 21.99 42.19 21.99 41.82 42.01 43.65 42.01 44.02"/>
    <polygon class="cls-3" points="42.01 44.38 21.99 42.56 21.99 42.19 42.01 44.02 42.01 44.38"/>
    <polygon class="cls-44" points="42.01 44.75 21.99 42.93 21.99 42.56 42.01 44.38 42.01 44.75"/>
    <polygon class="cls-148" points="42.01 45.12 21.99 43.3 21.99 42.93 42.01 44.75 42.01 45.12"/>
    <polygon class="cls-150" points="42.01 45.49 21.99 43.67 21.99 43.3 42.01 45.12 42.01 45.49"/>
    <polygon class="cls-33" points="42.01 45.86 21.99 44.03 21.99 43.67 42.01 45.49 42.01 45.86"/>
    <polygon class="cls-51" points="42.01 46.23 21.99 44.4 21.99 44.03 42.01 45.86 42.01 46.23"/>
    <polygon class="cls-85" points="42.01 46.59 21.99 44.77 21.99 44.4 42.01 46.23 42.01 46.59"/>
    <polygon class="cls-125" points="42.01 46.96 21.99 45.14 21.99 44.77 42.01 46.59 42.01 46.96"/>
    <polygon class="cls-107" points="39 47.06 21.99 45.51 21.99 45.14 42.01 46.96 42.01 47.06 39 47.06"/>
    <polygon class="cls-87" points="34.96 47.06 21.99 45.87 21.99 45.51 39 47.06 34.96 47.06"/>
    <polygon class="cls-79" points="30.92 47.06 21.99 46.24 21.99 45.87 34.96 47.06 30.92 47.06"/>
    <polygon class="cls-79" points="21.99 46.24 30.92 47.06 21.99 47.06 21.99 46.24"/>
  </g>
  <ellipse class="cls-155" cx="37.06" cy="36.01" rx="1.43" ry=".67"/>
  <ellipse class="cls-155" cx="26.55" cy="35.61" rx=".67" ry="1.43" transform="translate(-12.04 57.62) rotate(-83)"/>
  <g>
    <path d="M31.68,36.42c-.09,0-.19,0-.28-.02-.62-.07-1.09-.34-1.4-.79-.06-.09-.04-.22.05-.28.09-.06.22-.04.28.05.24.36.6.56,1.11.62.51.06.95-.07,1.34-.38.09-.07.21-.06.28.03s.06.21-.03.28c-.4.32-.86.49-1.36.49Z"/>
    <path class="cls-74" d="M27.38,32.31c.39-.01.76.13,1.03.38.27.25.44.6.45,1s-.13.76-.38,1.03c-.25.27-.6.44-1,.45s-.76-.13-1.03-.38c-.27-.25-.44-.6-.45-1s.13-.76.38-1.03c.25-.27.6-.44,1-.45Z"/>
    <path class="cls-18" d="M27.45,33.51c0-.26-.22-.46-.48-.45s-.46.22-.45.48.22.46.48.45c.26,0,.46-.22.45-.48Z"/>
    <path class="cls-74" d="M36.04,32.68c.39-.01.76.13,1.03.38.27.25.44.6.45,1s-.13.76-.38,1.03c-.25.27-.6.44-1,.45s-.76-.13-1.03-.38c-.27-.25-.44-.6-.45-1s.13-.76.38-1.03c.25-.27.6-.44,1-.45Z"/>
    <g>
      <g>
        <path class="cls-153" d="M28.66,33.7c.02.68-.51,1.25-1.19,1.27s-1.25-.51-1.27-1.19.51-1.25,1.19-1.27,1.25.51,1.27,1.19ZM29.05,33.69c-.03-.9-.79-1.6-1.69-1.57s-1.6.79-1.57,1.69.79,1.6,1.69,1.57,1.6-.79,1.57-1.69Z"/>
        <path class="cls-153" d="M27.42,35.47c-.44,0-.86-.16-1.18-.46-.34-.32-.53-.74-.55-1.2-.02-.46.15-.9.46-1.24.32-.34.74-.53,1.2-.55.46-.02.9.15,1.24.46.34.32.53.74.55,1.2h0c.03.95-.72,1.76-1.67,1.79-.02,0-.04,0-.06,0ZM27.43,32.21s-.04,0-.05,0c-.41.01-.79.19-1.07.49-.28.3-.42.69-.41,1.1.01.41.19.79.49,1.07.3.28.69.42,1.1.41.84-.03,1.51-.74,1.48-1.58h0c-.01-.41-.19-.79-.49-1.07-.29-.27-.65-.41-1.04-.41ZM27.42,35.07c-.34,0-.66-.13-.91-.36-.26-.24-.41-.57-.42-.93-.01-.36.11-.69.36-.95.24-.26.57-.41.93-.42.73-.03,1.35.55,1.38,1.28.01.36-.11.69-.36.95-.24.26-.57.41-.93.42-.02,0-.03,0-.05,0ZM27.43,32.61s-.03,0-.04,0c-.3.01-.58.14-.79.36-.21.22-.31.51-.3.81.01.3.14.58.36.79.22.21.51.31.81.3.3-.01.58-.14.79-.36.21-.22.31-.51.3-.81-.02-.61-.52-1.09-1.13-1.09Z"/>
      </g>
      <g>
        <path class="cls-153" d="M37.32,34.06c.02.68-.51,1.25-1.19,1.27s-1.25-.51-1.27-1.19.51-1.25,1.19-1.27,1.25.51,1.27,1.19ZM37.72,34.05c-.03-.9-.79-1.6-1.69-1.57s-1.6.79-1.57,1.69.79,1.6,1.69,1.57,1.6-.79,1.57-1.69Z"/>
        <path class="cls-153" d="M36.09,35.84c-.93,0-1.7-.74-1.73-1.67-.03-.95.72-1.76,1.67-1.79.46-.02.9.15,1.24.46.34.32.53.74.55,1.2h0c.02.46-.15.9-.46,1.24-.32.34-.74.53-1.2.55-.02,0-.04,0-.06,0ZM36.09,32.58s-.04,0-.05,0c-.84.03-1.51.74-1.48,1.58.03.84.74,1.5,1.58,1.48.41-.01.79-.19,1.07-.49.28-.3.42-.69.41-1.1h0c-.01-.41-.19-.79-.49-1.07-.29-.27-.65-.41-1.04-.41ZM36.09,35.44c-.34,0-.66-.13-.91-.36-.26-.24-.41-.57-.42-.93-.03-.73.55-1.35,1.28-1.38.73-.03,1.35.55,1.38,1.28h0c.03.73-.55,1.35-1.28,1.38-.02,0-.03,0-.05,0ZM36.09,32.98s-.03,0-.04,0c-.62.02-1.11.55-1.09,1.17.01.3.14.58.36.79.22.21.51.31.81.3.62-.02,1.11-.55,1.09-1.17-.02-.61-.52-1.09-1.13-1.09Z"/>
      </g>
      <path class="cls-18" d="M36.12,33.87c0-.26-.22-.46-.48-.45s-.46.22-.45.48.22.46.48.45.46-.22.45-.48Z"/>
    </g>
  </g>
  <g>
    <g>
      <path class="cls-161" d="M29.34,44.33c-.1,0-.19-.04-.26-.11l-4.92-5.12c-.14-.15-.14-.38.01-.52.15-.14.38-.14.52.01l4.92,5.12c.14.15.14.38-.01.52-.07.07-.16.1-.25.1Z"/>
      <path class="cls-161" d="M25.55,43.13c-.09,0-.18-.03-.25-.1-.15-.14-.15-.37-.02-.52l3.13-3.33c.14-.15.37-.15.52-.02.15.14.15.37.02.52l-3.13,3.33c-.07.08-.17.12-.27.12Z"/>
    </g>
    <g>
      <path class="cls-161" d="M34.59,44.33c-.09,0-.18-.03-.25-.1-.15-.14-.15-.37-.01-.52l4.92-5.12c.14-.15.37-.15.52-.01.15.14.15.37.01.52l-4.92,5.12c-.07.07-.17.11-.26.11Z"/>
      <path class="cls-161" d="M38.39,43.13c-.1,0-.19-.04-.27-.12l-3.13-3.33c-.14-.15-.13-.38.02-.52.15-.14.38-.13.52.02l3.13,3.33c.14.15.13.38-.02.52-.07.07-.16.1-.25.1Z"/>
    </g>
    <g>
      <path class="cls-154" d="M30.74,31.16c-.09,0-.19-.04-.26-.11-.14-.14-.14-.37,0-.52l3.26-3.26c.14-.14.37-.14.52,0,.14.14.14.37,0,.52l-3.26,3.26c-.07.07-.17.11-.26.11Z"/>
      <path class="cls-154" d="M33.33,31.16c-.09,0-.19-.04-.26-.11l-3.26-3.26c-.14-.14-.14-.37,0-.52.14-.14.37-.14.52,0l3.26,3.26c.14.14.14.37,0,.52-.07.07-.17.11-.26.11Z"/>
    </g>
  </g>
</svg>